#N canvas 827 239 734 565 12;
#X text 369 178 MAIN MENU \; \; A - B - C \; \; \; SUB MENU 1 \; \; A \; 1 - 2 - 3 \; \; B \; 1 - 2 - 3 \; \; C \; 1 - 2 - 3 \; \; \; SUB MENU 2 \; \; A \; dry/wet \; \; B \; al - be \; \; C \; al - be \;;
#X obj 584 592 hradio 20 1 0 3 empty empty empty 0 -8 0 10 #ffffff #000000 #000000 0;
#X obj 738 592 hradio 20 1 0 3 empty empty empty 0 -8 0 10 #fcfcfc #000000 #000000 0;
#X obj 922 592 hradio 20 1 0 3 empty empty empty 0 -8 0 10 #fcfcfc #000000 #000000 0;
#X text 584 518 INPUTS;
#X text 578 1056 DISPLAYS;
#X obj 576 1174 hradio 20 1 0 3 empty empty empty 0 -8 0 10 #ffffff #000000 #000000 0;
#X text 584 557 KNOB 1;
#X text 738 557 KNOB 2;
#X text 922 557 KNOB 3;
#X text 479 1173 CHOOSE;
#X text 578 1091 MAIN;
#X text 739 1091 SUB 1;
#X text 1061 1087 SUB 2;
#X obj 738 1174 hradio 20 1 0 3 empty empty empty 0 -8 0 10 #ffffff #000000 #000000 0;
#X obj 1061 1171 hradio 20 1 0 3 empty empty empty 0 -8 0 10 #ffffff #000000 #000000 0;
#X obj 570 1706 hradio 20 1 0 3 empty empty empty 0 -8 0 10 #ffffff #000000 #000000 0;
#X obj 732 1706 hradio 20 1 0 3 empty empty empty 0 -8 0 10 #ffffff #000000 #000000 0;
#X obj 1055 1703 hradio 20 1 0 3 empty empty empty 0 -8 0 10 #ffffff #000000 #000000 0;
#X text 473 1705 SELECT;
#X obj 736 1337 hradio 20 1 0 3 empty empty empty 0 -8 0 10 #ffffff #000000 #000000 0;
#X obj 1059 1334 hradio 20 1 0 3 empty empty empty 0 -8 0 10 #ffffff #000000 #000000 0;
#X obj 732 1509 hradio 20 1 0 3 empty empty empty 0 -8 0 10 #ffffff #000000 #000000 0;
#X obj 1055 1506 hradio 20 1 0 3 empty empty empty 0 -8 0 10 #ffffff #000000 #000000 0;
#X obj 661 587 bng 25 250 50 0 empty empty empty 0 -10 0 10 #ffffff #000000 #000000;
#X obj 802 587 bng 25 250 50 0 empty empty empty 0 -10 0 10 #ffffff #000000 #000000;
#X obj 991 587 bng 25 250 50 0 empty empty empty 0 -10 0 10 #ffffff #000000 #000000;
#X obj 732 1878 hradio 20 1 0 3 empty empty empty 0 -8 0 10 #ffffff #000000 #000000 0;
#X obj 732 2039 hradio 20 1 0 3 empty empty empty 0 -8 0 10 #ffffff #000000 #000000 0;
#X obj 1053 1879 hradio 20 1 0 3 empty empty empty 0 -8 0 10 #ffffff #000000 #000000 0;
#X obj 1053 2036 hradio 20 1 0 3 empty empty empty 0 -8 0 10 #ffffff #000000 #000000 0;
#X obj 584 654 s main_ch;
#X obj 661 681 s main_se;
#X obj 661 654 i;
#X obj 576 1144 r main_ch;
#X obj 570 1666 r main_se;
#X obj 738 1144 r A_sub1_ch;
#X obj 736 1307 r B_sub1_ch;
#X obj 732 1479 r C_sub1_ch;
#X obj 1055 1475 r C_sub2_ch;
#X obj 1059 1303 r B_sub2_ch;
#X obj 1061 1140 r A_sub2_ch;
#X obj 744 727 gate 3;
#X obj 744 757 s A_sub1_ch;
#X obj 766 788 s B_sub1_ch;
#X obj 789 819 s C_sub1_ch;
#X obj 744 702 + 1;
#X obj 854 757 i;
#X obj 876 788 i;
#X obj 899 819 i;
#X obj 854 727 gate 3;
#X obj 854 702 + 1;
#X obj 854 892 s A_sub1_se;
#X obj 876 920 s B_sub1_se;
#X obj 899 953 s C_sub1_se;
#X obj 732 1666 r A_sub1_se;
#X obj 732 1848 r B_sub1_se;
#X obj 732 2009 r C_sub1_se;
#X obj 1053 2005 r C_sub2_se;
#X obj 1053 1848 r B_sub2_se;
#X obj 1055 1662 r A_sub2_se;
#X obj 974 713 gate 3;
#X obj 974 688 + 1;
#X obj 1084 743 i;
#X obj 1106 774 i;
#X obj 1129 805 i;
#X obj 1084 713 gate 3;
#X obj 1084 688 + 1;
#X obj 974 743 s A_sub2_ch;
#X obj 996 774 s B_sub2_ch;
#X obj 1019 805 s C_sub2_ch;
#X obj 1084 878 s A_sub2_se;
#X obj 1106 906 s B_sub2_se;
#X obj 1129 939 s C_sub2_se;
#X listbox 869 1879 11 0 0 0 - - - 12;
#X obj 869 1816 bng 25 250 50 0 empty empty empty 0 -10 0 10 #ffffff #000000 #000000;
#X obj 869 1780 t b f;
#X obj 911 1780 t b f;
#X floatatom 738 431 5 0 0 0 - - - 12;
#X obj 738 481 i;
#X obj 786 481 i;
#X obj 843 481 i;
#X floatatom 786 431 5 0 0 0 - - - 12;
#X floatatom 843 431 5 0 0 0 - - - 12;
#X obj 638 431 sel 0 1 2;
#X floatatom 932 431 5 0 0 0 - - - 12;
#X obj 932 481 i;
#X obj 978 481 i;
#X obj 1037 481 i;
#X floatatom 978 431 5 0 0 0 - - - 12;
#X floatatom 1037 431 5 0 0 0 - - - 12;
#X msg 1216 529 color \$1 \$2 \$3;
#X obj 1216 492 pack 0 22 22, f 20;
#X msg 1216 456 0;
#X msg 1252 456 12;
#X obj 780 654 spigot;
#X obj 899 654 spigot;
#X msg 1165 529 1;
#X msg 1184 529 0;
#X obj 1165 587 tgl 25 0 empty empty empty 0 -10 0 10 #ffffff #000000 #000000 0 1;
#X obj 1001 648 spigot;
#X obj 1127 648 spigot;
#X text 1149 428 turning on / off the submenu when main menu is in selection;
#X text 1779 958 DISPLAY;
#X text 1654 1011 MAIN MENU;
#X text 1654 1047 SUB MENU 1;
#X text 1654 1083 SUB MENU 2;
#X obj 1720 510 r main_ch;
#X obj 1720 558 sel 0 1 2;
#X text 1756 1190 comment;
#X obj 2037 389 sel 0 1;
#X msg 2037 597 color \$1 \$2 \$3;
#X obj 2037 560 pack 0 22 22, f 20;
#X obj 1766 1000 cnv 30 148 30 empty \$0-display_main interactive 9 15 0 16 #f430f0 #202020 0;
#X msg 1720 597 label static;
#X msg 1821 597 label interactive;
#X msg 1944 597 label freeze;
#X text 2146 454 label;
#X obj 2146 524 t b f;
#X text 2037 454 background;
#X floatatom 2084 485 5 0 0 0 - - - 12;
#X msg 2146 485 12;
#X msg 2037 524 9;
#X msg 2073 524 19;
#X text 2109 423 color;
#X obj 1189 619 s menu_mode;
#X obj 2037 351 r menu_mode;
#X obj 1345 619 tgl 25 0 empty empty empty 0 -10 0 10 #ffffff #000000 #000000 0 1;
#X msg 1345 587 0;
#X msg 1376 587 1;
#X obj 1345 651 s sub_mode;
#X obj 1499 617 tgl 25 0 empty empty empty 0 -10 0 10 #ffffff #000000 #000000 0 1;
#X msg 1499 585 0;
#X msg 1530 585 1;
#X obj 1499 649 s subsub_mode;
#X obj 2037 678 send \$0-display_main;
#X obj 2483 385 sel 0 1 2;
#X obj 2849 398 sel 0 1;
#X msg 2849 606 color \$1 \$2 \$3;
#X obj 2849 569 pack 0 22 22, f 20;
#X text 2958 463 label;
#X obj 2958 533 t b f;
#X text 2849 463 background;
#X floatatom 2896 494 5 0 0 0 - - - 12;
#X msg 2958 494 12;
#X msg 2849 533 9;
#X msg 2885 533 19;
#X text 2921 432 color;
#X obj 2849 687 send \$0-display_sub;
#X obj 1766 1046 cnv 30 148 30 empty \$0-display_sub preset_3_int 9 15 0 16 #f430f0 #202020 0;
#X obj 2849 337 r sub_mode;
#X obj 959 1779 t b f;
#X obj 869 1852 pack f f f f;
#X msg 732 1753 0;
#X msg 732 1909 1;
#X msg 732 2076 2;
#X listbox 1239 1869 11 0 0 0 - - - 12;
#X obj 1239 1806 bng 25 250 50 0 empty empty empty 0 -10 0 10 #ffffff #000000 #000000;
#X obj 1239 1770 t b f;
#X obj 1281 1770 t b f;
#X obj 1329 1769 t b f;
#X obj 1239 1842 pack f f f f;
#X msg 1055 1730 0;
#X msg 1053 1906 1;
#X msg 1053 2063 2;
#X listbox 877 1346 11 0 0 0 - - - 12;
#X obj 877 1283 bng 25 250 50 0 empty empty empty 0 -10 0 10 #ffffff #000000 #000000;
#X obj 877 1247 t b f;
#X obj 919 1247 t b f;
#X obj 967 1246 t b f;
#X obj 877 1319 pack f f f f;
#X listbox 1223 1349 11 0 0 0 - - - 12;
#X obj 1223 1286 bng 25 250 50 0 empty empty empty 0 -10 0 10 #ffffff #000000 #000000;
#X obj 1223 1250 t b f;
#X obj 1265 1250 t b f;
#X obj 1313 1249 t b f;
#X obj 1223 1322 pack f f f f;
#X msg 738 1201 0;
#X msg 736 1364 1;
#X msg 732 1536 2;
#X msg 1061 1198 0;
#X msg 1059 1361 1;
#X msg 1055 1533 2;
#X obj 738 372 unpack i i i i;
#X obj 932 372 unpack i i i i;
#X obj 877 1376 s sub1_ch;
#X obj 1223 1379 s sub2_ch;
#X obj 1239 1899 s sub2_se;
#X obj 869 1909 s sub1_se;
#X obj 738 346 r sub1_se;
#X obj 932 346 r sub2_se;
#X obj 2346 -3 r sub1_ch;
#X msg 2483 424 label preset_1_st;
#X msg 2584 424 label preset_2_st;
#X msg 2695 424 label preset_3_st;
#X obj 2419 203 unpack i i i i;
#X obj 2419 298 + 1;
#X obj 2483 338 gate 3;
#X obj 2417 434 gate 3;
#X obj 2356 571 gate 3;
#X obj 2439 500 sel 0 1 2;
#X obj 2401 610 sel 0 1 2;
#X msg 2439 539 label preset_1_int;
#X msg 2556 539 label preset_2_int;
#X msg 2679 539 label preset_3_int;
#X msg 2401 649 label preset_1_fr;
#X msg 2502 649 label preset_2_fr;
#X msg 2613 649 label preset_3_fr;
#X floatatom 2572 385 5 0 0 0 - - - 12;
#X obj 2789 209 r menu_mode;
#X obj 2789 235 sel 0;
#X msg 2789 268 30;
#X msg 2823 268 0;
#X text 1720 280 MAIN MENU;
#X text 2789 171 make everythin white \; when main menu in choose mode;
#X obj 3431 438 sel 0 1 2;
#X obj 3785 426 sel 0 1;
#X msg 3785 634 color \$1 \$2 \$3;
#X obj 3785 597 pack 0 22 22, f 20;
#X text 3894 491 label;
#X obj 3894 561 t b f;
#X text 3785 491 background;
#X floatatom 3832 522 5 0 0 0 - - - 12;
#X msg 3894 522 12;
#X msg 3785 561 9;
#X msg 3821 561 19;
#X text 3857 460 color;
#X obj 3355 231 unpack i i i i;
#X obj 3355 326 + 1;
#X obj 3431 391 gate 3;
#X obj 3365 568 gate 3;
#X obj 3263 728 gate 3;
#X obj 3387 634 sel 0 1 2;
#X obj 3308 767 sel 0 1 2;
#X floatatom 3520 438 5 0 0 0 - - - 12;
#X obj 3725 237 r menu_mode;
#X obj 3725 263 sel 0;
#X msg 3725 296 30;
#X msg 3759 296 0;
#X text 3725 199 make everythin white \; when main menu in choose mode;
#X obj 1766 1088 cnv 30 148 30 empty \$0-display_subsub train_custom_fr 9 15 0 16 #fcfcfc #fcfcfc 0;
#X obj 3785 715 send \$0-display_subsub;
#X msg 3532 477 label dry/wet0.5_st;
#X msg 3431 477 label dry/wet0_st;
#X msg 3643 477 label dry/wet1_st;
#X msg 3387 673 label train_custom_int;
#X msg 3504 700 label train_random_int;
#X msg 3308 806 label train_custom_fr;
#X msg 3412 830 label train_random_fr;
#X msg 3607 728 label XY_int;
#X msg 3537 857 label XY_fr;
#X obj 3785 388 r subsub_mode;
#X text 2379 -132 SUB1 MENU;
#X text 3308 116 SUB2 MENU;
#X obj 3355 180 r sub2_ch;
#X text 2431 256 show in display which option is chosen;
#X obj 2346 149 spigot;
#X obj 2385 35 r menu_mode;
#X msg 2385 87 1;
#X obj 2385 113 tgl 25 0 empty empty empty 0 -10 0 10 #ffffff #000000 #000000 0 1;
#X obj 2385 61 sel 1;
#X msg 2416 85 0;
#X text 2316 842 show in display which option is selected \, matching the choose option in main menu;
#X text 799 1938 first number: which main menu is selected \; \; numbers after are selections of sub 1;
#X text 1169 1928 first number: which main menu is selected \; \; numbers after are selections of sub 1;
#X text 1153 1408 first number: which main menu is selected \; numbers after are choosings of sub 2;
#X text 807 1405 first number: which main menu is selected \; \; numbers after are choosings of sub 1;
#X text 2316 812 TO DO;
#X connect 1 0 31 0;
#X connect 1 0 33 1;
#X connect 1 0 84 0;
#X connect 1 0 94 0;
#X connect 2 0 95 0;
#X connect 2 0 128 0;
#X connect 3 0 100 0;
#X connect 3 0 132 0;
#X connect 14 0 177 0;
#X connect 14 0 167 0;
#X connect 15 0 180 0;
#X connect 15 0 173 0;
#X connect 17 0 153 0;
#X connect 17 0 76 0;
#X connect 18 0 162 0;
#X connect 18 0 158 0;
#X connect 18 0 175 0;
#X connect 20 0 178 0;
#X connect 20 0 168 0;
#X connect 21 0 181 0;
#X connect 21 0 174 0;
#X connect 22 0 179 0;
#X connect 22 0 169 0;
#X connect 23 0 182 0;
#X connect 23 0 175 0;
#X connect 24 0 33 0;
#X connect 24 0 93 0;
#X connect 25 0 96 0;
#X connect 25 0 129 0;
#X connect 26 0 101 0;
#X connect 26 0 133 0;
#X connect 27 0 154 0;
#X connect 27 0 77 0;
#X connect 28 0 155 0;
#X connect 28 0 151 0;
#X connect 29 0 163 0;
#X connect 29 0 159 0;
#X connect 30 0 164 0;
#X connect 30 0 160 0;
#X connect 33 0 32 0;
#X connect 33 0 46 0;
#X connect 33 0 51 0;
#X connect 33 0 62 0;
#X connect 33 0 67 0;
#X connect 34 0 6 0;
#X connect 35 0 16 0;
#X connect 36 0 14 0;
#X connect 37 0 20 0;
#X connect 38 0 22 0;
#X connect 39 0 23 0;
#X connect 40 0 21 0;
#X connect 41 0 15 0;
#X connect 42 0 43 0;
#X connect 42 0 47 1;
#X connect 42 1 44 0;
#X connect 42 1 48 1;
#X connect 42 2 45 0;
#X connect 42 2 49 1;
#X connect 46 0 42 0;
#X connect 47 0 52 0;
#X connect 48 0 53 0;
#X connect 49 0 54 0;
#X connect 50 0 47 0;
#X connect 50 1 48 0;
#X connect 50 2 49 0;
#X connect 51 0 50 0;
#X connect 55 0 17 0;
#X connect 56 0 27 0;
#X connect 57 0 28 0;
#X connect 58 0 30 0;
#X connect 59 0 29 0;
#X connect 60 0 18 0;
#X connect 61 0 63 1;
#X connect 61 0 68 0;
#X connect 61 1 64 1;
#X connect 61 1 69 0;
#X connect 61 2 65 1;
#X connect 61 2 70 0;
#X connect 62 0 61 0;
#X connect 63 0 71 0;
#X connect 64 0 72 0;
#X connect 65 0 73 0;
#X connect 66 0 63 0;
#X connect 66 1 64 0;
#X connect 66 2 65 0;
#X connect 67 0 66 0;
#X connect 74 0 188 0;
#X connect 75 0 152 0;
#X connect 76 0 75 0;
#X connect 76 1 152 1;
#X connect 77 0 75 0;
#X connect 77 1 152 2;
#X connect 78 0 79 1;
#X connect 79 0 2 0;
#X connect 80 0 2 0;
#X connect 81 0 2 0;
#X connect 82 0 80 1;
#X connect 83 0 81 1;
#X connect 84 0 79 0;
#X connect 84 0 86 0;
#X connect 84 1 80 0;
#X connect 84 1 87 0;
#X connect 84 2 81 0;
#X connect 84 2 88 0;
#X connect 85 0 86 1;
#X connect 86 0 3 0;
#X connect 87 0 3 0;
#X connect 88 0 3 0;
#X connect 89 0 87 1;
#X connect 90 0 88 1;
#X connect 91 0 2 0;
#X connect 91 0 3 0;
#X connect 92 0 91 0;
#X connect 93 0 92 0;
#X connect 93 0 97 0;
#X connect 94 0 92 0;
#X connect 94 0 98 0;
#X connect 95 0 42 1;
#X connect 96 0 50 1;
#X connect 97 0 99 0;
#X connect 98 0 99 0;
#X connect 99 0 101 1;
#X connect 99 0 95 1;
#X connect 99 0 96 1;
#X connect 99 0 100 1;
#X connect 99 0 125 0;
#X connect 100 0 61 1;
#X connect 101 0 66 1;
#X connect 107 0 108 0;
#X connect 108 0 114 0;
#X connect 108 1 115 0;
#X connect 108 2 116 0;
#X connect 110 0 122 0;
#X connect 110 1 123 0;
#X connect 110 1 121 0;
#X connect 111 0 135 0;
#X connect 112 0 111 0;
#X connect 114 0 135 0;
#X connect 115 0 135 0;
#X connect 116 0 135 0;
#X connect 118 0 112 0;
#X connect 118 1 112 2;
#X connect 120 0 112 0;
#X connect 121 0 118 0;
#X connect 122 0 112 0;
#X connect 123 0 112 0;
#X connect 126 0 110 0;
#X connect 127 0 130 0;
#X connect 128 0 127 0;
#X connect 129 0 127 0;
#X connect 131 0 134 0;
#X connect 132 0 131 0;
#X connect 133 0 131 0;
#X connect 136 0 192 0;
#X connect 136 1 193 0;
#X connect 136 2 194 0;
#X connect 137 0 145 0;
#X connect 137 0 144 0;
#X connect 137 1 146 0;
#X connect 137 1 144 0;
#X connect 138 0 148 0;
#X connect 139 0 138 0;
#X connect 141 0 139 0;
#X connect 141 1 139 2;
#X connect 143 0 139 0;
#X connect 144 0 141 0;
#X connect 145 0 139 0;
#X connect 146 0 139 0;
#X connect 150 0 137 0;
#X connect 151 0 75 0;
#X connect 151 1 152 3;
#X connect 152 0 74 0;
#X connect 153 0 152 0;
#X connect 154 0 152 0;
#X connect 155 0 152 0;
#X connect 156 0 187 0;
#X connect 157 0 161 0;
#X connect 158 0 157 0;
#X connect 158 1 161 1;
#X connect 159 0 157 0;
#X connect 159 1 161 2;
#X connect 160 0 157 0;
#X connect 160 1 161 3;
#X connect 161 0 156 0;
#X connect 162 0 161 0;
#X connect 163 0 161 0;
#X connect 164 0 161 0;
#X connect 165 0 185 0;
#X connect 166 0 170 0;
#X connect 167 0 166 0;
#X connect 167 1 170 1;
#X connect 168 0 166 0;
#X connect 168 1 170 2;
#X connect 169 0 166 0;
#X connect 169 1 170 3;
#X connect 170 0 165 0;
#X connect 171 0 186 0;
#X connect 172 0 176 0;
#X connect 173 0 172 0;
#X connect 173 1 176 1;
#X connect 174 0 172 0;
#X connect 174 1 176 2;
#X connect 175 0 172 0;
#X connect 175 1 176 3;
#X connect 176 0 171 0;
#X connect 177 0 170 0;
#X connect 178 0 170 0;
#X connect 179 0 170 0;
#X connect 180 0 176 0;
#X connect 181 0 176 0;
#X connect 182 0 176 0;
#X connect 183 1 78 0;
#X connect 183 2 82 0;
#X connect 183 3 83 0;
#X connect 184 1 85 0;
#X connect 184 2 89 0;
#X connect 184 3 90 0;
#X connect 189 0 183 0;
#X connect 190 0 184 0;
#X connect 191 0 256 0;
#X connect 192 0 148 0;
#X connect 193 0 148 0;
#X connect 194 0 148 0;
#X connect 195 0 196 0;
#X connect 195 1 197 1;
#X connect 195 2 198 1;
#X connect 195 3 199 1;
#X connect 196 0 197 0;
#X connect 196 0 198 0;
#X connect 196 0 199 0;
#X connect 197 0 136 0;
#X connect 197 0 208 0;
#X connect 198 1 200 0;
#X connect 199 2 201 0;
#X connect 200 0 202 0;
#X connect 200 1 203 0;
#X connect 200 2 204 0;
#X connect 201 0 205 0;
#X connect 201 1 206 0;
#X connect 201 2 207 0;
#X connect 202 0 148 0;
#X connect 203 0 148 0;
#X connect 204 0 148 0;
#X connect 205 0 148 0;
#X connect 206 0 148 0;
#X connect 207 0 148 0;
#X connect 209 0 210 0;
#X connect 210 0 211 0;
#X connect 210 0 212 0;
#X connect 215 0 243 0;
#X connect 215 1 242 0;
#X connect 215 2 244 0;
#X connect 216 0 224 0;
#X connect 216 0 223 0;
#X connect 216 1 225 0;
#X connect 216 1 223 0;
#X connect 217 0 241 0;
#X connect 218 0 217 0;
#X connect 220 0 218 0;
#X connect 220 1 218 2;
#X connect 222 0 218 0;
#X connect 223 0 220 0;
#X connect 224 0 218 0;
#X connect 225 0 218 0;
#X connect 227 0 228 0;
#X connect 227 1 229 1;
#X connect 227 2 230 1;
#X connect 227 3 231 1;
#X connect 228 0 229 0;
#X connect 228 0 230 0;
#X connect 228 0 231 0;
#X connect 229 0 215 0;
#X connect 229 0 234 0;
#X connect 230 1 232 0;
#X connect 231 2 233 0;
#X connect 232 0 245 0;
#X connect 232 1 246 0;
#X connect 232 2 249 0;
#X connect 233 0 247 0;
#X connect 233 1 248 0;
#X connect 233 2 250 0;
#X connect 235 0 236 0;
#X connect 236 0 237 0;
#X connect 236 0 238 0;
#X connect 237 0 220 0;
#X connect 237 0 218 0;
#X connect 242 0 241 0;
#X connect 243 0 241 0;
#X connect 244 0 241 0;
#X connect 245 0 241 0;
#X connect 246 0 241 0;
#X connect 247 0 241 0;
#X connect 248 0 241 0;
#X connect 249 0 241 0;
#X connect 250 0 241 0;
#X connect 251 0 216 0;
#X connect 254 0 227 0;
#X connect 256 0 195 0;
#X connect 257 0 260 0;
#X connect 258 0 259 0;
#X connect 259 0 256 1;
#X connect 260 0 258 0;
#X connect 260 1 261 0;
#X connect 261 0 259 0;
