#N canvas 0 62 1920 986 12;
#N canvas 0 0 450 250 (subpatch) 0;
#X array \$0-array-sensor2 300 float 0;
#X coords 0 1 299 0 400 140 1;
#X restore -31 -181 graph;
#N canvas 0 0 450 250 (subpatch) 0;
#X array \$0-array-sensor1 300 float 0;
#X coords 0 1 299 0 400 140 1;
#X restore -484 -181 graph;
#N canvas 0 22 450 300 oled_display 0;
#X restore -153 530 pd oled_display;
#X obj 1485 865 out~;
#X msg 1386 803 mute;
#X msg 1589 798 set \$1;
#X obj -153 413 hradio 20 1 0 3 empty empty empty 0 -8 0 10 #cbffc8 #000000 #000000 0;
#X obj -10 413 hradio 20 1 0 3 empty empty empty 0 -8 0 10 #cbffc8 #000000 #000000 0;
#X obj 178 413 hradio 20 1 0 3 empty empty empty 0 -8 0 10 #cbffc8 #000000 #000000 0;
#X obj -153 356 hradio 20 1 0 3 empty empty empty 0 -8 0 10 #cbffc8 #000000 #000000 0;
#X obj -10 356 hradio 20 1 0 3 empty empty empty 0 -8 0 10 #cbffc8 #000000 #000000 0;
#X obj 178 356 hradio 20 1 0 3 empty empty empty 0 -8 0 10 #cbffc8 #000000 #000000 0;
#X obj 1023 780 vsl 17 128 0 1 0 0 empty empty VOUME 0 -9 0 10 #cbffc8 #000000 #000000 0 1;
#X obj 890 659 r select_predict;
#X obj 1031 659 vradio 17 1 0 2 empty empty SELECT\ /\ PREDICT 0 -10 0 12 #cbffc8 #000000 #000000 0;
#X obj 1175 794 tgl 25 0 empty empty MUTE 0 -10 0 10 #cbffc8 #000000 #000000 0 1;
#X obj 930 712 tgl 25 0 empty empty empty 0 -10 0 10 #ffffff #000000 #000000 0 1;
#X obj 890 686 loadbang;
#X msg 890 712 0;
#X obj 1031 437 vsl 17 128 0 1 0 0 empty empty DRY/WET\ STATIC 0 -9 0 10 #cbffc8 #000000 #000000 0 1;
#X obj 1128 -125 vsl 19 162 0 1 0 0 empty empty empty 0 -9 0 12 #ff96ff #000000 #000000 0 1;
#X obj 1169 -125 vsl 19 162 0 1 0 0 empty empty empty 0 -9 0 12 #ff96ff #000000 #000000 0 1;
#X obj 1211 -125 vsl 19 162 0 1 0 0 empty empty empty 0 -9 0 12 #ff96ff #000000 #000000 0 1;
#X obj 1253 -125 vsl 19 162 0 1 0 0 empty empty empty 0 -9 0 12 #ff96ff #000000 #000000 0 1;
#X obj 966 53 bng 25 250 50 0 empty empty empty 0 -10 0 10 #ff96ff #505050 #373737;
#X obj 1008 53 bng 25 250 50 0 empty empty empty 0 -10 0 10 #ff96ff #505050 #373737;
#X obj 1050 53 bng 25 250 50 0 empty empty empty 0 -10 0 10 #ff96ff #505050 #373737;
#X obj 1092 53 bng 25 250 50 0 empty empty empty 0 -10 0 10 #ff96ff #505050 #373737;
#X obj 1128 53 bng 25 250 50 0 empty empty empty 0 -10 0 10 #ff96ff #505050 #373737;
#X obj 1169 53 bng 25 250 50 0 empty empty empty 0 -10 0 10 #ff96ff #505050 #373737;
#X obj 1211 53 bng 25 250 50 0 empty empty empty 0 -10 0 10 #ff96ff #505050 #373737;
#X obj 1464 -127 s knob1;
#X obj 1464 -103 s knob2;
#X obj 1464 -79 s knob3;
#X obj 1464 -55 s knob4;
#X msg 1507 278 set \$1;
#X floatatom 1507 238 5 0 0 0 - - - 12;
#X obj 1257 57 bng 25 250 50 0 empty empty empty 0 -10 0 10 #ff96ff #505050 #373737;
#X obj 965 185 s butt1;
#X obj 1007 211 s butt2;
#X obj 1049 238 s butt3;
#X obj 1091 265 s butt4;
#X text 951 237 add data points;
#X text 1049 264 learn;
#X text 1522 -128 main menu choose;
#X text 1522 -104 sub menu choose;
#X text 1522 -56 volume;
#X text 1220 184 main menu select;
#X text 1267 210 sub menu select;
#X text 1357 264 mute;
#X obj -268 224 r main_menu_choose;
#X obj -268 251 r main_menu_state;
#X text -153 383 MAIN MENU;
#X text -10 383 SUB MENU;
#X text 178 383 SUBSUB MENU;
#X obj -102 224 r sub_menu_choose;
#X obj 86 224 r subsub_menu_choose;
#X obj -102 251 r sub_menu_state;
#X obj 86 251 r subsub_menu_state;
#X obj 1127 185 s knob1_press;
#X obj 1169 211 s knob2_press;
#X obj 1211 238 s knob3_press;
#X obj 1257 265 s knob4_press;
#X obj 1386 756 r knob4_press;
#X obj 1072 794 r knob4_press;
#X obj 1589 765 r knob4;
#X obj 890 784 r knob4;
#X text 875 210 first/ next parameter;
#N canvas 0 22 450 300 menu 0;
#N canvas 0 22 450 300 notes 0;
#X obj 743 305 pitch.shift~;
#X obj 859 305 revdelay~;
#X obj 670 305 del~;
#X obj 582 305 ffdelay~;
#X restore 1162 471 pd notes;
#X floatatom 259 173 5 0 0 0 - - - 16;
#X obj 259 207 < 0.25;
#X obj 465 207 > 0.75;
#X msg 259 271 0;
#X msg 465 271 2;
#X obj 259 239 sel 1;
#X obj 465 239 sel 1;
#X obj 326 207 >= 0.25;
#X obj 395 207 <= 0.75;
#X obj 395 239 tgl 25 0 empty empty empty 0 -10 0 10 #ffffff #000000 #000000 0 1;
#X obj 326 239 tgl 25 0 empty empty empty 0 -10 0 10 #ffffff #000000 #000000 0 1;
#X obj 326 271 ==;
#X obj 326 294 sel 1;
#X msg 326 320 1;
#X obj 368 394 hradio 20 1 0 3 empty empty empty 0 -8 0 10 #ffffff #000000 #000000 0;
#X obj 259 141 r knob1;
#X floatatom 620 239 5 0 0 0 - - - 16;
#X obj 620 275 < 0.25;
#X obj 826 275 > 0.75;
#X msg 620 339 0;
#X msg 826 339 2;
#X obj 620 307 sel 1;
#X obj 826 307 sel 1;
#X obj 687 275 >= 0.25;
#X obj 756 275 <= 0.75;
#X obj 756 307 tgl 25 0 empty empty empty 0 -10 0 10 #ffffff #000000 #000000 0 1;
#X obj 687 307 tgl 25 0 empty empty empty 0 -10 0 10 #ffffff #000000 #000000 0 1;
#X obj 687 339 ==;
#X obj 687 362 sel 1;
#X msg 687 388 1;
#X obj 622 112 r knob2;
#X floatatom 994 173 5 0 0 0 - - - 16;
#X obj 994 207 < 0.25;
#X obj 1200 207 > 0.75;
#X msg 994 271 0;
#X msg 1200 271 2;
#X obj 994 239 sel 1;
#X obj 1200 239 sel 1;
#X obj 1061 207 >= 0.25;
#X obj 1130 207 <= 0.75;
#X obj 1130 239 tgl 25 0 empty empty empty 0 -10 0 10 #ffffff #000000 #000000 0 1;
#X obj 1061 239 tgl 25 0 empty empty empty 0 -10 0 10 #ffffff #000000 #000000 0 1;
#X obj 1061 271 ==;
#X obj 1061 294 sel 1;
#X msg 1061 320 1;
#X obj 994 141 r knob3;
#X obj 259 431 f;
#X obj 738 494 hradio 20 1 0 3 empty empty empty 0 -8 0 10 #ffffff #000000 #000000 0;
#X obj 619 562 f;
#X obj 1099 394 hradio 20 1 0 3 empty empty empty 0 -8 0 10 #ffffff #000000 #000000 0;
#X obj 990 431 f;
#X obj 259 487 hradio 20 1 0 3 empty empty empty 0 -8 0 10 #ffffff #000000 #000000 0;
#X obj 619 618 hradio 20 1 0 3 empty empty empty 0 -8 0 10 #ffffff #000000 #000000 0;
#X obj 990 487 hradio 20 1 0 3 empty empty empty 0 -8 0 10 #ffffff #000000 #000000 0;
#X obj 368 431 s main_menu_choose;
#X obj 259 526 s main_menu_state;
#X obj 1099 431 s subsub_menu_choose;
#X obj 990 526 s subsub_menu_state;
#X text 259 24 MAIN MENU;
#X text 622 24 SUB MENU;
#X text 994 24 SUBSUB MENU;
#X obj 259 394 r knob1_press;
#X obj 636 458 r knob2_press;
#X obj 990 394 r knob3_press;
#X text 622 66 STATIC;
#X obj 620 201 gate 2;
#X obj 793 107 r main_menu_state;
#X obj 793 133 sel 0;
#X msg 843 159 1;
#X msg 869 159 0;
#X obj 793 159 t b b;
#X obj 721 245 s knob2_update;
#X floatatom 775 219 5 0 0 0 - - - 12;
#X obj 721 219 f;
#X obj 619 528 gate 2;
#X obj 620 173 r gate_static;
#X floatatom 619 869 5 0 0 0 - - - 16;
#X obj 619 905 < 0.25;
#X obj 825 905 > 0.75;
#X msg 619 969 0;
#X msg 825 969 2;
#X obj 619 937 sel 1;
#X obj 825 937 sel 1;
#X obj 686 905 >= 0.25;
#X obj 755 905 <= 0.75;
#X obj 755 937 tgl 25 0 empty empty empty 0 -10 0 10 #ffffff #000000 #000000 0 1;
#X obj 686 937 tgl 25 0 empty empty empty 0 -10 0 10 #ffffff #000000 #000000 0 1;
#X obj 686 969 ==;
#X obj 686 992 sel 1;
#X msg 686 1018 1;
#X obj 621 742 r knob2;
#X obj 737 1124 hradio 20 1 0 3 empty empty empty 0 -8 0 10 #ffffff #000000 #000000 0;
#X obj 618 1192 f;
#X obj 618 1248 hradio 20 1 0 3 empty empty empty 0 -8 0 10 #ffffff #000000 #000000 0;
#X obj 618 1087 r knob2_press;
#X obj 619 831 gate 2;
#X obj 792 737 r main_menu_state;
#X msg 842 789 1;
#X msg 868 789 0;
#X obj 792 789 t b b;
#X obj 720 875 s knob2_update;
#X floatatom 774 849 5 0 0 0 - - - 12;
#X obj 720 849 f;
#X obj 618 1158 gate 2;
#X text 621 696 INTERACTIVE;
#X obj 842 821 s gate_interactive;
#X obj 619 803 r gate_interactive;
#X obj 618 1124 r gate_interactive;
#X floatatom 608 1489 5 0 0 0 - - - 16;
#X obj 608 1525 < 0.25;
#X obj 814 1525 > 0.75;
#X msg 608 1589 0;
#X msg 814 1589 2;
#X obj 608 1557 sel 1;
#X obj 814 1557 sel 1;
#X obj 675 1525 >= 0.25;
#X obj 744 1525 <= 0.75;
#X obj 744 1557 tgl 25 0 empty empty empty 0 -10 0 10 #ffffff #000000 #000000 0 1;
#X obj 675 1557 tgl 25 0 empty empty empty 0 -10 0 10 #ffffff #000000 #000000 0 1;
#X obj 675 1589 ==;
#X obj 675 1612 sel 1;
#X msg 675 1638 1;
#X obj 610 1362 r knob2;
#X obj 607 1812 f;
#X obj 607 1868 hradio 20 1 0 3 empty empty empty 0 -8 0 10 #ffffff #000000 #000000 0;
#X obj 607 1707 r knob2_press;
#X obj 608 1451 gate 2;
#X obj 781 1357 r main_menu_state;
#X msg 831 1409 1;
#X msg 857 1409 0;
#X obj 781 1409 t b b;
#X obj 709 1495 s knob2_update;
#X floatatom 763 1469 5 0 0 0 - - - 12;
#X obj 709 1469 f;
#X obj 607 1778 gate 2;
#X obj 731 1896 s sub_menu_state;
#X obj 731 1865 gate 2;
#X text 610 1316 FREEZE;
#X obj 831 1441 s gate_freeze;
#X obj 608 1423 r gate_freeze;
#X obj 607 1744 r gate_freeze;
#X obj 731 1793 r gate_freeze;
#X obj 792 763 sel 1;
#X obj 781 1383 sel 2;
#X obj 731 1819 t b f;
#X obj 781 1278 s sub_menu_state;
#X obj 781 1247 gate 2;
#X obj 781 1201 t b f;
#X obj 781 1175 r gate_interactive;
#X obj 738 633 s sub_menu_state;
#X obj 738 602 gate 2;
#X obj 738 556 t b f;
#X obj 738 458 gate 2;
#X obj 814 494 s sub_menu_choose;
#X obj 737 1082 gate 2;
#X obj 807 1124 s sub_menu_choose;
#X obj 737 1048 r gate_interactive;
#X obj 733 1744 hradio 20 1 0 3 empty empty empty 0 -8 0 10 #ffffff #000000 #000000 0;
#X obj 733 1702 gate 2;
#X obj 803 1744 s sub_menu_choose;
#X obj 733 1668 r gate_freeze;
#X obj 1229 769 route;
#X obj 1345 863 spigot;
#X text 983 646 das problem ist \, dass wenn ich zb neue preset state setze bei menu2 \, dann aktualisiert sich der wert des reglers auch in menu1 und menu3 \; \; warum? \; weil;
#X connect 1 0 2 0;
#X connect 1 0 3 0;
#X connect 1 0 8 0;
#X connect 1 0 9 0;
#X connect 2 0 6 0;
#X connect 3 0 7 0;
#X connect 4 0 15 0;
#X connect 5 0 15 0;
#X connect 6 0 4 0;
#X connect 7 0 5 0;
#X connect 8 0 11 0;
#X connect 9 0 10 0;
#X connect 10 0 12 1;
#X connect 11 0 12 0;
#X connect 12 0 13 0;
#X connect 13 0 14 0;
#X connect 14 0 15 0;
#X connect 15 0 47 1;
#X connect 15 0 55 0;
#X connect 16 0 1 0;
#X connect 17 0 18 0;
#X connect 17 0 19 0;
#X connect 17 0 24 0;
#X connect 17 0 25 0;
#X connect 17 0 74 1;
#X connect 18 0 22 0;
#X connect 19 0 23 0;
#X connect 20 0 153 1;
#X connect 21 0 153 1;
#X connect 22 0 20 0;
#X connect 23 0 21 0;
#X connect 24 0 27 0;
#X connect 25 0 26 0;
#X connect 26 0 28 1;
#X connect 27 0 28 0;
#X connect 28 0 29 0;
#X connect 29 0 30 0;
#X connect 30 0 153 1;
#X connect 31 0 66 1;
#X connect 32 0 33 0;
#X connect 32 0 34 0;
#X connect 32 0 39 0;
#X connect 32 0 40 0;
#X connect 33 0 37 0;
#X connect 34 0 38 0;
#X connect 35 0 50 0;
#X connect 36 0 50 0;
#X connect 37 0 35 0;
#X connect 38 0 36 0;
#X connect 39 0 42 0;
#X connect 40 0 41 0;
#X connect 41 0 43 1;
#X connect 42 0 43 0;
#X connect 43 0 44 0;
#X connect 44 0 45 0;
#X connect 45 0 50 0;
#X connect 46 0 32 0;
#X connect 47 0 52 0;
#X connect 48 0 49 1;
#X connect 48 0 154 0;
#X connect 49 0 53 0;
#X connect 50 0 51 1;
#X connect 50 0 57 0;
#X connect 51 0 54 0;
#X connect 52 0 56 0;
#X connect 53 0 151 1;
#X connect 54 0 58 0;
#X connect 62 0 47 0;
#X connect 63 0 75 1;
#X connect 64 0 51 0;
#X connect 66 0 17 0;
#X connect 67 0 68 0;
#X connect 68 0 71 0;
#X connect 68 1 70 0;
#X connect 69 0 153 0;
#X connect 69 0 75 0;
#X connect 69 0 152 0;
#X connect 70 0 75 0;
#X connect 70 0 152 0;
#X connect 70 0 153 0;
#X connect 71 0 69 0;
#X connect 71 1 74 0;
#X connect 74 0 72 0;
#X connect 74 0 73 0;
#X connect 75 0 49 0;
#X connect 76 0 66 0;
#X connect 77 0 78 0;
#X connect 77 0 79 0;
#X connect 77 0 84 0;
#X connect 77 0 85 0;
#X connect 77 0 103 1;
#X connect 78 0 82 0;
#X connect 79 0 83 0;
#X connect 80 0 155 1;
#X connect 81 0 155 1;
#X connect 82 0 80 0;
#X connect 83 0 81 0;
#X connect 84 0 87 0;
#X connect 85 0 86 0;
#X connect 86 0 88 1;
#X connect 87 0 88 0;
#X connect 88 0 89 0;
#X connect 89 0 90 0;
#X connect 90 0 155 1;
#X connect 91 0 96 1;
#X connect 92 0 93 1;
#X connect 92 0 156 0;
#X connect 93 0 94 0;
#X connect 94 0 147 1;
#X connect 95 0 104 1;
#X connect 96 0 77 0;
#X connect 97 0 143 0;
#X connect 98 0 106 0;
#X connect 99 0 106 0;
#X connect 100 0 98 0;
#X connect 100 1 103 0;
#X connect 103 0 101 0;
#X connect 103 0 102 0;
#X connect 104 0 93 0;
#X connect 107 0 96 0;
#X connect 108 0 104 0;
#X connect 109 0 110 0;
#X connect 109 0 111 0;
#X connect 109 0 116 0;
#X connect 109 0 117 0;
#X connect 109 0 134 1;
#X connect 110 0 114 0;
#X connect 111 0 115 0;
#X connect 112 0 159 1;
#X connect 113 0 159 1;
#X connect 114 0 112 0;
#X connect 115 0 113 0;
#X connect 116 0 119 0;
#X connect 117 0 118 0;
#X connect 118 0 120 1;
#X connect 119 0 120 0;
#X connect 120 0 121 0;
#X connect 121 0 122 0;
#X connect 122 0 159 1;
#X connect 123 0 127 1;
#X connect 124 0 125 0;
#X connect 125 0 137 1;
#X connect 126 0 135 1;
#X connect 127 0 109 0;
#X connect 128 0 144 0;
#X connect 129 0 139 0;
#X connect 130 0 139 0;
#X connect 131 0 129 0;
#X connect 131 1 134 0;
#X connect 134 0 132 0;
#X connect 134 0 133 0;
#X connect 135 0 124 0;
#X connect 137 0 136 0;
#X connect 140 0 127 0;
#X connect 141 0 135 0;
#X connect 142 0 145 0;
#X connect 143 0 100 0;
#X connect 143 1 99 0;
#X connect 144 0 131 0;
#X connect 144 1 130 0;
#X connect 145 0 125 0;
#X connect 145 1 137 0;
#X connect 147 0 146 0;
#X connect 148 0 94 0;
#X connect 148 1 147 0;
#X connect 149 0 148 0;
#X connect 151 0 150 0;
#X connect 152 0 53 0;
#X connect 152 1 151 0;
#X connect 153 0 48 0;
#X connect 155 0 92 0;
#X connect 157 0 155 0;
#X connect 158 0 124 1;
#X connect 158 0 160 0;
#X connect 159 0 158 0;
#X connect 161 0 159 0;
#X restore -133 567 pd menu;
#X text 1522 -80 dry/wet static fx;
#N canvas 0 62 1398 737 fx_static 0;
#X obj 49 159 inlet~;
#X obj 338 296 lop.bw~;
#X obj 547 349 hip.bw~;
#X obj 363 155 * 15000;
#X obj 571 208 * 15000;
#X floatatom 363 181 5 0 0 0 - - - 12;
#X floatatom 571 234 5 0 0 0 - - - 12;
#X obj 699 559 outlet~;
#X obj 459 107 loadbang;
#X msg 459 133 15000;
#X msg 497 242 0;
#X obj 417 530 dac~;
#X obj 699 499 *~ 1;
#X obj 700 409 else/revdelay~ 2000;
#X connect 0 0 1 0;
#X connect 1 0 2 0;
#X connect 2 0 13 0;
#X connect 3 0 5 0;
#X connect 4 0 6 0;
#X connect 5 0 1 1;
#X connect 6 0 2 1;
#X connect 8 0 9 0;
#X connect 8 0 10 0;
#X connect 9 0 5 0;
#X connect 10 0 2 1;
#X connect 12 0 7 0;
#X connect 13 0 12 0;
#X restore 1523 409 pd fx_static;
#N canvas 0 62 1920 986 fx_interactive 0;
#X obj -81 549 inlet~;
#X obj 135 1221 outlet~;
#X obj 219 1221 outlet~;
#X obj 1116 757 cnv 15 15 15 empty empty empty 20 12 0 14 #c6ffc7 #404040 0;
#X text 1116 756 3) adjust the parameters for the chaotic synth, f 24;
#N canvas 733 172 450 300 flucoma 0;
#X msg 831 709 fit xydata paramsdata;
#X obj 677 391 vsl 19 162 0 1 0 0 empty empty empty 0 -9 0 12 #fcfcfc #000000 #000000 0 1;
#X obj 722 610 tabwrite xybuf;
#X obj 677 561 pack f 0;
#X obj 741 391 vsl 19 162 0 1 0 0 empty empty empty 0 -9 0 12 #fcfcfc #000000 #000000 0 1;
#X obj 741 561 pack f 1;
#X msg 1000 602 addpoint \$1 xybuf;
#X msg 1153 602 addpoint \$1 paramsbuf;
#X obj 1000 626 fluid.dataset xydata;
#X obj 999 562 f, f 7;
#X obj 999 538 bng 19 250 50 0 empty empty empty 0 -10 0 12 #fcfcfc #000000 #000000;
#X msg 1328 602 print;
#X msg 1378 602 clear;
#X obj 619 541 vradio 19 1 0 2 empty empty empty 0 -10 0 12 #fcfcfc #000000 #000000 0;
#X obj 618 876 array get paramsbuf;
#X obj 618 900 unpack f f f f f f f f f f, f 28;
#X text 501 540 selecting points;
#X text 494 559 predicting points;
#X obj 1153 626 fluid.dataset paramsdata;
#X msg 618 709 predictpoint xybuf paramsbuf;
#X obj 618 828 t b;
#X obj 618 800 route predictpoint fit;
#X msg 1081 884 \; pd dsp \$1;
#X obj 1081 857 tgl 19 0 empty empty empty 0 -10 0 12 #fcfcfc #000000 #000000 0 1;
#X obj 1104 860 cnv 15 15 15 empty empty empty 20 12 0 14 #c6ffc7 #404040 0;
#X text 1104 858 1) turn audio on;
#X obj 869 371 cnv 15 15 15 empty empty empty 20 12 0 14 #c6ffc7 #404040 0;
#X text 869 369 2) set a point on both sliders;
#X obj 1031 523 cnv 15 15 15 empty empty empty 20 12 0 14 #c6ffc7 #404040 0;
#X obj 990 711 cnv 15 15 15 empty empty empty 20 12 0 14 #c6ffc7 #404040 0;
#X obj 504 509 cnv 15 15 15 empty empty empty 20 12 0 14 #c6ffc7 #404040 0;
#X text 504 507 6) switch to predicting points, f 18;
#X obj 869 430 cnv 15 15 15 empty empty empty 20 12 0 14 #c6ffc7 #404040 0;
#X text 869 428 7) play around with the slider positions to morph between synth presets, f 22;
#X obj 1083 397 cnv 19 150 30 empty empty Regressor 19 15 0 20 #00faff #ffffff 0;
#X obj 1068 562 + 1;
#X text 1031 521 4) click to add the settings to the datasets. repeat steps 2 to 4 to add more data to the datasets, f 52;
#X text 990 709 5) click to teach mlpregressor \, repeat to get as close to zero error as possible (the fit is shown in the console window), f 39;
#X obj 693 828 list;
#X listbox 693 852 20 0 0 0 - - - 0;
#X text 840 851 error;
#X obj 618 734 fluid.mlpregressor mlp -hiddenlayers 5 -activation 1 -outputactivation 1 -batchsize 1 -maxiter 10000 -learnrate 0.1 -validation 0, f 42;
#X obj 619 652 spigot;
#X obj 677 585 t b l;
#X obj 619 959 outlet;
#X obj 641 959 outlet;
#X obj 662 959 outlet;
#X obj 683 959 outlet;
#X obj 704 959 outlet;
#X obj 725 959 outlet;
#X obj 746 959 outlet;
#X obj 768 959 outlet;
#X obj 790 959 outlet;
#X obj 811 959 outlet;
#X obj 648 1173 tabwrite paramsbuf;
#X obj 648 1194 array define paramsbuf 10;
#N canvas 353 378 783 300 packslider 0;
#X obj 6 55 pack f 0;
#X obj 70 55 pack f 1;
#X obj 133 55 pack f 2;
#X obj 197 55 pack f 3;
#X obj 262 55 pack f 4;
#X obj 324 54 pack f 5;
#X obj 388 54 pack f 6;
#X obj 451 54 pack f 7;
#X obj 515 54 pack f 8;
#X obj 6 102 outlet;
#X obj 7 27 inlet;
#X obj 263 27 inlet;
#X obj 133 29 inlet;
#X obj 196 27 inlet;
#X obj 580 54 pack f 9;
#X obj 70 28 inlet;
#X obj 322 24 inlet;
#X obj 578 24 inlet;
#X obj 448 26 inlet;
#X obj 511 24 inlet;
#X obj 385 25 inlet;
#X connect 0 0 9 0;
#X connect 1 0 9 0;
#X connect 2 0 9 0;
#X connect 3 0 9 0;
#X connect 4 0 9 0;
#X connect 5 0 9 0;
#X connect 6 0 9 0;
#X connect 7 0 9 0;
#X connect 8 0 9 0;
#X connect 10 0 0 0;
#X connect 11 0 4 0;
#X connect 12 0 2 0;
#X connect 13 0 3 0;
#X connect 14 0 9 0;
#X connect 15 0 1 0;
#X connect 16 0 5 0;
#X connect 17 0 14 0;
#X connect 18 0 7 0;
#X connect 19 0 8 0;
#X connect 20 0 6 0;
#X restore 648 1150 pd packslider;
#X f 18;
#X obj 627 1092 inlet;
#X obj 649 1092 inlet;
#X obj 670 1092 inlet;
#X obj 691 1092 inlet;
#X obj 712 1092 inlet;
#X obj 733 1092 inlet;
#X obj 754 1092 inlet;
#X obj 776 1092 inlet;
#X obj 798 1092 inlet;
#X obj 819 1092 inlet;
#X obj 339 329 inlet;
#X obj 401 329 inlet;
#X obj 987 480 inlet;
#X obj 1081 666 inlet;
#X obj 1139 299 inlet;
#X obj 873 876 outlet;
#X obj 722 631 array define xybuf 2;
#X obj 1404 358 inlet;
#X connect 0 0 41 0;
#X connect 1 0 3 0;
#X connect 3 0 43 0;
#X connect 4 0 5 0;
#X connect 5 0 43 0;
#X connect 6 0 8 0;
#X connect 7 0 18 0;
#X connect 9 0 6 0;
#X connect 9 0 35 0;
#X connect 9 0 7 0;
#X connect 10 0 9 0;
#X connect 11 0 8 0;
#X connect 11 0 18 0;
#X connect 12 0 8 0;
#X connect 12 0 18 0;
#X connect 13 0 42 1;
#X connect 14 0 15 0;
#X connect 15 0 44 0;
#X connect 15 1 45 0;
#X connect 15 2 46 0;
#X connect 15 3 47 0;
#X connect 15 4 48 0;
#X connect 15 5 49 0;
#X connect 15 6 50 0;
#X connect 15 7 51 0;
#X connect 15 8 52 0;
#X connect 15 9 53 0;
#X connect 19 0 41 0;
#X connect 20 0 14 0;
#X connect 21 0 20 0;
#X connect 21 1 38 0;
#X connect 23 0 22 0;
#X connect 35 0 9 1;
#X connect 38 0 39 0;
#X connect 39 0 72 0;
#X connect 41 0 21 0;
#X connect 42 0 19 0;
#X connect 43 0 42 0;
#X connect 43 1 2 0;
#X connect 56 0 54 0;
#X connect 57 0 56 0;
#X connect 58 0 56 1;
#X connect 59 0 56 2;
#X connect 60 0 56 3;
#X connect 61 0 56 4;
#X connect 62 0 56 5;
#X connect 63 0 56 6;
#X connect 64 0 56 7;
#X connect 65 0 56 8;
#X connect 66 0 56 9;
#X connect 67 0 1 0;
#X connect 68 0 4 0;
#X connect 69 0 10 0;
#X connect 70 0 0 0;
#X connect 71 0 13 0;
#X connect 74 0 12 0;
#X restore 805 425 pd flucoma;
#X obj 1330 359 vradio 19 1 0 2 empty empty empty 0 -10 0 12 #fcfcfc #000000 #000000 0;
#X obj 1106 260 bng 25 250 50 0 empty empty empty 0 -10 0 10 #ffffff #000000 #000000;
#X obj 1025 210 bng 25 250 50 0 empty empty empty 0 -10 0 10 #ffffff #000000 #000000;
#X obj 1059 210 cnv 15 15 15 empty empty empty 20 12 0 14 #c6ffc7 #404040 0;
#X text 1059 208 4) click to add the settings to the datasets. repeat steps 2 to 4 to add more data to the datasets, f 52;
#X obj 1153 260 cnv 15 15 15 empty empty empty 20 12 0 14 #c6ffc7 #404040 0;
#X text 1153 258 5) click to teach mlpregressor \, repeat to get as close to zero error as possible (the fit is shown in the console window), f 39;
#X text 1217 358 selecting points;
#X text 1217 378 predicting points;
#X obj 1359 359 cnv 15 15 15 empty empty empty 20 12 0 14 #c6ffc7 #404040 0;
#X text 1359 358 6) switch to predicting points, f 18;
#X obj 896 175 cnv 15 15 15 empty empty empty 20 12 0 14 #c6ffc7 #404040 0;
#X text 896 172 2) set a point on both sliders;
#X obj 802 181 vsl 19 162 0 1 0 0 empty empty empty 0 -9 0 12 #96ff96 #000000 #000000 0 1;
#X obj 840 181 vsl 19 162 0 1 0 0 empty empty empty 0 -9 0 12 #96ff96 #000000 #000000 0 1;
#X floatatom 1217 311 9 0 0 0 - - - 16;
#X text 1313 310 error;
#X msg 802 70 \; pd dsp \$1;
#X obj 802 43 tgl 19 0 empty empty empty 0 -10 0 12 #fcfcfc #000000 #000000 0 1;
#X obj 825 46 cnv 15 15 15 empty empty empty 20 12 0 14 #c6ffc7 #404040 0;
#X text 825 44 1) turn audio on;
#X obj 1116 841 hradio 15 1 0 8 empty \$0-radio Load\ preset 0 -8 0 10 #aaaaaa #000000 #000000 0;
#N canvas 396 86 450 300 presets 0;
#N canvas 356 221 568 423 shift 0;
#X msg 137 214 save;
#X msg 218 214 load;
#X obj 106 264 else/insert;
#X obj 218 293 s \$0-radio;
#X obj 175 95 keyname;
#X obj 214 117 select Shift_L;
#X msg 214 139 1;
#X msg 295 138 0;
#X obj 199 166 &&;
#X obj 199 188 sel 1 0;
#X obj 106 35 inlet;
#X obj 106 344 outlet;
#X msg 218 242 color #aaaaaa #000000 #000000 \, label Load\ preset;
#X msg 227 270 color #ff5050 #000000 #000000 \, label Save\ preset;
#X connect 0 0 2 1;
#X connect 0 0 13 0;
#X connect 1 0 2 1;
#X connect 1 0 12 0;
#X connect 2 0 11 0;
#X connect 4 0 8 0;
#X connect 4 1 5 0;
#X connect 5 0 6 0;
#X connect 5 1 7 0;
#X connect 6 0 8 1;
#X connect 7 0 8 1;
#X connect 8 0 9 0;
#X connect 9 0 0 0;
#X connect 9 1 1 0;
#X connect 10 0 2 0;
#X connect 12 0 3 0;
#X connect 13 0 3 0;
#X restore -52 572 pd shift;
#X obj -52 611 else/display;
#X msg -97 614 show;
#X obj -52 544 inlet;
#X obj -52 649 else/presets \\\$0-1 \\\$0-2 \\\$0-3 \\\$0-4 \\\$0-5 \\\$0-6 \\\$0-7 \\\$0-8 \\\$0-9 \\\$0-10;
#A saved \\\$0-1 0 || \\\$0-2 0 || \\\$0-3 0 || \\\$0-4 0.0393701 || \\\$0-5 1 || \\\$0-6 0 || \\\$0-7 0 || \\\$0-8 0 || \\\$0-9 0 || \\\$0-10 0 || \; \\\$0-1 0.500962 || \\\$0-2 0 || \\\$0-3 0 || \\\$0-4 0.322835 || \\\$0-5 0.0629921 || \\\$0-6 0 || \\\$0-7 0 || \\\$0-8 0 || \\\$0-9 0 || \\\$0-10 0 || \; \\\$0-1 1 || \\\$0-2 1 || \\\$0-3 1 || \\\$0-4 0.023622 || \\\$0-5 0.92126 || \\\$0-6 0 || \\\$0-7 0 || \\\$0-8 0 || \\\$0-9 0 || \\\$0-10 0 || \; -empty- \; -empty- \; -empty- \; -empty- \; -empty- \; -empty- \; -empty- \; -empty- \; -empty- \; -empty- \; -empty- \; -empty- \; -empty- \; -empty- \; -empty- \; -empty- \; -empty- \; -empty- \; -empty- \; -empty- \; -empty- \; -empty- \; -empty- \; -empty- \; -empty- \; -empty- \; -empty- \; -empty- \; -empty- \; -empty- \; -empty- \; -empty- \; -empty- \; -empty- \; -empty- \; -empty- \; -empty- \; -empty- \; -empty- \; -empty- \; -empty- \; -empty- \; -empty- \; -empty- \; -empty- \; -empty- \; -empty- \; -empty- \; -empty- \; -empty- \; -empty- \; -empty- \; -empty- \; -empty- \; -empty- \; -empty- \; -empty- \; -empty- \; -empty- \; -empty- \; -empty- \;;
#X msg 74 555 write preset-interactive.txt;
#X msg 287 555 read preset-interactive.txt;
#X connect 0 0 1 0;
#X connect 1 0 4 0;
#X connect 2 0 4 0;
#X connect 3 0 0 0;
#X connect 5 0 4 0;
#X connect 6 0 4 0;
#X restore 1116 870 pd presets;
#X text 1112 804 press shift to save presets;
#X floatatom 641 5 5 0 0 0 - - - 12;
#X obj 555 -113 bng 25 250 50 0 empty empty empty 0 -10 0 10 #ffffff #000000 #000000;
#X obj 756 -78 bng 25 250 50 0 empty empty empty 0 -10 0 10 #ffffff #000000 #000000;
#X obj 756 -107 loadbang;
#X text 756 -129 reset counter;
#X obj 1599 239 loadbang;
#X msg 1599 265 0;
#X text 1599 216 set selecting points;
#X obj 756 -199 sel 0;
#X obj 1330 79 tgl 25 0 empty empty empty 0 -10 0 10 #ffffff #000000 #000000 0 1;
#X obj 1392 5 loadbang;
#X msg 1392 31 0;
#X obj 641 -21 counter -1 2;
#X obj -9 402 hradio 20 1 0 3 empty empty INTERACTIVE\ SET\ PRESET 0 -8 0 10 #cbffc8 #000000 #000000 0;
#X obj -101 240 r preset_interactive_state;
#X obj -101 213 r preset_interactive_choose;
#X obj -9 345 hradio 20 1 0 3 empty empty INTERACTIVE\ CHOOSE\ PRESET 0 -8 0 10 #cbffc8 #000000 #000000 0;
#X obj 133 671 *~;
#X obj 226 668 *~;
#X obj 317 668 *~;
#X obj -32 447 sel 0 1 2;
#X obj 160 612 line;
#X msg 160 581 \$1 1000;
#X obj 253 608 line;
#X msg 253 577 \$1 1000;
#X obj 351 608 line;
#X msg 351 577 \$1 1000;
#X msg 160 541 0;
#X msg 193 541 1;
#X msg 253 541 0;
#X msg 286 541 1;
#X msg 351 541 0;
#X msg 384 541 1;
#X obj 1359 528 hsl 128 17 0 1 0 0 empty empty empty -2 -8 0 10 #96ffff #000000 #000000 0 1;
#X obj 1359 566 hsl 128 17 0 1 0 0 empty empty empty -2 -8 0 10 #96ffff #000000 #000000 0 1;
#X obj 1359 604 hsl 128 17 0 1 0 0 empty empty empty -2 -8 0 10 #96ffff #000000 #000000 0 1;
#X obj 1359 642 hsl 128 17 0 1 0 0 empty empty empty -2 -8 0 10 #96ffff #000000 #000000 0 1;
#X obj 1359 680 hsl 128 17 0 1 0 0 empty empty empty -2 -8 0 10 #96ffff #000000 #000000 0 1;
#X obj 1359 718 hsl 128 17 0 1 0 0 empty empty empty -2 -8 0 10 #96ffff #000000 #000000 0 1;
#X obj 1359 756 hsl 128 17 0 1 0 0 empty empty empty -2 -8 0 10 #96ffff #000000 #000000 0 1;
#X obj 1359 794 hsl 128 17 0 1 0 0 empty empty empty -2 -8 0 10 #96ffff #000000 #000000 0 1;
#X obj 1359 832 hsl 128 17 0 1 0 0 empty empty empty -2 -8 0 10 #96ffff #000000 #000000 0 1;
#X obj 1359 870 hsl 128 17 0 1 0 0 empty empty empty -2 -8 0 10 #96ffff #000000 #000000 0 1;
#N canvas 394 106 1243 661 interactive_fx1 0;
#X floatatom 219 833 8 1 10000 0 - - - 0;
#X obj 219 859 else/f2s~;
#X obj 133 671 inlet~;
#X obj 135 1221 outlet~;
#X obj 233 1221 outlet~;
#X obj 340 798 r fx1_1;
#X obj 135 914 else/crush~;
#X connect 0 0 1 0;
#X connect 1 0 6 2;
#X connect 2 0 6 0;
#X connect 5 0 0 0;
#X connect 6 0 3 0;
#X connect 6 0 4 0;
#X restore 133 897 pd interactive_fx1;
#N canvas 0 62 1920 986 interactive_fx2 0;
#X obj 339 449 inlet~;
#X obj 427 1559 outlet~;
#X obj 529 1559 outlet~;
#X obj 426 1386 delay~;
#X floatatom 471 1327 5 0 0 0 - - - 12;
#X obj 630 965 pitch.shift~;
#X floatatom 656 907 5 0 0 0 - - - 12;
#X floatatom 682 854 5 0 0 0 - - - 12;
#X obj 715 965 pitch.shift~;
#X obj 865 965 pitch.shift~;
#X floatatom 891 907 5 0 0 0 - - - 12;
#X floatatom 917 854 5 0 0 0 - - - 12;
#X obj 950 965 pitch.shift~;
#X obj 383 965 pitch.shift~;
#X floatatom 409 907 5 0 0 0 - - - 12;
#X floatatom 435 854 5 0 0 0 - - - 12;
#X obj 468 965 pitch.shift~;
#X obj 630 1249 *~ 0.8;
#X obj 715 1249 *~ 0.8;
#X obj 865 1249 *~ 0.6;
#X obj 950 1249 *~ 0.6;
#X obj 383 1249 *~ 0.8;
#X obj 468 1249 *~ 0.8;
#X floatatom 406 1198 5 0 1 0 - - - 12;
#X floatatom 491 1198 5 0 1 0 - - - 12;
#X floatatom 653 1198 5 0 1 0 - - - 12;
#X floatatom 738 1198 5 0 1 0 - - - 12;
#X floatatom 888 1198 5 0 1 0 - - - 12;
#X floatatom 973 1198 5 0 1 0 - - - 12;
#X obj 404 1097 loadbang;
#X msg 406 1145 1;
#X msg 653 1135 0.8;
#X msg 888 1135 0.6;
#X obj 809 579 loadbang;
#X msg 409 783 -2400;
#X msg 656 776 1200;
#X msg 891 776 2400;
#X msg 951 774 9;
#X msg 709 777 75;
#X msg 478 783 75;
#X obj 520 907 + 1000;
#X obj 767 907 + 2000;
#X obj 1002 907 + 4000;
#X obj 227 887 scale 0 1 0 1000;
#X obj 263 856 scale 0 1 0 2000;
#X obj 299 815 scale 0 1 0 4000;
#X floatatom 1069 841 5 0 0 0 - - - 12;
#X msg 1082 805 2;
#X msg 1120 798 3000;
#X obj 29 759 r fx2_1;
#X obj 49 829 r fx2_2;
#X obj 79 1169 r fx2_3;
#X obj 209 1269 scale 0 1 0 1000;
#X connect 0 0 13 0;
#X connect 0 0 16 0;
#X connect 0 0 12 0;
#X connect 0 0 9 0;
#X connect 0 0 8 0;
#X connect 0 0 5 0;
#X connect 3 0 1 0;
#X connect 4 0 3 1;
#X connect 5 0 17 0;
#X connect 6 0 8 1;
#X connect 6 0 5 1;
#X connect 7 0 41 0;
#X connect 7 0 5 2;
#X connect 8 0 18 0;
#X connect 9 0 19 0;
#X connect 10 0 12 1;
#X connect 10 0 9 1;
#X connect 11 0 42 0;
#X connect 11 0 9 2;
#X connect 12 0 20 0;
#X connect 13 0 21 0;
#X connect 14 0 13 1;
#X connect 14 0 16 1;
#X connect 15 0 40 0;
#X connect 15 0 13 2;
#X connect 16 0 22 0;
#X connect 17 0 3 0;
#X connect 18 0 2 0;
#X connect 19 0 3 0;
#X connect 20 0 2 0;
#X connect 21 0 3 0;
#X connect 22 0 2 0;
#X connect 23 0 21 1;
#X connect 24 0 22 1;
#X connect 25 0 17 1;
#X connect 26 0 18 1;
#X connect 27 0 19 1;
#X connect 28 0 20 1;
#X connect 29 0 30 0;
#X connect 29 0 31 0;
#X connect 29 0 32 0;
#X connect 30 0 24 0;
#X connect 30 0 23 0;
#X connect 31 0 26 0;
#X connect 31 0 25 0;
#X connect 32 0 28 0;
#X connect 32 0 27 0;
#X connect 33 0 35 0;
#X connect 33 0 36 0;
#X connect 33 0 34 0;
#X connect 33 0 38 0;
#X connect 33 0 37 0;
#X connect 33 0 39 0;
#X connect 33 0 47 0;
#X connect 34 0 14 0;
#X connect 35 0 6 0;
#X connect 36 0 10 0;
#X connect 37 0 11 0;
#X connect 38 0 7 0;
#X connect 39 0 15 0;
#X connect 40 0 16 2;
#X connect 41 0 8 2;
#X connect 42 0 12 2;
#X connect 43 0 15 0;
#X connect 44 0 7 0;
#X connect 45 0 11 0;
#X connect 46 0 42 1;
#X connect 46 0 41 1;
#X connect 46 0 40 1;
#X connect 47 0 42 1;
#X connect 47 0 41 1;
#X connect 47 0 40 1;
#X connect 48 0 42 1;
#X connect 48 0 41 1;
#X connect 48 0 40 1;
#X connect 49 0 45 0;
#X connect 49 0 44 0;
#X connect 50 0 43 0;
#X connect 51 0 52 0;
#X connect 52 0 4 0;
#X restore 286 899 pd interactive_fx2;
#N canvas 733 172 450 300 interactive_fx3 0;
#X obj 133 671 inlet~;
#X obj 135 1221 outlet~;
#X obj 233 1221 outlet~;
#X obj 133 787 lowpass~;
#X obj 133 901 highpass~;
#X obj 133 994 overdrive~;
#X obj 133 1084 pan2~;
#X obj -192 737 r fx3_1;
#X obj -191 859 r fx3_2;
#X obj -182 960 r fx3_3;
#X floatatom -41 978 7 -10 10 0 - - - 0;
#X obj -41 1029 line~;
#X msg -41 1004 \$1 20;
#X obj -91 1099 scale 0 1 -0.7 0.7;
#X obj -71 849 scale 0 1 0 15000;
#X obj -71 804 scale 0 1 20000 5000;
#X obj -41 952 scale 0 1 1 10;
#X connect 0 0 3 0;
#X connect 3 0 4 0;
#X connect 4 0 5 0;
#X connect 5 0 6 0;
#X connect 6 0 1 0;
#X connect 6 1 2 0;
#X connect 7 0 15 0;
#X connect 8 0 14 0;
#X connect 9 0 13 0;
#X connect 9 0 16 0;
#X connect 10 0 12 0;
#X connect 11 0 5 1;
#X connect 12 0 11 0;
#X connect 13 0 6 1;
#X connect 14 0 4 1;
#X connect 15 0 3 1;
#X connect 16 0 10 0;
#X restore 431 899 pd interactive_fx3;
#X obj 1520 639 s fx2_1;
#X obj 1520 677 s fx2_2;
#X obj 1520 715 s fx2_3;
#X obj 1520 525 s fx1_1;
#X obj 1520 563 s fx1_2;
#X obj 1520 601 s fx1_3;
#X obj 1520 753 s fx3_1;
#X obj 1520 791 s fx3_2;
#X obj 1520 829 s fx3_3;
#X msg 1419 429 0;
#X msg 1457 429 0.5;
#X msg 1505 429 1;
#X obj 1330 404 sel 0;
#X obj 1299 459 r \$0-10;
#X obj 802 459 r \$0-1;
#X obj 856 459 r \$0-2;
#X obj 913 459 r \$0-3;
#X obj 968 459 r \$0-4;
#X obj 1022 459 r \$0-5;
#X obj 1083 459 r \$0-6;
#X obj 1134 459 r \$0-7;
#X obj 1188 459 r \$0-8;
#X obj 1245 459 r \$0-9;
#X obj 1330 -86 r butt1;
#X obj 641 -86 r butt2;
#X obj 1039 -205 r butt3;
#X obj 1119 -86 r butt4;
#X obj 878 131 r sensor2;
#X obj 802 131 r sensor1;
#X obj 1599 373 s select_predict;
#X obj 317 173 loadbang;
#X msg 317 198 1;
#X obj 562 70 s parameter_count;
#X obj 1500 321 s error;
#X connect 0 0 47 0;
#X connect 0 0 49 0;
#X connect 0 0 48 0;
#X connect 5 0 63 0;
#X connect 5 1 64 0;
#X connect 5 2 65 0;
#X connect 5 3 66 0;
#X connect 5 4 67 0;
#X connect 5 5 68 0;
#X connect 5 6 69 0;
#X connect 5 7 70 0;
#X connect 5 8 71 0;
#X connect 5 9 72 0;
#X connect 5 10 21 0;
#X connect 6 0 5 14;
#X connect 6 0 38 0;
#X connect 6 0 88 0;
#X connect 6 0 105 0;
#X connect 7 0 5 13;
#X connect 8 0 5 12;
#X connect 19 0 5 0;
#X connect 20 0 5 1;
#X connect 21 0 109 0;
#X connect 24 0 23 0;
#X connect 27 0 28 0;
#X connect 30 0 27 0;
#X connect 30 0 108 0;
#X connect 31 0 42 0;
#X connect 32 0 42 3;
#X connect 33 0 32 0;
#X connect 35 0 36 0;
#X connect 36 0 6 0;
#X connect 38 0 32 0;
#X connect 39 0 6 0;
#X connect 40 0 41 0;
#X connect 41 0 39 0;
#X connect 42 0 30 0;
#X connect 43 0 50 0;
#X connect 44 0 43 0;
#X connect 45 0 46 0;
#X connect 47 0 73 0;
#X connect 48 0 74 0;
#X connect 49 0 75 0;
#X connect 50 0 58 0;
#X connect 50 0 59 0;
#X connect 50 0 61 0;
#X connect 50 1 57 0;
#X connect 50 1 60 0;
#X connect 50 1 61 0;
#X connect 50 2 57 0;
#X connect 50 2 59 0;
#X connect 50 2 62 0;
#X connect 51 0 47 1;
#X connect 52 0 51 0;
#X connect 53 0 48 1;
#X connect 54 0 53 0;
#X connect 55 0 49 1;
#X connect 56 0 55 0;
#X connect 57 0 52 0;
#X connect 58 0 52 0;
#X connect 59 0 54 0;
#X connect 60 0 54 0;
#X connect 61 0 56 0;
#X connect 62 0 56 0;
#X connect 63 0 5 2;
#X connect 63 0 79 0;
#X connect 64 0 5 3;
#X connect 64 0 80 0;
#X connect 65 0 5 4;
#X connect 65 0 81 0;
#X connect 66 0 5 5;
#X connect 66 0 76 0;
#X connect 67 0 5 6;
#X connect 67 0 77 0;
#X connect 68 0 78 0;
#X connect 68 0 5 7;
#X connect 69 0 5 8;
#X connect 69 0 82 0;
#X connect 70 0 5 9;
#X connect 70 0 83 0;
#X connect 71 0 5 10;
#X connect 71 0 84 0;
#X connect 72 0 5 11;
#X connect 73 0 1 0;
#X connect 73 1 2 0;
#X connect 74 0 1 0;
#X connect 74 1 2 0;
#X connect 75 0 1 0;
#X connect 75 1 2 0;
#X connect 85 0 63 0;
#X connect 85 0 72 0;
#X connect 85 0 71 0;
#X connect 85 0 70 0;
#X connect 85 0 69 0;
#X connect 85 0 68 0;
#X connect 85 0 67 0;
#X connect 85 0 66 0;
#X connect 85 0 65 0;
#X connect 85 0 64 0;
#X connect 86 0 63 0;
#X connect 86 0 72 0;
#X connect 86 0 71 0;
#X connect 86 0 70 0;
#X connect 86 0 69 0;
#X connect 86 0 68 0;
#X connect 86 0 67 0;
#X connect 86 0 66 0;
#X connect 86 0 65 0;
#X connect 86 0 64 0;
#X connect 87 0 63 0;
#X connect 87 0 72 0;
#X connect 87 0 71 0;
#X connect 87 0 70 0;
#X connect 87 0 69 0;
#X connect 87 0 68 0;
#X connect 87 0 67 0;
#X connect 87 0 66 0;
#X connect 87 0 65 0;
#X connect 87 0 64 0;
#X connect 88 0 5 15;
#X connect 89 0 72 0;
#X connect 90 0 63 0;
#X connect 91 0 64 0;
#X connect 92 0 65 0;
#X connect 93 0 66 0;
#X connect 94 0 67 0;
#X connect 95 0 68 0;
#X connect 96 0 69 0;
#X connect 97 0 70 0;
#X connect 98 0 71 0;
#X connect 99 0 39 0;
#X connect 100 0 42 0;
#X connect 101 0 8 0;
#X connect 102 0 7 0;
#X connect 103 0 20 0;
#X connect 104 0 19 0;
#X connect 106 0 107 0;
#X connect 107 0 43 0;
#X restore 1485 544 pd fx_interactive;
#X obj 1116 492 r dry_wet_static;
#X text 1311 237 randomize parameter;
#X text 824 184 selecting / predicting;
#X obj 708 -87 vsl 19 162 0 1 0 0 empty empty empty 0 -9 0 12 #96ff96 #000000 #000000 0 1;
#X obj 746 -87 vsl 19 162 0 1 0 0 empty empty empty 0 -9 0 12 #96ff96 #000000 #000000 0 1;
#X obj 541 242 s sensor1;
#X obj 579 199 s sensor2;
#X msg 1579 100 \; pd dsp \$1;
#X obj 1579 73 tgl 19 0 empty empty empty 0 -10 0 12 #fcfcfc #000000 #000000 0 1;
#X obj 1775 6 wearpi-controls;
#X obj 1579 6 loadbang;
#X obj 1579 30 del 2000;
#X msg 1665 82 "starting DSP";
#X obj 1665 106 print DSP;
#X obj 1169 -409 r enc-rot;
#X obj 1007 -301 r enc-but;
#X obj 839 -301 r key;
#X msg 1169 -356 \$1;
#X msg 1199 -356 \$2;
#X msg 1229 -356 \$3;
#X msg 1259 -356 \$4;
#X msg 1007 -248 \$1;
#X msg 1037 -248 \$2;
#X msg 1067 -248 \$3;
#X msg 1097 -248 \$4;
#X msg 839 -248 \$1;
#X msg 869 -248 \$2;
#X msg 899 -248 \$3;
#X msg 929 -248 \$4;
#X obj 839 -211 sel 1;
#X obj 869 -187 sel 1;
#X obj 899 -211 sel 1;
#X obj 929 -187 sel 1;
#X obj 1007 -211 sel 1;
#X obj 1037 -187 sel 1;
#X obj 1067 -211 sel 1;
#X obj 1097 -187 sel 1;
#N canvas 0 62 1153 745 enc_scale_limit 0;
#X obj 312 -3 inlet;
#X floatatom 677 797 5 0 0 0 - - - 12;
#X msg 551 685 up;
#X msg 706 685 down;
#X obj 522 385 bng 25 250 50 0 empty empty empty 0 -10 0 10 #ffffff #000000 #000000;
#X obj 522 655 t b b;
#X obj 677 385 bng 25 250 50 0 empty empty empty 0 -10 0 10 #ffffff #000000 #000000;
#X obj 677 655 t b b;
#X obj 677 617 spigot;
#X obj 522 617 spigot;
#X msg 738 617 0;
#X msg 768 617 1;
#X msg 580 617 0;
#X msg 607 617 1;
#X text 521 329 UP;
#X text 677 329 DOWN;
#X text 521 247 Counter which count until a certain limit;
#X msg 933 629 max \$1;
#X floatatom 850 385 5 0 0 0 - - - 12;
#X floatatom 933 385 5 0 0 0 - - - 12;
#X text 850 329 limit low;
#X text 933 329 limit high;
#X msg 850 629 min \$1;
#X obj 580 494 sel;
#X obj 738 494 sel;
#X obj 1071 305 loadbang;
#X floatatom 1199 385 5 0 0 0 - - - 12;
#X text 1199 329 set value;
#X obj 312 181 sel 1 -1;
#X msg 402 73 1;
#X msg 463 75 -1;
#X msg 1071 331 0;
#X msg 1115 331 100;
#X obj 677 822 / 100;
#X obj 677 848 outlet;
#X obj 677 743 else/count;
#X connect 0 0 28 0;
#X connect 1 0 33 0;
#X connect 2 0 35 0;
#X connect 3 0 35 0;
#X connect 4 0 9 0;
#X connect 5 0 35 0;
#X connect 5 1 2 0;
#X connect 6 0 8 0;
#X connect 7 0 35 0;
#X connect 7 1 3 0;
#X connect 8 0 7 0;
#X connect 9 0 5 0;
#X connect 10 0 8 1;
#X connect 11 0 8 1;
#X connect 12 0 9 1;
#X connect 13 0 9 1;
#X connect 17 0 35 0;
#X connect 18 0 22 0;
#X connect 18 0 24 1;
#X connect 18 0 35 0;
#X connect 19 0 17 0;
#X connect 19 0 23 1;
#X connect 22 0 35 0;
#X connect 23 0 12 0;
#X connect 23 1 13 0;
#X connect 24 0 10 0;
#X connect 24 1 11 0;
#X connect 25 0 31 0;
#X connect 25 0 32 0;
#X connect 25 0 13 0;
#X connect 26 0 35 0;
#X connect 28 0 4 0;
#X connect 28 1 6 0;
#X connect 29 0 28 0;
#X connect 30 0 28 0;
#X connect 31 0 18 0;
#X connect 32 0 19 0;
#X connect 33 0 34 0;
#X connect 35 0 1 0;
#X connect 35 0 23 0;
#X connect 35 0 24 0;
#X restore 1166 -287 pd enc_scale_limit;
#N canvas 0 62 1140 679 enc_scale_limit 0;
#X obj 312 -3 inlet;
#X floatatom 677 797 5 0 0 0 - - - 12;
#X msg 551 685 up;
#X msg 706 685 down;
#X obj 522 385 bng 25 250 50 0 empty empty empty 0 -10 0 10 #ffffff #000000 #000000;
#X obj 522 655 t b b;
#X obj 677 385 bng 25 250 50 0 empty empty empty 0 -10 0 10 #ffffff #000000 #000000;
#X obj 677 655 t b b;
#X obj 677 617 spigot;
#X obj 522 617 spigot;
#X msg 738 617 0;
#X msg 768 617 1;
#X msg 580 617 0;
#X msg 607 617 1;
#X text 521 329 UP;
#X text 677 329 DOWN;
#X text 521 247 Counter which count until a certain limit;
#X msg 933 629 max \$1;
#X floatatom 850 385 5 0 0 0 - - - 12;
#X floatatom 933 385 5 0 0 0 - - - 12;
#X text 850 329 limit low;
#X text 933 329 limit high;
#X msg 850 629 min \$1;
#X obj 580 494 sel;
#X obj 738 494 sel;
#X obj 1071 305 loadbang;
#X floatatom 1199 385 5 0 0 0 - - - 12;
#X text 1199 329 set value;
#X obj 312 181 sel 1 -1;
#X msg 402 73 1;
#X msg 463 75 -1;
#X msg 1071 331 0;
#X msg 1115 331 100;
#X obj 677 822 / 100;
#X obj 677 848 outlet;
#X obj 677 743 else/count;
#X connect 0 0 28 0;
#X connect 1 0 33 0;
#X connect 2 0 35 0;
#X connect 3 0 35 0;
#X connect 4 0 9 0;
#X connect 5 0 35 0;
#X connect 5 1 2 0;
#X connect 6 0 8 0;
#X connect 7 0 35 0;
#X connect 7 1 3 0;
#X connect 8 0 7 0;
#X connect 9 0 5 0;
#X connect 10 0 8 1;
#X connect 11 0 8 1;
#X connect 12 0 9 1;
#X connect 13 0 9 1;
#X connect 17 0 35 0;
#X connect 18 0 22 0;
#X connect 18 0 24 1;
#X connect 18 0 35 0;
#X connect 19 0 17 0;
#X connect 19 0 23 1;
#X connect 22 0 35 0;
#X connect 23 0 12 0;
#X connect 23 1 13 0;
#X connect 24 0 10 0;
#X connect 24 1 11 0;
#X connect 25 0 31 0;
#X connect 25 0 32 0;
#X connect 25 0 13 0;
#X connect 26 0 35 0;
#X connect 28 0 4 0;
#X connect 28 1 6 0;
#X connect 29 0 28 0;
#X connect 30 0 28 0;
#X connect 31 0 18 0;
#X connect 32 0 19 0;
#X connect 33 0 34 0;
#X connect 35 0 1 0;
#X connect 35 0 23 0;
#X connect 35 0 24 0;
#X restore 1195 -249 pd enc_scale_limit;
#N canvas 0 62 1163 735 enc_scale_limit 0;
#X obj 312 -3 inlet;
#X floatatom 677 797 5 0 0 0 - - - 12;
#X msg 551 685 up;
#X msg 706 685 down;
#X obj 522 385 bng 25 250 50 0 empty empty empty 0 -10 0 10 #ffffff #000000 #000000;
#X obj 522 655 t b b;
#X obj 677 385 bng 25 250 50 0 empty empty empty 0 -10 0 10 #ffffff #000000 #000000;
#X obj 677 655 t b b;
#X obj 677 617 spigot;
#X obj 522 617 spigot;
#X msg 738 617 0;
#X msg 768 617 1;
#X msg 580 617 0;
#X msg 607 617 1;
#X text 521 329 UP;
#X text 677 329 DOWN;
#X text 521 247 Counter which count until a certain limit;
#X msg 933 629 max \$1;
#X floatatom 850 385 5 0 0 0 - - - 12;
#X floatatom 933 385 5 0 0 0 - - - 12;
#X text 850 329 limit low;
#X text 933 329 limit high;
#X msg 850 629 min \$1;
#X obj 580 494 sel;
#X obj 738 494 sel;
#X obj 1071 305 loadbang;
#X floatatom 1199 385 5 0 0 0 - - - 12;
#X text 1199 329 set value;
#X obj 312 181 sel 1 -1;
#X msg 402 73 1;
#X msg 463 75 -1;
#X msg 1071 331 0;
#X msg 1115 331 100;
#X obj 677 822 / 100;
#X obj 677 848 outlet;
#X obj 677 743 else/count;
#X connect 0 0 28 0;
#X connect 1 0 33 0;
#X connect 2 0 35 0;
#X connect 3 0 35 0;
#X connect 4 0 9 0;
#X connect 5 0 35 0;
#X connect 5 1 2 0;
#X connect 6 0 8 0;
#X connect 7 0 35 0;
#X connect 7 1 3 0;
#X connect 8 0 7 0;
#X connect 9 0 5 0;
#X connect 10 0 8 1;
#X connect 11 0 8 1;
#X connect 12 0 9 1;
#X connect 13 0 9 1;
#X connect 17 0 35 0;
#X connect 18 0 22 0;
#X connect 18 0 24 1;
#X connect 18 0 35 0;
#X connect 19 0 17 0;
#X connect 19 0 23 1;
#X connect 22 0 35 0;
#X connect 23 0 12 0;
#X connect 23 1 13 0;
#X connect 24 0 10 0;
#X connect 24 1 11 0;
#X connect 25 0 31 0;
#X connect 25 0 32 0;
#X connect 25 0 13 0;
#X connect 26 0 35 0;
#X connect 28 0 4 0;
#X connect 28 1 6 0;
#X connect 29 0 28 0;
#X connect 30 0 28 0;
#X connect 31 0 18 0;
#X connect 32 0 19 0;
#X connect 33 0 34 0;
#X connect 35 0 1 0;
#X connect 35 0 23 0;
#X connect 35 0 24 0;
#X restore 1296 -287 pd enc_scale_limit;
#N canvas 0 62 1134 650 enc_scale_limit 0;
#X obj 312 -3 inlet;
#X floatatom 677 797 5 0 0 0 - - - 12;
#X msg 551 685 up;
#X msg 706 685 down;
#X obj 522 385 bng 25 250 50 0 empty empty empty 0 -10 0 10 #ffffff #000000 #000000;
#X obj 522 655 t b b;
#X obj 677 385 bng 25 250 50 0 empty empty empty 0 -10 0 10 #ffffff #000000 #000000;
#X obj 677 655 t b b;
#X obj 677 617 spigot;
#X obj 522 617 spigot;
#X msg 738 617 0;
#X msg 768 617 1;
#X msg 580 617 0;
#X msg 607 617 1;
#X text 521 329 UP;
#X text 677 329 DOWN;
#X text 521 247 Counter which count until a certain limit;
#X msg 933 629 max \$1;
#X floatatom 850 385 5 0 0 0 - - - 12;
#X floatatom 933 385 5 0 0 0 - - - 12;
#X text 850 329 limit low;
#X text 933 329 limit high;
#X msg 850 629 min \$1;
#X obj 580 494 sel;
#X obj 738 494 sel;
#X obj 1071 305 loadbang;
#X floatatom 1199 385 5 0 0 0 - - - 12;
#X text 1199 329 set value;
#X obj 312 181 sel 1 -1;
#X msg 402 73 1;
#X msg 463 75 -1;
#X msg 1071 331 0;
#X obj 677 848 outlet;
#X obj 678 743 else/count;
#X msg 1115 331 10;
#X obj 677 822 / 10;
#X connect 0 0 28 0;
#X connect 1 0 35 0;
#X connect 2 0 33 0;
#X connect 3 0 33 0;
#X connect 4 0 9 0;
#X connect 5 0 33 0;
#X connect 5 1 2 0;
#X connect 6 0 8 0;
#X connect 7 0 33 0;
#X connect 7 1 3 0;
#X connect 8 0 7 0;
#X connect 9 0 5 0;
#X connect 10 0 8 1;
#X connect 11 0 8 1;
#X connect 12 0 9 1;
#X connect 13 0 9 1;
#X connect 17 0 33 0;
#X connect 18 0 22 0;
#X connect 18 0 24 1;
#X connect 18 0 33 0;
#X connect 19 0 17 0;
#X connect 19 0 23 1;
#X connect 22 0 33 0;
#X connect 23 0 12 0;
#X connect 23 1 13 0;
#X connect 24 0 10 0;
#X connect 24 1 11 0;
#X connect 25 0 31 0;
#X connect 25 0 34 0;
#X connect 25 0 13 0;
#X connect 26 0 33 0;
#X connect 28 0 4 0;
#X connect 28 1 6 0;
#X connect 29 0 28 0;
#X connect 30 0 28 0;
#X connect 31 0 18 0;
#X connect 33 0 1 0;
#X connect 33 0 23 0;
#X connect 33 0 24 0;
#X connect 34 0 19 0;
#X connect 35 0 32 0;
#X restore 1329 -251 pd enc_scale_limit;
#X obj 651 -187 r adc;
#X msg 539 -121 \$1;
#X msg 569 -121 \$2;
#X msg 599 -121 \$3;
#X msg 629 -121 \$4;
#X obj -484 -561 r sensor1;
#X obj -31 -551 r sensor2;
#X obj -484 -436 tabwrite \$0-array-sensor1;
#X obj -31 -436 tabwrite \$0-array-sensor2;
#X floatatom -216 -409 5 0 0 0 - - - 12;
#X obj -216 -465 bng 25 250 50 0 empty empty empty 0 -10 0 10 #ffffff #000000 #000000;
#X msg -161 -465 0;
#X obj -126 -465 sel 300;
#X obj -484 -381 r sensor3;
#X obj -31 -371 r sensor4;
#N canvas 0 0 450 250 (subpatch) 0;
#X array \$0-array-sensor4 300 float 0;
#X coords 0 1 299 0 400 140 1;
#X restore -31 25 graph;
#N canvas 0 0 450 250 (subpatch) 0;
#X array \$0-array-sensor3 300 float 0;
#X coords 0 1 299 0 400 140 1;
#X restore -484 25 graph;
#X obj 818 -87 vsl 19 162 0 1 0 0 empty empty empty 0 -9 0 12 #96ff96 #000000 #000000 0 1;
#X obj 856 -87 vsl 19 162 0 1 0 0 empty empty empty 0 -9 0 12 #96ff96 #000000 #000000 0 1;
#X obj 651 242 s sensor3;
#X obj 689 199 s sensor4;
#X obj -484 -256 tabwrite \$0-array-sensor3;
#X obj -31 -256 tabwrite \$0-array-sensor4;
#X obj -180 -369;
#X obj 1485 328 adc~ 1;
#X obj 1379 451 dac~;
#X obj 461 -14 vsl 19 162 0 1 0 0 empty empty empty 0 -9 0 12 #96ff96 #000000 #000000 0 1;
#X obj 499 -14 vsl 19 162 0 1 0 0 empty empty empty 0 -9 0 12 #96ff96 #000000 #000000 0 1;
#X obj 1164 653 r parameter_count;
#X floatatom 1164 678 5 0 0 0 - - - 0;
#X obj 1301 652 r error;
#X floatatom 1301 677 15 0 0 0 - - - 0;
#X obj -216 -435 else/count;
#X connect 4 0 3 0;
#X connect 5 0 3 0;
#X connect 13 0 16 0;
#X connect 16 0 14 0;
#X connect 17 0 18 0;
#X connect 18 0 16 0;
#X connect 20 0 31 0;
#X connect 21 0 32 0;
#X connect 22 0 33 0;
#X connect 23 0 34 0;
#X connect 24 0 38 0;
#X connect 25 0 39 0;
#X connect 26 0 40 0;
#X connect 27 0 41 0;
#X connect 28 0 59 0;
#X connect 28 0 62 0;
#X connect 29 0 60 0;
#X connect 30 0 61 0;
#X connect 35 0 137 0;
#X connect 36 0 35 0;
#X connect 37 0 62 0;
#X connect 50 0 9 0;
#X connect 51 0 6 0;
#X connect 55 0 10 0;
#X connect 56 0 11 0;
#X connect 57 0 7 0;
#X connect 58 0 8 0;
#X connect 63 0 4 0;
#X connect 64 0 15 0;
#X connect 65 0 5 0;
#X connect 66 0 12 0;
#X connect 71 0 3 0;
#X connect 71 1 3 1;
#X connect 72 0 19 0;
#X connect 75 0 77 0;
#X connect 76 0 78 0;
#X connect 80 0 79 0;
#X connect 82 0 83 0;
#X connect 83 0 80 0;
#X connect 83 0 84 0;
#X connect 84 0 85 0;
#X connect 86 0 89 0;
#X connect 86 0 91 0;
#X connect 86 0 90 0;
#X connect 86 0 92 0;
#X connect 87 0 93 0;
#X connect 87 0 94 0;
#X connect 87 0 96 0;
#X connect 87 0 95 0;
#X connect 88 0 97 0;
#X connect 88 0 99 0;
#X connect 88 0 98 0;
#X connect 88 0 100 0;
#X connect 89 0 109 0;
#X connect 90 0 110 0;
#X connect 91 0 111 0;
#X connect 92 0 112 0;
#X connect 93 0 105 0;
#X connect 94 0 106 0;
#X connect 95 0 107 0;
#X connect 96 0 108 0;
#X connect 97 0 101 0;
#X connect 98 0 102 0;
#X connect 99 0 103 0;
#X connect 100 0 104 0;
#X connect 101 0 24 0;
#X connect 102 0 25 0;
#X connect 103 0 26 0;
#X connect 104 0 27 0;
#X connect 105 0 28 0;
#X connect 106 0 29 0;
#X connect 107 0 30 0;
#X connect 108 0 37 0;
#X connect 109 0 20 0;
#X connect 110 0 21 0;
#X connect 111 0 22 0;
#X connect 112 0 23 0;
#X connect 113 0 114 0;
#X connect 113 0 116 0;
#X connect 113 0 115 0;
#X connect 113 0 117 0;
#X connect 114 0 77 0;
#X connect 114 0 139 0;
#X connect 115 0 78 0;
#X connect 115 0 140 0;
#X connect 116 0 132 0;
#X connect 117 0 133 0;
#X connect 118 0 120 0;
#X connect 118 0 123 0;
#X connect 119 0 121 0;
#X connect 122 0 125 0;
#X connect 122 0 120 1;
#X connect 122 0 134 1;
#X connect 122 0 135 1;
#X connect 122 0 121 1;
#X connect 123 0 145 0;
#X connect 124 0 145 0;
#X connect 125 0 124 0;
#X connect 126 0 134 0;
#X connect 127 0 135 0;
#X connect 130 0 132 0;
#X connect 131 0 133 0;
#X connect 137 0 71 0;
#X connect 141 0 142 0;
#X connect 143 0 144 0;
#X connect 145 0 122 0;
