#N canvas 827 239 734 565 12;
#N canvas 0 0 450 250 (subpatch) 0;
#X array \$0-array-sensor2 300 float 0;
#X coords 0 1 299 0 400 140 1;
#X restore -31 -181 graph;
#N canvas 0 0 450 250 (subpatch) 0;
#X array \$0-array-sensor1 300 float 0;
#X coords 0 1 299 0 400 140 1;
#X restore -484 -181 graph;
#N canvas 0 22 450 300 oled_display 0;
#X restore -153 530 pd oled_display;
#X obj 1459 774 out~;
#X msg 1360 712 mute;
#X msg 1563 707 set \$1;
#X obj -153 413 hradio 20 1 0 3 empty empty empty 0 -8 0 10 #cbffc8 #000000 #000000 0;
#X obj -10 413 hradio 20 1 0 3 empty empty empty 0 -8 0 10 #cbffc8 #000000 #000000 0;
#X obj 178 413 hradio 20 1 0 3 empty empty empty 0 -8 0 10 #cbffc8 #000000 #000000 0;
#X obj -153 356 hradio 20 1 0 3 empty empty empty 0 -8 0 10 #cbffc8 #000000 #000000 0;
#X obj -10 356 hradio 20 1 0 3 empty empty empty 0 -8 0 10 #cbffc8 #000000 #000000 0;
#X obj 178 356 hradio 20 1 0 3 empty empty empty 0 -8 0 10 #cbffc8 #000000 #000000 0;
#X obj 801 686 vsl 17 128 0 1 0 0 empty empty VOUME 0 -9 0 10 #cbffc8 #000000 #000000 0 1;
#X obj 668 565 r select_predict;
#X obj 809 565 vradio 17 1 0 2 empty empty SELECT\ /\ PREDICT 0 -10 0 12 #cbffc8 #000000 #000000 0;
#X obj 953 700 tgl 25 0 empty empty MUTE 0 -10 0 10 #cbffc8 #000000 #000000 0 1;
#X obj 708 618 tgl 25 0 empty empty empty 0 -10 0 10 #ffffff #000000 #000000 0 1;
#X obj 668 592 loadbang;
#X msg 668 618 0;
#X obj 809 343 vsl 17 128 0 1 0 0 empty empty DRY/WET\ STATIC 0 -9 0 10 #cbffc8 #000000 #000000 0 1;
#X obj 1128 -125 vsl 19 162 0 1 0 0 empty empty empty 0 -9 0 12 #ff96ff #000000 #000000 0 1;
#X obj 1169 -125 vsl 19 162 0 1 0 0 empty empty empty 0 -9 0 12 #ff96ff #000000 #000000 0 1;
#X obj 1211 -125 vsl 19 162 0 1 0 0 empty empty empty 0 -9 0 12 #ff96ff #000000 #000000 0 1;
#X obj 1253 -125 vsl 19 162 0 1 0 0 empty empty empty 0 -9 0 12 #ff96ff #000000 #000000 0 1;
#X obj 966 53 bng 25 250 50 0 empty empty empty 0 -10 0 10 #ff96ff #505050 #373737;
#X obj 1008 53 bng 25 250 50 0 empty empty empty 0 -10 0 10 #ff96ff #505050 #373737;
#X obj 1050 53 bng 25 250 50 0 empty empty empty 0 -10 0 10 #ff96ff #505050 #373737;
#X obj 1092 53 bng 25 250 50 0 empty empty empty 0 -10 0 10 #ff96ff #505050 #373737;
#X obj 1128 53 bng 25 250 50 0 empty empty empty 0 -10 0 10 #ff96ff #505050 #373737;
#X obj 1169 53 bng 25 250 50 0 empty empty empty 0 -10 0 10 #ff96ff #505050 #373737;
#X obj 1211 53 bng 25 250 50 0 empty empty empty 0 -10 0 10 #ff96ff #505050 #373737;
#X obj 1353 -127 s knob1;
#X obj 1353 -103 s knob2;
#X obj 1353 -79 s knob3;
#X obj 1353 -55 s knob4;
#X obj 1257 57 bng 25 250 50 0 empty empty empty 0 -10 0 10 #ff96ff #505050 #373737;
#X obj 965 185 s butt1;
#X obj 1007 211 s butt2;
#X obj 1049 238 s butt3;
#X obj 1091 265 s butt4;
#X text 951 237 add data points;
#X text 1049 264 learn;
#X text 1411 -128 main menu choose;
#X text 1411 -104 sub menu choose;
#X text 1411 -56 volume;
#X text 1220 184 main menu select;
#X text 1267 210 sub menu select;
#X text 1357 264 mute;
#X obj -268 224 r main_menu_choose;
#X obj -268 251 r main_menu_state;
#X text -153 383 MAIN MENU;
#X text -10 383 SUB MENU;
#X text 178 383 SUBSUB MENU;
#X obj -102 224 r sub_menu_choose;
#X obj 86 224 r subsub_menu_choose;
#X obj -102 251 r sub_menu_state;
#X obj 86 251 r subsub_menu_state;
#X obj 1127 185 s knob1_press;
#X obj 1169 211 s knob2_press;
#X obj 1211 238 s knob3_press;
#X obj 1257 265 s knob4_press;
#X obj 1360 665 r knob4_press;
#X obj 850 700 r knob4_press;
#X obj 1563 674 r knob4;
#X obj 668 690 r knob4;
#X text 875 210 first/ next parameter;
#N canvas 0 22 450 300 menu 0;
#N canvas 0 22 450 300 notes 0;
#X obj 743 305 pitch.shift~;
#X obj 859 305 revdelay~;
#X obj 670 305 del~;
#X obj 582 305 ffdelay~;
#X restore 1162 471 pd notes;
#X floatatom 259 173 5 0 0 0 - - - 16;
#X obj 259 207 < 0.25;
#X obj 465 207 > 0.75;
#X msg 259 271 0;
#X msg 465 271 2;
#X obj 259 239 sel 1;
#X obj 465 239 sel 1;
#X obj 326 207 >= 0.25;
#X obj 395 207 <= 0.75;
#X obj 395 239 tgl 25 0 empty empty empty 0 -10 0 10 #ffffff #000000 #000000 0 1;
#X obj 326 239 tgl 25 0 empty empty empty 0 -10 0 10 #ffffff #000000 #000000 0 1;
#X obj 326 271 ==;
#X obj 326 294 sel 1;
#X msg 326 320 1;
#X obj 368 394 hradio 20 1 0 3 empty empty empty 0 -8 0 10 #ffffff #000000 #000000 0;
#X obj 259 141 r knob1;
#X floatatom 620 239 5 0 0 0 - - - 16;
#X obj 620 275 < 0.25;
#X obj 826 275 > 0.75;
#X msg 620 339 0;
#X msg 826 339 2;
#X obj 620 307 sel 1;
#X obj 826 307 sel 1;
#X obj 687 275 >= 0.25;
#X obj 756 275 <= 0.75;
#X obj 756 307 tgl 25 0 empty empty empty 0 -10 0 10 #ffffff #000000 #000000 0 1;
#X obj 687 307 tgl 25 0 empty empty empty 0 -10 0 10 #ffffff #000000 #000000 0 1;
#X obj 687 339 ==;
#X obj 687 362 sel 1;
#X msg 687 388 1;
#X obj 622 112 r knob2;
#X floatatom 994 173 5 0 0 0 - - - 16;
#X obj 994 207 < 0.25;
#X obj 1200 207 > 0.75;
#X msg 994 271 0;
#X msg 1200 271 2;
#X obj 994 239 sel 1;
#X obj 1200 239 sel 1;
#X obj 1061 207 >= 0.25;
#X obj 1130 207 <= 0.75;
#X obj 1130 239 tgl 25 0 empty empty empty 0 -10 0 10 #ffffff #000000 #000000 0 1;
#X obj 1061 239 tgl 25 0 empty empty empty 0 -10 0 10 #ffffff #000000 #000000 0 1;
#X obj 1061 271 ==;
#X obj 1061 294 sel 1;
#X msg 1061 320 1;
#X obj 994 141 r knob3;
#X obj 259 431 f;
#X obj 738 494 hradio 20 1 0 3 empty empty empty 0 -8 0 10 #ffffff #000000 #000000 0;
#X obj 619 562 f;
#X obj 1099 394 hradio 20 1 0 3 empty empty empty 0 -8 0 10 #ffffff #000000 #000000 0;
#X obj 990 431 f;
#X obj 259 487 hradio 20 1 0 3 empty empty empty 0 -8 0 10 #ffffff #000000 #000000 0;
#X obj 619 618 hradio 20 1 0 3 empty empty empty 0 -8 0 10 #ffffff #000000 #000000 0;
#X obj 990 487 hradio 20 1 0 3 empty empty empty 0 -8 0 10 #ffffff #000000 #000000 0;
#X obj 368 431 s main_menu_choose;
#X obj 259 526 s main_menu_state;
#X obj 1099 431 s subsub_menu_choose;
#X obj 990 526 s subsub_menu_state;
#X text 259 24 MAIN MENU;
#X text 622 24 SUB MENU;
#X text 994 24 SUBSUB MENU;
#X obj 259 394 r knob1_press;
#X obj 636 458 r knob2_press;
#X obj 990 394 r knob3_press;
#X text 622 66 STATIC;
#X obj 620 201 gate 2;
#X obj 793 107 r main_menu_state;
#X obj 793 133 sel 0;
#X msg 843 159 1;
#X msg 869 159 0;
#X obj 793 159 t b b;
#X obj 721 245 s knob2_update;
#X floatatom 775 219 5 0 0 0 - - - 12;
#X obj 721 219 f;
#X obj 619 528 gate 2;
#X obj 620 173 r gate_static;
#X floatatom 619 869 5 0 0 0 - - - 16;
#X obj 619 905 < 0.25;
#X obj 825 905 > 0.75;
#X msg 619 969 0;
#X msg 825 969 2;
#X obj 619 937 sel 1;
#X obj 825 937 sel 1;
#X obj 686 905 >= 0.25;
#X obj 755 905 <= 0.75;
#X obj 755 937 tgl 25 0 empty empty empty 0 -10 0 10 #ffffff #000000 #000000 0 1;
#X obj 686 937 tgl 25 0 empty empty empty 0 -10 0 10 #ffffff #000000 #000000 0 1;
#X obj 686 969 ==;
#X obj 686 992 sel 1;
#X msg 686 1018 1;
#X obj 621 742 r knob2;
#X obj 737 1124 hradio 20 1 0 3 empty empty empty 0 -8 0 10 #ffffff #000000 #000000 0;
#X obj 618 1192 f;
#X obj 618 1248 hradio 20 1 0 3 empty empty empty 0 -8 0 10 #ffffff #000000 #000000 0;
#X obj 618 1087 r knob2_press;
#X obj 619 831 gate 2;
#X obj 792 737 r main_menu_state;
#X msg 842 789 1;
#X msg 868 789 0;
#X obj 792 789 t b b;
#X obj 720 875 s knob2_update;
#X floatatom 774 849 5 0 0 0 - - - 12;
#X obj 720 849 f;
#X obj 618 1158 gate 2;
#X text 621 696 INTERACTIVE;
#X obj 842 821 s gate_interactive;
#X obj 619 803 r gate_interactive;
#X obj 618 1124 r gate_interactive;
#X floatatom 608 1489 5 0 0 0 - - - 16;
#X obj 608 1525 < 0.25;
#X obj 814 1525 > 0.75;
#X msg 608 1589 0;
#X msg 814 1589 2;
#X obj 608 1557 sel 1;
#X obj 814 1557 sel 1;
#X obj 675 1525 >= 0.25;
#X obj 744 1525 <= 0.75;
#X obj 744 1557 tgl 25 0 empty empty empty 0 -10 0 10 #ffffff #000000 #000000 0 1;
#X obj 675 1557 tgl 25 0 empty empty empty 0 -10 0 10 #ffffff #000000 #000000 0 1;
#X obj 675 1589 ==;
#X obj 675 1612 sel 1;
#X msg 675 1638 1;
#X obj 610 1362 r knob2;
#X obj 607 1812 f;
#X obj 607 1868 hradio 20 1 0 3 empty empty empty 0 -8 0 10 #ffffff #000000 #000000 0;
#X obj 607 1707 r knob2_press;
#X obj 608 1451 gate 2;
#X obj 781 1357 r main_menu_state;
#X msg 831 1409 1;
#X msg 857 1409 0;
#X obj 781 1409 t b b;
#X obj 709 1495 s knob2_update;
#X floatatom 763 1469 5 0 0 0 - - - 12;
#X obj 709 1469 f;
#X obj 607 1778 gate 2;
#X obj 731 1896 s sub_menu_state;
#X obj 731 1865 gate 2;
#X text 610 1316 FREEZE;
#X obj 831 1441 s gate_freeze;
#X obj 608 1423 r gate_freeze;
#X obj 607 1744 r gate_freeze;
#X obj 731 1793 r gate_freeze;
#X obj 792 763 sel 1;
#X obj 781 1383 sel 2;
#X obj 731 1819 t b f;
#X obj 781 1278 s sub_menu_state;
#X obj 781 1247 gate 2;
#X obj 781 1201 t b f;
#X obj 781 1175 r gate_interactive;
#X obj 738 633 s sub_menu_state;
#X obj 738 602 gate 2;
#X obj 738 556 t b f;
#X obj 738 458 gate 2;
#X obj 814 494 s sub_menu_choose;
#X obj 737 1082 gate 2;
#X obj 807 1124 s sub_menu_choose;
#X obj 737 1048 r gate_interactive;
#X obj 733 1744 hradio 20 1 0 3 empty empty empty 0 -8 0 10 #ffffff #000000 #000000 0;
#X obj 733 1702 gate 2;
#X obj 803 1744 s sub_menu_choose;
#X obj 733 1668 r gate_freeze;
#X obj 1229 769 route;
#X obj 1345 863 spigot;
#X text 983 646 das problem ist \, dass wenn ich zb neue preset state setze bei menu2 \, dann aktualisiert sich der wert des reglers auch in menu1 und menu3 \; \; warum? \; weil;
#X connect 1 0 2 0;
#X connect 1 0 3 0;
#X connect 1 0 8 0;
#X connect 1 0 9 0;
#X connect 2 0 6 0;
#X connect 3 0 7 0;
#X connect 4 0 15 0;
#X connect 5 0 15 0;
#X connect 6 0 4 0;
#X connect 7 0 5 0;
#X connect 8 0 11 0;
#X connect 9 0 10 0;
#X connect 10 0 12 1;
#X connect 11 0 12 0;
#X connect 12 0 13 0;
#X connect 13 0 14 0;
#X connect 14 0 15 0;
#X connect 15 0 47 1;
#X connect 15 0 55 0;
#X connect 16 0 1 0;
#X connect 17 0 18 0;
#X connect 17 0 19 0;
#X connect 17 0 24 0;
#X connect 17 0 25 0;
#X connect 17 0 74 1;
#X connect 18 0 22 0;
#X connect 19 0 23 0;
#X connect 20 0 153 1;
#X connect 21 0 153 1;
#X connect 22 0 20 0;
#X connect 23 0 21 0;
#X connect 24 0 27 0;
#X connect 25 0 26 0;
#X connect 26 0 28 1;
#X connect 27 0 28 0;
#X connect 28 0 29 0;
#X connect 29 0 30 0;
#X connect 30 0 153 1;
#X connect 31 0 66 1;
#X connect 32 0 33 0;
#X connect 32 0 34 0;
#X connect 32 0 39 0;
#X connect 32 0 40 0;
#X connect 33 0 37 0;
#X connect 34 0 38 0;
#X connect 35 0 50 0;
#X connect 36 0 50 0;
#X connect 37 0 35 0;
#X connect 38 0 36 0;
#X connect 39 0 42 0;
#X connect 40 0 41 0;
#X connect 41 0 43 1;
#X connect 42 0 43 0;
#X connect 43 0 44 0;
#X connect 44 0 45 0;
#X connect 45 0 50 0;
#X connect 46 0 32 0;
#X connect 47 0 52 0;
#X connect 48 0 49 1;
#X connect 48 0 154 0;
#X connect 49 0 53 0;
#X connect 50 0 51 1;
#X connect 50 0 57 0;
#X connect 51 0 54 0;
#X connect 52 0 56 0;
#X connect 53 0 151 1;
#X connect 54 0 58 0;
#X connect 62 0 47 0;
#X connect 63 0 75 1;
#X connect 64 0 51 0;
#X connect 66 0 17 0;
#X connect 67 0 68 0;
#X connect 68 0 71 0;
#X connect 68 1 70 0;
#X connect 69 0 153 0;
#X connect 69 0 75 0;
#X connect 69 0 152 0;
#X connect 70 0 75 0;
#X connect 70 0 152 0;
#X connect 70 0 153 0;
#X connect 71 0 69 0;
#X connect 71 1 74 0;
#X connect 74 0 72 0;
#X connect 74 0 73 0;
#X connect 75 0 49 0;
#X connect 76 0 66 0;
#X connect 77 0 78 0;
#X connect 77 0 79 0;
#X connect 77 0 84 0;
#X connect 77 0 85 0;
#X connect 77 0 103 1;
#X connect 78 0 82 0;
#X connect 79 0 83 0;
#X connect 80 0 155 1;
#X connect 81 0 155 1;
#X connect 82 0 80 0;
#X connect 83 0 81 0;
#X connect 84 0 87 0;
#X connect 85 0 86 0;
#X connect 86 0 88 1;
#X connect 87 0 88 0;
#X connect 88 0 89 0;
#X connect 89 0 90 0;
#X connect 90 0 155 1;
#X connect 91 0 96 1;
#X connect 92 0 93 1;
#X connect 92 0 156 0;
#X connect 93 0 94 0;
#X connect 94 0 147 1;
#X connect 95 0 104 1;
#X connect 96 0 77 0;
#X connect 97 0 143 0;
#X connect 98 0 106 0;
#X connect 99 0 106 0;
#X connect 100 0 98 0;
#X connect 100 1 103 0;
#X connect 103 0 101 0;
#X connect 103 0 102 0;
#X connect 104 0 93 0;
#X connect 107 0 96 0;
#X connect 108 0 104 0;
#X connect 109 0 110 0;
#X connect 109 0 111 0;
#X connect 109 0 116 0;
#X connect 109 0 117 0;
#X connect 109 0 134 1;
#X connect 110 0 114 0;
#X connect 111 0 115 0;
#X connect 112 0 159 1;
#X connect 113 0 159 1;
#X connect 114 0 112 0;
#X connect 115 0 113 0;
#X connect 116 0 119 0;
#X connect 117 0 118 0;
#X connect 118 0 120 1;
#X connect 119 0 120 0;
#X connect 120 0 121 0;
#X connect 121 0 122 0;
#X connect 122 0 159 1;
#X connect 123 0 127 1;
#X connect 124 0 125 0;
#X connect 125 0 137 1;
#X connect 126 0 135 1;
#X connect 127 0 109 0;
#X connect 128 0 144 0;
#X connect 129 0 139 0;
#X connect 130 0 139 0;
#X connect 131 0 129 0;
#X connect 131 1 134 0;
#X connect 134 0 132 0;
#X connect 134 0 133 0;
#X connect 135 0 124 0;
#X connect 137 0 136 0;
#X connect 140 0 127 0;
#X connect 141 0 135 0;
#X connect 142 0 145 0;
#X connect 143 0 100 0;
#X connect 143 1 99 0;
#X connect 144 0 131 0;
#X connect 144 1 130 0;
#X connect 145 0 125 0;
#X connect 145 1 137 0;
#X connect 147 0 146 0;
#X connect 148 0 94 0;
#X connect 148 1 147 0;
#X connect 149 0 148 0;
#X connect 151 0 150 0;
#X connect 152 0 53 0;
#X connect 152 1 151 0;
#X connect 153 0 48 0;
#X connect 155 0 92 0;
#X connect 157 0 155 0;
#X connect 158 0 124 1;
#X connect 158 0 160 0;
#X connect 159 0 158 0;
#X connect 161 0 159 0;
#X restore -133 567 pd menu;
#X text 1411 -80 dry/wet static fx;
#X obj 894 398 r dry_wet_static;
#X text 1311 237 randomize parameter;
#X text 824 184 selecting / predicting;
#X obj 700 -83 vsl 19 162 0 1 0 0 empty empty empty 0 -9 0 12 #96ff96 #000000 #000000 0 1;
#X obj 746 -87 vsl 19 162 0 1 0 0 empty empty empty 0 -9 0 12 #96ff96 #000000 #000000 0 1;
#X obj 541 242 s sensor1;
#X obj 579 199 s sensor2;
#X msg 2084 -67 \; pd dsp \$1;
#X obj 2084 -94 tgl 19 0 empty empty empty 0 -10 0 12 #fcfcfc #000000 #000000 0 1;
#X obj 2280 -161 wearpi-controls;
#X obj 2084 -161 loadbang;
#X obj 2084 -137 del 2000;
#X msg 2170 -85 "starting DSP";
#X obj 2170 -61 print DSP;
#X obj 1169 -409 r enc-rot;
#X obj 1007 -301 r enc-but;
#X obj 839 -301 r key;
#X msg 1169 -356 \$1;
#X msg 1199 -356 \$2;
#X msg 1229 -356 \$3;
#X msg 1259 -356 \$4;
#X msg 1007 -248 \$1;
#X msg 1037 -248 \$2;
#X msg 1067 -248 \$3;
#X msg 1097 -248 \$4;
#X msg 839 -248 \$1;
#X msg 869 -248 \$2;
#X msg 899 -248 \$3;
#X msg 929 -248 \$4;
#X obj 839 -211 sel 1;
#X obj 869 -187 sel 1;
#X obj 899 -211 sel 1;
#X obj 929 -187 sel 1;
#X obj 1007 -211 sel 1;
#X obj 1037 -187 sel 1;
#X obj 1067 -211 sel 1;
#X obj 1097 -187 sel 1;
#N canvas 0 22 450 300 enc_scale_limit 0;
#X obj 312 -3 inlet;
#X floatatom 677 797 5 0 0 0 - - - 12;
#X msg 551 685 up;
#X msg 706 685 down;
#X obj 522 385 bng 25 250 50 0 empty empty empty 0 -10 0 10 #ffffff #000000 #000000;
#X obj 522 655 t b b;
#X obj 677 385 bng 25 250 50 0 empty empty empty 0 -10 0 10 #ffffff #000000 #000000;
#X obj 677 655 t b b;
#X obj 677 617 spigot;
#X obj 522 617 spigot;
#X msg 738 617 0;
#X msg 768 617 1;
#X msg 580 617 0;
#X msg 607 617 1;
#X text 521 329 UP;
#X text 677 329 DOWN;
#X text 521 247 Counter which count until a certain limit;
#X msg 933 629 max \$1;
#X floatatom 850 385 5 0 0 0 - - - 12;
#X floatatom 933 385 5 0 0 0 - - - 12;
#X text 850 329 limit low;
#X text 933 329 limit high;
#X msg 850 629 min \$1;
#X obj 677 743 count;
#X obj 580 494 sel;
#X obj 738 494 sel;
#X obj 1071 305 loadbang;
#X floatatom 1199 385 5 0 0 0 - - - 12;
#X text 1199 329 set value;
#X obj 312 181 sel 1 -1;
#X msg 402 73 1;
#X msg 463 75 -1;
#X msg 1071 331 0;
#X msg 1115 331 100;
#X obj 677 822 / 100;
#X obj 677 848 outlet;
#X connect 0 0 29 0;
#X connect 1 0 34 0;
#X connect 2 0 23 0;
#X connect 3 0 23 0;
#X connect 4 0 9 0;
#X connect 5 0 23 0;
#X connect 5 1 2 0;
#X connect 6 0 8 0;
#X connect 7 0 23 0;
#X connect 7 1 3 0;
#X connect 8 0 7 0;
#X connect 9 0 5 0;
#X connect 10 0 8 1;
#X connect 11 0 8 1;
#X connect 12 0 9 1;
#X connect 13 0 9 1;
#X connect 17 0 23 0;
#X connect 18 0 22 0;
#X connect 18 0 25 1;
#X connect 18 0 23 0;
#X connect 19 0 17 0;
#X connect 19 0 24 1;
#X connect 22 0 23 0;
#X connect 23 0 1 0;
#X connect 23 0 24 0;
#X connect 23 0 25 0;
#X connect 24 0 12 0;
#X connect 24 1 13 0;
#X connect 25 0 10 0;
#X connect 25 1 11 0;
#X connect 26 0 32 0;
#X connect 26 0 33 0;
#X connect 26 0 13 0;
#X connect 27 0 23 0;
#X connect 29 0 4 0;
#X connect 29 1 6 0;
#X connect 30 0 29 0;
#X connect 31 0 29 0;
#X connect 32 0 18 0;
#X connect 33 0 19 0;
#X connect 34 0 35 0;
#X restore 1166 -287 pd enc_scale_limit;
#N canvas 0 22 450 300 enc_scale_limit 0;
#X obj 312 -3 inlet;
#X floatatom 677 797 5 0 0 0 - - - 12;
#X msg 551 685 up;
#X msg 706 685 down;
#X obj 522 385 bng 25 250 50 0 empty empty empty 0 -10 0 10 #ffffff #000000 #000000;
#X obj 522 655 t b b;
#X obj 677 385 bng 25 250 50 0 empty empty empty 0 -10 0 10 #ffffff #000000 #000000;
#X obj 677 655 t b b;
#X obj 677 617 spigot;
#X obj 522 617 spigot;
#X msg 738 617 0;
#X msg 768 617 1;
#X msg 580 617 0;
#X msg 607 617 1;
#X text 521 329 UP;
#X text 677 329 DOWN;
#X text 521 247 Counter which count until a certain limit;
#X msg 933 629 max \$1;
#X floatatom 850 385 5 0 0 0 - - - 12;
#X floatatom 933 385 5 0 0 0 - - - 12;
#X text 850 329 limit low;
#X text 933 329 limit high;
#X msg 850 629 min \$1;
#X obj 677 743 count;
#X obj 580 494 sel;
#X obj 738 494 sel;
#X obj 1071 305 loadbang;
#X floatatom 1199 385 5 0 0 0 - - - 12;
#X text 1199 329 set value;
#X obj 312 181 sel 1 -1;
#X msg 402 73 1;
#X msg 463 75 -1;
#X msg 1071 331 0;
#X msg 1115 331 100;
#X obj 677 822 / 100;
#X obj 677 848 outlet;
#X connect 0 0 29 0;
#X connect 1 0 34 0;
#X connect 2 0 23 0;
#X connect 3 0 23 0;
#X connect 4 0 9 0;
#X connect 5 0 23 0;
#X connect 5 1 2 0;
#X connect 6 0 8 0;
#X connect 7 0 23 0;
#X connect 7 1 3 0;
#X connect 8 0 7 0;
#X connect 9 0 5 0;
#X connect 10 0 8 1;
#X connect 11 0 8 1;
#X connect 12 0 9 1;
#X connect 13 0 9 1;
#X connect 17 0 23 0;
#X connect 18 0 22 0;
#X connect 18 0 25 1;
#X connect 18 0 23 0;
#X connect 19 0 17 0;
#X connect 19 0 24 1;
#X connect 22 0 23 0;
#X connect 23 0 1 0;
#X connect 23 0 24 0;
#X connect 23 0 25 0;
#X connect 24 0 12 0;
#X connect 24 1 13 0;
#X connect 25 0 10 0;
#X connect 25 1 11 0;
#X connect 26 0 32 0;
#X connect 26 0 33 0;
#X connect 26 0 13 0;
#X connect 27 0 23 0;
#X connect 29 0 4 0;
#X connect 29 1 6 0;
#X connect 30 0 29 0;
#X connect 31 0 29 0;
#X connect 32 0 18 0;
#X connect 33 0 19 0;
#X connect 34 0 35 0;
#X restore 1195 -249 pd enc_scale_limit;
#N canvas 0 22 450 300 enc_scale_limit 0;
#X obj 312 -3 inlet;
#X floatatom 677 797 5 0 0 0 - - - 12;
#X msg 551 685 up;
#X msg 706 685 down;
#X obj 522 385 bng 25 250 50 0 empty empty empty 0 -10 0 10 #ffffff #000000 #000000;
#X obj 522 655 t b b;
#X obj 677 385 bng 25 250 50 0 empty empty empty 0 -10 0 10 #ffffff #000000 #000000;
#X obj 677 655 t b b;
#X obj 677 617 spigot;
#X obj 522 617 spigot;
#X msg 738 617 0;
#X msg 768 617 1;
#X msg 580 617 0;
#X msg 607 617 1;
#X text 521 329 UP;
#X text 677 329 DOWN;
#X text 521 247 Counter which count until a certain limit;
#X msg 933 629 max \$1;
#X floatatom 850 385 5 0 0 0 - - - 12;
#X floatatom 933 385 5 0 0 0 - - - 12;
#X text 850 329 limit low;
#X text 933 329 limit high;
#X msg 850 629 min \$1;
#X obj 677 743 count;
#X obj 580 494 sel;
#X obj 738 494 sel;
#X obj 1071 305 loadbang;
#X floatatom 1199 385 5 0 0 0 - - - 12;
#X text 1199 329 set value;
#X obj 312 181 sel 1 -1;
#X msg 402 73 1;
#X msg 463 75 -1;
#X msg 1071 331 0;
#X msg 1115 331 100;
#X obj 677 822 / 100;
#X obj 677 848 outlet;
#X connect 0 0 29 0;
#X connect 1 0 34 0;
#X connect 2 0 23 0;
#X connect 3 0 23 0;
#X connect 4 0 9 0;
#X connect 5 0 23 0;
#X connect 5 1 2 0;
#X connect 6 0 8 0;
#X connect 7 0 23 0;
#X connect 7 1 3 0;
#X connect 8 0 7 0;
#X connect 9 0 5 0;
#X connect 10 0 8 1;
#X connect 11 0 8 1;
#X connect 12 0 9 1;
#X connect 13 0 9 1;
#X connect 17 0 23 0;
#X connect 18 0 22 0;
#X connect 18 0 25 1;
#X connect 18 0 23 0;
#X connect 19 0 17 0;
#X connect 19 0 24 1;
#X connect 22 0 23 0;
#X connect 23 0 1 0;
#X connect 23 0 24 0;
#X connect 23 0 25 0;
#X connect 24 0 12 0;
#X connect 24 1 13 0;
#X connect 25 0 10 0;
#X connect 25 1 11 0;
#X connect 26 0 32 0;
#X connect 26 0 33 0;
#X connect 26 0 13 0;
#X connect 27 0 23 0;
#X connect 29 0 4 0;
#X connect 29 1 6 0;
#X connect 30 0 29 0;
#X connect 31 0 29 0;
#X connect 32 0 18 0;
#X connect 33 0 19 0;
#X connect 34 0 35 0;
#X restore 1296 -287 pd enc_scale_limit;
#N canvas 0 22 450 300 enc_scale_limit 0;
#X obj 312 -3 inlet;
#X floatatom 677 797 5 0 0 0 - - - 12;
#X msg 551 685 up;
#X msg 706 685 down;
#X obj 522 385 bng 25 250 50 0 empty empty empty 0 -10 0 10 #ffffff #000000 #000000;
#X obj 522 655 t b b;
#X obj 677 385 bng 25 250 50 0 empty empty empty 0 -10 0 10 #ffffff #000000 #000000;
#X obj 677 655 t b b;
#X obj 677 617 spigot;
#X obj 522 617 spigot;
#X msg 738 617 0;
#X msg 768 617 1;
#X msg 580 617 0;
#X msg 607 617 1;
#X text 521 329 UP;
#X text 677 329 DOWN;
#X text 521 247 Counter which count until a certain limit;
#X msg 933 629 max \$1;
#X floatatom 850 385 5 0 0 0 - - - 12;
#X floatatom 933 385 5 0 0 0 - - - 12;
#X text 850 329 limit low;
#X text 933 329 limit high;
#X msg 850 629 min \$1;
#X obj 677 743 count;
#X obj 580 494 sel;
#X obj 738 494 sel;
#X obj 1071 305 loadbang;
#X floatatom 1199 385 5 0 0 0 - - - 12;
#X text 1199 329 set value;
#X obj 312 181 sel 1 -1;
#X msg 402 73 1;
#X msg 463 75 -1;
#X msg 1071 331 0;
#X msg 1115 331 100;
#X obj 677 822 / 100;
#X obj 677 848 outlet;
#X connect 0 0 29 0;
#X connect 1 0 34 0;
#X connect 2 0 23 0;
#X connect 3 0 23 0;
#X connect 4 0 9 0;
#X connect 5 0 23 0;
#X connect 5 1 2 0;
#X connect 6 0 8 0;
#X connect 7 0 23 0;
#X connect 7 1 3 0;
#X connect 8 0 7 0;
#X connect 9 0 5 0;
#X connect 10 0 8 1;
#X connect 11 0 8 1;
#X connect 12 0 9 1;
#X connect 13 0 9 1;
#X connect 17 0 23 0;
#X connect 18 0 22 0;
#X connect 18 0 25 1;
#X connect 18 0 23 0;
#X connect 19 0 17 0;
#X connect 19 0 24 1;
#X connect 22 0 23 0;
#X connect 23 0 1 0;
#X connect 23 0 24 0;
#X connect 23 0 25 0;
#X connect 24 0 12 0;
#X connect 24 1 13 0;
#X connect 25 0 10 0;
#X connect 25 1 11 0;
#X connect 26 0 32 0;
#X connect 26 0 33 0;
#X connect 26 0 13 0;
#X connect 27 0 23 0;
#X connect 29 0 4 0;
#X connect 29 1 6 0;
#X connect 30 0 29 0;
#X connect 31 0 29 0;
#X connect 32 0 18 0;
#X connect 33 0 19 0;
#X connect 34 0 35 0;
#X restore 1329 -251 pd enc_scale_limit;
#X obj 651 -187 r adc;
#X msg 539 -121 \$1;
#X msg 569 -121 \$2;
#X msg 599 -121 \$3;
#X msg 629 -121 \$4;
#X obj -484 -561 r sensor1;
#X obj -31 -551 r sensor2;
#X obj -484 -436 tabwrite \$0-array-sensor1;
#X obj -31 -436 tabwrite \$0-array-sensor2;
#X floatatom -216 -409 5 0 0 0 - - - 12;
#X obj -216 -435 count;
#X obj -216 -465 bng 25 250 50 0 empty empty empty 0 -10 0 10 #ffffff #000000 #000000;
#X msg -161 -465 0;
#X obj -126 -465 sel 300;
#X obj -484 -381 r sensor3;
#X obj -31 -371 r sensor4;
#N canvas 0 0 450 250 (subpatch) 0;
#X array \$0-array-sensor4 300 float 0;
#X coords 0 1 299 0 400 140 1;
#X restore -31 25 graph;
#N canvas 0 0 450 250 (subpatch) 0;
#X array \$0-array-sensor3 300 float 0;
#X coords 0 1 299 0 400 140 1;
#X restore -484 25 graph;
#X obj 818 -87 vsl 19 162 0 1 0 0 empty empty empty 0 -9 0 12 #96ff96 #000000 #000000 0 1;
#X obj 856 -87 vsl 19 162 0 1 0 0 empty empty empty 0 -9 0 12 #96ff96 #000000 #000000 0 1;
#X obj 651 242 s sensor3;
#X obj 689 199 s sensor4;
#X obj -484 -256 tabwrite \$0-array-sensor3;
#X obj -31 -256 tabwrite \$0-array-sensor4;
#X obj -180 -369;
#N canvas 0 22 450 300 freeze_sensors 0;
#X obj 839 -271 soundfiler;
#N canvas 0 0 450 250 (subpatch) 0;
#X array sound 5.62605e+06 float 0;
#X coords 0 1 5.62605e+06 -1 200 140 1;
#X restore 1179 -391 graph;
#X msg 790 -534 read -resize smp/lux_s8_RAVENBUSH_PERC_LOOP.wav sound;
#X msg 839 -380 read -resize smp/test.aif sound;
#X obj 479 -281 tabwrite~ sound;
#X obj 479 -364 bng 25 250 50 0 empty empty empty 0 -10 0 10 #ffffff #000000 #000000;
#X obj 354 -387 tgl 25 0 empty empty empty 0 -10 0 10 #ffffff #000000 #000000 0 1;
#X obj 354 -346 osc~ 440;
#X msg 689 -296 \; sound normalize;
#X text 509 -365 record;
#X text 462 -439 RECORD SOUND;
#X msg 515 -338 stop;
#X obj 2140 574 cnv 15 15 15 empty empty empty 20 12 0 14 #c6ffc7 #404040 0;
#X text 2140 573 3) adjust the parameters for the chaotic synth, f 24;
#X obj 2504 406 vradio 19 1 0 2 empty empty empty 0 -10 0 12 #fcfcfc #000000 #000000 0;
#X obj 2280 307 bng 25 250 50 0 empty empty empty 0 -10 0 10 #ffffff #000000 #000000;
#X obj 2199 257 bng 25 250 50 0 empty empty empty 0 -10 0 10 #ffffff #000000 #000000;
#X obj 2233 257 cnv 15 15 15 empty empty empty 20 12 0 14 #c6ffc7 #404040 0;
#X text 2233 255 4) click to add the settings to the datasets. repeat steps 2 to 4 to add more data to the datasets, f 52;
#X obj 2327 307 cnv 15 15 15 empty empty empty 20 12 0 14 #c6ffc7 #404040 0;
#X text 2327 305 5) click to teach mlpregressor \, repeat to get as close to zero error as possible (the fit is shown in the console window), f 39;
#X text 2391 405 selecting points;
#X text 2391 425 predicting points;
#X obj 2533 406 cnv 15 15 15 empty empty empty 20 12 0 14 #c6ffc7 #404040 0;
#X text 2533 405 6) switch to predicting points, f 18;
#X obj 2070 222 cnv 15 15 15 empty empty empty 20 12 0 14 #c6ffc7 #404040 0;
#X text 2070 219 2) set a point on both sliders;
#X obj 1941 228 vsl 19 162 0 1 0 0 empty empty empty 0 -9 0 12 #96ff96 #000000 #000000 0 1;
#X obj 2014 228 vsl 19 162 0 1 0 0 empty empty empty 0 -9 0 12 #96ff96 #000000 #000000 0 1;
#X floatatom 2391 358 9 0 0 0 - - - 16;
#X text 2487 357 error;
#X msg 1976 117 \; pd dsp \$1;
#X obj 1976 90 tgl 19 0 empty empty empty 0 -10 0 12 #fcfcfc #000000 #000000 0 1;
#X obj 1999 93 cnv 15 15 15 empty empty empty 20 12 0 14 #c6ffc7 #404040 0;
#X text 1999 91 1) turn audio on;
#X obj 2140 658 hradio 15 1 0 8 empty \$0-radio Load\ preset 0 -8 0 10 #aaaaaa #000000 #000000 0;
#N canvas 733 172 450 300 presets 0;
#N canvas 356 221 568 423 shift 0;
#X msg 137 214 save;
#X msg 218 214 load;
#X obj 106 264 else/insert;
#X obj 218 293 s \$0-radio;
#X obj 175 95 keyname;
#X obj 214 117 select Shift_L;
#X msg 214 139 1;
#X msg 295 138 0;
#X obj 199 166 &&;
#X obj 199 188 sel 1 0;
#X obj 106 35 inlet;
#X obj 106 344 outlet;
#X msg 218 242 color #aaaaaa #000000 #000000 \, label Load\ preset;
#X msg 227 270 color #ff5050 #000000 #000000 \, label Save\ preset;
#X connect 0 0 2 1;
#X connect 0 0 13 0;
#X connect 1 0 2 1;
#X connect 1 0 12 0;
#X connect 2 0 11 0;
#X connect 4 0 8 0;
#X connect 4 1 5 0;
#X connect 5 0 6 0;
#X connect 5 1 7 0;
#X connect 6 0 8 1;
#X connect 7 0 8 1;
#X connect 8 0 9 0;
#X connect 9 0 0 0;
#X connect 9 1 1 0;
#X connect 10 0 2 0;
#X connect 12 0 3 0;
#X connect 13 0 3 0;
#X restore -52 572 pd shift;
#X obj -52 611 else/display;
#X msg -97 614 show;
#X obj -52 544 inlet;
#X obj -52 649 else/presets \\\$0-11 \\\$0-12 \\\$0-13 \\\$0-14 \\\$0-15 \\\$0-16 \\\$0-17 \\\$0-18 \\\$0-19 \\\$0-20;
#A saved \\\$0-11 0.27 || \\\$0-12 0.02 || \\\$0-13 0.62 || \\\$0-14 0.25 || \\\$0-15 0.72 || \\\$0-16 0.89 || \\\$0-17 0 || \\\$0-18 0.6 || \\\$0-19 0.43 || \\\$0-20 0.49 || \; \\\$0-11 0.97 || \\\$0-12 0.28 || \\\$0-13 0.77 || \\\$0-14 0.82 || \\\$0-15 0.3 || \\\$0-16 0.96 || \\\$0-17 0.81 || \\\$0-18 0.61 || \\\$0-19 0 || \\\$0-20 0.4 || \; \\\$0-11 0.646527 || \\\$0-12 0.569459 || \\\$0-13 0.261113 || \\\$0-14 0.504262 || \\\$0-15 0.487729 || \\\$0-16 0.619526 || \\\$0-17 0.109629 || \\\$0-18 0 || \\\$0-19 0 || \\\$0-20 0 || \; -empty- \; -empty- \; -empty- \; -empty- \; \\\$0-11 0.27 || \\\$0-12 0.02 || \\\$0-13 0.62 || \\\$0-14 0.25 || \\\$0-15 0.72 || \\\$0-16 0.89 || \\\$0-17 0.42 || \\\$0-18 0.6 || \\\$0-19 0.43 || \\\$0-20 0.49 || \; -empty- \; -empty- \; -empty- \; -empty- \; -empty- \; -empty- \; -empty- \; -empty- \; -empty- \; -empty- \; -empty- \; -empty- \; -empty- \; -empty- \; -empty- \; -empty- \; -empty- \; -empty- \; -empty- \; -empty- \; -empty- \; -empty- \; -empty- \; -empty- \; -empty- \; -empty- \; -empty- \; -empty- \; -empty- \; -empty- \; -empty- \; -empty- \; -empty- \; -empty- \; -empty- \; -empty- \; -empty- \; -empty- \; -empty- \; -empty- \; -empty- \; -empty- \; -empty- \; -empty- \; -empty- \; -empty- \; -empty- \; -empty- \; -empty- \; -empty- \; -empty- \; -empty- \; -empty- \; -empty- \; -empty- \; -empty- \;;
#X connect 0 0 1 0;
#X connect 1 0 4 0;
#X connect 2 0 4 0;
#X connect 3 0 0 0;
#X restore 2140 687 pd presets;
#X text 2136 621 press shift to save presets;
#X floatatom 1815 52 5 0 0 0 - - - 12;
#X obj 1781 -39 bng 25 250 50 0 empty empty empty 0 -10 0 10 #ffffff #000000 #000000;
#X obj 1930 -31 bng 25 250 50 0 empty empty empty 0 -10 0 10 #ffffff #000000 #000000;
#X obj 1930 -60 loadbang;
#X text 1930 -82 reset counter;
#X obj 2773 286 loadbang;
#X msg 2773 312 0;
#X text 2773 263 set selecting points;
#X obj 1930 -152 sel 0;
#X obj 2504 126 tgl 25 0 empty empty empty 0 -10 0 10 #ffffff #000000 #000000 0 1;
#X obj 2566 52 loadbang;
#X msg 2566 78 0;
#X obj 1815 26 counter -1 2;
#X obj 1452 26 hsl 128 17 0 1 0 0 empty empty empty -2 -8 0 10 #96ffff #000000 #000000 0 1;
#X obj 1452 64 hsl 128 17 0 1 0 0 empty empty empty -2 -8 0 10 #96ffff #000000 #000000 0 1;
#X obj 1452 128 hsl 128 17 0 1 0 0 empty empty empty -2 -8 0 10 #96ffff #000000 #000000 0 1;
#X obj 1455 166 hsl 128 17 0 1 0 0 empty empty empty -2 -8 0 10 #96ffff #000000 #000000 0 1;
#X obj 1452 226 hsl 128 17 0 1 0 0 empty empty empty -2 -8 0 10 #96ffff #000000 #000000 0 1;
#X obj 1452 264 hsl 128 17 0 1 0 0 empty empty empty -2 -8 0 10 #96ffff #000000 #000000 0 1;
#X obj 1452 307 hsl 128 17 0 1 0 0 empty empty empty -2 -8 0 10 #96ffff #000000 #000000 0 1;
#X obj 1452 506 hsl 128 17 0 1 0 0 empty empty empty -2 -8 0 10 #96ffff #000000 #000000 0 1;
#X obj 1452 584 hsl 128 17 0 1 0 0 empty empty empty -2 -8 0 10 #96ffff #000000 #000000 0 1;
#X obj 1452 622 hsl 128 17 0 1 0 0 empty empty empty -2 -8 0 10 #96ffff #000000 #000000 0 1;
#X msg 2593 476 0;
#X msg 2631 476 0.5;
#X msg 2679 476 1;
#X obj 2504 451 sel 0;
#X text 2533 125 sel / predict;
#X obj 912 89 scale 0 1 10 1000;
#X obj 1976 506 r \$0-11;
#X obj 2030 506 r \$0-12;
#X obj 2087 506 r \$0-13;
#X obj 2142 506 r \$0-14;
#X obj 2196 506 r \$0-15;
#X obj 2257 506 r \$0-16;
#X obj 2308 506 r \$0-17;
#X obj 2362 506 r \$0-18;
#X obj 2419 506 r \$0-19;
#X obj 2473 506 r \$0-20;
#N canvas 733 172 450 300 flucoma_freeze 0;
#X obj 677 391 vsl 19 162 0 1 0 0 empty empty empty 0 -9 0 12 #fcfcfc #000000 #000000 0 1;
#X obj 677 561 pack f 0;
#X obj 741 391 vsl 19 162 0 1 0 0 empty empty empty 0 -9 0 12 #fcfcfc #000000 #000000 0 1;
#X obj 741 561 pack f 1;
#X obj 999 562 f, f 7;
#X obj 999 538 bng 19 250 50 0 empty empty empty 0 -10 0 12 #fcfcfc #000000 #000000;
#X msg 1376 602 print;
#X msg 1426 602 clear;
#X obj 619 541 vradio 19 1 0 2 empty empty empty 0 -10 0 12 #fcfcfc #000000 #000000 0;
#X obj 618 900 unpack f f f f f f f f f f, f 28;
#X text 501 540 selecting points;
#X text 494 559 predicting points;
#X obj 618 828 t b;
#X msg 1081 884 \; pd dsp \$1;
#X obj 1081 857 tgl 19 0 empty empty empty 0 -10 0 12 #fcfcfc #000000 #000000 0 1;
#X obj 1104 860 cnv 15 15 15 empty empty empty 20 12 0 14 #c6ffc7 #404040 0;
#X text 1104 858 1) turn audio on;
#X obj 869 371 cnv 15 15 15 empty empty empty 20 12 0 14 #c6ffc7 #404040 0;
#X text 869 369 2) set a point on both sliders;
#X obj 1031 523 cnv 15 15 15 empty empty empty 20 12 0 14 #c6ffc7 #404040 0;
#X obj 1139 709 cnv 15 15 15 empty empty empty 20 12 0 14 #c6ffc7 #404040 0;
#X obj 504 509 cnv 15 15 15 empty empty empty 20 12 0 14 #c6ffc7 #404040 0;
#X text 504 507 6) switch to predicting points, f 18;
#X obj 869 430 cnv 15 15 15 empty empty empty 20 12 0 14 #c6ffc7 #404040 0;
#X text 869 428 7) play around with the slider positions to morph between synth presets, f 22;
#X obj 1083 397 cnv 19 150 30 empty empty Regressor 19 15 0 20 #00faff #ffffff 0;
#X obj 1068 562 + 1;
#X text 1031 521 4) click to add the settings to the datasets. repeat steps 2 to 4 to add more data to the datasets, f 52;
#X text 1139 708 5) click to teach mlpregressor \, repeat to get as close to zero error as possible (the fit is shown in the console window), f 39;
#X obj 693 828 list;
#X listbox 693 852 20 0 0 0 - - - 0;
#X text 840 851 error;
#X obj 618 734 fluid.mlpregressor mlp -hiddenlayers 5 -activation 1 -outputactivation 1 -batchsize 1 -maxiter 10000 -learnrate 0.1 -validation 0, f 42;
#X obj 619 652 spigot;
#X obj 677 585 t b l;
#X obj 619 959 outlet;
#X obj 641 959 outlet;
#X obj 662 959 outlet;
#X obj 683 959 outlet;
#X obj 704 959 outlet;
#X obj 725 959 outlet;
#X obj 746 959 outlet;
#X obj 768 959 outlet;
#X obj 790 959 outlet;
#X obj 811 959 outlet;
#N canvas 353 378 783 300 packslider 0;
#X obj 6 55 pack f 0;
#X obj 70 55 pack f 1;
#X obj 133 55 pack f 2;
#X obj 197 55 pack f 3;
#X obj 262 55 pack f 4;
#X obj 324 54 pack f 5;
#X obj 388 54 pack f 6;
#X obj 451 54 pack f 7;
#X obj 515 54 pack f 8;
#X obj 6 102 outlet;
#X obj 7 27 inlet;
#X obj 263 27 inlet;
#X obj 133 29 inlet;
#X obj 196 27 inlet;
#X obj 580 54 pack f 9;
#X obj 70 28 inlet;
#X obj 322 24 inlet;
#X obj 578 24 inlet;
#X obj 448 26 inlet;
#X obj 511 24 inlet;
#X obj 385 25 inlet;
#X connect 0 0 9 0;
#X connect 1 0 9 0;
#X connect 2 0 9 0;
#X connect 3 0 9 0;
#X connect 4 0 9 0;
#X connect 5 0 9 0;
#X connect 6 0 9 0;
#X connect 7 0 9 0;
#X connect 8 0 9 0;
#X connect 10 0 0 0;
#X connect 11 0 4 0;
#X connect 12 0 2 0;
#X connect 13 0 3 0;
#X connect 14 0 9 0;
#X connect 15 0 1 0;
#X connect 16 0 5 0;
#X connect 17 0 14 0;
#X connect 18 0 7 0;
#X connect 19 0 8 0;
#X connect 20 0 6 0;
#X restore 648 1150 pd packslider;
#X f 18;
#X obj 627 1092 inlet;
#X obj 649 1092 inlet;
#X obj 670 1092 inlet;
#X obj 691 1092 inlet;
#X obj 712 1092 inlet;
#X obj 733 1092 inlet;
#X obj 754 1092 inlet;
#X obj 776 1092 inlet;
#X obj 798 1092 inlet;
#X obj 819 1092 inlet;
#X obj 339 329 inlet;
#X obj 401 329 inlet;
#X obj 987 480 inlet;
#X obj 1081 667 inlet;
#X obj 1139 299 inlet;
#X obj 873 876 outlet;
#X obj 1404 358 inlet;
#X obj 618 800 route predictpoint fit;
#X msg 618 709 predictpoint xybuf2 paramsbuf2;
#X obj 722 610 tabwrite xybuf2;
#X obj 722 641 array define xybuf2 2;
#X obj 1000 626 fluid.dataset xydata2;
#X msg 1000 602 addpoint \$1 xybuf2;
#X obj 618 876 array get paramsbuf2;
#X obj 648 1173 tabwrite paramsbuf2;
#X obj 1174 626 fluid.dataset paramsdata2;
#X msg 1174 602 addpoint \$1 paramsbuf2;
#X msg 900 709 fit xydata2 paramsdata2;
#X obj 648 1194 array define paramsbuf2 10;
#X connect 0 0 1 0;
#X connect 1 0 34 0;
#X connect 2 0 3 0;
#X connect 3 0 34 0;
#X connect 4 0 68 0;
#X connect 4 0 26 0;
#X connect 4 0 72 0;
#X connect 5 0 4 0;
#X connect 6 0 67 0;
#X connect 6 0 71 0;
#X connect 7 0 67 0;
#X connect 7 0 71 0;
#X connect 8 0 33 1;
#X connect 9 0 35 0;
#X connect 9 1 36 0;
#X connect 9 2 37 0;
#X connect 9 3 38 0;
#X connect 9 4 39 0;
#X connect 9 5 40 0;
#X connect 9 6 41 0;
#X connect 9 7 42 0;
#X connect 9 8 43 0;
#X connect 9 9 44 0;
#X connect 12 0 69 0;
#X connect 14 0 13 0;
#X connect 26 0 4 1;
#X connect 29 0 30 0;
#X connect 30 0 61 0;
#X connect 32 0 63 0;
#X connect 33 0 64 0;
#X connect 34 0 33 0;
#X connect 34 1 65 0;
#X connect 45 0 70 0;
#X connect 46 0 45 0;
#X connect 47 0 45 1;
#X connect 48 0 45 2;
#X connect 49 0 45 3;
#X connect 50 0 45 4;
#X connect 51 0 45 5;
#X connect 52 0 45 6;
#X connect 53 0 45 7;
#X connect 54 0 45 8;
#X connect 55 0 45 9;
#X connect 56 0 0 0;
#X connect 57 0 2 0;
#X connect 58 0 5 0;
#X connect 59 0 73 0;
#X connect 60 0 8 0;
#X connect 62 0 7 0;
#X connect 63 0 12 0;
#X connect 63 1 29 0;
#X connect 64 0 32 0;
#X connect 68 0 67 0;
#X connect 69 0 9 0;
#X connect 72 0 71 0;
#X connect 73 0 32 0;
#X restore 1979 472 pd flucoma_freeze;
#X obj 884 -81 expr~ $v1 - 1.0/3 * pow($v1 \, 3);
#X obj 347 177 tabplay~ sound;
#X obj 347 102 bng 25 250 50 0 empty empty empty 0 -10 0 10 #ffffff #000000 #000000;
#X obj 347 272 *~;
#X obj 816 1040 *~;
#X obj 477 202 hsl 128 17 0 2 0 0 empty empty Gain -2 -8 0 10 #ffffff #000000 #000000 0 1;
#X obj 477 406 hsl 128 17 10 1000 1 0 empty empty Delay\ Time -2 -8 0 10 #ffffff #000000 #000000 0 1;
#X obj 502 519 hsl 128 17 0 2 0 0 empty empty Feedback\ Level -2 -8 0 10 #ffffff #000000 #000000 0 1;
#X obj 842 989 hsl 128 17 0 1 0 0 empty empty Volume -2 -8 0 10 #ffffff #000000 #000000 0 1;
#X obj 446 590 *~;
#X floatatom 474 432 5 0 0 0 - - - 12;
#X floatatom 499 550 5 0 0 0 - - - 16;
#X floatatom 839 1013 5 0 0 0 - - - 12;
#X floatatom 474 226 5 0 0 0 - - - 12;
#X obj 912 1228 hip~ 40;
#X obj 1098 1228 hip~ 40;
#X obj 912 1122 pan2~;
#X obj 955 1040 hsl 128 17 -1 1 0 0 empty empty empty -2 -8 0 10 #ffffff #000000 #000000 0 1;
#X obj 952 1092 f2s~;
#X obj 446 358 delwrite~ \$0-buffer_1 1000;
#X obj 474 457 delread~ \$0-buffer_1 10;
#X obj 816 737 lop~;
#X obj 816 856 hip~;
#X obj 848 665 hsl 128 17 0 20000 0 0 empty empty Frequency -2 -8 0 10 #ffffff #000000 #000000 0 1;
#X floatatom 845 691 5 0 0 0 - - - 12;
#X obj 849 786 hsl 128 17 0 20000 0 0 empty empty Frequency -2 -8 0 10 #ffffff #000000 #000000 0 1;
#X floatatom 843 810 5 0 0 0 - - - 12;
#X msg 898 691 20000;
#X msg 898 810 0;
#X obj 509 1000 delay~ 50;
#X obj 912 1167 *~ 0.5;
#X obj 1098 1167 *~ 0.5;
#X obj 509 1037 *~ 0.5;
#X obj 445 1037 *~ 0.5;
#X obj 445 885 freq.shift~ -400;
#X floatatom 541 857 5 0 0 0 - - - 12;
#X floatatom 570 967 5 0 0 0 - - - 12;
#X obj 446 804 *~;
#X obj 476 736 hsl 128 17 0 1 0 0 empty empty Volume -2 -8 0 10 #ffffff #000000 #000000 0 1;
#X floatatom 473 769 5 0 0 0 - - - 16;
#X obj 573 939 hsl 128 17 0 200 0 0 empty empty Miliseconds -2 -8 0 10 #ffffff #000000 #000000 0 1;
#X obj 544 830 hsl 128 17 0 400 0 0 empty empty Freq\ Shift -2 -8 0 10 #ffffff #000000 #000000 0 1;
#X obj 816 932 freq.shift~ -400;
#X floatatom 912 904 5 0 0 0 - - - 12;
#X obj 915 873 hsl 128 17 0 400 0 0 empty empty Freq\ Shift -2 -8 0 10 #ffffff #000000 #000000 0 1;
#X obj 445 1156 hip~ 40;
#X obj 541 1156 hip~ 40;
#X obj 763 572 hsl 128 17 0 2 0 0 empty empty Feedback\ Level\ 2 -2 -8 0 10 #ffffff #000000 #000000 0 1;
#X floatatom 760 603 5 0 0 0 - - - 16;
#X obj 733 635 *~;
#X obj 1016 128 scale 0 1 0 2;
#X obj 1082 620 scale 0 1 200000 0;
#X obj 861 343 scale 0 1 0 1;
#X obj 1135 552 scale 0 1 0 100;
#X obj 1493 856 random 100;
#X obj 1488 781 bng 25 250 50 0 empty empty empty 0 -10 0 10 #ffffff #000000 #000000;
#X obj 1493 885 / 100;
#X obj 1583 856 random 100;
#X obj 1583 885 / 100;
#X obj 1675 856 random 100;
#X obj 1675 885 / 100;
#X obj 1769 856 random 100;
#X obj 1769 885 / 100;
#X obj 1863 856 random 100;
#X obj 1863 885 / 100;
#X obj 1488 921 random 100;
#X obj 1578 921 random 100;
#X obj 1578 950 / 100;
#X obj 1670 921 random 100;
#X obj 1670 950 / 100;
#X obj 1764 921 random 100;
#X obj 1764 950 / 100;
#X obj 1858 921 random 100;
#X obj 1858 950 / 100;
#X obj 1488 950 / 100;
#X msg 508 98 stop;
#X obj 472 -25 osc~ 440;
#X obj 472 28 *~;
#X obj 524 46 hsl 128 17 0 2 0 0 empty empty Gain -2 -8 0 10 #ffffff #000000 #000000 0 1;
#X obj 896 1339 meter2~;
#X floatatom 960 1496 7 0 0 0 - - - 8;
#X obj 1108 668 scale 0 1 0 2;
#X obj 871 443 scale 0 1 -400 400;
#X obj 1123 358 scale 0 1 -500 500;
#X obj 1098 1268 clip~ -0.15 0.15;
#X obj 912 1268 clip~ -0.15 0.15;
#X obj 541 1196 clip~ -0.15 0.15;
#X obj 445 1196 clip~ -0.15 0.15;
#X floatatom 534 -108 5 0 0 0 - - - 12;
#X obj 1149 406 scale 0 1 -1 1;
#X obj 830 44 scale 0 1 0 2;
#X obj 2504 -39 r butt1;
#X obj 1815 -39 r butt2;
#X obj 2187 -152 r butt3;
#X obj 2280 -114 r butt4;
#X obj 2720 420 s select_predict;
#X obj 1941 176 r sensor1;
#X obj 2014 176 r sensor2;
#X obj 681 -560 loadbang;
#X obj 681 -534 t b b;
#X obj 606 -629 bng 25 250 50 0 empty empty empty 0 -10 0 10 #ffffff #000000 #000000;
#X obj 880 1543 outlet~;
#X obj 945 1543 outlet~;
#X obj 1269 820 r knob3_press;
#X obj 1719 90 s parameter_count;
#X obj 2539 369 s error;
#X connect 2 0 0 0;
#X connect 3 0 0 0;
#X connect 5 0 4 0;
#X connect 6 0 7 0;
#X connect 7 0 4 0;
#X connect 11 0 4 0;
#X connect 14 0 46 0;
#X connect 14 0 64 0;
#X connect 14 0 173 0;
#X connect 14 0 77 14;
#X connect 15 0 77 13;
#X connect 16 0 77 12;
#X connect 27 0 77 0;
#X connect 28 0 77 1;
#X connect 29 0 183 0;
#X connect 32 0 31 0;
#X connect 35 0 36 0;
#X connect 38 0 35 0;
#X connect 38 0 182 0;
#X connect 39 0 50 0;
#X connect 40 0 50 3;
#X connect 41 0 40 0;
#X connect 43 0 44 0;
#X connect 44 0 14 0;
#X connect 46 0 40 0;
#X connect 47 0 14 0;
#X connect 48 0 49 0;
#X connect 49 0 47 0;
#X connect 50 0 38 0;
#X connect 51 0 66 0;
#X connect 51 0 77 2;
#X connect 52 0 128 0;
#X connect 52 0 77 3;
#X connect 53 0 130 0;
#X connect 53 0 77 4;
#X connect 54 0 160 0;
#X connect 54 0 77 5;
#X connect 55 0 161 0;
#X connect 55 0 77 6;
#X connect 56 0 167 0;
#X connect 56 0 77 7;
#X connect 57 0 168 0;
#X connect 57 0 77 8;
#X connect 58 0 131 0;
#X connect 58 0 77 9;
#X connect 59 0 129 0;
#X connect 59 0 77 10;
#X connect 60 0 159 0;
#X connect 60 0 77 11;
#X connect 61 0 59 0;
#X connect 61 0 56 0;
#X connect 61 0 53 0;
#X connect 61 0 52 0;
#X connect 61 0 55 0;
#X connect 61 0 57 0;
#X connect 61 0 60 0;
#X connect 61 0 58 0;
#X connect 61 0 51 0;
#X connect 61 0 54 0;
#X connect 62 0 59 0;
#X connect 62 0 56 0;
#X connect 62 0 53 0;
#X connect 62 0 52 0;
#X connect 62 0 55 0;
#X connect 62 0 57 0;
#X connect 62 0 60 0;
#X connect 62 0 58 0;
#X connect 62 0 51 0;
#X connect 62 0 54 0;
#X connect 63 0 59 0;
#X connect 63 0 56 0;
#X connect 63 0 53 0;
#X connect 63 0 52 0;
#X connect 63 0 55 0;
#X connect 63 0 57 0;
#X connect 63 0 60 0;
#X connect 63 0 58 0;
#X connect 63 0 51 0;
#X connect 63 0 54 0;
#X connect 64 0 77 15;
#X connect 66 0 84 0;
#X connect 67 0 51 0;
#X connect 68 0 52 0;
#X connect 69 0 53 0;
#X connect 70 0 54 0;
#X connect 71 0 55 0;
#X connect 72 0 56 0;
#X connect 73 0 57 0;
#X connect 74 0 58 0;
#X connect 75 0 59 0;
#X connect 76 0 60 0;
#X connect 77 0 51 0;
#X connect 77 1 52 0;
#X connect 77 2 53 0;
#X connect 77 3 54 0;
#X connect 77 4 55 0;
#X connect 77 5 56 0;
#X connect 77 6 57 0;
#X connect 77 7 58 0;
#X connect 77 8 59 0;
#X connect 77 9 60 0;
#X connect 77 10 29 0;
#X connect 79 0 81 0;
#X connect 79 1 80 0;
#X connect 80 0 79 0;
#X connect 81 0 97 0;
#X connect 82 0 94 0;
#X connect 83 0 91 0;
#X connect 84 0 88 0;
#X connect 85 0 89 0;
#X connect 86 0 90 0;
#X connect 87 0 99 0;
#X connect 87 0 115 0;
#X connect 87 0 97 0;
#X connect 88 0 98 0;
#X connect 89 0 87 1;
#X connect 90 0 82 1;
#X connect 91 0 81 1;
#X connect 92 0 163 0;
#X connect 93 0 162 0;
#X connect 94 0 108 0;
#X connect 94 1 109 0;
#X connect 95 0 96 0;
#X connect 96 0 94 1;
#X connect 98 0 87 0;
#X connect 99 0 100 0;
#X connect 100 0 120 0;
#X connect 101 0 102 0;
#X connect 102 0 99 1;
#X connect 103 0 104 0;
#X connect 104 0 100 1;
#X connect 105 0 101 0;
#X connect 106 0 103 0;
#X connect 107 0 110 0;
#X connect 108 0 92 0;
#X connect 109 0 93 0;
#X connect 110 0 124 0;
#X connect 111 0 123 0;
#X connect 112 0 107 0;
#X connect 112 0 111 0;
#X connect 113 0 112 1;
#X connect 114 0 107 1;
#X connect 115 0 112 0;
#X connect 116 0 117 0;
#X connect 117 0 115 1;
#X connect 118 0 114 0;
#X connect 119 0 113 0;
#X connect 120 0 82 0;
#X connect 120 0 127 0;
#X connect 120 1 94 0;
#X connect 121 0 120 1;
#X connect 122 0 121 0;
#X connect 123 0 165 0;
#X connect 124 0 164 0;
#X connect 125 0 126 0;
#X connect 126 0 127 1;
#X connect 127 0 97 0;
#X connect 128 0 85 0;
#X connect 128 0 125 0;
#X connect 129 0 101 0;
#X connect 130 0 116 0;
#X connect 131 0 118 0;
#X connect 132 0 134 0;
#X connect 133 0 132 0;
#X connect 133 0 135 0;
#X connect 133 0 141 0;
#X connect 133 0 139 0;
#X connect 133 0 137 0;
#X connect 133 0 143 0;
#X connect 133 0 150 0;
#X connect 133 0 148 0;
#X connect 133 0 146 0;
#X connect 133 0 144 0;
#X connect 134 0 51 0;
#X connect 135 0 136 0;
#X connect 136 0 52 0;
#X connect 137 0 138 0;
#X connect 138 0 53 0;
#X connect 139 0 140 0;
#X connect 140 0 54 0;
#X connect 141 0 142 0;
#X connect 142 0 55 0;
#X connect 143 0 152 0;
#X connect 144 0 145 0;
#X connect 145 0 57 0;
#X connect 146 0 147 0;
#X connect 147 0 58 0;
#X connect 148 0 149 0;
#X connect 149 0 59 0;
#X connect 150 0 151 0;
#X connect 151 0 60 0;
#X connect 152 0 56 0;
#X connect 153 0 79 0;
#X connect 154 0 155 0;
#X connect 155 0 81 0;
#X connect 156 0 155 1;
#X connect 157 0 179 0;
#X connect 157 1 180 0;
#X connect 157 2 158 0;
#X connect 159 0 83 0;
#X connect 160 0 119 0;
#X connect 161 0 122 0;
#X connect 162 0 157 1;
#X connect 163 0 157 0;
#X connect 164 0 157 1;
#X connect 165 0 157 0;
#X connect 166 0 154 0;
#X connect 167 0 95 0;
#X connect 168 0 156 0;
#X connect 169 0 47 0;
#X connect 170 0 50 0;
#X connect 171 0 16 0;
#X connect 172 0 15 0;
#X connect 174 0 27 0;
#X connect 175 0 28 0;
#X connect 176 0 177 0;
#X connect 177 0 8 0;
#X connect 177 0 80 0;
#X connect 177 1 3 0;
#X connect 178 0 177 0;
#X connect 181 0 133 0;
#X restore 1459 479 pd freeze_sensors;
#X obj 982 565 r parameter_count;
#X obj 1109 565 r error;
#X floatatom 1109 592 5 0 0 0 - - - 12;
#X floatatom 982 592 5 0 0 0 - - - 12;
#X connect 4 0 3 0;
#X connect 5 0 3 0;
#X connect 13 0 16 0;
#X connect 16 0 14 0;
#X connect 17 0 18 0;
#X connect 18 0 16 0;
#X connect 20 0 31 0;
#X connect 21 0 32 0;
#X connect 22 0 33 0;
#X connect 23 0 34 0;
#X connect 24 0 36 0;
#X connect 25 0 37 0;
#X connect 26 0 38 0;
#X connect 27 0 39 0;
#X connect 28 0 57 0;
#X connect 29 0 58 0;
#X connect 30 0 59 0;
#X connect 35 0 60 0;
#X connect 48 0 9 0;
#X connect 49 0 6 0;
#X connect 53 0 10 0;
#X connect 54 0 11 0;
#X connect 55 0 7 0;
#X connect 56 0 8 0;
#X connect 61 0 4 0;
#X connect 62 0 15 0;
#X connect 63 0 5 0;
#X connect 64 0 12 0;
#X connect 68 0 19 0;
#X connect 71 0 73 0;
#X connect 72 0 74 0;
#X connect 76 0 75 0;
#X connect 78 0 79 0;
#X connect 79 0 76 0;
#X connect 79 0 80 0;
#X connect 80 0 81 0;
#X connect 82 0 85 0;
#X connect 82 0 87 0;
#X connect 82 0 86 0;
#X connect 82 0 88 0;
#X connect 83 0 89 0;
#X connect 83 0 90 0;
#X connect 83 0 92 0;
#X connect 83 0 91 0;
#X connect 84 0 93 0;
#X connect 84 0 95 0;
#X connect 84 0 94 0;
#X connect 84 0 96 0;
#X connect 85 0 105 0;
#X connect 86 0 106 0;
#X connect 87 0 107 0;
#X connect 88 0 108 0;
#X connect 89 0 101 0;
#X connect 90 0 102 0;
#X connect 91 0 103 0;
#X connect 92 0 104 0;
#X connect 93 0 97 0;
#X connect 94 0 98 0;
#X connect 95 0 99 0;
#X connect 96 0 100 0;
#X connect 97 0 24 0;
#X connect 98 0 25 0;
#X connect 99 0 26 0;
#X connect 100 0 27 0;
#X connect 101 0 28 0;
#X connect 102 0 29 0;
#X connect 103 0 30 0;
#X connect 104 0 35 0;
#X connect 105 0 20 0;
#X connect 106 0 21 0;
#X connect 107 0 22 0;
#X connect 108 0 23 0;
#X connect 109 0 110 0;
#X connect 109 0 112 0;
#X connect 109 0 111 0;
#X connect 109 0 113 0;
#X connect 110 0 73 0;
#X connect 111 0 74 0;
#X connect 112 0 129 0;
#X connect 113 0 130 0;
#X connect 114 0 116 0;
#X connect 114 0 120 0;
#X connect 115 0 117 0;
#X connect 118 0 122 0;
#X connect 118 0 116 1;
#X connect 118 0 131 1;
#X connect 118 0 132 1;
#X connect 118 0 117 1;
#X connect 119 0 118 0;
#X connect 120 0 119 0;
#X connect 121 0 119 0;
#X connect 122 0 121 0;
#X connect 123 0 131 0;
#X connect 124 0 132 0;
#X connect 127 0 129 0;
#X connect 128 0 130 0;
#X connect 134 0 3 0;
#X connect 134 1 3 1;
#X connect 135 0 138 0;
#X connect 136 0 137 0;
