#N canvas 182 62 1512 916 12;
#X obj 119 712 dac~;
#X msg 1024 -293 \; pd dsp \$1;
#X obj 1024 -320 tgl 19 0 empty empty empty 0 -10 0 12 #fcfcfc #000000 #000000 0 1;
#X obj 1181 -346 wearpi-controls;
#X obj 1024 -387 loadbang;
#X obj 120 615 *~;
#X obj 154 618 *~;
#X obj 1054 93 r enc-rot;
#X obj 1051 180 vsl 19 162 0.01 1 1 0 empty empty empty 0 -9 0 12 #fcfcfc #000000 #000000 0 1;
#X obj 1031 36 loadbang;
#X msg 1031 60 0.8;
#X msg 1054 117 \$1;
#X obj 1054 145 rot2slider;
#X obj 1024 -363 del 2000;
#X msg 1110 -311 "starting DSP";
#X obj 1110 -287 print DSP;
#X obj 636 145 vsl 19 162 0 1 0 0 empty empty empty 0 -9 0 12 #fcfcfc #000000 #000000 0 1;
#X obj 663 129 r enc-rot;
#X msg 663 153 \$2;
#X obj 664 188 rot2slider;
#X obj 122 455 *~;
#X obj 159 454 *~;
#X obj 634 78 loadbang;
#X obj 122 517 rev2~ 100 90 3000 20;
#X obj 169 555 rev2~ 100 90 3000 20;
#X obj 833 151 vsl 19 162 0 1 0 0 empty empty empty 0 -9 0 12 #fcfcfc #000000 #000000 0 1;
#X obj 861 107 r enc-rot;
#X msg 861 131 \$3;
#X obj 861 159 rot2slider;
#X obj 836 51 loadbang;
#X msg 836 75 0;
#X obj 1248 94 r enc-but;
#X obj 1248 142 sel 1;
#X obj 1248 166 tgl 19 0 empty empty empty 0 -10 0 12 #fcfcfc #000000 #000000 0 1;
#X obj 1323 94 loadbang;
#X obj 112 660 *~;
#X msg 1249 242 \$1 50;
#X obj 1248 345 line~;
#X obj 147 661 *~;
#X obj 1248 191 swap 1;
#X obj 1248 213 -;
#X text 1271 167 mute;
#X msg 1248 118 \$1;
#X msg 1323 118 0;
#X obj 122 75 adc~;
#N canvas 0 62 1764 795 juli-fx 0;
#X obj 732 1217 outlet~;
#X obj 25 120 inlet~;
#X obj 136 18 inlet;
#X obj 183 16 inlet;
#X obj 240 17 inlet;
#X obj 292 16 inlet;
#X obj 342 15 inlet;
#X obj 394 14 inlet;
#X obj 727 763 pitch.shift~;
#X floatatom 753 705 5 0 0 0 - - - 12;
#X floatatom 779 652 5 0 0 0 - - - 12;
#X obj 812 763 pitch.shift~;
#X obj 962 763 pitch.shift~;
#X floatatom 988 705 5 0 0 0 - - - 12;
#X floatatom 1014 652 5 0 0 0 - - - 12;
#X obj 1047 763 pitch.shift~;
#X obj 480 763 pitch.shift~;
#X floatatom 506 705 5 0 0 0 - - - 12;
#X floatatom 532 652 5 0 0 0 - - - 12;
#X obj 565 763 pitch.shift~;
#X obj 727 1047 *~ 0.8;
#X obj 812 1047 *~ 0.8;
#X obj 962 1047 *~ 0.6;
#X obj 1047 1047 *~ 0.6;
#X obj 480 1047 *~ 0.8;
#X obj 565 1047 *~ 0.8;
#X floatatom 503 996 5 0 1 0 - - - 12;
#X floatatom 588 996 5 0 1 0 - - - 12;
#X floatatom 750 996 5 0 1 0 - - - 12;
#X floatatom 835 996 5 0 1 0 - - - 12;
#X floatatom 985 996 5 0 1 0 - - - 12;
#X floatatom 1070 996 5 0 1 0 - - - 12;
#X obj 501 895 loadbang;
#X msg 503 943 1;
#X msg 750 933 0.8;
#X msg 985 933 0.6;
#X obj 906 377 loadbang;
#X msg 506 581 -2400;
#X msg 753 574 1200;
#X msg 988 574 2400;
#X msg 1048 572 9;
#X msg 806 575 75;
#X msg 575 581 75;
#X obj 617 705 + 1000;
#X obj 864 705 + 2000;
#X obj 1099 705 + 4000;
#X obj 330 82 vsl 17 128 0 1 0 0 empty empty empty 0 -9 0 10 #e4e4e4 #4d4d4d #373737 0 1;
#X obj 385 82 vsl 17 128 0 1 0 0 empty empty empty 0 -9 0 10 #e4e4e4 #4d4d4d #373737 0 1;
#X obj 441 82 vsl 17 128 0 1 0 0 empty empty empty 0 -9 0 10 #e4e4e4 #4d4d4d #373737 0 1;
#X obj 137 84 vsl 17 128 0 1 0 0 empty empty empty 0 -9 0 10 #e4e4e4 #4d4d4d #373737 0 1;
#X obj 192 84 vsl 17 128 0 1 0 0 empty empty empty 0 -9 0 10 #e4e4e4 #4d4d4d #373737 0 1;
#X obj 248 82 vsl 17 128 0 1 0 0 empty empty empty 0 -9 0 10 #e4e4e4 #4d4d4d #373737 0 1;
#X obj 324 685 scale 0 1 0 1000;
#X obj 360 654 scale 0 1 0 2000;
#X obj 396 623 scale 0 1 0 4000;
#X floatatom 1166 639 5 0 0 0 - - - 12;
#X msg 1179 603 2;
#X msg 1217 596 3000;
#X obj 812 1218 outlet~;
#X connect 1 0 16 0;
#X connect 1 0 19 0;
#X connect 1 0 15 0;
#X connect 1 0 12 0;
#X connect 1 0 11 0;
#X connect 1 0 8 0;
#X connect 2 0 49 0;
#X connect 3 0 50 0;
#X connect 4 0 51 0;
#X connect 5 0 46 0;
#X connect 6 0 47 0;
#X connect 7 0 48 0;
#X connect 8 0 20 0;
#X connect 9 0 11 1;
#X connect 9 0 8 1;
#X connect 10 0 44 0;
#X connect 10 0 8 2;
#X connect 11 0 21 0;
#X connect 12 0 22 0;
#X connect 13 0 15 1;
#X connect 13 0 12 1;
#X connect 14 0 45 0;
#X connect 14 0 12 2;
#X connect 15 0 23 0;
#X connect 16 0 24 0;
#X connect 17 0 16 1;
#X connect 17 0 19 1;
#X connect 18 0 43 0;
#X connect 18 0 16 2;
#X connect 19 0 25 0;
#X connect 20 0 0 0;
#X connect 21 0 58 0;
#X connect 22 0 0 0;
#X connect 23 0 58 0;
#X connect 24 0 0 0;
#X connect 25 0 58 0;
#X connect 26 0 24 1;
#X connect 27 0 25 1;
#X connect 28 0 20 1;
#X connect 29 0 21 1;
#X connect 30 0 22 1;
#X connect 31 0 23 1;
#X connect 32 0 33 0;
#X connect 32 0 34 0;
#X connect 32 0 35 0;
#X connect 33 0 27 0;
#X connect 33 0 26 0;
#X connect 34 0 29 0;
#X connect 34 0 28 0;
#X connect 35 0 31 0;
#X connect 35 0 30 0;
#X connect 36 0 38 0;
#X connect 36 0 39 0;
#X connect 36 0 37 0;
#X connect 36 0 41 0;
#X connect 36 0 40 0;
#X connect 36 0 42 0;
#X connect 36 0 56 0;
#X connect 37 0 17 0;
#X connect 38 0 9 0;
#X connect 39 0 13 0;
#X connect 40 0 14 0;
#X connect 41 0 10 0;
#X connect 42 0 18 0;
#X connect 43 0 19 2;
#X connect 44 0 11 2;
#X connect 45 0 15 2;
#X connect 46 0 25 1;
#X connect 46 0 24 1;
#X connect 47 0 21 1;
#X connect 47 0 20 1;
#X connect 48 0 23 1;
#X connect 48 0 22 1;
#X connect 49 0 52 0;
#X connect 50 0 53 0;
#X connect 51 0 54 0;
#X connect 52 0 18 0;
#X connect 53 0 10 0;
#X connect 54 0 14 0;
#X connect 55 0 45 1;
#X connect 55 0 44 1;
#X connect 55 0 43 1;
#X connect 56 0 45 1;
#X connect 56 0 44 1;
#X connect 56 0 43 1;
#X connect 57 0 45 1;
#X connect 57 0 44 1;
#X connect 57 0 43 1;
#X restore 122 359 pd juli-fx;
#X f 27;
#X obj 805 344 * 100;
#X floatatom 805 370 5 0 0 0 - - - 12;
#X msg 634 102 1;
#X connect 2 0 1 0;
#X connect 4 0 13 0;
#X connect 5 0 35 1;
#X connect 6 0 38 1;
#X connect 7 0 11 0;
#X connect 8 0 5 1;
#X connect 8 0 6 1;
#X connect 9 0 10 0;
#X connect 10 0 8 0;
#X connect 11 0 12 0;
#X connect 12 0 8 0;
#X connect 13 0 2 0;
#X connect 13 0 14 0;
#X connect 14 0 15 0;
#X connect 16 0 21 1;
#X connect 16 0 20 1;
#X connect 17 0 18 0;
#X connect 18 0 19 0;
#X connect 19 0 16 0;
#X connect 20 0 23 0;
#X connect 21 0 24 0;
#X connect 22 0 48 0;
#X connect 23 0 5 0;
#X connect 24 0 6 0;
#X connect 25 0 46 0;
#X connect 26 0 27 0;
#X connect 27 0 28 0;
#X connect 28 0 25 0;
#X connect 29 0 30 0;
#X connect 30 0 25 0;
#X connect 31 0 42 0;
#X connect 32 0 33 0;
#X connect 33 0 39 0;
#X connect 34 0 43 0;
#X connect 35 0 0 0;
#X connect 36 0 37 0;
#X connect 37 0 35 0;
#X connect 37 0 38 0;
#X connect 39 0 40 0;
#X connect 39 1 40 1;
#X connect 40 0 36 0;
#X connect 42 0 32 0;
#X connect 43 0 33 0;
#X connect 44 0 45 0;
#X connect 44 1 45 0;
#X connect 45 0 20 0;
#X connect 45 0 21 0;
#X connect 46 0 47 0;
#X connect 47 0 23 2;
#X connect 47 0 24 2;
#X connect 48 0 16 0;
