#N canvas 827 239 734 565 12;
#N canvas 733 172 450 300 sensor_data 0;
#X obj 278 187 oscparse;
#X obj 278 229 list trim;
#X obj 278 139 netreceive -u -b 5001;
#X obj 278 273 route extIMU;
#X obj 278 315 route acc gyro;
#X floatatom 278 400 5 0 0 0 - - - 12;
#X floatatom 336 400 5 0 0 0 - - - 12;
#X floatatom 394 400 5 0 0 0 - - - 12;
#X obj 278 359 unpack f f f;
#X floatatom 473 400 5 0 0 0 - - - 12;
#X floatatom 531 400 5 0 0 0 - - - 12;
#X floatatom 591 400 5 0 0 0 - - - 12;
#X obj 473 359 unpack f f f;
#X text 272 32 WITH ARDUINO CODE: wearable_computing_board;
#X text 272 55 osc messages;
#X obj 404 653 + 180;
#X obj 407 704 mod 360;
#X floatatom 407 730 5 0 0 0 - - - 12;
#X obj 832 704 mod 360;
#X floatatom 832 739 5 0 0 0 - - - 12;
#X obj 807 599 expr atan2(-$f1 \, $f2)*180/3.14159;
#X obj 832 653 + 180;
#X floatatom 751 852 5 0 0 0 - - - 12;
#X obj 751 826 count;
#X obj 751 796 bng 25 250 50 0 empty empty empty 0 -10 0 10 #ffffff #000000 #000000;
#X msg 806 796 0;
#X obj 841 796 sel 300;
#X msg 375 99 listen 0;
#X obj 449 229 print;
#X msg 278 99 listen 5001;
#X obj 407 594 expr atan2($f1 \, sqrt(pow($f2 \, 2)+pow($f3 \, 2)))*360/3.14159;
#X text 789 378 pitch = rotation around y axis \; roll = rotation around x axis \; yaw = rotation around z axis;
#X text 407 300 acc measures the gravitional acceleration \; gyro measures the rotational velocity;
#X text 407 490 ORIENTATION \; \; pitch = math.atan2(accel_x \, math.sqrt(accel_y**2 + accel_z**2)) * 180 / math.pi \; \; roll = math.atan2(-accel_y \, accel_z) * 180 / math.pi;
#X text -401 478 GRAVITIONAL ACCELERATION;
#X text 9 478 ROTATIONAL VELOCITY;
#X obj 407 796 tabwrite \$0-array-pitch_orientation;
#X obj 989 796 tabwrite \$0-array-roll_orientation;
#X floatatom -390 549 5 0 0 0 - - - 12;
#X floatatom -332 549 5 0 0 0 - - - 12;
#X floatatom -271 549 5 0 0 0 - - - 12;
#X floatatom 11 549 5 0 0 0 - - - 12;
#X floatatom 69 549 5 0 0 0 - - - 12;
#X floatatom 129 549 5 0 0 0 - - - 12;
#X obj 407 1206 outlet;
#X obj 832 1206 outlet;
#X connect 0 0 1 0;
#X connect 1 0 3 0;
#X connect 2 0 0 0;
#X connect 3 0 4 0;
#X connect 4 0 8 0;
#X connect 4 1 12 0;
#X connect 5 0 30 0;
#X connect 5 0 38 0;
#X connect 6 0 30 1;
#X connect 6 0 20 0;
#X connect 6 0 39 0;
#X connect 7 0 20 1;
#X connect 7 0 30 2;
#X connect 7 0 40 0;
#X connect 8 0 5 0;
#X connect 8 1 6 0;
#X connect 8 2 7 0;
#X connect 9 0 41 0;
#X connect 10 0 42 0;
#X connect 11 0 43 0;
#X connect 12 0 9 0;
#X connect 12 1 10 0;
#X connect 12 2 11 0;
#X connect 15 0 16 0;
#X connect 16 0 17 0;
#X connect 17 0 36 0;
#X connect 17 0 44 0;
#X connect 18 0 19 0;
#X connect 19 0 24 0;
#X connect 19 0 37 0;
#X connect 19 0 45 0;
#X connect 20 0 21 0;
#X connect 21 0 18 0;
#X connect 22 0 26 0;
#X connect 22 0 36 1;
#X connect 22 0 37 1;
#X connect 23 0 22 0;
#X connect 24 0 23 0;
#X connect 25 0 23 0;
#X connect 26 0 25 0;
#X connect 27 0 2 0;
#X connect 29 0 2 0;
#X connect 30 0 15 0;
#X coords 0 0 1 1 200 140 0;
#X restore 199 -183 pd sensor_data;
#N canvas 733 172 450 300 knobs_buttons 0;
#X obj 859 71 notein;
#X floatatom 859 114 5 0 0 0 - - - 12;
#X floatatom 909 114 5 0 0 0 - - - 12;
#X floatatom 970 114 5 0 0 0 - - - 12;
#X obj 1054 70 ctlin;
#X floatatom 1054 112 5 0 0 0 - - - 12;
#X floatatom 1103 113 5 0 0 0 - - - 12;
#X floatatom 1162 114 5 0 0 0 - - - 12;
#X obj 1045 266 sel 1 127;
#X obj 1047 487 vsl 19 162 0 1 0 0 empty empty empty 0 -9 0 12 #ffb5f9 #000000 #000000 0 1;
#X floatatom 1095 358 5 0 1 0 - - - 0;
#X obj 1045 381 +;
#X floatatom 1045 457 5 0 0 0 - - - 12;
#X msg 1047 296 1;
#X msg 1080 296 -1;
#X floatatom 1045 663 5 0 0 0 - - - 12;
#X obj 1095 331 clip 1 126;
#X obj 1205 266 sel 1 127;
#X obj 1207 487 vsl 19 162 0 1 0 0 empty empty empty 0 -9 0 12 #ffb5f9 #000000 #000000 0 1;
#X floatatom 1255 358 5 0 1 0 - - - 0;
#X obj 1205 381 +;
#X floatatom 1205 457 5 0 0 0 - - - 12;
#X msg 1207 296 1;
#X msg 1240 296 -1;
#X floatatom 1205 663 5 0 0 0 - - - 12;
#X obj 1255 331 clip 1 126;
#X obj 1366 266 sel 1 127;
#X obj 1368 487 vsl 19 162 0 1 0 0 empty empty empty 0 -9 0 12 #ffb5f9 #000000 #000000 0 1;
#X floatatom 1416 358 5 0 1 0 - - - 0;
#X obj 1366 381 +;
#X floatatom 1366 457 5 0 0 0 - - - 12;
#X msg 1368 296 1;
#X msg 1401 296 -1;
#X floatatom 1366 663 5 0 0 0 - - - 12;
#X obj 1416 331 clip 1 126;
#X obj 1537 266 sel 1 127;
#X obj 1539 487 vsl 19 162 0 1 0 0 empty empty empty 0 -9 0 12 #ffb5f9 #000000 #000000 0 1;
#X floatatom 1587 358 5 0 1 0 - - - 0;
#X obj 1537 381 +;
#X floatatom 1537 457 5 0 0 0 - - - 12;
#X msg 1539 296 1;
#X msg 1572 296 -1;
#X floatatom 1537 663 5 0 0 0 - - - 12;
#X obj 1587 331 clip 1 126;
#X obj 1103 183 sel 48 49 50 51;
#X obj 1045 230 i;
#X obj 1209 228 i;
#X obj 1373 230 i;
#X obj 1537 228 i;
#X obj 862 312 tgl 19 0 empty empty empty 0 -10 0 12 #fcfcfc #000000 #000000 0 1;
#X obj 862 338 sel 1;
#X obj 862 612 bng 25 250 50 0 empty empty empty 0 -10 0 10 #ffb5f9 #505050 #373737;
#X obj 904 312 tgl 19 0 empty empty empty 0 -10 0 12 #fcfcfc #000000 #000000 0 1;
#X obj 904 338 sel 1;
#X obj 904 612 bng 25 250 50 0 empty empty empty 0 -10 0 10 #ffb5f9 #505050 #373737;
#X obj 946 312 tgl 19 0 empty empty empty 0 -10 0 12 #fcfcfc #000000 #000000 0 1;
#X obj 946 338 sel 1;
#X obj 946 612 bng 25 250 50 0 empty empty empty 0 -10 0 10 #ffb5f9 #505050 #373737;
#X obj 988 312 tgl 19 0 empty empty empty 0 -10 0 12 #fcfcfc #000000 #000000 0 1;
#X obj 988 338 sel 1;
#X obj 988 612 bng 25 250 50 0 empty empty empty 0 -10 0 10 #ffb5f9 #505050 #373737;
#X text 859 18 MIDI ROUTING;
#X obj 1674 80 notein;
#X floatatom 1674 123 5 0 0 0 - - - 12;
#X floatatom 1724 123 5 0 0 0 - - - 12;
#X floatatom 1785 123 5 0 0 0 - - - 12;
#X obj 1677 321 tgl 19 0 empty empty empty 0 -10 0 12 #fcfcfc #000000 #000000 0 1;
#X obj 1677 347 sel 1;
#X obj 1045 694 bng 25 250 50 0 empty empty empty 0 -10 0 10 #ffb5f9 #505050 #373737;
#X obj 1719 321 tgl 19 0 empty empty empty 0 -10 0 12 #fcfcfc #000000 #000000 0 1;
#X obj 1719 347 sel 1;
#X obj 1205 694 bng 25 250 50 0 empty empty empty 0 -10 0 10 #ffb5f9 #505050 #373737;
#X obj 1761 321 tgl 19 0 empty empty empty 0 -10 0 12 #fcfcfc #000000 #000000 0 1;
#X obj 1761 347 sel 1;
#X obj 1366 694 bng 25 250 50 0 empty empty empty 0 -10 0 10 #ffb5f9 #505050 #373737;
#X obj 1803 321 tgl 19 0 empty empty empty 0 -10 0 12 #fcfcfc #000000 #000000 0 1;
#X obj 1803 347 sel 1;
#X obj 1537 694 bng 25 250 50 0 empty empty empty 0 -10 0 10 #ffb5f9 #505050 #373737;
#X obj 860 268 sel 60 62 64 65;
#X obj 476 905 outlet;
#X obj 536 905 outlet;
#X obj 597 905 outlet;
#X obj 658 905 outlet;
#X obj 878 905 outlet;
#X obj 938 905 outlet;
#X obj 1099 905 outlet;
#X obj 1160 905 outlet;
#X obj 1280 905 outlet;
#X obj 1340 905 outlet;
#X obj 1497 905 outlet;
#X obj 1558 905 outlet;
#X obj 1045 407 / 127;
#X obj 1205 407 / 127;
#X obj 1366 407 / 127;
#X obj 1537 407 / 127;
#X obj 1806 501 ctlin;
#X floatatom 1806 543 5 0 0 0 - - - 12;
#X floatatom 1855 544 5 0 0 0 - - - 12;
#X floatatom 1914 545 5 0 0 0 - - - 12;
#X obj 1855 614 sel 5 6 7 8;
#X obj 1813 669 i;
#X obj 1865 669 i;
#X obj 1919 669 i;
#X obj 1969 669 i;
#X text 1874 500 non endless knobs;
#X text 1117 69 endless knobs;
#X obj 1675 277 sel 68 69 71 72;
#X connect 0 0 1 0;
#X connect 0 1 2 0;
#X connect 0 2 3 0;
#X connect 1 0 78 0;
#X connect 4 0 5 0;
#X connect 4 1 6 0;
#X connect 4 2 7 0;
#X connect 5 0 48 1;
#X connect 5 0 47 1;
#X connect 5 0 46 1;
#X connect 5 0 45 1;
#X connect 6 0 44 0;
#X connect 8 0 13 0;
#X connect 8 1 14 0;
#X connect 9 0 15 0;
#X connect 9 0 16 0;
#X connect 9 0 83 0;
#X connect 10 0 11 1;
#X connect 11 0 91 0;
#X connect 12 0 9 0;
#X connect 13 0 11 0;
#X connect 14 0 11 0;
#X connect 16 0 10 0;
#X connect 17 0 22 0;
#X connect 17 1 23 0;
#X connect 18 0 24 0;
#X connect 18 0 25 0;
#X connect 18 0 85 0;
#X connect 19 0 20 1;
#X connect 20 0 92 0;
#X connect 21 0 18 0;
#X connect 22 0 20 0;
#X connect 23 0 20 0;
#X connect 25 0 19 0;
#X connect 26 0 31 0;
#X connect 26 1 32 0;
#X connect 27 0 33 0;
#X connect 27 0 34 0;
#X connect 27 0 87 0;
#X connect 28 0 29 1;
#X connect 29 0 93 0;
#X connect 30 0 27 0;
#X connect 31 0 29 0;
#X connect 32 0 29 0;
#X connect 34 0 28 0;
#X connect 35 0 40 0;
#X connect 35 1 41 0;
#X connect 36 0 42 0;
#X connect 36 0 43 0;
#X connect 36 0 89 0;
#X connect 37 0 38 1;
#X connect 38 0 94 0;
#X connect 39 0 36 0;
#X connect 40 0 38 0;
#X connect 41 0 38 0;
#X connect 43 0 37 0;
#X connect 44 0 45 0;
#X connect 44 1 46 0;
#X connect 44 2 47 0;
#X connect 44 3 48 0;
#X connect 45 0 8 0;
#X connect 46 0 17 0;
#X connect 47 0 26 0;
#X connect 48 0 35 0;
#X connect 49 0 50 0;
#X connect 50 0 51 0;
#X connect 51 0 79 0;
#X connect 52 0 53 0;
#X connect 53 0 54 0;
#X connect 54 0 80 0;
#X connect 55 0 56 0;
#X connect 56 0 57 0;
#X connect 57 0 81 0;
#X connect 58 0 59 0;
#X connect 59 0 60 0;
#X connect 60 0 82 0;
#X connect 62 0 63 0;
#X connect 62 1 64 0;
#X connect 62 2 65 0;
#X connect 63 0 106 0;
#X connect 66 0 67 0;
#X connect 67 0 68 0;
#X connect 68 0 84 0;
#X connect 69 0 70 0;
#X connect 70 0 71 0;
#X connect 71 0 86 0;
#X connect 72 0 73 0;
#X connect 73 0 74 0;
#X connect 74 0 88 0;
#X connect 75 0 76 0;
#X connect 76 0 77 0;
#X connect 77 0 90 0;
#X connect 78 0 49 0;
#X connect 78 1 52 0;
#X connect 78 2 55 0;
#X connect 78 3 58 0;
#X connect 91 0 12 0;
#X connect 92 0 21 0;
#X connect 93 0 30 0;
#X connect 94 0 39 0;
#X connect 95 0 96 0;
#X connect 95 1 97 0;
#X connect 95 2 98 0;
#X connect 96 0 100 1;
#X connect 96 0 101 1;
#X connect 96 0 102 1;
#X connect 96 0 103 1;
#X connect 97 0 99 0;
#X connect 99 0 100 0;
#X connect 99 1 101 0;
#X connect 99 2 102 0;
#X connect 99 3 103 0;
#X connect 100 0 91 0;
#X connect 101 0 92 0;
#X connect 102 0 93 0;
#X connect 103 0 94 0;
#X connect 106 0 66 0;
#X connect 106 1 69 0;
#X connect 106 2 72 0;
#X connect 106 3 75 0;
#X restore 731 -217 pd knobs_buttons;
#X obj 893 -139 vsl 19 162 0 1 0 0 empty empty empty 0 -9 0 12 #ff96ff #000000 #000000 0 1;
#X obj 934 -139 vsl 19 162 0 1 0 0 empty empty empty 0 -9 0 12 #ff96ff #000000 #000000 0 1;
#X obj 976 -139 vsl 19 162 0 1 0 0 empty empty empty 0 -9 0 12 #ff96ff #000000 #000000 0 1;
#X obj 1018 -139 vsl 19 162 0 1 0 0 empty empty empty 0 -9 0 12 #ff96ff #000000 #000000 0 1;
#X obj 731 39 bng 25 250 50 0 empty empty empty 0 -10 0 10 #ff96ff #505050 #373737;
#X obj 773 39 bng 25 250 50 0 empty empty empty 0 -10 0 10 #ff96ff #505050 #373737;
#X obj 815 39 bng 25 250 50 0 empty empty empty 0 -10 0 10 #ff96ff #505050 #373737;
#X obj 857 39 bng 25 250 50 0 empty empty empty 0 -10 0 10 #ff96ff #505050 #373737;
#X obj 893 39 bng 25 250 50 0 empty empty empty 0 -10 0 10 #ff96ff #505050 #373737;
#X obj 934 39 bng 25 250 50 0 empty empty empty 0 -10 0 10 #ff96ff #505050 #373737;
#X obj 976 39 bng 25 250 50 0 empty empty empty 0 -10 0 10 #ff96ff #505050 #373737;
#X obj 1018 39 bng 25 250 50 0 empty empty empty 0 -10 0 10 #ff96ff #505050 #373737;
#N canvas 0 0 450 250 (subpatch) 0;
#X array \$0-array-roll_orientation 300 float 0;
#X coords 0 360 299 0 400 140 1;
#X restore 271 -51 graph;
#N canvas 0 0 450 250 (subpatch) 0;
#X array \$0-array-pitch_orientation 300 float 0;
#X coords 0 360 299 0 400 140 1;
#X restore -161 -51 graph;
#X floatatom 199 -147 5 0 0 0 - - - 12;
#X floatatom 291 -150 5 0 0 0 - - - 12;
#N canvas 0 22 450 300 oled_display 0;
#X restore 259 469 pd oled_display;
#X obj 814 224 s button3;
#X obj 772 197 s button2;
#X obj 1078 -137 s knob1;
#X obj 1078 -113 s knob2;
#X obj 1078 -89 s knob3;
#X obj 1078 -65 s knob4;
#X obj 892 171 s knob_press1;
#X obj 934 197 s knob_press2;
#X obj 976 224 s knob_press3;
#X obj 1018 251 s knob_press4;
#N canvas 0 22 450 300 fx_knobs 0;
#X obj 99 79 inlet~;
#X obj 719 442 outlet~;
#X obj 186 339 lop.bw~;
#X obj 449 339 hip.bw~;
#X obj 186 166 r knob1;
#X obj 449 172 r knob2;
#X obj 186 192 * 15000;
#X obj 449 198 * 15000;
#X floatatom 186 218 5 0 0 0 - - - 12;
#X floatatom 449 224 5 0 0 0 - - - 12;
#X floatatom 729 230 5 0 0 0 - - - 12;
#X obj 657 178 * -1;
#X obj 657 204 + 1;
#X obj 729 176 r knob3;
#X floatatom 657 230 5 0 0 0 - - - 12;
#X obj 657 255 f2s~;
#X obj 657 339 *~;
#X obj 718 302 *~;
#X obj 729 255 f2s~;
#X obj 719 339 revdelay~ 2000;
#X connect 0 0 2 0;
#X connect 2 0 3 0;
#X connect 3 0 16 0;
#X connect 3 0 17 0;
#X connect 4 0 6 0;
#X connect 5 0 7 0;
#X connect 6 0 8 0;
#X connect 7 0 9 0;
#X connect 8 0 2 1;
#X connect 9 0 3 1;
#X connect 10 0 11 0;
#X connect 10 0 18 0;
#X connect 11 0 12 0;
#X connect 12 0 14 0;
#X connect 13 0 10 0;
#X connect 14 0 15 0;
#X connect 15 0 16 1;
#X connect 16 0 1 0;
#X connect 17 0 19 0;
#X connect 18 0 17 1;
#X connect 19 0 1 0;
#X restore 29 275 pd fx_knobs;
#N canvas 0 22 450 300 fx_sensors 0;
#X obj 85 647 inlet~;
#X obj 85 1023 outlet~;
#X obj 169 1023 outlet~;
#X obj 866 131 r pit_or;
#X obj 802 131 r roll_or;
#X floatatom 169 717 8 1 10000 0 - - - 0;
#X obj 85 798 else/crusher~;
#X obj 169 743 else/f2s~;
#X obj 409 481 vsl 19 162 0 1 0 0 empty empty 1 0 -9 0 12 #96ffff #000000 #000000 0 1;
#X obj 666 542 vsl 19 162 0 1 0 0 empty empty 2 0 -9 0 12 #96ffff #000000 #000000 0 1;
#X obj 689 542 vsl 19 162 0 1 0 0 empty empty 3 0 -9 0 12 #96ffff #000000 #000000 0 1;
#X obj 711 542 vsl 19 162 0 1 0 0 empty empty 4 0 -9 0 12 #96ffff #000000 #000000 0 1;
#X obj 734 542 vsl 19 162 0 1 0 0 empty empty 5 0 -9 0 12 #96ffff #000000 #000000 0 1;
#X obj 756 542 vsl 19 162 0 1 0 0 empty empty 6 0 -9 0 12 #96ffff #000000 #000000 0 1;
#X obj 779 542 vsl 19 162 0 1 0 0 empty empty 7 0 -9 0 12 #96ffff #000000 #000000 0 1;
#X obj 801 542 vsl 19 162 0 1 0 0 empty empty 8 0 -9 0 12 #96ffff #000000 #000000 0 1;
#X obj 824 542 vsl 19 162 0 1 0 0 empty empty 9 0 -9 0 12 #96ffff #000000 #000000 0 1;
#X obj 847 542 vsl 19 162 0 1 0 0 empty empty 10 0 -9 0 12 #96ffff #000000 #000000 0 1;
#X obj 894 647 cnv 15 15 15 empty empty empty 20 12 0 14 #c6ffc7 #404040 0;
#X text 894 646 3) adjust the parameters for the chaotic synth, f 24;
#N canvas 733 172 450 300 flucoma 0;
#X msg 831 709 fit xydata paramsdata;
#X obj 677 391 vsl 19 162 0 1 0 0 empty empty empty 0 -9 0 12 #fcfcfc #000000 #000000 0 1;
#X obj 722 610 tabwrite xybuf;
#X obj 677 561 pack f 0;
#X obj 741 391 vsl 19 162 0 1 0 0 empty empty empty 0 -9 0 12 #fcfcfc #000000 #000000 0 1;
#X obj 741 561 pack f 1;
#X msg 1000 602 addpoint \$1 xybuf;
#X msg 1153 602 addpoint \$1 paramsbuf;
#X obj 1000 626 fluid.dataset xydata;
#X obj 999 562 f, f 7;
#X obj 999 538 bng 19 250 50 0 empty empty empty 0 -10 0 12 #fcfcfc #000000 #000000;
#X msg 1328 602 print;
#X msg 1378 602 clear;
#X obj 619 541 vradio 19 1 0 2 empty empty empty 0 -10 0 12 #fcfcfc #000000 #000000 0;
#X obj 618 876 array get paramsbuf;
#X obj 618 900 unpack f f f f f f f f f f, f 28;
#X text 501 540 selecting points;
#X text 494 559 predicting points;
#X obj 1153 626 fluid.dataset paramsdata;
#X msg 618 709 predictpoint xybuf paramsbuf;
#X obj 618 828 t b;
#X obj 618 800 route predictpoint fit;
#X msg 1081 884 \; pd dsp \$1;
#X obj 1081 857 tgl 19 0 empty empty empty 0 -10 0 12 #fcfcfc #000000 #000000 0 1;
#X obj 1104 860 cnv 15 15 15 empty empty empty 20 12 0 14 #c6ffc7 #404040 0;
#X text 1104 858 1) turn audio on;
#X obj 869 371 cnv 15 15 15 empty empty empty 20 12 0 14 #c6ffc7 #404040 0;
#X text 869 369 2) set a point on both sliders;
#X obj 1031 523 cnv 15 15 15 empty empty empty 20 12 0 14 #c6ffc7 #404040 0;
#X obj 990 711 cnv 15 15 15 empty empty empty 20 12 0 14 #c6ffc7 #404040 0;
#X obj 504 509 cnv 15 15 15 empty empty empty 20 12 0 14 #c6ffc7 #404040 0;
#X text 504 507 6) switch to predicting points, f 18;
#X obj 869 430 cnv 15 15 15 empty empty empty 20 12 0 14 #c6ffc7 #404040 0;
#X text 869 428 7) play around with the slider positions to morph between synth presets, f 22;
#X obj 1083 397 cnv 19 150 30 empty empty Regressor 19 15 0 20 #00faff #ffffff 0;
#X obj 1068 562 + 1;
#X text 1031 521 4) click to add the settings to the datasets. repeat steps 2 to 4 to add more data to the datasets, f 52;
#X text 990 709 5) click to teach mlpregressor \, repeat to get as close to zero error as possible (the fit is shown in the console window), f 39;
#X obj 693 828 list;
#X listbox 693 852 20 0 0 0 - - - 0;
#X text 840 851 error;
#X obj 618 734 fluid.mlpregressor mlp -hiddenlayers 5 -activation 1 -outputactivation 1 -batchsize 1 -maxiter 10000 -learnrate 0.1 -validation 0, f 42;
#X obj 619 652 spigot;
#X obj 677 585 t b l;
#X obj 619 959 outlet;
#X obj 641 959 outlet;
#X obj 662 959 outlet;
#X obj 683 959 outlet;
#X obj 704 959 outlet;
#X obj 725 959 outlet;
#X obj 746 959 outlet;
#X obj 768 959 outlet;
#X obj 790 959 outlet;
#X obj 811 959 outlet;
#X obj 648 1173 tabwrite paramsbuf;
#X obj 648 1194 array define paramsbuf 10;
#N canvas 353 378 783 300 packslider 0;
#X obj 6 55 pack f 0;
#X obj 70 55 pack f 1;
#X obj 133 55 pack f 2;
#X obj 197 55 pack f 3;
#X obj 262 55 pack f 4;
#X obj 324 54 pack f 5;
#X obj 388 54 pack f 6;
#X obj 451 54 pack f 7;
#X obj 515 54 pack f 8;
#X obj 6 102 outlet;
#X obj 7 27 inlet;
#X obj 263 27 inlet;
#X obj 133 29 inlet;
#X obj 196 27 inlet;
#X obj 580 54 pack f 9;
#X obj 70 28 inlet;
#X obj 322 24 inlet;
#X obj 578 24 inlet;
#X obj 448 26 inlet;
#X obj 511 24 inlet;
#X obj 385 25 inlet;
#X connect 0 0 9 0;
#X connect 1 0 9 0;
#X connect 2 0 9 0;
#X connect 3 0 9 0;
#X connect 4 0 9 0;
#X connect 5 0 9 0;
#X connect 6 0 9 0;
#X connect 7 0 9 0;
#X connect 8 0 9 0;
#X connect 10 0 0 0;
#X connect 11 0 4 0;
#X connect 12 0 2 0;
#X connect 13 0 3 0;
#X connect 14 0 9 0;
#X connect 15 0 1 0;
#X connect 16 0 5 0;
#X connect 17 0 14 0;
#X connect 18 0 7 0;
#X connect 19 0 8 0;
#X connect 20 0 6 0;
#X restore 648 1150 pd packslider;
#X f 18;
#X obj 627 1092 inlet;
#X obj 649 1092 inlet;
#X obj 670 1092 inlet;
#X obj 691 1092 inlet;
#X obj 712 1092 inlet;
#X obj 733 1092 inlet;
#X obj 754 1092 inlet;
#X obj 776 1092 inlet;
#X obj 798 1092 inlet;
#X obj 819 1092 inlet;
#X obj 339 329 inlet;
#X obj 401 329 inlet;
#X obj 987 480 inlet;
#X obj 1081 666 inlet;
#X obj 1139 299 inlet;
#X obj 873 876 outlet;
#X obj 722 631 array define xybuf 2;
#X connect 0 0 41 0;
#X connect 1 0 3 0;
#X connect 3 0 43 0;
#X connect 4 0 5 0;
#X connect 5 0 43 0;
#X connect 6 0 8 0;
#X connect 7 0 18 0;
#X connect 9 0 6 0;
#X connect 9 0 35 0;
#X connect 9 0 7 0;
#X connect 10 0 9 0;
#X connect 11 0 8 0;
#X connect 11 0 18 0;
#X connect 12 0 8 0;
#X connect 12 0 18 0;
#X connect 13 0 42 1;
#X connect 14 0 15 0;
#X connect 15 0 44 0;
#X connect 15 1 45 0;
#X connect 15 2 46 0;
#X connect 15 3 47 0;
#X connect 15 4 48 0;
#X connect 15 5 49 0;
#X connect 15 6 50 0;
#X connect 15 7 51 0;
#X connect 15 8 52 0;
#X connect 15 9 53 0;
#X connect 19 0 41 0;
#X connect 20 0 14 0;
#X connect 21 0 20 0;
#X connect 21 1 38 0;
#X connect 23 0 22 0;
#X connect 35 0 9 1;
#X connect 38 0 39 0;
#X connect 39 0 72 0;
#X connect 41 0 21 0;
#X connect 42 0 19 0;
#X connect 43 0 42 0;
#X connect 43 1 2 0;
#X connect 56 0 54 0;
#X connect 57 0 56 0;
#X connect 58 0 56 1;
#X connect 59 0 56 2;
#X connect 60 0 56 3;
#X connect 61 0 56 4;
#X connect 62 0 56 5;
#X connect 63 0 56 6;
#X connect 64 0 56 7;
#X connect 65 0 56 8;
#X connect 66 0 56 9;
#X connect 67 0 1 0;
#X connect 68 0 4 0;
#X connect 69 0 10 0;
#X connect 70 0 0 0;
#X connect 71 0 13 0;
#X restore 805 425 pd flucoma;
#X obj 1330 359 vradio 19 1 0 2 empty empty empty 0 -10 0 12 #fcfcfc #000000 #000000 0;
#X obj 1119 259 bng 25 250 50 0 empty empty empty 0 -10 0 10 #ffffff #000000 #000000;
#X obj 1025 210 bng 25 250 50 0 empty empty empty 0 -10 0 10 #ffffff #000000 #000000;
#X obj 1059 210 cnv 15 15 15 empty empty empty 20 12 0 14 #c6ffc7 #404040 0;
#X text 1059 208 4) click to add the settings to the datasets. repeat steps 2 to 4 to add more data to the datasets, f 52;
#X obj 1153 260 cnv 15 15 15 empty empty empty 20 12 0 14 #c6ffc7 #404040 0;
#X text 1153 258 5) click to teach mlpregressor \, repeat to get as close to zero error as possible (the fit is shown in the console window), f 39;
#X text 1217 358 selecting points;
#X text 1217 378 predicting points;
#X obj 1359 359 cnv 15 15 15 empty empty empty 20 12 0 14 #c6ffc7 #404040 0;
#X text 1359 358 6) switch to predicting points, f 18;
#X obj 896 175 cnv 15 15 15 empty empty empty 20 12 0 14 #c6ffc7 #404040 0;
#X text 896 172 2) set a point on both sliders;
#X obj 802 181 vsl 19 162 0 1 0 0 empty empty empty 0 -9 0 12 #96ff96 #000000 #000000 0 1;
#X obj 840 181 vsl 19 162 0 1 0 0 empty empty empty 0 -9 0 12 #96ff96 #000000 #000000 0 1;
#X floatatom 1217 311 9 0 0 0 - - - 16;
#X text 1313 310 error;
#X msg 802 70 \; pd dsp \$1;
#X obj 802 43 tgl 19 0 empty empty empty 0 -10 0 12 #fcfcfc #000000 #000000 0 1;
#X obj 825 46 cnv 15 15 15 empty empty empty 20 12 0 14 #c6ffc7 #404040 0;
#X text 825 44 1) turn audio on;
#X obj 644 769 hradio 15 1 0 8 empty \$0-radio Load\ preset 0 -8 0 10 #aaaaaa #000000 #000000 0;
#X obj 1096 589 r \$0-2;
#X obj 1042 589 r \$0-1;
#X obj 1153 589 r \$0-3;
#X obj 1208 589 r \$0-4;
#X obj 1262 589 r \$0-5;
#X obj 1319 589 r \$0-6;
#X obj 1374 589 r \$0-7;
#X obj 1428 589 r \$0-8;
#X obj 1485 589 r \$0-9;
#X obj 1539 589 r \$0-10;
#N canvas 733 172 450 300 presets 0;
#N canvas 356 221 568 423 shift 0;
#X msg 137 214 save;
#X msg 218 214 load;
#X obj 106 264 else/insert;
#X obj 218 293 s \$0-radio;
#X obj 175 95 keyname;
#X obj 214 117 select Shift_L;
#X msg 214 139 1;
#X msg 295 138 0;
#X obj 199 166 &&;
#X obj 199 188 sel 1 0;
#X obj 106 35 inlet;
#X obj 106 344 outlet;
#X msg 218 242 color #aaaaaa #000000 #000000 \, label Load\ preset;
#X msg 227 270 color #ff5050 #000000 #000000 \, label Save\ preset;
#X connect 0 0 2 1;
#X connect 0 0 13 0;
#X connect 1 0 2 1;
#X connect 1 0 12 0;
#X connect 2 0 11 0;
#X connect 4 0 8 0;
#X connect 4 1 5 0;
#X connect 5 0 6 0;
#X connect 5 1 7 0;
#X connect 6 0 8 1;
#X connect 7 0 8 1;
#X connect 8 0 9 0;
#X connect 9 0 0 0;
#X connect 9 1 1 0;
#X connect 10 0 2 0;
#X connect 12 0 3 0;
#X connect 13 0 3 0;
#X restore -52 572 pd shift;
#X obj -52 611 else/display;
#X msg -97 614 show;
#X obj -52 544 inlet;
#X obj -52 649 else/presets \\\$0-1 \\\$0-2 \\\$0-3 \\\$0-4 \\\$0-5 \\\$0-6 \\\$0-7 \\\$0-8 \\\$0-9 \\\$0-10;
#A saved \\\$0-1 0 || \\\$0-2 0 || \\\$0-3 0 || \\\$0-4 0 || \\\$0-5 0.000538676 || \\\$0-6 0.0006057 || \\\$0-7 0.000753485 || \\\$0-8 0.000468576 || \\\$0-9 0.000477074 || \\\$0-10 0.000590751 || \; \\\$0-1 0.52567 || \\\$0-2 0.184152 || \\\$0-3 0.30885 || \\\$0-4 0 || \\\$0-5 0.000538676 || \\\$0-6 0.0006057 || \\\$0-7 0.000753485 || \\\$0-8 0.000468576 || \\\$0-9 0.000477074 || \\\$0-10 0.000590751 || \; \\\$0-1 1 || \\\$0-2 0.653251 || \\\$0-3 0.435779 || \\\$0-4 0 || \\\$0-5 0.000538676 || \\\$0-6 0.0006057 || \\\$0-7 0.000753485 || \\\$0-8 0.000468576 || \\\$0-9 0.000477074 || \\\$0-10 0.000590751 || \; \\\$0-1 1 || \\\$0-2 1 || \\\$0-3 0.984398 || \\\$0-4 0 || \\\$0-5 0 || \\\$0-6 0 || \\\$0-7 0 || \\\$0-8 0 || \\\$0-9 0 || \\\$0-10 0 || \; \\\$0-1 1 || \\\$0-2 1 || \\\$0-3 0.984398 || \\\$0-4 1 || \\\$0-5 0 || \\\$0-6 0 || \\\$0-7 0 || \\\$0-8 0 || \\\$0-9 0 || \\\$0-10 0 || \; \\\$0-1 1 || \\\$0-2 1 || \\\$0-3 0.984398 || \\\$0-4 1 || \\\$0-5 0.997047 || \\\$0-6 0 || \\\$0-7 0 || \\\$0-8 0 || \\\$0-9 0 || \\\$0-10 0 || \; -empty- \; -empty- \; -empty- \; -empty- \; -empty- \; -empty- \; -empty- \; -empty- \; -empty- \; -empty- \; -empty- \; -empty- \; -empty- \; -empty- \; -empty- \; -empty- \; -empty- \; -empty- \; -empty- \; -empty- \; -empty- \; -empty- \; -empty- \; -empty- \; -empty- \; -empty- \; -empty- \; -empty- \; -empty- \; -empty- \; -empty- \; -empty- \; -empty- \; -empty- \; -empty- \; -empty- \; -empty- \; -empty- \; -empty- \; -empty- \; -empty- \; -empty- \; -empty- \; -empty- \; -empty- \; -empty- \; -empty- \; -empty- \; -empty- \; -empty- \; -empty- \; -empty- \; -empty- \; -empty- \; -empty- \; -empty- \; -empty- \; -empty- \;;
#X connect 0 0 1 0;
#X connect 1 0 4 0;
#X connect 2 0 4 0;
#X connect 3 0 0 0;
#X restore 644 798 pd presets;
#X text 642 732 press shift to save presets;
#X obj 641 -21 counter 0 2;
#X floatatom 641 5 5 0 0 0 - - - 12;
#X obj 607 -86 bng 25 250 50 0 empty empty empty 0 -10 0 10 #ffffff #000000 #000000;
#X obj 756 -78 bng 25 250 50 0 empty empty empty 0 -10 0 10 #ffffff #000000 #000000;
#X obj 756 -107 loadbang;
#X text 756 -129 reset counter;
#X obj 1025 -86 r add_data;
#X obj 1119 -86 r teach;
#X obj 1330 -86 r select_predict;
#X obj 1599 239 loadbang;
#X msg 1599 265 0;
#X text 1599 216 set selecting points;
#X obj 641 -86 r set_param;
#X connect 0 0 6 0;
#X connect 3 0 35 0;
#X connect 4 0 34 0;
#X connect 5 0 7 0;
#X connect 6 0 1 0;
#X connect 6 0 2 0;
#X connect 7 0 6 2;
#X connect 8 0 5 0;
#X connect 8 0 20 2;
#X connect 9 0 20 3;
#X connect 10 0 20 4;
#X connect 11 0 20 5;
#X connect 12 0 20 6;
#X connect 13 0 20 7;
#X connect 14 0 20 8;
#X connect 15 0 20 9;
#X connect 16 0 20 10;
#X connect 17 0 20 11;
#X connect 20 0 8 0;
#X connect 20 1 9 0;
#X connect 20 2 10 0;
#X connect 20 3 11 0;
#X connect 20 4 12 0;
#X connect 20 5 13 0;
#X connect 20 6 14 0;
#X connect 20 7 15 0;
#X connect 20 8 16 0;
#X connect 20 9 17 0;
#X connect 20 10 36 0;
#X connect 21 0 20 14;
#X connect 22 0 20 13;
#X connect 23 0 20 12;
#X connect 34 0 20 0;
#X connect 35 0 20 1;
#X connect 39 0 38 0;
#X connect 42 0 53 0;
#X connect 43 0 9 0;
#X connect 44 0 8 0;
#X connect 45 0 10 0;
#X connect 46 0 11 0;
#X connect 47 0 12 0;
#X connect 48 0 13 0;
#X connect 49 0 14 0;
#X connect 50 0 15 0;
#X connect 51 0 16 0;
#X connect 52 0 17 0;
#X connect 55 0 56 0;
#X connect 56 0 42 0;
#X connect 57 0 55 0;
#X connect 58 0 55 3;
#X connect 59 0 58 0;
#X connect 61 0 23 0;
#X connect 62 0 22 0;
#X connect 63 0 21 0;
#X connect 64 0 65 0;
#X connect 65 0 21 0;
#X connect 67 0 55 0;
#X restore 29 412 pd fx_sensors;
#X obj 199 -98 s pit_or;
#X obj 291 -98 s roll_or;
#X obj 199 -123 / 360;
#X obj 291 -123 / 360;
#X obj 29 196 adc~ 3;
#N canvas 0 22 450 300 notes 0;
#X obj 743 305 pitch.shift~;
#X obj 859 305 revdelay~;
#X obj 670 305 del~;
#X obj 582 305 ffdelay~;
#X restore -121 899 pd notes;
#N canvas 0 22 450 300 freeze_sensors 0;
#X restore -131 509 pd freeze_sensors;
#X text 1346 104 GENERAL \; Sound on / off \; \; MODES \; fx static: selecting presets - dry/wet of effects \; \; fx interactive: selecting presets - train sensor \; \; fx freeze: selecting presets - train sensor;
#X text 757 250 sound on/off;
#X obj 29 733 out~;
#X msg 139 679 mute;
#X obj 856 251 s mute;
#X obj 139 646 r mute;
#X obj 730 171 s button1;
#X text 721 407 PRESETS;
#X text 721 443 static;
#X text 1081 437 interactive;
#X text 1453 437 freeze;
#X floatatom 718 522 5 0 0 0 - - - 16;
#X obj 718 556 < 0.25;
#X obj 924 556 > 0.75;
#X msg 718 620 0;
#X msg 924 620 2;
#X obj 718 588 sel 1;
#X obj 924 588 sel 1;
#X obj 785 556 >= 0.25;
#X obj 854 556 <= 0.75;
#X obj 854 588 tgl 25 0 empty empty empty 0 -10 0 10 #ffffff #000000 #000000 0 1;
#X obj 785 588 tgl 25 0 empty empty empty 0 -10 0 10 #ffffff #000000 #000000 0 1;
#X obj 785 620 ==;
#X obj 785 643 sel 1;
#X msg 785 669 1;
#X obj 827 743 hradio 20 1 0 3 empty empty empty 0 -8 0 10 #ffffff #000000 #000000 0;
#X obj 718 490 r knob1;
#X obj 718 869 s preset_static_state;
#X floatatom 1081 522 5 0 0 0 - - - 16;
#X obj 1081 556 < 0.25;
#X obj 1287 556 > 0.75;
#X msg 1081 620 0;
#X msg 1287 620 2;
#X obj 1081 588 sel 1;
#X obj 1287 588 sel 1;
#X obj 1148 556 >= 0.25;
#X obj 1217 556 <= 0.75;
#X obj 1217 588 tgl 25 0 empty empty empty 0 -10 0 10 #ffffff #000000 #000000 0 1;
#X obj 1148 588 tgl 25 0 empty empty empty 0 -10 0 10 #ffffff #000000 #000000 0 1;
#X obj 1148 620 ==;
#X obj 1148 643 sel 1;
#X msg 1148 669 1;
#X obj 1081 490 r knob2;
#X obj 1081 869 s preset_interactive_state;
#X floatatom 1453 522 5 0 0 0 - - - 16;
#X obj 1453 556 < 0.25;
#X obj 1659 556 > 0.75;
#X msg 1453 620 0;
#X msg 1659 620 2;
#X obj 1453 588 sel 1;
#X obj 1659 588 sel 1;
#X obj 1520 556 >= 0.25;
#X obj 1589 556 <= 0.75;
#X obj 1589 588 tgl 25 0 empty empty empty 0 -10 0 10 #ffffff #000000 #000000 0 1;
#X obj 1520 588 tgl 25 0 empty empty empty 0 -10 0 10 #ffffff #000000 #000000 0 1;
#X obj 1520 620 ==;
#X obj 1520 643 sel 1;
#X msg 1520 669 1;
#X obj 1449 869 s preset_freeze_state;
#X obj 1453 490 r knob3;
#X text 1147 -138 choose static preset;
#X text 1147 -114 choose interactive preset;
#X text 1149 -89 choose freeze preset;
#X text 1005 170 select static preset;
#X text 1045 196 select interactive preset;
#X text 1093 223 select freeze preset;
#X obj 718 780 f;
#X obj 718 743 r knob_press1;
#X obj 718 830 hradio 20 1 0 3 empty empty PRESET 0 -8 0 10 #ffffff #000000 #000000 0;
#X obj 1190 743 hradio 20 1 0 3 empty empty empty 0 -8 0 10 #ffffff #000000 #000000 0;
#X obj 1081 780 f;
#X obj 1081 830 hradio 20 1 0 3 empty empty PRESET 0 -8 0 10 #ffffff #000000 #000000 0;
#X obj 1558 743 hradio 20 1 0 3 empty empty empty 0 -8 0 10 #ffffff #000000 #000000 0;
#X obj 1449 780 f;
#X obj 1449 830 hradio 20 1 0 3 empty empty PRESET 0 -8 0 10 #ffffff #000000 #000000 0;
#X obj 1081 743 r knob_press2;
#X obj 1449 743 r knob_press3;
#X connect 0 0 16 0;
#X connect 0 1 17 0;
#X connect 1 0 6 0;
#X connect 1 1 7 0;
#X connect 1 2 8 0;
#X connect 1 3 9 0;
#X connect 1 4 2 0;
#X connect 1 5 10 0;
#X connect 1 6 3 0;
#X connect 1 7 11 0;
#X connect 1 8 4 0;
#X connect 1 9 12 0;
#X connect 1 10 5 0;
#X connect 1 11 13 0;
#X connect 2 0 21 0;
#X connect 3 0 22 0;
#X connect 4 0 23 0;
#X connect 5 0 24 0;
#X connect 6 0 44 0;
#X connect 7 0 20 0;
#X connect 8 0 19 0;
#X connect 9 0 42 0;
#X connect 10 0 25 0;
#X connect 11 0 26 0;
#X connect 12 0 27 0;
#X connect 13 0 28 0;
#X connect 16 0 33 0;
#X connect 17 0 34 0;
#X connect 29 0 30 0;
#X connect 30 0 40 0;
#X connect 30 1 40 1;
#X connect 33 0 31 0;
#X connect 34 0 32 0;
#X connect 35 0 29 0;
#X connect 41 0 40 0;
#X connect 43 0 41 0;
#X connect 49 0 50 0;
#X connect 49 0 51 0;
#X connect 49 0 56 0;
#X connect 49 0 57 0;
#X connect 50 0 54 0;
#X connect 51 0 55 0;
#X connect 52 0 63 0;
#X connect 53 0 63 0;
#X connect 54 0 52 0;
#X connect 55 0 53 0;
#X connect 56 0 59 0;
#X connect 57 0 58 0;
#X connect 58 0 60 1;
#X connect 59 0 60 0;
#X connect 60 0 61 0;
#X connect 61 0 62 0;
#X connect 62 0 63 0;
#X connect 63 0 104 1;
#X connect 64 0 49 0;
#X connect 66 0 67 0;
#X connect 66 0 68 0;
#X connect 66 0 73 0;
#X connect 66 0 74 0;
#X connect 67 0 71 0;
#X connect 68 0 72 0;
#X connect 69 0 107 0;
#X connect 70 0 107 0;
#X connect 71 0 69 0;
#X connect 72 0 70 0;
#X connect 73 0 76 0;
#X connect 74 0 75 0;
#X connect 75 0 77 1;
#X connect 76 0 77 0;
#X connect 77 0 78 0;
#X connect 78 0 79 0;
#X connect 79 0 107 0;
#X connect 80 0 66 0;
#X connect 82 0 83 0;
#X connect 82 0 84 0;
#X connect 82 0 89 0;
#X connect 82 0 90 0;
#X connect 83 0 87 0;
#X connect 84 0 88 0;
#X connect 85 0 110 0;
#X connect 86 0 110 0;
#X connect 87 0 85 0;
#X connect 88 0 86 0;
#X connect 89 0 92 0;
#X connect 90 0 91 0;
#X connect 91 0 93 1;
#X connect 92 0 93 0;
#X connect 93 0 94 0;
#X connect 94 0 95 0;
#X connect 95 0 110 0;
#X connect 97 0 82 0;
#X connect 104 0 106 0;
#X connect 105 0 104 0;
#X connect 106 0 65 0;
#X connect 107 0 108 1;
#X connect 108 0 109 0;
#X connect 109 0 81 0;
#X connect 110 0 111 1;
#X connect 111 0 112 0;
#X connect 112 0 96 0;
#X connect 113 0 108 0;
#X connect 114 0 111 0;
