#N canvas 827 239 734 565 12;
#N canvas 733 172 450 300 sensor_data 0;
#X obj 278 187 oscparse;
#X obj 278 229 list trim;
#X obj 278 139 netreceive -u -b 5001;
#X obj 278 273 route extIMU;
#X obj 278 315 route acc gyro;
#X floatatom 278 400 5 0 0 0 - - - 12;
#X floatatom 336 400 5 0 0 0 - - - 12;
#X floatatom 394 400 5 0 0 0 - - - 12;
#X obj 278 359 unpack f f f;
#X floatatom 473 400 5 0 0 0 - - - 12;
#X floatatom 531 400 5 0 0 0 - - - 12;
#X floatatom 591 400 5 0 0 0 - - - 12;
#X obj 473 359 unpack f f f;
#X text 272 32 WITH ARDUINO CODE: wearable_computing_board;
#X text 272 55 osc messages;
#X obj 404 653 + 180;
#X obj 407 704 mod 360;
#X floatatom 407 730 5 0 0 0 - - - 12;
#X obj 832 704 mod 360;
#X floatatom 832 739 5 0 0 0 - - - 12;
#X obj 807 599 expr atan2(-$f1 \, $f2)*180/3.14159;
#X obj 832 653 + 180;
#X floatatom 751 852 5 0 0 0 - - - 12;
#X obj 751 826 count;
#X obj 751 796 bng 25 250 50 0 empty empty empty 0 -10 0 10 #ffffff #000000 #000000;
#X msg 806 796 0;
#X obj 841 796 sel 300;
#X msg 375 99 listen 0;
#X obj 449 229 print;
#X msg 278 99 listen 5001;
#X obj 407 594 expr atan2($f1 \, sqrt(pow($f2 \, 2)+pow($f3 \, 2)))*360/3.14159;
#X text 789 378 pitch = rotation around y axis \; roll = rotation around x axis \; yaw = rotation around z axis;
#X text 407 300 acc measures the gravitional acceleration \; gyro measures the rotational velocity;
#X text 407 490 ORIENTATION \; \; pitch = math.atan2(accel_x \, math.sqrt(accel_y**2 + accel_z**2)) * 180 / math.pi \; \; roll = math.atan2(-accel_y \, accel_z) * 180 / math.pi;
#X text -401 478 GRAVITIONAL ACCELERATION;
#X text 9 478 ROTATIONAL VELOCITY;
#X obj 407 796 tabwrite \$0-array-pitch_orientation;
#X obj 989 796 tabwrite \$0-array-roll_orientation;
#X floatatom -390 549 5 0 0 0 - - - 12;
#X floatatom -332 549 5 0 0 0 - - - 12;
#X floatatom -271 549 5 0 0 0 - - - 12;
#X floatatom 11 549 5 0 0 0 - - - 12;
#X floatatom 69 549 5 0 0 0 - - - 12;
#X floatatom 129 549 5 0 0 0 - - - 12;
#X obj 407 1206 outlet;
#X obj 832 1206 outlet;
#X connect 0 0 1 0;
#X connect 1 0 3 0;
#X connect 2 0 0 0;
#X connect 3 0 4 0;
#X connect 4 0 8 0;
#X connect 4 1 12 0;
#X connect 5 0 30 0;
#X connect 5 0 38 0;
#X connect 6 0 30 1;
#X connect 6 0 20 0;
#X connect 6 0 39 0;
#X connect 7 0 20 1;
#X connect 7 0 30 2;
#X connect 7 0 40 0;
#X connect 8 0 5 0;
#X connect 8 1 6 0;
#X connect 8 2 7 0;
#X connect 9 0 41 0;
#X connect 10 0 42 0;
#X connect 11 0 43 0;
#X connect 12 0 9 0;
#X connect 12 1 10 0;
#X connect 12 2 11 0;
#X connect 15 0 16 0;
#X connect 16 0 17 0;
#X connect 17 0 36 0;
#X connect 17 0 44 0;
#X connect 18 0 19 0;
#X connect 19 0 24 0;
#X connect 19 0 37 0;
#X connect 19 0 45 0;
#X connect 20 0 21 0;
#X connect 21 0 18 0;
#X connect 22 0 26 0;
#X connect 22 0 36 1;
#X connect 22 0 37 1;
#X connect 23 0 22 0;
#X connect 24 0 23 0;
#X connect 25 0 23 0;
#X connect 26 0 25 0;
#X connect 27 0 2 0;
#X connect 29 0 2 0;
#X connect 30 0 15 0;
#X coords 0 0 1 1 200 140 0;
#X restore 199 -183 pd sensor_data;
#N canvas 733 172 450 300 knobs_buttons 0;
#X obj 859 71 notein;
#X floatatom 859 114 5 0 0 0 - - - 12;
#X floatatom 909 114 5 0 0 0 - - - 12;
#X floatatom 970 114 5 0 0 0 - - - 12;
#X obj 1054 70 ctlin;
#X floatatom 1054 112 5 0 0 0 - - - 12;
#X floatatom 1103 113 5 0 0 0 - - - 12;
#X floatatom 1162 114 5 0 0 0 - - - 12;
#X obj 1045 266 sel 1 127;
#X obj 1047 487 vsl 19 162 0 1 0 0 empty empty empty 0 -9 0 12 #ffb5f9 #000000 #000000 0 1;
#X floatatom 1095 358 5 0 1 0 - - - 0;
#X obj 1045 381 +;
#X floatatom 1045 457 5 0 0 0 - - - 12;
#X msg 1047 296 1;
#X msg 1080 296 -1;
#X floatatom 1045 663 5 0 0 0 - - - 12;
#X obj 1095 331 clip 1 126;
#X obj 1205 266 sel 1 127;
#X obj 1207 487 vsl 19 162 0 1 0 0 empty empty empty 0 -9 0 12 #ffb5f9 #000000 #000000 0 1;
#X floatatom 1255 358 5 0 1 0 - - - 0;
#X obj 1205 381 +;
#X floatatom 1205 457 5 0 0 0 - - - 12;
#X msg 1207 296 1;
#X msg 1240 296 -1;
#X floatatom 1205 663 5 0 0 0 - - - 12;
#X obj 1255 331 clip 1 126;
#X obj 1366 266 sel 1 127;
#X obj 1368 487 vsl 19 162 0 1 0 0 empty empty empty 0 -9 0 12 #ffb5f9 #000000 #000000 0 1;
#X floatatom 1416 358 5 0 1 0 - - - 0;
#X obj 1366 381 +;
#X floatatom 1366 457 5 0 0 0 - - - 12;
#X msg 1368 296 1;
#X msg 1401 296 -1;
#X floatatom 1366 663 5 0 0 0 - - - 12;
#X obj 1416 331 clip 1 126;
#X obj 1537 266 sel 1 127;
#X obj 1539 487 vsl 19 162 0 1 0 0 empty empty empty 0 -9 0 12 #ffb5f9 #000000 #000000 0 1;
#X floatatom 1587 358 5 0 1 0 - - - 0;
#X obj 1537 381 +;
#X floatatom 1537 457 5 0 0 0 - - - 12;
#X msg 1539 296 1;
#X msg 1572 296 -1;
#X floatatom 1537 663 5 0 0 0 - - - 12;
#X obj 1587 331 clip 1 126;
#X obj 1103 183 sel 48 49 50 51;
#X obj 1045 230 i;
#X obj 1209 228 i;
#X obj 1373 230 i;
#X obj 1537 228 i;
#X obj 862 312 tgl 19 0 empty empty empty 0 -10 0 12 #fcfcfc #000000 #000000 0 1;
#X obj 862 338 sel 1;
#X obj 862 612 bng 25 250 50 0 empty empty empty 0 -10 0 10 #ffb5f9 #505050 #373737;
#X obj 904 312 tgl 19 0 empty empty empty 0 -10 0 12 #fcfcfc #000000 #000000 0 1;
#X obj 904 338 sel 1;
#X obj 904 612 bng 25 250 50 0 empty empty empty 0 -10 0 10 #ffb5f9 #505050 #373737;
#X obj 946 312 tgl 19 0 empty empty empty 0 -10 0 12 #fcfcfc #000000 #000000 0 1;
#X obj 946 338 sel 1;
#X obj 946 612 bng 25 250 50 0 empty empty empty 0 -10 0 10 #ffb5f9 #505050 #373737;
#X obj 988 312 tgl 19 0 empty empty empty 0 -10 0 12 #fcfcfc #000000 #000000 0 1;
#X obj 988 338 sel 1;
#X obj 988 612 bng 25 250 50 0 empty empty empty 0 -10 0 10 #ffb5f9 #505050 #373737;
#X text 859 18 MIDI ROUTING;
#X obj 1674 80 notein;
#X floatatom 1674 123 5 0 0 0 - - - 12;
#X floatatom 1724 123 5 0 0 0 - - - 12;
#X floatatom 1785 123 5 0 0 0 - - - 12;
#X obj 1677 321 tgl 19 0 empty empty empty 0 -10 0 12 #fcfcfc #000000 #000000 0 1;
#X obj 1677 347 sel 1;
#X obj 1045 694 bng 25 250 50 0 empty empty empty 0 -10 0 10 #ffb5f9 #505050 #373737;
#X obj 1719 321 tgl 19 0 empty empty empty 0 -10 0 12 #fcfcfc #000000 #000000 0 1;
#X obj 1719 347 sel 1;
#X obj 1205 694 bng 25 250 50 0 empty empty empty 0 -10 0 10 #ffb5f9 #505050 #373737;
#X obj 1761 321 tgl 19 0 empty empty empty 0 -10 0 12 #fcfcfc #000000 #000000 0 1;
#X obj 1761 347 sel 1;
#X obj 1366 694 bng 25 250 50 0 empty empty empty 0 -10 0 10 #ffb5f9 #505050 #373737;
#X obj 1803 321 tgl 19 0 empty empty empty 0 -10 0 12 #fcfcfc #000000 #000000 0 1;
#X obj 860 268 sel 60 62 64 65;
#X obj 476 905 outlet;
#X obj 536 905 outlet;
#X obj 597 905 outlet;
#X obj 658 905 outlet;
#X obj 878 905 outlet;
#X obj 938 905 outlet;
#X obj 1099 905 outlet;
#X obj 1160 905 outlet;
#X obj 1280 905 outlet;
#X obj 1340 905 outlet;
#X obj 1497 905 outlet;
#X obj 1558 905 outlet;
#X obj 1045 407 / 127;
#X obj 1205 407 / 127;
#X obj 1366 407 / 127;
#X obj 1537 407 / 127;
#X obj 1806 501 ctlin;
#X floatatom 1806 543 5 0 0 0 - - - 12;
#X floatatom 1855 544 5 0 0 0 - - - 12;
#X floatatom 1914 545 5 0 0 0 - - - 12;
#X obj 1855 614 sel 5 6 7 8;
#X obj 1813 669 i;
#X obj 1865 669 i;
#X obj 1919 669 i;
#X obj 1969 669 i;
#X text 1874 500 non endless knobs;
#X text 1117 69 endless knobs;
#X obj 1675 277 sel 68 69 71 72;
#X connect 0 0 1 0;
#X connect 0 1 2 0;
#X connect 0 2 3 0;
#X connect 1 0 76 0;
#X connect 4 0 5 0;
#X connect 4 1 6 0;
#X connect 4 2 7 0;
#X connect 5 0 48 1;
#X connect 5 0 47 1;
#X connect 5 0 46 1;
#X connect 5 0 45 1;
#X connect 6 0 44 0;
#X connect 8 0 13 0;
#X connect 8 1 14 0;
#X connect 9 0 15 0;
#X connect 9 0 16 0;
#X connect 9 0 81 0;
#X connect 10 0 11 1;
#X connect 11 0 89 0;
#X connect 12 0 9 0;
#X connect 13 0 11 0;
#X connect 14 0 11 0;
#X connect 16 0 10 0;
#X connect 17 0 22 0;
#X connect 17 1 23 0;
#X connect 18 0 24 0;
#X connect 18 0 25 0;
#X connect 18 0 83 0;
#X connect 19 0 20 1;
#X connect 20 0 90 0;
#X connect 21 0 18 0;
#X connect 22 0 20 0;
#X connect 23 0 20 0;
#X connect 25 0 19 0;
#X connect 26 0 31 0;
#X connect 26 1 32 0;
#X connect 27 0 33 0;
#X connect 27 0 34 0;
#X connect 27 0 85 0;
#X connect 28 0 29 1;
#X connect 29 0 91 0;
#X connect 30 0 27 0;
#X connect 31 0 29 0;
#X connect 32 0 29 0;
#X connect 34 0 28 0;
#X connect 35 0 40 0;
#X connect 35 1 41 0;
#X connect 36 0 42 0;
#X connect 36 0 43 0;
#X connect 36 0 87 0;
#X connect 37 0 38 1;
#X connect 38 0 92 0;
#X connect 39 0 36 0;
#X connect 40 0 38 0;
#X connect 41 0 38 0;
#X connect 43 0 37 0;
#X connect 44 0 45 0;
#X connect 44 1 46 0;
#X connect 44 2 47 0;
#X connect 44 3 48 0;
#X connect 45 0 8 0;
#X connect 46 0 17 0;
#X connect 47 0 26 0;
#X connect 48 0 35 0;
#X connect 49 0 50 0;
#X connect 50 0 51 0;
#X connect 51 0 77 0;
#X connect 52 0 53 0;
#X connect 53 0 54 0;
#X connect 54 0 78 0;
#X connect 55 0 56 0;
#X connect 56 0 57 0;
#X connect 57 0 79 0;
#X connect 58 0 59 0;
#X connect 59 0 60 0;
#X connect 60 0 80 0;
#X connect 62 0 63 0;
#X connect 62 1 64 0;
#X connect 62 2 65 0;
#X connect 63 0 104 0;
#X connect 66 0 67 0;
#X connect 67 0 68 0;
#X connect 68 0 82 0;
#X connect 69 0 70 0;
#X connect 70 0 71 0;
#X connect 71 0 84 0;
#X connect 72 0 73 0;
#X connect 73 0 74 0;
#X connect 74 0 86 0;
#X connect 75 0 88 0;
#X connect 76 0 49 0;
#X connect 76 1 52 0;
#X connect 76 2 55 0;
#X connect 76 3 58 0;
#X connect 89 0 12 0;
#X connect 90 0 21 0;
#X connect 91 0 30 0;
#X connect 92 0 39 0;
#X connect 93 0 94 0;
#X connect 93 1 95 0;
#X connect 93 2 96 0;
#X connect 94 0 98 1;
#X connect 94 0 99 1;
#X connect 94 0 100 1;
#X connect 94 0 101 1;
#X connect 95 0 97 0;
#X connect 97 0 98 0;
#X connect 97 1 99 0;
#X connect 97 2 100 0;
#X connect 97 3 101 0;
#X connect 98 0 89 0;
#X connect 99 0 90 0;
#X connect 100 0 91 0;
#X connect 101 0 92 0;
#X connect 104 0 66 0;
#X connect 104 1 69 0;
#X connect 104 2 72 0;
#X connect 104 3 75 0;
#X restore 727 -313 pd knobs_buttons;
#N canvas 0 0 450 250 (subpatch) 0;
#X array \$0-array-roll_orientation 300 float 0;
#X coords 0 360 299 0 400 140 1;
#X restore 291 -51 graph;
#N canvas 0 0 450 250 (subpatch) 0;
#X array \$0-array-pitch_orientation 300 float 0;
#X coords 0 360 299 0 400 140 1;
#X restore -161 -51 graph;
#X floatatom 199 -147 5 0 0 0 - - - 12;
#X floatatom 291 -150 5 0 0 0 - - - 12;
#N canvas 0 22 450 300 oled_display 0;
#X restore 131 647 pd oled_display;
#N canvas 0 22 450 300 fx_knobs 0;
#X obj 49 159 inlet~;
#X obj 719 680 outlet~;
#X floatatom 882 96 5 0 0 0 - - - 12;
#X obj 469 505 * -1;
#X obj 469 531 + 1;
#X floatatom 469 557 5 0 0 0 - - - 12;
#X obj 469 582 f2s~;
#X obj 469 629 *~;
#X obj 882 61 r knob4, f 14;
#N canvas 733 172 450 300 fx1 0;
#X obj 338 296 lop.bw~;
#X obj 601 296 hip.bw~;
#X obj 338 149 * 15000;
#X obj 601 155 * 15000;
#X floatatom 338 175 5 0 0 0 - - - 12;
#X floatatom 601 181 5 0 0 0 - - - 12;
#X obj 871 516 *~;
#X obj 899 469 f2s~;
#X obj 871 296 revdelay~ 2000;
#X obj 99 79 inlet~;
#X obj 882 96 inlet;
#X obj 719 680 outlet~;
#X connect 0 0 1 0;
#X connect 1 0 8 0;
#X connect 2 0 4 0;
#X connect 3 0 5 0;
#X connect 4 0 0 1;
#X connect 5 0 1 1;
#X connect 6 0 11 0;
#X connect 7 0 6 1;
#X connect 8 0 6 0;
#X connect 9 0 0 0;
#X connect 10 0 7 0;
#X restore 719 496 pd fx1;
#N canvas 733 172 450 300 fx2 0;
#X obj 338 296 lop.bw~;
#X obj 601 296 hip.bw~;
#X obj 338 149 * 15000;
#X obj 601 155 * 15000;
#X floatatom 338 175 5 0 0 0 - - - 12;
#X floatatom 601 181 5 0 0 0 - - - 12;
#X obj 871 516 *~;
#X obj 899 469 f2s~;
#X obj 871 296 revdelay~ 2000;
#X obj 99 79 inlet~;
#X obj 882 96 inlet;
#X obj 719 680 outlet~;
#X obj 439 153 loadbang;
#X msg 439 179 15000;
#X connect 0 0 1 0;
#X connect 1 0 8 0;
#X connect 2 0 4 0;
#X connect 3 0 5 0;
#X connect 4 0 0 1;
#X connect 5 0 1 1;
#X connect 6 0 11 0;
#X connect 7 0 6 1;
#X connect 8 0 6 0;
#X connect 9 0 0 0;
#X connect 10 0 7 0;
#X connect 12 0 13 0;
#X connect 13 0 4 0;
#X restore 812 496 pd fx2;
#N canvas 733 172 450 300 fx3 0;
#X obj 338 296 lop.bw~;
#X obj 601 296 hip.bw~;
#X obj 338 149 * 15000;
#X obj 601 155 * 15000;
#X floatatom 338 175 5 0 0 0 - - - 12;
#X floatatom 601 181 5 0 0 0 - - - 12;
#X obj 871 516 *~;
#X obj 899 469 f2s~;
#X obj 871 296 revdelay~ 2000;
#X obj 99 79 inlet~;
#X obj 882 96 inlet;
#X obj 719 680 outlet~;
#X obj 442 151 loadbang;
#X msg 442 177 15000;
#X connect 0 0 1 0;
#X connect 1 0 8 0;
#X connect 2 0 4 0;
#X connect 3 0 5 0;
#X connect 4 0 0 1;
#X connect 5 0 1 1;
#X connect 6 0 11 0;
#X connect 7 0 6 1;
#X connect 8 0 6 0;
#X connect 9 0 0 0;
#X connect 10 0 7 0;
#X connect 12 0 13 0;
#X connect 13 0 4 0;
#X restore 903 496 pd fx3;
#X obj 719 432 *~;
#X obj 812 429 *~;
#X obj 903 429 *~;
#X text 927 95 dry / wet;
#X obj 554 181 hradio 20 1 0 3 empty empty STATIC\ SET\ PRESET 0 -8 0 10 #cbffc8 #000000 #000000 0;
#X obj 439 19 r preset_static_state;
#X obj 554 208 sel 0 1 2;
#X obj 746 373 line;
#X msg 746 342 \$1 1000;
#X obj 839 369 line;
#X msg 839 338 \$1 1000;
#X obj 937 369 line;
#X msg 937 338 \$1 1000;
#X msg 746 302 0;
#X msg 779 302 1;
#X msg 839 302 0;
#X msg 872 302 1;
#X msg 937 302 0;
#X msg 970 302 1;
#X obj 439 -18 r preset_static_choose;
#X obj 554 114 hradio 20 1 0 3 empty empty STATIC\ CHOOSE\ PRESET 0 -8 0 10 #cbffc8 #000000 #000000 0;
#X connect 0 0 7 0;
#X connect 0 0 12 0;
#X connect 0 0 14 0;
#X connect 0 0 13 0;
#X connect 2 0 9 1;
#X connect 2 0 10 1;
#X connect 2 0 11 1;
#X connect 2 0 3 0;
#X connect 3 0 4 0;
#X connect 4 0 5 0;
#X connect 5 0 6 0;
#X connect 6 0 7 1;
#X connect 7 0 1 0;
#X connect 8 0 2 0;
#X connect 9 0 1 0;
#X connect 10 0 1 0;
#X connect 11 0 1 0;
#X connect 12 0 9 0;
#X connect 13 0 10 0;
#X connect 14 0 11 0;
#X connect 16 0 18 0;
#X connect 17 0 16 0;
#X connect 18 0 26 0;
#X connect 18 0 27 0;
#X connect 18 0 29 0;
#X connect 18 1 25 0;
#X connect 18 1 28 0;
#X connect 18 1 29 0;
#X connect 18 2 25 0;
#X connect 18 2 27 0;
#X connect 18 2 30 0;
#X connect 19 0 12 1;
#X connect 20 0 19 0;
#X connect 21 0 13 1;
#X connect 22 0 21 0;
#X connect 23 0 14 1;
#X connect 24 0 23 0;
#X connect 25 0 20 0;
#X connect 26 0 20 0;
#X connect 27 0 22 0;
#X connect 28 0 22 0;
#X connect 29 0 24 0;
#X connect 30 0 24 0;
#X connect 31 0 32 0;
#X restore 1948 386 pd fx_knobs;
#N canvas 0 22 450 300 fx_sensors 0;
#X obj -81 549 inlet~;
#X obj 135 1221 outlet~;
#X obj 219 1221 outlet~;
#X obj 866 131 r pit_or;
#X obj 802 131 r roll_or;
#X obj 1116 701 cnv 15 15 15 empty empty empty 20 12 0 14 #c6ffc7 #404040 0;
#X text 1116 700 3) adjust the parameters for the chaotic synth, f 24;
#N canvas 733 172 450 300 flucoma 0;
#X msg 831 709 fit xydata paramsdata;
#X obj 677 391 vsl 19 162 0 1 0 0 empty empty empty 0 -9 0 12 #fcfcfc #000000 #000000 0 1;
#X obj 722 610 tabwrite xybuf;
#X obj 677 561 pack f 0;
#X obj 741 391 vsl 19 162 0 1 0 0 empty empty empty 0 -9 0 12 #fcfcfc #000000 #000000 0 1;
#X obj 741 561 pack f 1;
#X msg 1000 602 addpoint \$1 xybuf;
#X msg 1153 602 addpoint \$1 paramsbuf;
#X obj 1000 626 fluid.dataset xydata;
#X obj 999 562 f, f 7;
#X obj 999 538 bng 19 250 50 0 empty empty empty 0 -10 0 12 #fcfcfc #000000 #000000;
#X msg 1328 602 print;
#X msg 1378 602 clear;
#X obj 619 541 vradio 19 1 0 2 empty empty empty 0 -10 0 12 #fcfcfc #000000 #000000 0;
#X obj 618 876 array get paramsbuf;
#X obj 618 900 unpack f f f f f f f f f f, f 28;
#X text 501 540 selecting points;
#X text 494 559 predicting points;
#X obj 1153 626 fluid.dataset paramsdata;
#X msg 618 709 predictpoint xybuf paramsbuf;
#X obj 618 828 t b;
#X obj 618 800 route predictpoint fit;
#X msg 1081 884 \; pd dsp \$1;
#X obj 1081 857 tgl 19 0 empty empty empty 0 -10 0 12 #fcfcfc #000000 #000000 0 1;
#X obj 1104 860 cnv 15 15 15 empty empty empty 20 12 0 14 #c6ffc7 #404040 0;
#X text 1104 858 1) turn audio on;
#X obj 869 371 cnv 15 15 15 empty empty empty 20 12 0 14 #c6ffc7 #404040 0;
#X text 869 369 2) set a point on both sliders;
#X obj 1031 523 cnv 15 15 15 empty empty empty 20 12 0 14 #c6ffc7 #404040 0;
#X obj 990 711 cnv 15 15 15 empty empty empty 20 12 0 14 #c6ffc7 #404040 0;
#X obj 504 509 cnv 15 15 15 empty empty empty 20 12 0 14 #c6ffc7 #404040 0;
#X text 504 507 6) switch to predicting points, f 18;
#X obj 869 430 cnv 15 15 15 empty empty empty 20 12 0 14 #c6ffc7 #404040 0;
#X text 869 428 7) play around with the slider positions to morph between synth presets, f 22;
#X obj 1083 397 cnv 19 150 30 empty empty Regressor 19 15 0 20 #00faff #ffffff 0;
#X obj 1068 562 + 1;
#X text 1031 521 4) click to add the settings to the datasets. repeat steps 2 to 4 to add more data to the datasets, f 52;
#X text 990 709 5) click to teach mlpregressor \, repeat to get as close to zero error as possible (the fit is shown in the console window), f 39;
#X obj 693 828 list;
#X listbox 693 852 20 0 0 0 - - - 0;
#X text 840 851 error;
#X obj 618 734 fluid.mlpregressor mlp -hiddenlayers 5 -activation 1 -outputactivation 1 -batchsize 1 -maxiter 10000 -learnrate 0.1 -validation 0, f 42;
#X obj 619 652 spigot;
#X obj 677 585 t b l;
#X obj 619 959 outlet;
#X obj 641 959 outlet;
#X obj 662 959 outlet;
#X obj 683 959 outlet;
#X obj 704 959 outlet;
#X obj 725 959 outlet;
#X obj 746 959 outlet;
#X obj 768 959 outlet;
#X obj 790 959 outlet;
#X obj 811 959 outlet;
#X obj 648 1173 tabwrite paramsbuf;
#X obj 648 1194 array define paramsbuf 10;
#N canvas 353 378 783 300 packslider 0;
#X obj 6 55 pack f 0;
#X obj 70 55 pack f 1;
#X obj 133 55 pack f 2;
#X obj 197 55 pack f 3;
#X obj 262 55 pack f 4;
#X obj 324 54 pack f 5;
#X obj 388 54 pack f 6;
#X obj 451 54 pack f 7;
#X obj 515 54 pack f 8;
#X obj 6 102 outlet;
#X obj 7 27 inlet;
#X obj 263 27 inlet;
#X obj 133 29 inlet;
#X obj 196 27 inlet;
#X obj 580 54 pack f 9;
#X obj 70 28 inlet;
#X obj 322 24 inlet;
#X obj 578 24 inlet;
#X obj 448 26 inlet;
#X obj 511 24 inlet;
#X obj 385 25 inlet;
#X connect 0 0 9 0;
#X connect 1 0 9 0;
#X connect 2 0 9 0;
#X connect 3 0 9 0;
#X connect 4 0 9 0;
#X connect 5 0 9 0;
#X connect 6 0 9 0;
#X connect 7 0 9 0;
#X connect 8 0 9 0;
#X connect 10 0 0 0;
#X connect 11 0 4 0;
#X connect 12 0 2 0;
#X connect 13 0 3 0;
#X connect 14 0 9 0;
#X connect 15 0 1 0;
#X connect 16 0 5 0;
#X connect 17 0 14 0;
#X connect 18 0 7 0;
#X connect 19 0 8 0;
#X connect 20 0 6 0;
#X restore 648 1150 pd packslider;
#X f 18;
#X obj 627 1092 inlet;
#X obj 649 1092 inlet;
#X obj 670 1092 inlet;
#X obj 691 1092 inlet;
#X obj 712 1092 inlet;
#X obj 733 1092 inlet;
#X obj 754 1092 inlet;
#X obj 776 1092 inlet;
#X obj 798 1092 inlet;
#X obj 819 1092 inlet;
#X obj 339 329 inlet;
#X obj 401 329 inlet;
#X obj 987 480 inlet;
#X obj 1081 666 inlet;
#X obj 1139 299 inlet;
#X obj 873 876 outlet;
#X obj 722 631 array define xybuf 2;
#X obj 1404 358 inlet;
#X connect 0 0 41 0;
#X connect 1 0 3 0;
#X connect 3 0 43 0;
#X connect 4 0 5 0;
#X connect 5 0 43 0;
#X connect 6 0 8 0;
#X connect 7 0 18 0;
#X connect 9 0 6 0;
#X connect 9 0 35 0;
#X connect 9 0 7 0;
#X connect 10 0 9 0;
#X connect 11 0 8 0;
#X connect 11 0 18 0;
#X connect 12 0 8 0;
#X connect 12 0 18 0;
#X connect 13 0 42 1;
#X connect 14 0 15 0;
#X connect 15 0 44 0;
#X connect 15 1 45 0;
#X connect 15 2 46 0;
#X connect 15 3 47 0;
#X connect 15 4 48 0;
#X connect 15 5 49 0;
#X connect 15 6 50 0;
#X connect 15 7 51 0;
#X connect 15 8 52 0;
#X connect 15 9 53 0;
#X connect 19 0 41 0;
#X connect 20 0 14 0;
#X connect 21 0 20 0;
#X connect 21 1 38 0;
#X connect 23 0 22 0;
#X connect 35 0 9 1;
#X connect 38 0 39 0;
#X connect 39 0 72 0;
#X connect 41 0 21 0;
#X connect 42 0 19 0;
#X connect 43 0 42 0;
#X connect 43 1 2 0;
#X connect 56 0 54 0;
#X connect 57 0 56 0;
#X connect 58 0 56 1;
#X connect 59 0 56 2;
#X connect 60 0 56 3;
#X connect 61 0 56 4;
#X connect 62 0 56 5;
#X connect 63 0 56 6;
#X connect 64 0 56 7;
#X connect 65 0 56 8;
#X connect 66 0 56 9;
#X connect 67 0 1 0;
#X connect 68 0 4 0;
#X connect 69 0 10 0;
#X connect 70 0 0 0;
#X connect 71 0 13 0;
#X connect 74 0 12 0;
#X restore 805 425 pd flucoma;
#X obj 1330 359 vradio 19 1 0 2 empty empty empty 0 -10 0 12 #fcfcfc #000000 #000000 0;
#X obj 1106 260 bng 25 250 50 0 empty empty empty 0 -10 0 10 #ffffff #000000 #000000;
#X obj 1025 210 bng 25 250 50 0 empty empty empty 0 -10 0 10 #ffffff #000000 #000000;
#X obj 1059 210 cnv 15 15 15 empty empty empty 20 12 0 14 #c6ffc7 #404040 0;
#X text 1059 208 4) click to add the settings to the datasets. repeat steps 2 to 4 to add more data to the datasets, f 52;
#X obj 1153 260 cnv 15 15 15 empty empty empty 20 12 0 14 #c6ffc7 #404040 0;
#X text 1153 258 5) click to teach mlpregressor \, repeat to get as close to zero error as possible (the fit is shown in the console window), f 39;
#X text 1217 358 selecting points;
#X text 1217 378 predicting points;
#X obj 1359 359 cnv 15 15 15 empty empty empty 20 12 0 14 #c6ffc7 #404040 0;
#X text 1359 358 6) switch to predicting points, f 18;
#X obj 896 175 cnv 15 15 15 empty empty empty 20 12 0 14 #c6ffc7 #404040 0;
#X text 896 172 2) set a point on both sliders;
#X obj 802 181 vsl 19 162 0 1 0 0 empty empty empty 0 -9 0 12 #96ff96 #000000 #000000 0 1;
#X obj 840 181 vsl 19 162 0 1 0 0 empty empty empty 0 -9 0 12 #96ff96 #000000 #000000 0 1;
#X floatatom 1217 311 9 0 0 0 - - - 16;
#X text 1313 310 error;
#X msg 802 70 \; pd dsp \$1;
#X obj 802 43 tgl 19 0 empty empty empty 0 -10 0 12 #fcfcfc #000000 #000000 0 1;
#X obj 825 46 cnv 15 15 15 empty empty empty 20 12 0 14 #c6ffc7 #404040 0;
#X text 825 44 1) turn audio on;
#X obj 1116 785 hradio 15 1 0 8 empty \$0-radio Load\ preset 0 -8 0 10 #aaaaaa #000000 #000000 0;
#X obj 856 459 r \$0-2;
#X obj 802 459 r \$0-1;
#X obj 913 459 r \$0-3;
#X obj 968 459 r \$0-4;
#X obj 1022 459 r \$0-5;
#X obj 1079 459 r \$0-6;
#X obj 1134 459 r \$0-7;
#X obj 1188 459 r \$0-8;
#X obj 1245 459 r \$0-9;
#X obj 1299 459 r \$0-10;
#N canvas 733 172 450 300 presets 0;
#N canvas 356 221 568 423 shift 0;
#X msg 137 214 save;
#X msg 218 214 load;
#X obj 106 264 else/insert;
#X obj 218 293 s \$0-radio;
#X obj 175 95 keyname;
#X obj 214 117 select Shift_L;
#X msg 214 139 1;
#X msg 295 138 0;
#X obj 199 166 &&;
#X obj 199 188 sel 1 0;
#X obj 106 35 inlet;
#X obj 106 344 outlet;
#X msg 218 242 color #aaaaaa #000000 #000000 \, label Load\ preset;
#X msg 227 270 color #ff5050 #000000 #000000 \, label Save\ preset;
#X connect 0 0 2 1;
#X connect 0 0 13 0;
#X connect 1 0 2 1;
#X connect 1 0 12 0;
#X connect 2 0 11 0;
#X connect 4 0 8 0;
#X connect 4 1 5 0;
#X connect 5 0 6 0;
#X connect 5 1 7 0;
#X connect 6 0 8 1;
#X connect 7 0 8 1;
#X connect 8 0 9 0;
#X connect 9 0 0 0;
#X connect 9 1 1 0;
#X connect 10 0 2 0;
#X connect 12 0 3 0;
#X connect 13 0 3 0;
#X restore -52 572 pd shift;
#X obj -52 611 else/display;
#X msg -97 614 show;
#X obj -52 544 inlet;
#X obj -52 649 else/presets \\\$0-1 \\\$0-2 \\\$0-3 \\\$0-4 \\\$0-5 \\\$0-6 \\\$0-7 \\\$0-8 \\\$0-9 \\\$0-10;
#A saved \\\$0-1 0 || \\\$0-2 0 || \\\$0-3 0 || \\\$0-4 0 || \\\$0-5 0.000538676 || \\\$0-6 0.0006057 || \\\$0-7 0.000753485 || \\\$0-8 0.000468576 || \\\$0-9 0.000477074 || \\\$0-10 0.000590751 || \; \\\$0-1 0.460868 || \\\$0-2 0.504395 || \\\$0-3 0.451683 || \\\$0-4 0 || \\\$0-5 0.000538676 || \\\$0-6 0.0006057 || \\\$0-7 0.000753485 || \\\$0-8 0.000468576 || \\\$0-9 0.000477074 || \\\$0-10 0.000590751 || \; \\\$0-1 1 || \\\$0-2 1 || \\\$0-3 1 || \\\$0-4 0 || \\\$0-5 0.000538676 || \\\$0-6 0.0006057 || \\\$0-7 0.000753485 || \\\$0-8 0.000468576 || \\\$0-9 0.000477074 || \\\$0-10 0.000590751 || \; \\\$0-1 1 || \\\$0-2 1 || \\\$0-3 0.984398 || \\\$0-4 0 || \\\$0-5 0 || \\\$0-6 0 || \\\$0-7 0 || \\\$0-8 0 || \\\$0-9 0 || \\\$0-10 0 || \; \\\$0-1 1 || \\\$0-2 1 || \\\$0-3 0.984398 || \\\$0-4 1 || \\\$0-5 0 || \\\$0-6 0 || \\\$0-7 0 || \\\$0-8 0 || \\\$0-9 0 || \\\$0-10 0 || \; \\\$0-1 1 || \\\$0-2 1 || \\\$0-3 0.984398 || \\\$0-4 1 || \\\$0-5 0.997047 || \\\$0-6 0 || \\\$0-7 0 || \\\$0-8 0 || \\\$0-9 0 || \\\$0-10 0 || \; -empty- \; -empty- \; -empty- \; -empty- \; -empty- \; -empty- \; -empty- \; -empty- \; -empty- \; -empty- \; -empty- \; -empty- \; -empty- \; -empty- \; -empty- \; -empty- \; -empty- \; -empty- \; -empty- \; -empty- \; -empty- \; -empty- \; -empty- \; -empty- \; -empty- \; -empty- \; -empty- \; -empty- \; -empty- \; -empty- \; -empty- \; -empty- \; -empty- \; -empty- \; -empty- \; -empty- \; -empty- \; -empty- \; -empty- \; -empty- \; -empty- \; -empty- \; -empty- \; -empty- \; -empty- \; -empty- \; -empty- \; -empty- \; -empty- \; -empty- \; -empty- \; -empty- \; -empty- \; -empty- \; -empty- \; -empty- \; -empty- \; -empty- \;;
#X connect 0 0 1 0;
#X connect 1 0 4 0;
#X connect 2 0 4 0;
#X connect 3 0 0 0;
#X restore 1116 814 pd presets;
#X text 1112 748 press shift to save presets;
#X floatatom 641 5 5 0 0 0 - - - 12;
#X obj 607 -86 bng 25 250 50 0 empty empty empty 0 -10 0 10 #ffffff #000000 #000000;
#X obj 756 -78 bng 25 250 50 0 empty empty empty 0 -10 0 10 #ffffff #000000 #000000;
#X obj 756 -107 loadbang;
#X text 756 -129 reset counter;
#X obj 1025 -86 r add_data;
#X obj 1330 -86 r select_predict;
#X obj 1599 239 loadbang;
#X msg 1599 265 0;
#X text 1599 216 set selecting points;
#X obj 641 -86 r set_param;
#X obj 1119 -86 r learn;
#X obj 933 -86 sel 0;
#X obj 1330 79 tgl 25 0 empty empty empty 0 -10 0 10 #ffffff #000000 #000000 0 1;
#X obj 1392 5 loadbang;
#X msg 1392 31 0;
#X obj 641 -21 counter -1 2;
#X obj 1023 17 del 100;
#X obj 1025 -60 t b b b;
#X obj -9 402 hradio 20 1 0 3 empty empty INTERACTIVE\ SET\ PRESET 0 -8 0 10 #cbffc8 #000000 #000000 0;
#X obj -101 240 r preset_interactive_state;
#X obj -101 213 r preset_interactive_choose;
#X obj -9 345 hradio 20 1 0 3 empty empty INTERACTIVE\ CHOOSE\ PRESET 0 -8 0 10 #cbffc8 #000000 #000000 0;
#X obj 133 671 *~;
#X obj 226 668 *~;
#X obj 317 668 *~;
#X obj -32 447 sel 0 1 2;
#X obj 160 612 line;
#X msg 160 581 \$1 1000;
#X obj 253 608 line;
#X msg 253 577 \$1 1000;
#X obj 351 608 line;
#X msg 351 577 \$1 1000;
#X msg 160 541 0;
#X msg 193 541 1;
#X msg 253 541 0;
#X msg 286 541 1;
#X msg 351 541 0;
#X msg 384 541 1;
#X obj 1459 533 hsl 128 17 0 1 0 0 empty empty fx1\ crusher -2 -8 0 10 #96ffff #000000 #000000 0 1;
#X obj 1459 571 hsl 128 17 0 1 0 0 empty empty fx1\ crusher -2 -8 0 10 #96ffff #000000 #000000 0 1;
#X obj 1459 609 hsl 128 17 0 1 0 0 empty empty fx1\ crusher -2 -8 0 10 #96ffff #000000 #000000 0 1;
#X obj 1459 647 hsl 128 17 0 1 0 0 empty empty fx1\ crusher -2 -8 0 10 #96ffff #000000 #000000 0 1;
#X obj 1459 685 hsl 128 17 0 1 0 0 empty empty fx1\ crusher -2 -8 0 10 #96ffff #000000 #000000 0 1;
#X obj 1459 723 hsl 128 17 0 1 0 0 empty empty fx1\ crusher -2 -8 0 10 #96ffff #000000 #000000 0 1;
#X obj 1459 761 hsl 128 17 0 1 0 0 empty empty fx1\ crusher -2 -8 0 10 #96ffff #000000 #000000 0 1;
#X obj 1459 799 hsl 128 17 0 1 0 0 empty empty fx1\ crusher -2 -8 0 10 #96ffff #000000 #000000 0 1;
#X obj 1459 837 hsl 128 17 0 1 0 0 empty empty fx1\ crusher -2 -8 0 10 #96ffff #000000 #000000 0 1;
#X obj 1462 875 hsl 128 17 0 1 0 0 empty empty fx1\ crusher -2 -8 0 10 #96ffff #000000 #000000 0 1;
#X obj 1620 533 s fx1_crusher;
#N canvas 733 172 450 300 interactive_fx1 0;
#X floatatom 219 833 8 1 10000 0 - - - 0;
#X obj 135 914 else/crusher~;
#X obj 219 859 else/f2s~;
#X obj 340 798 r fx1_crusher;
#X obj 133 671 inlet~;
#X obj 135 1221 outlet~;
#X obj 233 1221 outlet~;
#X connect 0 0 2 0;
#X connect 1 0 5 0;
#X connect 1 0 6 0;
#X connect 2 0 1 2;
#X connect 3 0 2 1;
#X connect 4 0 1 0;
#X restore 133 897 pd interactive_fx1;
#N canvas 733 172 450 300 interactive_fx2 0;
#X floatatom 219 833 8 1 10000 0 - - - 0;
#X obj 135 914 else/crusher~;
#X obj 219 859 else/f2s~;
#X obj 340 798 r fx1_crusher;
#X obj 133 671 inlet~;
#X obj 135 1221 outlet~;
#X obj 229 1218 outlet~;
#X connect 0 0 2 0;
#X connect 1 0 5 0;
#X connect 1 0 6 0;
#X connect 2 0 1 2;
#X connect 3 0 2 1;
#X connect 4 0 1 0;
#X restore 286 899 pd interactive_fx2;
#N canvas 733 172 450 300 interactive_fx3 0;
#X floatatom 219 833 8 1 10000 0 - - - 0;
#X obj 135 914 else/crusher~;
#X obj 219 859 else/f2s~;
#X obj 340 798 r fx1_crusher;
#X obj 133 671 inlet~;
#X obj 135 1221 outlet~;
#X obj 233 1221 outlet~;
#X connect 0 0 2 0;
#X connect 1 0 5 0;
#X connect 1 0 6 0;
#X connect 2 0 1 2;
#X connect 3 0 2 1;
#X connect 4 0 1 0;
#X restore 431 899 pd interactive_fx3;
#X connect 0 0 65 0;
#X connect 0 0 67 0;
#X connect 0 0 66 0;
#X connect 3 0 22 0;
#X connect 4 0 21 0;
#X connect 7 0 81 0;
#X connect 7 1 82 0;
#X connect 7 2 83 0;
#X connect 7 3 84 0;
#X connect 7 4 85 0;
#X connect 7 5 86 0;
#X connect 7 6 87 0;
#X connect 7 7 88 0;
#X connect 7 8 89 0;
#X connect 7 9 90 0;
#X connect 7 10 23 0;
#X connect 8 0 7 14;
#X connect 8 0 54 0;
#X connect 9 0 7 13;
#X connect 10 0 7 12;
#X connect 21 0 7 0;
#X connect 22 0 7 1;
#X connect 26 0 25 0;
#X connect 29 0 40 0;
#X connect 30 0 82 0;
#X connect 31 0 81 0;
#X connect 32 0 83 0;
#X connect 33 0 84 0;
#X connect 34 0 85 0;
#X connect 34 0 84 0;
#X connect 35 0 86 0;
#X connect 36 0 87 0;
#X connect 37 0 88 0;
#X connect 38 0 89 0;
#X connect 39 0 90 0;
#X connect 42 0 29 0;
#X connect 43 0 58 0;
#X connect 44 0 58 3;
#X connect 45 0 44 0;
#X connect 47 0 60 0;
#X connect 48 0 55 0;
#X connect 49 0 50 0;
#X connect 50 0 8 0;
#X connect 52 0 58 0;
#X connect 53 0 9 0;
#X connect 54 0 44 0;
#X connect 55 0 8 0;
#X connect 56 0 57 0;
#X connect 57 0 55 0;
#X connect 58 0 42 0;
#X connect 59 0 10 0;
#X connect 60 0 59 0;
#X connect 60 1 43 0;
#X connect 60 2 7 15;
#X connect 61 0 68 0;
#X connect 62 0 61 0;
#X connect 63 0 64 0;
#X connect 65 0 92 0;
#X connect 66 0 93 0;
#X connect 67 0 94 0;
#X connect 68 0 76 0;
#X connect 68 0 77 0;
#X connect 68 0 79 0;
#X connect 68 1 75 0;
#X connect 68 1 78 0;
#X connect 68 1 79 0;
#X connect 68 2 75 0;
#X connect 68 2 77 0;
#X connect 68 2 80 0;
#X connect 69 0 65 1;
#X connect 70 0 69 0;
#X connect 71 0 66 1;
#X connect 72 0 71 0;
#X connect 73 0 67 1;
#X connect 74 0 73 0;
#X connect 75 0 70 0;
#X connect 76 0 70 0;
#X connect 77 0 72 0;
#X connect 78 0 72 0;
#X connect 79 0 74 0;
#X connect 80 0 74 0;
#X connect 81 0 7 2;
#X connect 81 0 91 0;
#X connect 82 0 7 3;
#X connect 83 0 7 4;
#X connect 84 0 7 5;
#X connect 85 0 7 6;
#X connect 86 0 7 7;
#X connect 87 0 7 8;
#X connect 88 0 7 9;
#X connect 89 0 7 10;
#X connect 90 0 7 11;
#X connect 92 0 1 0;
#X connect 92 1 2 0;
#X connect 93 0 1 0;
#X connect 93 1 2 0;
#X connect 94 0 1 0;
#X connect 94 1 2 0;
#X restore 1948 523 pd fx_sensors;
#X obj 199 -98 s pit_or;
#X obj 291 -98 s roll_or;
#X obj 199 -123 / 360;
#X obj 291 -123 / 360;
#N canvas 0 22 450 300 notes 0;
#X obj 743 305 pitch.shift~;
#X obj 859 305 revdelay~;
#X obj 670 305 del~;
#X obj 582 305 ffdelay~;
#X restore 1630 821 pd notes;
#N canvas 0 22 450 300 freeze_sensors 0;
#X restore 1881 649 pd freeze_sensors;
#X text 1120 -348 GENERAL \; Sound on / off \; \; MODES \; fx static: selecting presets - dry/wet of effects \; \; fx interactive: selecting presets - train sensor \; \; fx freeze: selecting presets - train sensor;
#X obj 1948 844 out~;
#X msg 2058 790 mute;
#X obj 2058 757 r mute;
#X msg 2141 790 set \$1;
#X obj -153 413 hradio 20 1 0 3 empty empty STATIC\ SET\ PRESET 0 -8 0 10 #cbffc8 #000000 #000000 0;
#X obj -10 413 hradio 20 1 0 3 empty empty INTERACTIVE\ SET\ PRESET 0 -8 0 10 #cbffc8 #000000 #000000 0;
#X obj 178 413 hradio 20 1 0 3 empty empty FREEZE\ SET\ PRESET 0 -8 0 10 #cbffc8 #000000 #000000 0;
#X obj -268 251 r preset_static_state;
#X obj -102 251 r preset_interactive_state;
#X obj 86 251 r preset_freeze_state;
#X text 730 444 static;
#X text 1090 438 interactive;
#X text 1462 438 freeze;
#X floatatom 727 523 5 0 0 0 - - - 16;
#X obj 727 557 < 0.25;
#X obj 933 557 > 0.75;
#X msg 727 621 0;
#X msg 933 621 2;
#X obj 727 589 sel 1;
#X obj 933 589 sel 1;
#X obj 794 557 >= 0.25;
#X obj 863 557 <= 0.75;
#X obj 863 589 tgl 25 0 empty empty empty 0 -10 0 10 #ffffff #000000 #000000 0 1;
#X obj 794 589 tgl 25 0 empty empty empty 0 -10 0 10 #ffffff #000000 #000000 0 1;
#X obj 794 621 ==;
#X obj 794 644 sel 1;
#X msg 794 670 1;
#X obj 836 744 hradio 20 1 0 3 empty empty empty 0 -8 0 10 #ffffff #000000 #000000 0;
#X obj 727 491 r knob1;
#X floatatom 1090 523 5 0 0 0 - - - 16;
#X obj 1090 557 < 0.25;
#X obj 1296 557 > 0.75;
#X msg 1090 621 0;
#X msg 1296 621 2;
#X obj 1090 589 sel 1;
#X obj 1296 589 sel 1;
#X obj 1157 557 >= 0.25;
#X obj 1226 557 <= 0.75;
#X obj 1226 589 tgl 25 0 empty empty empty 0 -10 0 10 #ffffff #000000 #000000 0 1;
#X obj 1157 589 tgl 25 0 empty empty empty 0 -10 0 10 #ffffff #000000 #000000 0 1;
#X obj 1157 621 ==;
#X obj 1157 644 sel 1;
#X msg 1157 670 1;
#X obj 1090 491 r knob2;
#X floatatom 1462 523 5 0 0 0 - - - 16;
#X obj 1462 557 < 0.25;
#X obj 1668 557 > 0.75;
#X msg 1462 621 0;
#X msg 1668 621 2;
#X obj 1462 589 sel 1;
#X obj 1668 589 sel 1;
#X obj 1529 557 >= 0.25;
#X obj 1598 557 <= 0.75;
#X obj 1598 589 tgl 25 0 empty empty empty 0 -10 0 10 #ffffff #000000 #000000 0 1;
#X obj 1529 589 tgl 25 0 empty empty empty 0 -10 0 10 #ffffff #000000 #000000 0 1;
#X obj 1529 621 ==;
#X obj 1529 644 sel 1;
#X msg 1529 670 1;
#X obj 1462 491 r knob3;
#X obj 727 781 f;
#X obj 727 744 r knob_press1;
#X obj 1199 744 hradio 20 1 0 3 empty empty empty 0 -8 0 10 #ffffff #000000 #000000 0;
#X obj 1090 781 f;
#X obj 1567 744 hradio 20 1 0 3 empty empty empty 0 -8 0 10 #ffffff #000000 #000000 0;
#X obj 1458 781 f;
#X obj 1090 744 r knob_press2;
#X obj 1458 744 r knob_press3;
#X obj 727 876 s preset_static_state;
#X obj 1090 876 s preset_interactive_state;
#X obj 1458 876 s preset_freeze_state;
#X obj 727 837 hradio 20 1 0 3 empty empty STATIC\ PRESET 0 -8 0 10 #ffffff #000000 #000000 0;
#X obj 1090 837 hradio 20 1 0 3 empty empty INTERACTIVE\ PRESET 0 -8 0 10 #ffffff #000000 #000000 0;
#X obj 1458 837 hradio 20 1 0 3 empty empty FREEZE\ PRESET 0 -8 0 10 #ffffff #000000 #000000 0;
#X obj 836 781 s preset_static_choose;
#X obj 1199 781 s preset_interactive_choose;
#X obj 1567 781 s preset_freeze_choose;
#X obj 86 224 r preset_freeze_choose;
#X obj -102 224 r preset_interactive_choose;
#X obj -268 224 r preset_static_choose;
#X obj -153 356 hradio 20 1 0 3 empty empty STATIC\ CHOOSE\ PRESET 0 -8 0 10 #cbffc8 #000000 #000000 0;
#X obj -10 356 hradio 20 1 0 3 empty empty INTERACTIVE\ CHOOSE\ PRESET 0 -8 0 10 #cbffc8 #000000 #000000 0;
#X obj 178 356 hradio 20 1 0 3 empty empty FREEZE\ CHOOSE\ PRESET 0 -8 0 10 #cbffc8 #000000 #000000 0;
#X obj -161 777 vsl 17 128 0 1 0 0 empty empty VOUME 0 -9 0 10 #cbffc8 #000000 #000000 0 1;
#X obj -294 656 r select_predict;
#X obj -153 656 vradio 17 1 0 2 empty empty SELECT\ /\ PREDICT 0 -10 0 12 #cbffc8 #000000 #000000 0;
#X obj -75 791 r mute;
#X obj -9 791 tgl 25 0 empty empty MUTE 0 -10 0 10 #cbffc8 #000000 #000000 0 1;
#X obj -254 709 tgl 25 0 empty empty empty 0 -10 0 10 #ffffff #000000 #000000 0 1;
#X obj -294 683 loadbang;
#X msg -294 709 0;
#X obj -158 481 vsl 17 128 0 1 0 0 empty empty DRY/WET\ STATIC 0 -9 0 10 #cbffc8 #000000 #000000 0 1;
#X obj 889 -121 vsl 19 162 0 1 0 0 empty empty empty 0 -9 0 12 #ff96ff #000000 #000000 0 1;
#X obj 930 -121 vsl 19 162 0 1 0 0 empty empty empty 0 -9 0 12 #ff96ff #000000 #000000 0 1;
#X obj 972 -121 vsl 19 162 0 1 0 0 empty empty empty 0 -9 0 12 #ff96ff #000000 #000000 0 1;
#X obj 1014 -121 vsl 19 162 0 1 0 0 empty empty empty 0 -9 0 12 #ff96ff #000000 #000000 0 1;
#X obj 727 57 bng 25 250 50 0 empty empty empty 0 -10 0 10 #ff96ff #505050 #373737;
#X obj 769 57 bng 25 250 50 0 empty empty empty 0 -10 0 10 #ff96ff #505050 #373737;
#X obj 811 57 bng 25 250 50 0 empty empty empty 0 -10 0 10 #ff96ff #505050 #373737;
#X obj 853 57 bng 25 250 50 0 empty empty empty 0 -10 0 10 #ff96ff #505050 #373737;
#X obj 889 57 bng 25 250 50 0 empty empty empty 0 -10 0 10 #ff96ff #505050 #373737;
#X obj 930 57 bng 25 250 50 0 empty empty empty 0 -10 0 10 #ff96ff #505050 #373737;
#X obj 972 57 bng 25 250 50 0 empty empty empty 0 -10 0 10 #ff96ff #505050 #373737;
#X obj 1225 -123 s knob1;
#X obj 1225 -99 s knob2;
#X obj 1225 -75 s knob3;
#X obj 1225 -51 s knob4;
#X obj 888 189 s knob_press1;
#X obj 930 215 s knob_press2;
#X obj 972 242 s knob_press3;
#X obj 1014 269 s knob_press4;
#X text 761 268 sound on/off;
#X obj 852 269 s mute;
#X text 1294 -124 choose static preset;
#X text 1294 -100 choose interactive preset;
#X text 1296 -75 choose freeze preset;
#X text 1001 188 select static preset;
#X text 1041 214 select interactive preset;
#X text 1089 241 select freeze preset;
#X text 1116 268 activate volume control;
#X text 654 214 add data points;
#X text 590 188 selecting / predicting;
#X text 753 241 learn;
#X obj 726 189 s select_predict;
#X obj 768 215 s add_data;
#X obj 810 242 s learn;
#X obj 1014 57 tgl 25 0 empty empty empty 0 -10 0 10 #ffb6ff #000000 #000000 0 1;
#N canvas 733 172 450 300 knobs_buttons_endless 0;
#X obj 859 71 notein;
#X floatatom 859 114 5 0 0 0 - - - 12;
#X floatatom 909 114 5 0 0 0 - - - 12;
#X floatatom 970 114 5 0 0 0 - - - 12;
#X obj 1054 70 ctlin;
#X floatatom 1054 112 5 0 0 0 - - - 12;
#X floatatom 1103 113 5 0 0 0 - - - 12;
#X floatatom 1162 114 5 0 0 0 - - - 12;
#X obj 1045 487 vsl 19 162 0 1 0 0 empty empty empty 0 -9 0 12 #ffb5f9 #000000 #000000 0 1;
#X floatatom 1095 358 5 0 1 0 - - - 0;
#X obj 1045 381 +;
#X msg 1045 286 1;
#X floatatom 1045 425 5 0 0 0 - - - 12;
#X obj 1095 331 clip 1 126;
#X obj 1217 489 vsl 19 162 0 1 0 0 empty empty empty 0 -9 0 12 #ffb5f9 #000000 #000000 0 1;
#X floatatom 1215 665 5 0 0 0 - - - 12;
#X obj 1406 487 vsl 19 162 0 1 0 0 empty empty empty 0 -9 0 12 #ffb5f9 #000000 #000000 0 1;
#X floatatom 1404 663 5 0 0 0 - - - 12;
#X obj 1599 487 vsl 19 162 0 1 0 0 empty empty empty 0 -9 0 12 #ffb5f9 #000000 #000000 0 1;
#X floatatom 1597 663 5 0 0 0 - - - 12;
#X obj 1103 141 sel 48 49 50 51;
#X obj 1045 230 i;
#X obj 1219 230 i;
#X obj 1411 230 i;
#X obj 1597 228 i;
#X obj 862 312 tgl 19 0 empty empty empty 0 -10 0 12 #fcfcfc #000000 #000000 0 1;
#X obj 862 338 sel 1;
#X obj 862 612 bng 25 250 50 0 empty empty empty 0 -10 0 10 #ffb5f9 #505050 #373737;
#X obj 904 312 tgl 19 0 empty empty empty 0 -10 0 12 #fcfcfc #000000 #000000 0 1;
#X obj 904 338 sel 1;
#X obj 904 612 bng 25 250 50 0 empty empty empty 0 -10 0 10 #ffb5f9 #505050 #373737;
#X obj 946 312 tgl 19 0 empty empty empty 0 -10 0 12 #fcfcfc #000000 #000000 0 1;
#X obj 946 338 sel 1;
#X obj 946 612 bng 25 250 50 0 empty empty empty 0 -10 0 10 #ffb5f9 #505050 #373737;
#X obj 988 312 tgl 19 0 empty empty empty 0 -10 0 12 #fcfcfc #000000 #000000 0 1;
#X obj 988 338 sel 1;
#X obj 988 612 bng 25 250 50 0 empty empty empty 0 -10 0 10 #ffb5f9 #505050 #373737;
#X text 859 18 MIDI ROUTING;
#X obj 2029 71 notein;
#X floatatom 2029 114 5 0 0 0 - - - 12;
#X floatatom 2079 114 5 0 0 0 - - - 12;
#X floatatom 2140 114 5 0 0 0 - - - 12;
#X obj 2032 312 tgl 19 0 empty empty empty 0 -10 0 12 #fcfcfc #000000 #000000 0 1;
#X obj 2032 338 sel 1;
#X obj 1045 694 bng 25 250 50 0 empty empty empty 0 -10 0 10 #ffb5f9 #505050 #373737;
#X obj 2074 312 tgl 19 0 empty empty empty 0 -10 0 12 #fcfcfc #000000 #000000 0 1;
#X obj 2074 338 sel 1;
#X obj 1215 696 bng 25 250 50 0 empty empty empty 0 -10 0 10 #ffb5f9 #505050 #373737;
#X obj 2116 312 tgl 19 0 empty empty empty 0 -10 0 12 #fcfcfc #000000 #000000 0 1;
#X obj 2116 338 sel 1;
#X obj 1404 694 bng 25 250 50 0 empty empty empty 0 -10 0 10 #ffb5f9 #505050 #373737;
#X obj 2158 312 tgl 19 0 empty empty empty 0 -10 0 12 #fcfcfc #000000 #000000 0 1;
#X obj 860 268 sel 60 62 64 65;
#X obj 476 905 outlet;
#X obj 536 905 outlet;
#X obj 597 905 outlet;
#X obj 658 905 outlet;
#X obj 878 905 outlet;
#X obj 938 905 outlet;
#X obj 1099 905 outlet;
#X obj 1160 905 outlet;
#X obj 1280 905 outlet;
#X obj 1340 905 outlet;
#X obj 1497 905 outlet;
#X obj 1558 905 outlet;
#X text 1117 69 endless knobs;
#X obj 2030 268 sel 67 69 71 72;
#X obj 1045 450 / 127;
#X floatatom 1269 360 5 0 1 0 - - - 0;
#X obj 1219 383 +;
#X floatatom 1219 427 5 0 0 0 - - - 12;
#X obj 1269 333 clip 1 126;
#X obj 1219 452 / 127;
#X floatatom 1461 358 5 0 1 0 - - - 0;
#X obj 1411 381 +;
#X floatatom 1411 425 5 0 0 0 - - - 12;
#X obj 1461 331 clip 1 126;
#X obj 1411 450 / 127;
#X floatatom 1647 358 5 0 1 0 - - - 0;
#X obj 1597 381 +;
#X floatatom 1597 425 5 0 0 0 - - - 12;
#X obj 1647 331 clip 1 126;
#X obj 1597 450 / 127;
#X obj 1609 49 sel 0 1;
#X obj 1609 120 gate 2;
#X msg 1609 77 1;
#X msg 1631 77 2;
#X obj 1609 181 s dry_wet_static;
#X obj 1648 154 s volume;
#X obj 1791 487 vsl 19 162 0 1 0 0 empty empty empty 0 -9 0 12 #ffb5f9 #000000 #000000 0 1;
#X floatatom 1789 663 5 0 0 0 - - - 12;
#X obj 1789 228 i;
#X floatatom 1839 358 5 0 1 0 - - - 0;
#X obj 1789 381 +;
#X floatatom 1789 425 5 0 0 0 - - - 12;
#X obj 1839 331 clip 1 126;
#X obj 1789 450 / 127;
#X obj 1581 154 bng 25 250 50 0 empty empty empty 0 -10 0 10 #ffffff #000000 #000000;
#X obj 1759 145 bng 25 250 50 0 empty empty empty 0 -10 0 10 #ffffff #000000 #000000;
#X obj 1700 903 outlet;
#X obj 1045 255 sel 1 2 3 4 127 126 125 124;
#X msg 1113 286 -1;
#X msg 1061 286 2;
#X msg 1078 286 3;
#X msg 1095 286 4;
#X msg 1133 286 -2;
#X msg 1155 286 -3;
#X msg 1179 286 -4;
#X msg 1219 286 1;
#X obj 1219 255 sel 1 2 3 4 127 126 125 124;
#X msg 1287 286 -1;
#X msg 1235 286 2;
#X msg 1252 286 3;
#X msg 1269 286 4;
#X msg 1307 286 -2;
#X msg 1329 286 -3;
#X msg 1353 286 -4;
#X msg 1411 286 1;
#X obj 1411 255 sel 1 2 3 4 127 126 125 124;
#X msg 1479 286 -1;
#X msg 1427 286 2;
#X msg 1444 286 3;
#X msg 1461 286 4;
#X msg 1499 286 -2;
#X msg 1521 286 -3;
#X msg 1545 286 -4;
#X msg 1597 286 1;
#X obj 1597 255 sel 1 2 3 4 127 126 125 124;
#X msg 1665 286 -1;
#X msg 1613 286 2;
#X msg 1630 286 3;
#X msg 1647 286 4;
#X msg 1685 286 -2;
#X msg 1707 286 -3;
#X msg 1731 286 -4;
#X msg 1789 286 1;
#X obj 1789 255 sel 1 2 3 4 127 126 125 124;
#X msg 1857 286 -1;
#X msg 1805 286 2;
#X msg 1822 286 3;
#X msg 1839 286 4;
#X msg 1877 286 -2;
#X msg 1899 286 -3;
#X msg 1923 286 -4;
#X connect 0 0 1 0;
#X connect 0 1 2 0;
#X connect 0 2 3 0;
#X connect 1 0 52 0;
#X connect 4 0 5 0;
#X connect 4 1 6 0;
#X connect 4 2 7 0;
#X connect 5 0 22 1;
#X connect 5 0 21 1;
#X connect 5 0 24 1;
#X connect 5 0 23 1;
#X connect 5 0 91 1;
#X connect 6 0 20 0;
#X connect 8 0 57 0;
#X connect 9 0 10 1;
#X connect 10 0 12 0;
#X connect 11 0 10 0;
#X connect 12 0 67 0;
#X connect 12 0 13 0;
#X connect 13 0 9 0;
#X connect 14 0 15 0;
#X connect 14 0 59 0;
#X connect 16 0 17 0;
#X connect 16 0 61 0;
#X connect 18 0 19 0;
#X connect 18 0 63 0;
#X connect 20 0 21 0;
#X connect 20 1 22 0;
#X connect 20 2 23 0;
#X connect 20 3 84 1;
#X connect 21 0 100 0;
#X connect 22 0 109 0;
#X connect 23 0 118 0;
#X connect 24 0 127 0;
#X connect 25 0 26 0;
#X connect 26 0 27 0;
#X connect 27 0 53 0;
#X connect 28 0 29 0;
#X connect 29 0 30 0;
#X connect 30 0 54 0;
#X connect 31 0 32 0;
#X connect 32 0 33 0;
#X connect 33 0 55 0;
#X connect 34 0 35 0;
#X connect 35 0 36 0;
#X connect 36 0 56 0;
#X connect 38 0 39 0;
#X connect 38 1 40 0;
#X connect 38 2 41 0;
#X connect 39 0 66 0;
#X connect 42 0 43 0;
#X connect 43 0 44 0;
#X connect 44 0 58 0;
#X connect 45 0 46 0;
#X connect 46 0 47 0;
#X connect 47 0 60 0;
#X connect 48 0 49 0;
#X connect 49 0 50 0;
#X connect 50 0 62 0;
#X connect 51 0 83 0;
#X connect 51 0 64 0;
#X connect 52 0 25 0;
#X connect 52 1 28 0;
#X connect 52 2 31 0;
#X connect 52 3 34 0;
#X connect 66 0 42 0;
#X connect 66 1 45 0;
#X connect 66 2 48 0;
#X connect 66 3 51 0;
#X connect 67 0 8 0;
#X connect 68 0 69 1;
#X connect 69 0 70 0;
#X connect 70 0 72 0;
#X connect 70 0 71 0;
#X connect 71 0 68 0;
#X connect 72 0 14 0;
#X connect 73 0 74 1;
#X connect 74 0 75 0;
#X connect 75 0 77 0;
#X connect 75 0 76 0;
#X connect 76 0 73 0;
#X connect 77 0 16 0;
#X connect 78 0 79 1;
#X connect 79 0 80 0;
#X connect 80 0 82 0;
#X connect 80 0 81 0;
#X connect 81 0 78 0;
#X connect 82 0 18 0;
#X connect 83 0 85 0;
#X connect 83 1 86 0;
#X connect 84 0 87 0;
#X connect 84 0 97 0;
#X connect 84 0 24 0;
#X connect 84 1 88 0;
#X connect 84 1 98 0;
#X connect 84 1 91 0;
#X connect 85 0 84 0;
#X connect 86 0 84 0;
#X connect 89 0 99 0;
#X connect 89 0 90 0;
#X connect 91 0 136 0;
#X connect 92 0 93 1;
#X connect 93 0 94 0;
#X connect 94 0 96 0;
#X connect 94 0 95 0;
#X connect 95 0 92 0;
#X connect 96 0 89 0;
#X connect 100 0 11 0;
#X connect 100 1 102 0;
#X connect 100 2 103 0;
#X connect 100 3 104 0;
#X connect 100 4 101 0;
#X connect 100 5 105 0;
#X connect 100 6 106 0;
#X connect 100 7 107 0;
#X connect 101 0 10 0;
#X connect 102 0 10 0;
#X connect 103 0 10 0;
#X connect 104 0 10 0;
#X connect 105 0 10 0;
#X connect 106 0 10 0;
#X connect 107 0 10 0;
#X connect 108 0 69 0;
#X connect 109 0 108 0;
#X connect 109 1 111 0;
#X connect 109 2 112 0;
#X connect 109 3 113 0;
#X connect 109 4 110 0;
#X connect 109 5 114 0;
#X connect 109 6 115 0;
#X connect 109 7 116 0;
#X connect 110 0 69 0;
#X connect 111 0 69 0;
#X connect 112 0 69 0;
#X connect 113 0 69 0;
#X connect 114 0 69 0;
#X connect 115 0 69 0;
#X connect 116 0 69 0;
#X connect 117 0 74 0;
#X connect 118 0 117 0;
#X connect 118 1 120 0;
#X connect 118 2 121 0;
#X connect 118 3 122 0;
#X connect 118 4 119 0;
#X connect 118 5 123 0;
#X connect 118 6 124 0;
#X connect 118 7 125 0;
#X connect 119 0 74 0;
#X connect 120 0 74 0;
#X connect 121 0 74 0;
#X connect 122 0 74 0;
#X connect 123 0 74 0;
#X connect 124 0 74 0;
#X connect 125 0 74 0;
#X connect 126 0 79 0;
#X connect 127 0 126 0;
#X connect 127 1 129 0;
#X connect 127 2 130 0;
#X connect 127 3 131 0;
#X connect 127 4 128 0;
#X connect 127 5 132 0;
#X connect 127 6 133 0;
#X connect 127 7 134 0;
#X connect 128 0 79 0;
#X connect 129 0 79 0;
#X connect 130 0 79 0;
#X connect 131 0 79 0;
#X connect 132 0 79 0;
#X connect 133 0 79 0;
#X connect 134 0 79 0;
#X connect 135 0 93 0;
#X connect 136 0 135 0;
#X connect 136 1 138 0;
#X connect 136 2 139 0;
#X connect 136 3 140 0;
#X connect 136 4 137 0;
#X connect 136 5 141 0;
#X connect 136 6 142 0;
#X connect 136 7 143 0;
#X connect 137 0 93 0;
#X connect 138 0 93 0;
#X connect 139 0 93 0;
#X connect 140 0 93 0;
#X connect 141 0 93 0;
#X connect 142 0 93 0;
#X connect 143 0 93 0;
#X restore 727 -199 pd knobs_buttons_endless;
#X obj 1225 -22 s knob4_pressed;
#X text 1349 -22 volume control;
#X text 1296 -52 dry/wet static effect;
#X obj 1049 -121 vsl 19 162 0 1 0 0 empty empty empty 0 -9 0 12 #ff96ff #000000 #000000 0 1;
#X obj -291 489 r knob4;
#X obj -294 791 r knob4_pressed;
#X floatatom 1049 51 5 0 0 0 - - - 12;
#X obj 2141 757 r knob4_pressed;
#X obj 1948 307 adc~ 1;
#X connect 0 0 4 0;
#X connect 0 1 5 0;
#X connect 4 0 11 0;
#X connect 5 0 12 0;
#X connect 7 0 8 0;
#X connect 8 0 16 0;
#X connect 8 1 16 1;
#X connect 11 0 9 0;
#X connect 12 0 10 0;
#X connect 17 0 16 0;
#X connect 18 0 17 0;
#X connect 19 0 16 0;
#X connect 23 0 20 0;
#X connect 24 0 21 0;
#X connect 25 0 22 0;
#X connect 29 0 30 0;
#X connect 29 0 31 0;
#X connect 29 0 36 0;
#X connect 29 0 37 0;
#X connect 30 0 34 0;
#X connect 31 0 35 0;
#X connect 32 0 43 0;
#X connect 33 0 43 0;
#X connect 34 0 32 0;
#X connect 35 0 33 0;
#X connect 36 0 39 0;
#X connect 37 0 38 0;
#X connect 38 0 40 1;
#X connect 39 0 40 0;
#X connect 40 0 41 0;
#X connect 41 0 42 0;
#X connect 42 0 43 0;
#X connect 43 0 75 1;
#X connect 43 0 89 0;
#X connect 44 0 29 0;
#X connect 45 0 46 0;
#X connect 45 0 47 0;
#X connect 45 0 52 0;
#X connect 45 0 53 0;
#X connect 46 0 50 0;
#X connect 47 0 51 0;
#X connect 48 0 77 0;
#X connect 49 0 77 0;
#X connect 50 0 48 0;
#X connect 51 0 49 0;
#X connect 52 0 55 0;
#X connect 53 0 54 0;
#X connect 54 0 56 1;
#X connect 55 0 56 0;
#X connect 56 0 57 0;
#X connect 57 0 58 0;
#X connect 58 0 77 0;
#X connect 59 0 45 0;
#X connect 60 0 61 0;
#X connect 60 0 62 0;
#X connect 60 0 67 0;
#X connect 60 0 68 0;
#X connect 61 0 65 0;
#X connect 62 0 66 0;
#X connect 63 0 79 0;
#X connect 64 0 79 0;
#X connect 65 0 63 0;
#X connect 66 0 64 0;
#X connect 67 0 70 0;
#X connect 68 0 69 0;
#X connect 69 0 71 1;
#X connect 70 0 71 0;
#X connect 71 0 72 0;
#X connect 72 0 73 0;
#X connect 73 0 79 0;
#X connect 74 0 60 0;
#X connect 75 0 86 0;
#X connect 76 0 75 0;
#X connect 77 0 78 1;
#X connect 77 0 90 0;
#X connect 78 0 87 0;
#X connect 79 0 80 1;
#X connect 79 0 91 0;
#X connect 80 0 88 0;
#X connect 81 0 78 0;
#X connect 82 0 80 0;
#X connect 86 0 83 0;
#X connect 87 0 84 0;
#X connect 88 0 85 0;
#X connect 92 0 97 0;
#X connect 93 0 96 0;
#X connect 94 0 95 0;
#X connect 99 0 103 0;
#X connect 101 0 102 0;
#X connect 103 0 100 0;
#X connect 104 0 105 0;
#X connect 105 0 103 0;
#X connect 107 0 118 0;
#X connect 108 0 119 0;
#X connect 109 0 120 0;
#X connect 110 0 121 0;
#X connect 111 0 138 0;
#X connect 112 0 139 0;
#X connect 113 0 140 0;
#X connect 114 0 127 0;
#X connect 115 0 122 0;
#X connect 116 0 123 0;
#X connect 117 0 124 0;
#X connect 141 0 125 0;
#X connect 142 0 111 0;
#X connect 142 1 112 0;
#X connect 142 2 113 0;
#X connect 142 3 114 0;
#X connect 142 4 107 0;
#X connect 142 5 115 0;
#X connect 142 6 108 0;
#X connect 142 7 116 0;
#X connect 142 8 109 0;
#X connect 142 9 117 0;
#X connect 142 10 110 0;
#X connect 142 11 141 0;
#X connect 142 12 146 0;
#X connect 146 0 143 0;
#X connect 146 0 149 0;
#X connect 147 0 106 0;
#X connect 148 0 98 0;
#X connect 150 0 19 0;
#X connect 151 0 7 0;
