#N canvas 2548 -115 450 300 12;
#X obj 437 547 osc~ 440;
#X obj 253 107 loadbang;
#X msg 253 161 \; pd dsp 1, f 19;
#X msg 1322 -346 \; pd dsp \$1;
#X obj 1322 -373 tgl 19 0 empty empty empty 0 -10 0 12 #fcfcfc #000000 #000000 0 1;
#X obj 1479 -399 wearpi-controls;
#X obj 1322 -440 loadbang;
#X obj 791 93 r enc-rot;
#X obj 769 185 vsl 19 162 0.01 1 1 0 empty empty empty 0 -9 0 12 #fcfcfc #000000 #000000 0 1;
#X obj 767 37 loadbang;
#X msg 767 61 0.8;
#X msg 791 117 \$1;
#X obj 791 141 rot2slider;
#X obj 1322 -416 del 2000;
#X msg 1408 -364 "starting DSP";
#X obj 1408 -340 print DSP;
#X obj 1253 76 r enc-but;
#X obj 1253 124 sel 1;
#X obj 1253 148 tgl 19 0 empty empty empty 0 -10 0 12 #fcfcfc #000000 #000000 0 1;
#X obj 1328 76 loadbang;
#X msg 1254 224 \$1 50;
#X obj 1253 327 line~;
#X obj 1253 173 swap 1;
#X obj 1253 195 -;
#X text 1276 148 mute;
#X msg 1253 100 \$1;
#X msg 1328 100 0;
#X floatatom 437 480 5 0 0 0 - - - 12;
#X obj 1438 76 r enc-but;
#X obj 1438 124 sel 1;
#X obj 1438 148 tgl 19 0 empty empty empty 0 -10 0 12 #fcfcfc #000000 #000000 0 1;
#X obj 1513 76 loadbang;
#X msg 1439 224 \$1 50;
#X obj 1438 327 line~;
#X obj 1438 173 swap 1;
#X obj 1438 195 -;
#X text 1461 148 mute;
#X msg 1513 100 0;
#X obj 1623 76 r enc-but;
#X obj 1623 124 sel 1;
#X obj 1623 148 tgl 19 0 empty empty empty 0 -10 0 12 #fcfcfc #000000 #000000 0 1;
#X obj 1698 76 loadbang;
#X msg 1624 224 \$1 50;
#X obj 1623 327 line~;
#X obj 1623 173 swap 1;
#X obj 1623 195 -;
#X text 1646 148 mute;
#X msg 1698 100 0;
#X obj 1808 76 r enc-but;
#X obj 1808 124 sel 1;
#X obj 1808 148 tgl 19 0 empty empty empty 0 -10 0 12 #fcfcfc #000000 #000000 0 1;
#X obj 1883 76 loadbang;
#X msg 1809 224 \$1 50;
#X obj 1808 327 line~;
#X obj 1808 173 swap 1;
#X obj 1808 195 -;
#X text 1831 148 mute;
#X msg 1883 100 0;
#X msg 1438 100 \$2;
#X msg 1623 100 \$3;
#X msg 1808 100 \$4;
#X obj 437 635 *~;
#X obj 706 547 osc~ 440;
#X obj 706 883 dac~;
#X floatatom 706 480 5 0 0 0 - - - 12;
#X obj 706 635 *~;
#X obj 915 93 r enc-rot;
#X obj 893 183 vsl 19 162 0.01 1 1 0 empty empty empty 0 -9 0 12 #fcfcfc #000000 #000000 0 1;
#X obj 891 37 loadbang;
#X obj 915 141 rot2slider;
#X obj 1039 93 r enc-rot;
#X obj 1017 185 vsl 19 162 0.01 1 1 0 empty empty empty 0 -9 0 12 #fcfcfc #000000 #000000 0 1;
#X obj 1015 37 loadbang;
#X msg 1015 61 0.8;
#X obj 1039 141 rot2slider;
#X obj 1163 93 r enc-rot;
#X obj 1141 185 vsl 19 162 0.01 1 1 0 empty empty empty 0 -9 0 12 #fcfcfc #000000 #000000 0 1;
#X obj 1139 37 loadbang;
#X obj 1163 141 rot2slider;
#X msg 915 117 \$2;
#X msg 1039 117 \$3;
#X msg 1163 117 \$4;
#X obj 767 376 * 1000;
#X obj 767 402 + 200;
#X floatatom 767 428 5 0 0 0 - - - 12;
#X floatatom 1015 428 5 0 0 0 - - - 12;
#X obj 1015 376 * 300;
#X obj 1015 402 + 80;
#X obj 437 724 pan2~;
#X obj 706 724 pan2~;
#X msg 891 61 0.5;
#X msg 1139 61 0.5;
#X floatatom 893 428 5 0 0 0 - - - 16;
#X obj 893 376 * 2;
#X obj 893 402 - 1;
#X floatatom 1141 428 5 0 0 0 - - - 12;
#X obj 1141 376 * 2;
#X obj 1141 402 - 1;
#X obj 706 673 *~ 0.2;
#X obj 437 673 *~ 0.2;
#X connect 0 0 61 0;
#X connect 1 0 2 0;
#X connect 4 0 3 0;
#X connect 6 0 13 0;
#X connect 7 0 11 0;
#X connect 8 0 82 0;
#X connect 9 0 10 0;
#X connect 10 0 8 0;
#X connect 11 0 12 0;
#X connect 12 0 8 0;
#X connect 13 0 4 0;
#X connect 13 0 14 0;
#X connect 14 0 15 0;
#X connect 16 0 25 0;
#X connect 17 0 18 0;
#X connect 18 0 22 0;
#X connect 19 0 26 0;
#X connect 20 0 21 0;
#X connect 21 0 61 1;
#X connect 22 0 23 0;
#X connect 22 1 23 1;
#X connect 23 0 20 0;
#X connect 25 0 17 0;
#X connect 26 0 18 0;
#X connect 27 0 0 0;
#X connect 28 0 58 0;
#X connect 29 0 30 0;
#X connect 30 0 34 0;
#X connect 31 0 37 0;
#X connect 32 0 33 0;
#X connect 33 0 61 1;
#X connect 34 0 35 0;
#X connect 34 1 35 1;
#X connect 35 0 32 0;
#X connect 37 0 30 0;
#X connect 38 0 59 0;
#X connect 39 0 40 0;
#X connect 40 0 44 0;
#X connect 41 0 47 0;
#X connect 42 0 43 0;
#X connect 43 0 65 1;
#X connect 44 0 45 0;
#X connect 44 1 45 1;
#X connect 45 0 42 0;
#X connect 47 0 40 0;
#X connect 48 0 60 0;
#X connect 49 0 50 0;
#X connect 50 0 54 0;
#X connect 51 0 57 0;
#X connect 52 0 53 0;
#X connect 53 0 65 1;
#X connect 54 0 55 0;
#X connect 54 1 55 1;
#X connect 55 0 52 0;
#X connect 57 0 50 0;
#X connect 58 0 29 0;
#X connect 59 0 39 0;
#X connect 60 0 49 0;
#X connect 61 0 99 0;
#X connect 62 0 65 0;
#X connect 64 0 62 0;
#X connect 65 0 98 0;
#X connect 66 0 79 0;
#X connect 67 0 93 0;
#X connect 68 0 90 0;
#X connect 69 0 67 0;
#X connect 70 0 80 0;
#X connect 71 0 86 0;
#X connect 72 0 73 0;
#X connect 73 0 71 0;
#X connect 74 0 71 0;
#X connect 75 0 81 0;
#X connect 76 0 96 0;
#X connect 77 0 91 0;
#X connect 78 0 76 0;
#X connect 79 0 69 0;
#X connect 80 0 74 0;
#X connect 81 0 78 0;
#X connect 82 0 83 0;
#X connect 83 0 84 0;
#X connect 84 0 27 0;
#X connect 85 0 64 0;
#X connect 86 0 87 0;
#X connect 87 0 85 0;
#X connect 88 0 63 0;
#X connect 88 1 63 1;
#X connect 89 0 63 0;
#X connect 89 1 63 1;
#X connect 90 0 67 0;
#X connect 91 0 76 0;
#X connect 92 0 88 1;
#X connect 93 0 94 0;
#X connect 94 0 92 0;
#X connect 95 0 89 1;
#X connect 96 0 97 0;
#X connect 97 0 95 0;
#X connect 98 0 89 0;
#X connect 99 0 88 0;
