#N canvas 827 239 734 565 12;
#X text 185 751 MAIN MENU \; \; A - B - C \; \; \; SUB MENU 1 \; \; A \; 1 - 2 - 3 \; \; B \; 1 - 2 - 3 \; \; C \; 1 - 2 - 3 \; \; \; SUB MENU 2 \; \; A \; dry/wet \; \; B \; al - be \; \; C \; al - be \;;
#X obj 584 752 hradio 20 1 0 3 empty empty empty 0 -8 0 10 #ffffff #000000 #000000 0;
#X obj 738 752 hradio 20 1 0 3 empty empty empty 0 -8 0 10 #fcfcfc #000000 #000000 0;
#X obj 922 752 hradio 20 1 0 3 empty empty empty 0 -8 0 10 #fcfcfc #000000 #000000 0;
#X text 520 751 INPUTS;
#X text 584 717 KNOB 1;
#X text 738 717 KNOB 2;
#X text 922 717 KNOB 3;
#X obj 661 752 bng 25 250 50 0 empty empty empty 0 -10 0 10 #ffffff #000000 #000000;
#X obj 802 752 bng 25 250 50 0 empty empty empty 0 -10 0 10 #ffffff #000000 #000000;
#X obj 991 752 bng 25 250 50 0 empty empty empty 0 -10 0 10 #ffffff #000000 #000000;
#X obj 477 1262 s main_ch;
#X obj 584 1290 s main_se;
#X obj 661 854 i;
#X obj 744 927 gate 3;
#X obj 744 902 + 1;
#X obj 854 957 i;
#X obj 876 988 i;
#X obj 899 1019 i;
#X obj 854 927 gate 3;
#X obj 854 902 + 1;
#X obj 974 927 gate 3;
#X obj 974 902 + 1;
#X obj 1084 957 i;
#X obj 1106 988 i;
#X obj 1129 1019 i;
#X obj 1084 927 gate 3;
#X obj 1084 902 + 1;
#X msg 1216 660 color \$1 \$2 \$3;
#X obj 1216 632 pack 0 22 22, f 20;
#X msg 1216 596 0;
#X msg 1252 596 12;
#X obj 791 854 spigot;
#X obj 899 854 spigot;
#X msg 1373 632 1;
#X msg 1392 632 0;
#X obj 1373 661 tgl 25 0 empty empty empty 0 -10 0 10 #ffffff #000000 #000000 0 1;
#X obj 1019 854 spigot;
#X obj 1127 854 spigot;
#X text 1859 1261 DISPLAY;
#X text 1734 1314 MAIN MENU;
#X text 1734 1350 SUB MENU 1;
#X text 1734 1386 SUB MENU 2;
#X obj 1720 510 r main_ch;
#X obj 1720 558 sel 0 1 2;
#X obj 2037 389 sel 0 1;
#X msg 2037 597 color \$1 \$2 \$3;
#X obj 2037 560 pack 0 22 22, f 20;
#X obj 1846 1303 cnv 30 148 30 empty \$0-display_main static 9 15 0 16 #f430f0 #202020 0;
#X msg 1720 597 label static;
#X msg 1821 597 label interactive;
#X msg 1944 597 label freeze;
#X text 2146 454 label;
#X obj 2146 524 t b f;
#X text 2037 454 background;
#X floatatom 2084 485 5 0 0 0 - - - 12;
#X msg 2146 485 12;
#X msg 2037 524 9;
#X msg 2073 524 19;
#X text 2109 423 color;
#X obj 1258 1262 s menu_mode;
#X obj 2037 351 r menu_mode;
#X obj 1373 1232 tgl 25 0 empty empty empty 0 -10 0 10 #ffffff #000000 #000000 0 1;
#X msg 1373 1200 0;
#X msg 1404 1200 1;
#X obj 1469 1230 tgl 25 0 empty empty empty 0 -10 0 10 #ffffff #000000 #000000 0 1;
#X msg 1469 1198 0;
#X msg 1500 1198 1;
#X obj 2037 678 send \$0-display_main;
#X obj 2332 440 sel 0 1 2;
#X obj 1846 1349 cnv 30 148 30 empty \$0-display_subA preset_1_st 9 15 0 16 #f430f0 #202020 0;
#X msg 2332 477 label preset_1_st;
#X msg 2430 522 label preset_2_st;
#X msg 2544 563 label preset_3_st;
#X obj 2679 438 sel 0 1 2;
#X obj 3068 438 sel 0 1 2;
#X msg 2679 477 label preset_1_int;
#X msg 2796 522 label preset_2_int;
#X msg 2919 563 label preset_3_int;
#X msg 3068 477 label preset_1_fr;
#X msg 3172 522 label preset_2_fr;
#X msg 3296 563 label preset_3_fr;
#X text 1720 280 MAIN MENU;
#X obj 1846 1391 cnv 30 148 30 empty \$0-display_subB dry/wet1_st 9 15 0 16 #f8d8fc #202020 0;
#X text 2331 230 show in display which option is chosen;
#X listbox 825 1236 11 0 0 0 - - - 16;
#X obj 825 1107 bng 25 250 50 0 empty empty empty 0 -10 0 10 #ffffff #000000 #000000;
#X obj 868 1079 t b f;
#X obj 910 1079 t b f;
#X obj 2331 196 unpack i i i;
#X obj 825 1141 pack f f f;
#X obj 825 1079 t b f;
#X listbox 687 1208 11 0 0 0 - - - 16;
#X obj 687 1107 bng 25 250 50 0 empty empty empty 0 -10 0 10 #ffffff #000000 #000000;
#X obj 730 1079 t b f;
#X obj 772 1079 t b f;
#X obj 687 1141 pack f f f;
#X obj 687 1079 t b f;
#X listbox 1112 1236 11 0 0 0 - - - 16;
#X obj 1112 1107 bng 25 250 50 0 empty empty empty 0 -10 0 10 #ffffff #000000 #000000;
#X obj 1155 1079 t b f;
#X obj 1197 1079 t b f;
#X obj 1112 1141 pack f f f;
#X obj 1112 1079 t b f;
#X listbox 974 1208 11 0 0 0 - - - 16;
#X obj 974 1107 bng 25 250 50 0 empty empty empty 0 -10 0 10 #ffffff #000000 #000000;
#X obj 1017 1079 t b f;
#X obj 1059 1079 t b f;
#X obj 974 1141 pack f f f;
#X obj 974 1079 t b f;
#X text 1149 568 blocking submenu when main menu is in selection;
#X listbox 584 1236 5 0 0 0 - - - 16;
#X listbox 477 1208 5 0 0 0 - - - 16;
#X text 1258 1331 if menu mode = 0 \; then show selections of submenus \; block possibility of chooseing submenus \;;
#X obj 687 1262 s subA_ch;
#X obj 1112 1290 s subB_se;
#X obj 2331 97 r subA_ch;
#X text 2331 -5 SUB A MENU;
#X obj 1373 1262 s subA_mode;
#X obj 1469 1262 s subB_mode;
#X obj 825 1290 s subA_se;
#X obj 3740 53 r subA_ch;
#X obj 3740 79 unpack f f f;
#X floatatom 3740 115 5 0 0 0 - - - 12;
#X floatatom 3793 115 5 0 0 0 - - - 12;
#X floatatom 3849 115 5 0 0 0 - - - 12;
#X obj 3773 226 ==;
#X obj 3852 226 ==;
#X obj 3958 226 ==;
#X obj 3915 79 unpack f f f;
#X floatatom 3915 115 5 0 0 0 - - - 12;
#X floatatom 3968 115 5 0 0 0 - - - 12;
#X floatatom 4024 115 5 0 0 0 - - - 12;
#X floatatom 3773 280 5 0 0 0 - - - 12;
#X floatatom 3852 280 5 0 0 0 - - - 12;
#X floatatom 3958 280 5 0 0 0 - - - 12;
#X obj 3915 53 r subA_se;
#X obj 4087 53 r main_ch;
#X obj 4087 79 sel 0 1 2;
#X obj 3773 374 spigot;
#X obj 3852 374 spigot;
#X obj 3958 374 spigot;
#X msg 3801 325 0;
#X msg 3830 325 1;
#X msg 3886 325 0;
#X msg 3915 325 1;
#X msg 3971 325 0;
#X msg 4000 325 1;
#X floatatom 3909 421 5 0 0 0 - - - 12;
#X obj 3909 561 sel 0 1;
#X msg 3909 769 color \$1 \$2 \$3;
#X obj 3909 732 pack 0 22 22, f 20;
#X text 4018 625 label;
#X obj 4018 696 t b f;
#X text 3909 625 background;
#X floatatom 3956 657 5 0 0 0 - - - 12;
#X msg 4018 657 12;
#X msg 3909 696 9;
#X msg 3945 696 19;
#X text 3981 594 color;
#X text 3792 13 detect if select = choose \, then color is different;
#X obj 3915 140 t b f;
#X obj 3968 148 t b f;
#X obj 4024 148 t b f;
#X obj 2332 712 send \$0-display_subA;
#X obj 2716 123 sel 0 1 2;
#X msg 2716 155 1;
#X msg 2716 190 0;
#X msg 2758 155 1;
#X msg 2758 190 0;
#X msg 2800 155 1;
#X msg 2800 190 0;
#X obj 2716 97 r main_ch;
#X obj 2331 304 spigot;
#X obj 2679 304 spigot;
#X obj 3068 304 spigot;
#X obj 3222 196 unpack i i i;
#X obj 3222 97 r subA_ch;
#X obj 3433 123 sel 0 1 2;
#X obj 3433 97 r main_ch;
#X obj 3195 304 i;
#X obj 3354 304 i;
#X obj 3505 304 i;
#X floatatom 3195 330 5 0 0 0 - - - 12;
#X floatatom 3354 330 5 0 0 0 - - - 12;
#X floatatom 3505 330 5 0 0 0 - - - 12;
#X text 3222 230 show in display which option is selected when main menu is in choose mode;
#X obj 1373 871 sel 0;
#X obj 1373 979 list store;
#X obj 1373 943 bng 25 250 50 0 empty empty empty 0 -10 0 10 #ffffff #000000 #000000;
#X obj 1450 979 list store;
#X obj 1450 943 bng 25 250 50 0 empty empty empty 0 -10 0 10 #ffffff #000000 #000000;
#X text 1359 908 send select list to choose list when main menu is in selection;
#X obj 2333 1519 sel 0 1 2;
#X obj 2680 1517 sel 0 1 2;
#X obj 3069 1517 sel 0 1 2;
#X text 2332 1309 show in display which option is chosen;
#X obj 2332 1275 unpack i i i;
#X obj 3741 1158 unpack f f f;
#X floatatom 3741 1194 5 0 0 0 - - - 12;
#X floatatom 3794 1194 5 0 0 0 - - - 12;
#X floatatom 3850 1194 5 0 0 0 - - - 12;
#X obj 3774 1305 ==;
#X obj 3853 1305 ==;
#X obj 3959 1305 ==;
#X obj 3916 1158 unpack f f f;
#X floatatom 3916 1194 5 0 0 0 - - - 12;
#X floatatom 3969 1194 5 0 0 0 - - - 12;
#X floatatom 4025 1194 5 0 0 0 - - - 12;
#X floatatom 3774 1359 5 0 0 0 - - - 12;
#X floatatom 3853 1359 5 0 0 0 - - - 12;
#X floatatom 3959 1359 5 0 0 0 - - - 12;
#X obj 4088 1132 r main_ch;
#X obj 4088 1158 sel 0 1 2;
#X obj 3774 1453 spigot;
#X obj 3853 1453 spigot;
#X obj 3959 1453 spigot;
#X msg 3802 1404 0;
#X msg 3831 1404 1;
#X msg 3887 1404 0;
#X msg 3916 1404 1;
#X msg 3972 1404 0;
#X msg 4001 1404 1;
#X floatatom 3910 1500 5 0 0 0 - - - 12;
#X obj 3910 1640 sel 0 1;
#X msg 3910 1848 color \$1 \$2 \$3;
#X obj 3910 1811 pack 0 22 22, f 20;
#X text 4019 1704 label;
#X obj 4019 1775 t b f;
#X text 3910 1704 background;
#X floatatom 3957 1736 5 0 0 0 - - - 12;
#X msg 4019 1736 12;
#X msg 3910 1775 9;
#X msg 3946 1775 19;
#X text 3982 1673 color;
#X text 3793 1092 detect if select = choose \, then color is different;
#X obj 3916 1219 t b f;
#X obj 3969 1227 t b f;
#X obj 4025 1227 t b f;
#X obj 2717 1202 sel 0 1 2;
#X msg 2717 1234 1;
#X msg 2717 1269 0;
#X msg 2759 1234 1;
#X msg 2759 1269 0;
#X msg 2801 1234 1;
#X msg 2801 1269 0;
#X obj 2717 1176 r main_ch;
#X obj 2332 1383 spigot;
#X obj 2680 1383 spigot;
#X obj 3069 1383 spigot;
#X obj 3223 1275 unpack i i i;
#X obj 3434 1202 sel 0 1 2;
#X obj 3434 1176 r main_ch;
#X obj 3196 1383 i;
#X obj 3355 1383 i;
#X obj 3506 1383 i;
#X floatatom 3196 1409 5 0 0 0 - - - 12;
#X floatatom 3355 1409 5 0 0 0 - - - 12;
#X floatatom 3506 1409 5 0 0 0 - - - 12;
#X text 3223 1309 show in display which option is selected when main menu is in choose mode;
#X text 2332 1074 SUB B MENU;
#X obj 2332 1176 r subB_ch;
#X obj 3223 1176 r subB_ch;
#X obj 2333 1791 send \$0-display_subB;
#X obj 3741 1132 r subB_ch;
#X obj 3916 1132 r subB_se;
#X msg 2333 1556 label dry/wet0_st;
#X msg 2431 1601 label dry/wet0.5_st;
#X msg 2545 1642 label dry/wet1_st;
#X msg 2680 1556 label train_custom_int;
#X msg 2797 1601 label train_random_int;
#X msg 2920 1642 label XY_int;
#X msg 3069 1556 label train_custom_fr;
#X msg 3173 1601 label train_random_fr;
#X msg 3297 1642 label XY_fr;
#X obj 974 1262 s subB_ch;
#X obj 2010 1556 hsl 128 17 0 100 0 0 empty empty empty -2 -8 0 10 #ffffff #000000 #000000 0 1;
#X msg 2043 1629 label dry/wet_\$1;
#X obj 2007 1580 int;
#X floatatom 575 537 5 0 0 0 - - - 12;
#X obj 575 390 bng 25 250 50 0 empty empty empty 0 -10 0 10 #ffffff #000000 #000000;
#X obj 605 390 bng 25 250 50 0 empty empty empty 0 -10 0 10 #ffffff #000000 #000000;
#X text 574 334 UP;
#X text 605 334 DOWN;
#X floatatom 669 390 5 0 0 0 - - - 12;
#X floatatom 739 390 5 0 0 0 - - - 12;
#X text 669 334 limit low;
#X text 739 334 limit high;
#X obj 669 259 loadbang;
#X msg 669 285 1;
#X msg 713 285 3;
#X floatatom 816 390 5 0 0 0 - - - 12;
#X text 816 334 set value;
#N canvas 733 172 450 300 counter_with_limit 0;
#X msg 589 296 up;
#X msg 744 296 down;
#X obj 560 266 t b b;
#X obj 715 266 t b b;
#X obj 715 228 spigot;
#X obj 560 228 spigot;
#X msg 776 228 0;
#X msg 806 228 1;
#X msg 618 228 0;
#X msg 645 228 1;
#X msg 971 240 max \$1;
#X msg 888 240 min \$1;
#X obj 715 354 count;
#X obj 618 105 sel;
#X obj 776 105 sel;
#X obj 560 -4 inlet;
#X obj 971 -4 inlet;
#X obj 1109 -84 inlet;
#X obj 715 -4 inlet;
#X obj 888 -4 inlet;
#X obj 888 -4 inlet;
#X obj 888 -4 inlet;
#X obj 971 -4 inlet;
#X obj 715 415 outlet;
#X connect 0 0 12 0;
#X connect 1 0 12 0;
#X connect 2 0 12 0;
#X connect 2 1 0 0;
#X connect 3 0 12 0;
#X connect 3 1 1 0;
#X connect 4 0 3 0;
#X connect 5 0 2 0;
#X connect 6 0 4 1;
#X connect 7 0 4 1;
#X connect 8 0 5 1;
#X connect 9 0 5 1;
#X connect 10 0 12 0;
#X connect 11 0 12 0;
#X connect 12 0 13 0;
#X connect 12 0 14 0;
#X connect 12 0 23 0;
#X connect 13 0 8 0;
#X connect 13 1 9 0;
#X connect 14 0 6 0;
#X connect 14 1 7 0;
#X connect 15 0 5 0;
#X connect 16 0 13 1;
#X connect 17 0 9 0;
#X connect 18 0 4 0;
#X connect 19 0 12 0;
#X connect 20 0 14 1;
#X connect 21 0 11 0;
#X connect 22 0 10 0;
#X restore 575 495 pd counter_with_limit;
#X connect 1 0 13 1;
#X connect 1 0 112 0;
#X connect 1 0 31 0;
#X connect 2 0 63 0;
#X connect 2 0 32 0;
#X connect 3 0 66 0;
#X connect 3 0 37 0;
#X connect 8 0 13 0;
#X connect 8 0 30 0;
#X connect 9 0 33 0;
#X connect 9 0 64 0;
#X connect 10 0 38 0;
#X connect 10 0 67 0;
#X connect 13 0 15 0;
#X connect 13 0 20 0;
#X connect 13 0 22 0;
#X connect 13 0 27 0;
#X connect 13 0 111 0;
#X connect 14 0 16 1;
#X connect 14 0 97 0;
#X connect 14 1 17 1;
#X connect 14 1 94 0;
#X connect 14 2 18 1;
#X connect 14 2 95 0;
#X connect 15 0 14 0;
#X connect 16 0 91 0;
#X connect 17 0 87 0;
#X connect 18 0 88 0;
#X connect 19 0 16 0;
#X connect 19 1 17 0;
#X connect 19 2 18 0;
#X connect 20 0 19 0;
#X connect 21 0 109 0;
#X connect 21 0 23 1;
#X connect 21 1 106 0;
#X connect 21 1 24 1;
#X connect 21 2 107 0;
#X connect 21 2 25 1;
#X connect 22 0 21 0;
#X connect 23 0 103 0;
#X connect 24 0 100 0;
#X connect 25 0 101 0;
#X connect 26 0 23 0;
#X connect 26 1 24 0;
#X connect 26 2 25 0;
#X connect 27 0 26 0;
#X connect 28 0 2 0;
#X connect 28 0 3 0;
#X connect 29 0 28 0;
#X connect 30 0 29 0;
#X connect 30 0 34 0;
#X connect 31 0 35 0;
#X connect 31 0 29 0;
#X connect 32 0 14 1;
#X connect 33 0 19 1;
#X connect 34 0 36 0;
#X connect 35 0 36 0;
#X connect 36 0 38 1;
#X connect 36 0 32 1;
#X connect 36 0 33 1;
#X connect 36 0 37 1;
#X connect 36 0 60 0;
#X connect 36 0 187 0;
#X connect 37 0 21 1;
#X connect 38 0 26 1;
#X connect 43 0 44 0;
#X connect 44 0 49 0;
#X connect 44 1 50 0;
#X connect 44 2 51 0;
#X connect 45 0 57 0;
#X connect 45 1 58 0;
#X connect 45 1 56 0;
#X connect 46 0 68 0;
#X connect 47 0 46 0;
#X connect 49 0 68 0;
#X connect 50 0 68 0;
#X connect 51 0 68 0;
#X connect 53 0 47 0;
#X connect 53 1 47 2;
#X connect 55 0 47 0;
#X connect 56 0 53 0;
#X connect 57 0 47 0;
#X connect 58 0 47 0;
#X connect 61 0 45 0;
#X connect 62 0 118 0;
#X connect 63 0 62 0;
#X connect 64 0 62 0;
#X connect 65 0 119 0;
#X connect 66 0 65 0;
#X connect 67 0 65 0;
#X connect 69 0 71 0;
#X connect 69 1 72 0;
#X connect 69 2 73 0;
#X connect 71 0 164 0;
#X connect 72 0 164 0;
#X connect 73 0 164 0;
#X connect 74 0 76 0;
#X connect 74 1 77 0;
#X connect 74 2 78 0;
#X connect 75 0 79 0;
#X connect 75 1 80 0;
#X connect 75 2 81 0;
#X connect 76 0 164 0;
#X connect 77 0 164 0;
#X connect 78 0 164 0;
#X connect 79 0 164 0;
#X connect 80 0 164 0;
#X connect 81 0 164 0;
#X connect 85 0 120 0;
#X connect 85 0 188 1;
#X connect 86 0 90 0;
#X connect 87 0 86 0;
#X connect 87 1 90 1;
#X connect 88 0 86 0;
#X connect 88 1 90 2;
#X connect 89 0 173 0;
#X connect 89 1 174 0;
#X connect 89 2 175 0;
#X connect 90 0 85 0;
#X connect 91 0 86 0;
#X connect 91 1 90 0;
#X connect 92 0 114 0;
#X connect 93 0 96 0;
#X connect 94 0 93 0;
#X connect 94 1 96 1;
#X connect 95 0 93 0;
#X connect 95 1 96 2;
#X connect 96 0 92 0;
#X connect 97 0 93 0;
#X connect 97 1 96 0;
#X connect 98 0 115 0;
#X connect 98 0 190 1;
#X connect 99 0 102 0;
#X connect 100 0 99 0;
#X connect 100 1 102 1;
#X connect 101 0 99 0;
#X connect 101 1 102 2;
#X connect 102 0 98 0;
#X connect 103 0 99 0;
#X connect 103 1 102 0;
#X connect 104 0 275 0;
#X connect 105 0 108 0;
#X connect 106 0 105 0;
#X connect 106 1 108 1;
#X connect 107 0 105 0;
#X connect 107 1 108 2;
#X connect 108 0 104 0;
#X connect 109 0 105 0;
#X connect 109 1 108 0;
#X connect 111 0 12 0;
#X connect 112 0 11 0;
#X connect 116 0 89 0;
#X connect 121 0 122 0;
#X connect 122 0 123 0;
#X connect 122 1 124 0;
#X connect 122 2 125 0;
#X connect 123 0 126 0;
#X connect 124 0 127 0;
#X connect 125 0 128 0;
#X connect 126 0 133 0;
#X connect 127 0 134 0;
#X connect 128 0 135 0;
#X connect 129 0 130 0;
#X connect 129 1 131 0;
#X connect 129 2 132 0;
#X connect 130 0 161 0;
#X connect 131 0 162 0;
#X connect 132 0 163 0;
#X connect 133 0 139 0;
#X connect 134 0 140 0;
#X connect 135 0 141 0;
#X connect 136 0 129 0;
#X connect 137 0 138 0;
#X connect 138 0 143 0;
#X connect 138 0 144 0;
#X connect 138 0 146 0;
#X connect 138 1 145 0;
#X connect 138 1 142 0;
#X connect 138 1 146 0;
#X connect 138 2 147 0;
#X connect 138 2 144 0;
#X connect 139 0 148 0;
#X connect 140 0 148 0;
#X connect 141 0 148 0;
#X connect 142 0 139 1;
#X connect 143 0 139 1;
#X connect 144 0 140 1;
#X connect 145 0 140 1;
#X connect 146 0 141 1;
#X connect 147 0 141 1;
#X connect 148 0 149 0;
#X connect 149 0 157 0;
#X connect 149 0 156 0;
#X connect 149 1 158 0;
#X connect 149 1 156 0;
#X connect 150 0 164 0;
#X connect 151 0 150 0;
#X connect 153 0 151 0;
#X connect 153 1 151 2;
#X connect 155 0 151 0;
#X connect 156 0 153 0;
#X connect 157 0 151 0;
#X connect 158 0 151 0;
#X connect 161 0 126 0;
#X connect 161 1 126 1;
#X connect 162 0 127 0;
#X connect 162 1 127 1;
#X connect 163 0 128 0;
#X connect 163 1 128 1;
#X connect 165 0 166 0;
#X connect 165 1 168 0;
#X connect 165 2 170 0;
#X connect 166 0 167 0;
#X connect 166 0 173 1;
#X connect 167 0 174 1;
#X connect 167 0 175 1;
#X connect 168 0 169 0;
#X connect 168 0 174 1;
#X connect 169 0 173 1;
#X connect 169 0 175 1;
#X connect 170 0 171 0;
#X connect 170 0 175 1;
#X connect 171 0 174 1;
#X connect 171 0 173 1;
#X connect 172 0 165 0;
#X connect 173 0 69 0;
#X connect 174 0 74 0;
#X connect 175 0 75 0;
#X connect 176 0 180 1;
#X connect 176 1 181 1;
#X connect 176 2 182 1;
#X connect 177 0 176 0;
#X connect 178 0 180 0;
#X connect 178 1 181 0;
#X connect 178 2 182 0;
#X connect 179 0 178 0;
#X connect 180 0 183 0;
#X connect 180 0 69 0;
#X connect 181 0 184 0;
#X connect 181 0 74 0;
#X connect 182 0 185 0;
#X connect 182 0 75 0;
#X connect 187 0 191 0;
#X connect 187 0 189 0;
#X connect 188 0 92 0;
#X connect 189 0 188 0;
#X connect 190 0 104 0;
#X connect 191 0 190 0;
#X connect 193 0 266 0;
#X connect 193 1 267 0;
#X connect 193 2 268 0;
#X connect 194 0 269 0;
#X connect 194 1 270 0;
#X connect 194 2 271 0;
#X connect 195 0 272 0;
#X connect 195 1 273 0;
#X connect 195 2 274 0;
#X connect 197 0 247 0;
#X connect 197 1 248 0;
#X connect 197 2 249 0;
#X connect 198 0 199 0;
#X connect 198 1 200 0;
#X connect 198 2 201 0;
#X connect 199 0 202 0;
#X connect 200 0 203 0;
#X connect 201 0 204 0;
#X connect 202 0 209 0;
#X connect 203 0 210 0;
#X connect 204 0 211 0;
#X connect 205 0 206 0;
#X connect 205 1 207 0;
#X connect 205 2 208 0;
#X connect 206 0 236 0;
#X connect 207 0 237 0;
#X connect 208 0 238 0;
#X connect 209 0 214 0;
#X connect 210 0 215 0;
#X connect 211 0 216 0;
#X connect 212 0 213 0;
#X connect 213 0 218 0;
#X connect 213 0 219 0;
#X connect 213 0 221 0;
#X connect 213 1 220 0;
#X connect 213 1 217 0;
#X connect 213 1 221 0;
#X connect 213 2 222 0;
#X connect 213 2 219 0;
#X connect 214 0 223 0;
#X connect 215 0 223 0;
#X connect 216 0 223 0;
#X connect 217 0 214 1;
#X connect 218 0 214 1;
#X connect 219 0 215 1;
#X connect 220 0 215 1;
#X connect 221 0 216 1;
#X connect 222 0 216 1;
#X connect 223 0 224 0;
#X connect 224 0 232 0;
#X connect 224 0 231 0;
#X connect 224 1 233 0;
#X connect 224 1 231 0;
#X connect 225 0 263 0;
#X connect 226 0 225 0;
#X connect 228 0 226 0;
#X connect 228 1 226 2;
#X connect 230 0 226 0;
#X connect 231 0 228 0;
#X connect 232 0 226 0;
#X connect 233 0 226 0;
#X connect 236 0 202 0;
#X connect 236 1 202 1;
#X connect 237 0 203 0;
#X connect 237 1 203 1;
#X connect 238 0 204 0;
#X connect 238 1 204 1;
#X connect 239 0 240 0;
#X connect 239 1 242 0;
#X connect 239 2 244 0;
#X connect 240 0 241 0;
#X connect 240 0 247 1;
#X connect 241 0 248 1;
#X connect 241 0 249 1;
#X connect 242 0 243 0;
#X connect 242 0 248 1;
#X connect 243 0 247 1;
#X connect 243 0 249 1;
#X connect 244 0 245 0;
#X connect 244 0 249 1;
#X connect 245 0 248 1;
#X connect 245 0 247 1;
#X connect 246 0 239 0;
#X connect 247 0 193 0;
#X connect 248 0 194 0;
#X connect 249 0 195 0;
#X connect 250 0 253 1;
#X connect 250 1 254 1;
#X connect 250 2 255 1;
#X connect 251 0 253 0;
#X connect 251 1 254 0;
#X connect 251 2 255 0;
#X connect 252 0 251 0;
#X connect 253 0 256 0;
#X connect 253 0 193 0;
#X connect 254 0 257 0;
#X connect 254 0 194 0;
#X connect 255 0 258 0;
#X connect 255 0 195 0;
#X connect 261 0 197 0;
#X connect 262 0 250 0;
#X connect 264 0 198 0;
#X connect 265 0 205 0;
#X connect 266 0 263 0;
#X connect 267 0 263 0;
#X connect 268 0 263 0;
#X connect 269 0 263 0;
#X connect 270 0 263 0;
#X connect 271 0 263 0;
#X connect 272 0 263 0;
#X connect 273 0 263 0;
#X connect 274 0 263 0;
#X connect 276 0 278 0;
#X connect 277 0 263 0;
#X connect 278 0 277 0;
#X connect 280 0 293 0;
#X connect 281 0 293 3;
#X connect 284 0 293 4;
#X connect 284 0 293 5;
#X connect 284 0 293 6;
#X connect 285 0 293 1;
#X connect 285 0 293 7;
#X connect 288 0 289 0;
#X connect 288 0 290 0;
#X connect 288 0 293 2;
#X connect 289 0 284 0;
#X connect 290 0 285 0;
#X connect 291 0 293 4;
#X connect 293 0 279 0;
