#N canvas 827 239 734 565 12;
#X obj 1008 789 array define main_choose;
#X obj 1008 866 array define main_select;
#X obj 1008 944 array define main_display;
#X obj 1283 789 array set main_choose;
#X obj 1283 866 array set main_select;
#X obj 1283 944 array set main_display;
#X obj 1559 789 array get main_choose;
#X obj 1559 866 array get main_select;
#X obj 1559 944 array get main_display;
#X obj 1493 917 bng 25 250 50 0 empty empty empty 0 -10 0 10 #ffffff #000000 #000000;
#X listbox 1615 1107 20 0 0 0 - - - 0;
#X floatatom 1237 1091 5 0 0 0 - - - 12;
#X floatatom 1333 1068 5 0 0 0 - - - 12;
#X listbox 1243 1159 20 0 0 0 - - - 0;
#X obj 691 439 s knob1;
#X obj 1504 442 s knob2;
#X obj 2360 442 s knob3;
#X obj 1283 675 r knob1;
#X floatatom 687 318 5 0 0 0 - - - 12;
#X msg 561 206 up;
#X msg 716 206 down;
#X obj 532 -94 bng 25 250 50 0 empty empty empty 0 -10 0 10 #ffffff #000000 #000000;
#X obj 532 176 t b b;
#X obj 687 -94 bng 25 250 50 0 empty empty empty 0 -10 0 10 #ffffff #000000 #000000;
#X obj 687 176 t b b;
#X obj 687 138 spigot;
#X obj 532 138 spigot;
#X msg 748 138 0;
#X msg 778 138 1;
#X msg 590 138 0;
#X msg 617 138 1;
#X text 531 -150 UP;
#X text 687 -150 DOWN;
#X text 531 -232 Counter which count until a certain limit;
#X msg 943 150 max \$1;
#X floatatom 860 -94 5 0 0 0 - - - 12;
#X floatatom 943 -94 5 0 0 0 - - - 12;
#X text 860 -150 limit low;
#X text 943 -150 limit high;
#X msg 860 150 min \$1;
#X obj 687 264 count;
#X obj 590 15 sel;
#X obj 748 15 sel;
#X obj 1081 -174 loadbang;
#X msg 1081 -148 1;
#X msg 1125 -148 3;
#X floatatom 1209 -94 5 0 0 0 - - - 12;
#X text 1209 -150 set value;
#X floatatom 1504 318 5 0 0 0 - - - 12;
#X msg 1378 206 up;
#X msg 1533 206 down;
#X obj 1349 -94 bng 25 250 50 0 empty empty empty 0 -10 0 10 #ffffff #000000 #000000;
#X obj 1349 176 t b b;
#X obj 1504 -94 bng 25 250 50 0 empty empty empty 0 -10 0 10 #ffffff #000000 #000000;
#X obj 1504 176 t b b;
#X obj 1504 138 spigot;
#X obj 1349 138 spigot;
#X msg 1565 138 0;
#X msg 1595 138 1;
#X msg 1407 138 0;
#X msg 1434 138 1;
#X text 1348 -150 UP;
#X text 1504 -150 DOWN;
#X text 1348 -232 Counter which count until a certain limit;
#X msg 1760 150 max \$1;
#X floatatom 1677 -94 5 0 0 0 - - - 12;
#X floatatom 1760 -94 5 0 0 0 - - - 12;
#X text 1677 -150 limit low;
#X text 1760 -150 limit high;
#X msg 1677 150 min \$1;
#X obj 1504 264 count;
#X obj 1407 15 sel;
#X obj 1565 15 sel;
#X obj 1898 -174 loadbang;
#X msg 1898 -148 1;
#X msg 1942 -148 3;
#X floatatom 2026 -94 5 0 0 0 - - - 12;
#X text 2026 -150 set value;
#X floatatom 2360 318 5 0 0 0 - - - 12;
#X msg 2234 206 up;
#X msg 2389 206 down;
#X obj 2205 -94 bng 25 250 50 0 empty empty empty 0 -10 0 10 #ffffff #000000 #000000;
#X obj 2205 176 t b b;
#X obj 2360 -94 bng 25 250 50 0 empty empty empty 0 -10 0 10 #ffffff #000000 #000000;
#X obj 2360 176 t b b;
#X obj 2360 138 spigot;
#X obj 2205 138 spigot;
#X msg 2421 138 0;
#X msg 2451 138 1;
#X msg 2263 138 0;
#X msg 2290 138 1;
#X text 2204 -150 UP;
#X text 2360 -150 DOWN;
#X text 2204 -232 Counter which count until a certain limit;
#X msg 2616 150 max \$1;
#X floatatom 2533 -94 5 0 0 0 - - - 12;
#X floatatom 2616 -94 5 0 0 0 - - - 12;
#X text 2533 -150 limit low;
#X text 2616 -150 limit high;
#X msg 2533 150 min \$1;
#X obj 2360 264 count;
#X obj 2263 15 sel;
#X obj 2421 15 sel;
#X obj 2754 -174 loadbang;
#X msg 2754 -148 1;
#X msg 2798 -148 3;
#X floatatom 2882 -94 5 0 0 0 - - - 12;
#X text 2882 -150 set value;
#X connect 8 0 10 0;
#X connect 9 0 8 0;
#X connect 11 0 5 0;
#X connect 12 0 5 1;
#X connect 13 0 5 0;
#X connect 17 0 3 0;
#X connect 18 0 14 0;
#X connect 19 0 40 0;
#X connect 20 0 40 0;
#X connect 21 0 26 0;
#X connect 22 0 40 0;
#X connect 22 1 19 0;
#X connect 23 0 25 0;
#X connect 24 0 40 0;
#X connect 24 1 20 0;
#X connect 25 0 24 0;
#X connect 26 0 22 0;
#X connect 27 0 25 1;
#X connect 28 0 25 1;
#X connect 29 0 26 1;
#X connect 30 0 26 1;
#X connect 34 0 40 0;
#X connect 35 0 39 0;
#X connect 35 0 42 1;
#X connect 35 0 40 0;
#X connect 36 0 34 0;
#X connect 36 0 41 1;
#X connect 39 0 40 0;
#X connect 40 0 41 0;
#X connect 40 0 42 0;
#X connect 40 0 18 0;
#X connect 41 0 29 0;
#X connect 41 1 30 0;
#X connect 42 0 27 0;
#X connect 42 1 28 0;
#X connect 43 0 44 0;
#X connect 43 0 45 0;
#X connect 43 0 30 0;
#X connect 44 0 35 0;
#X connect 45 0 36 0;
#X connect 46 0 40 0;
#X connect 48 0 15 0;
#X connect 49 0 70 0;
#X connect 50 0 70 0;
#X connect 51 0 56 0;
#X connect 52 0 70 0;
#X connect 52 1 49 0;
#X connect 53 0 55 0;
#X connect 54 0 70 0;
#X connect 54 1 50 0;
#X connect 55 0 54 0;
#X connect 56 0 52 0;
#X connect 57 0 55 1;
#X connect 58 0 55 1;
#X connect 59 0 56 1;
#X connect 60 0 56 1;
#X connect 64 0 70 0;
#X connect 65 0 69 0;
#X connect 65 0 72 1;
#X connect 65 0 70 0;
#X connect 66 0 64 0;
#X connect 66 0 71 1;
#X connect 69 0 70 0;
#X connect 70 0 71 0;
#X connect 70 0 72 0;
#X connect 70 0 48 0;
#X connect 71 0 59 0;
#X connect 71 1 60 0;
#X connect 72 0 57 0;
#X connect 72 1 58 0;
#X connect 73 0 74 0;
#X connect 73 0 75 0;
#X connect 73 0 60 0;
#X connect 74 0 65 0;
#X connect 75 0 66 0;
#X connect 76 0 70 0;
#X connect 78 0 16 0;
#X connect 79 0 100 0;
#X connect 80 0 100 0;
#X connect 81 0 86 0;
#X connect 82 0 100 0;
#X connect 82 1 79 0;
#X connect 83 0 85 0;
#X connect 84 0 100 0;
#X connect 84 1 80 0;
#X connect 85 0 84 0;
#X connect 86 0 82 0;
#X connect 87 0 85 1;
#X connect 88 0 85 1;
#X connect 89 0 86 1;
#X connect 90 0 86 1;
#X connect 94 0 100 0;
#X connect 95 0 99 0;
#X connect 95 0 102 1;
#X connect 95 0 100 0;
#X connect 96 0 94 0;
#X connect 96 0 101 1;
#X connect 99 0 100 0;
#X connect 100 0 101 0;
#X connect 100 0 102 0;
#X connect 100 0 78 0;
#X connect 101 0 89 0;
#X connect 101 1 90 0;
#X connect 102 0 87 0;
#X connect 102 1 88 0;
#X connect 103 0 104 0;
#X connect 103 0 105 0;
#X connect 103 0 90 0;
#X connect 104 0 95 0;
#X connect 105 0 96 0;
#X connect 106 0 100 0;
