#N canvas 827 239 734 565 12;
#X obj -185 657 cnv 15 299 452 empty empty empty 20 12 0 14 #ccf5ff #000000 0;
#X obj 686 -139 cnv 15 347 59 empty empty empty 20 12 0 14 #ffd4d4 #000000 0;
#X obj 686 -271 cnv 15 345 112 empty empty empty 20 12 0 14 #ffd4d4 #000000 0;
#X obj 106 128 cnv 15 265 223 empty empty empty 20 12 0 14 #f7e2ff #000000 0;
#X obj -185 128 cnv 15 265 432 empty empty empty 20 12 0 14 #f7e2ff #000000 0;
#X obj -476 128 cnv 15 265 432 empty empty empty 20 12 0 14 #f7e2ff #000000 0;
#X obj -693 128 cnv 15 193 342 empty empty empty 20 12 0 14 #f7e2ff #000000 0;
#X obj 686 937 cnv 15 615 60 empty empty empty 20 12 0 14 #98ff93 #000000 0;
#X obj 686 538 cnv 15 615 60 empty empty empty 20 12 0 14 #98ff93 #000000 0;
#X obj 686 128 cnv 15 615 60 empty empty empty 20 12 0 14 #98ff93 #000000 0;
#N canvas 733 172 450 300 sensor_data 0;
#X obj 278 187 oscparse;
#X obj 278 229 list trim;
#X obj 278 139 netreceive -u -b 5001;
#X obj 278 273 route extIMU;
#X obj 278 315 route acc gyro;
#X floatatom 278 400 5 0 0 0 - - - 12;
#X floatatom 336 400 5 0 0 0 - - - 12;
#X floatatom 394 400 5 0 0 0 - - - 12;
#X obj 278 359 unpack f f f;
#X floatatom 473 400 5 0 0 0 - - - 12;
#X floatatom 531 400 5 0 0 0 - - - 12;
#X floatatom 591 400 5 0 0 0 - - - 12;
#X obj 473 359 unpack f f f;
#X text 272 32 WITH ARDUINO CODE: wearable_computing_board;
#X text 272 55 osc messages;
#X obj 404 653 + 180;
#X obj 407 704 mod 360;
#X floatatom 407 730 5 0 0 0 - - - 12;
#X obj 832 704 mod 360;
#X floatatom 832 739 5 0 0 0 - - - 12;
#X obj 807 599 expr atan2(-$f1 \, $f2)*180/3.14159;
#X obj 832 653 + 180;
#X floatatom 751 852 5 0 0 0 - - - 12;
#X obj 751 826 count;
#X obj 751 796 bng 25 250 50 0 empty empty empty 0 -10 0 10 #ffffff #000000 #000000;
#X msg 806 796 0;
#X obj 841 796 sel 300;
#X msg 375 99 listen 0;
#X obj 449 229 print;
#X msg 278 99 listen 5001;
#X obj 407 594 expr atan2($f1 \, sqrt(pow($f2 \, 2)+pow($f3 \, 2)))*360/3.14159;
#X text 789 378 pitch = rotation around y axis \; roll = rotation around x axis \; yaw = rotation around z axis;
#X text 407 300 acc measures the gravitional acceleration \; gyro measures the rotational velocity;
#X text 407 490 ORIENTATION \; \; pitch = math.atan2(accel_x \, math.sqrt(accel_y**2 + accel_z**2)) * 180 / math.pi \; \; roll = math.atan2(-accel_y \, accel_z) * 180 / math.pi;
#X text -401 478 GRAVITIONAL ACCELERATION;
#X text 9 478 ROTATIONAL VELOCITY;
#X obj 407 796 tabwrite \$0-array-pitch_orientation;
#X obj 989 796 tabwrite \$0-array-roll_orientation;
#X floatatom -390 549 5 0 0 0 - - - 12;
#X floatatom -332 549 5 0 0 0 - - - 12;
#X floatatom -271 549 5 0 0 0 - - - 12;
#X floatatom 11 549 5 0 0 0 - - - 12;
#X floatatom 69 549 5 0 0 0 - - - 12;
#X floatatom 129 549 5 0 0 0 - - - 12;
#X obj 407 1206 outlet;
#X obj 832 1206 outlet;
#X connect 0 0 1 0;
#X connect 1 0 3 0;
#X connect 2 0 0 0;
#X connect 3 0 4 0;
#X connect 4 0 8 0;
#X connect 4 1 12 0;
#X connect 5 0 30 0;
#X connect 5 0 38 0;
#X connect 6 0 30 1;
#X connect 6 0 20 0;
#X connect 6 0 39 0;
#X connect 7 0 20 1;
#X connect 7 0 30 2;
#X connect 7 0 40 0;
#X connect 8 0 5 0;
#X connect 8 1 6 0;
#X connect 8 2 7 0;
#X connect 9 0 41 0;
#X connect 10 0 42 0;
#X connect 11 0 43 0;
#X connect 12 0 9 0;
#X connect 12 1 10 0;
#X connect 12 2 11 0;
#X connect 15 0 16 0;
#X connect 16 0 17 0;
#X connect 17 0 36 0;
#X connect 17 0 44 0;
#X connect 18 0 19 0;
#X connect 19 0 24 0;
#X connect 19 0 37 0;
#X connect 19 0 45 0;
#X connect 20 0 21 0;
#X connect 21 0 18 0;
#X connect 22 0 26 0;
#X connect 22 0 36 1;
#X connect 22 0 37 1;
#X connect 23 0 22 0;
#X connect 24 0 23 0;
#X connect 25 0 23 0;
#X connect 26 0 25 0;
#X connect 27 0 2 0;
#X connect 29 0 2 0;
#X connect 30 0 15 0;
#X coords 0 0 1 1 200 140 0;
#X restore -45 -396 pd sensor_data;
#N canvas 733 172 450 300 knobs_buttons 0;
#X obj 859 71 notein;
#X floatatom 859 114 5 0 0 0 - - - 12;
#X floatatom 909 114 5 0 0 0 - - - 12;
#X floatatom 970 114 5 0 0 0 - - - 12;
#X obj 1054 70 ctlin;
#X floatatom 1054 112 5 0 0 0 - - - 12;
#X floatatom 1103 113 5 0 0 0 - - - 12;
#X floatatom 1162 114 5 0 0 0 - - - 12;
#X obj 1045 266 sel 1 127;
#X obj 1047 487 vsl 19 162 0 1 0 0 empty empty empty 0 -9 0 12 #ffb5f9 #000000 #000000 0 1;
#X floatatom 1095 358 5 0 1 0 - - - 0;
#X obj 1045 381 +;
#X floatatom 1045 457 5 0 0 0 - - - 12;
#X msg 1047 296 1;
#X msg 1080 296 -1;
#X floatatom 1045 663 5 0 0 0 - - - 12;
#X obj 1095 331 clip 1 126;
#X obj 1205 266 sel 1 127;
#X obj 1207 487 vsl 19 162 0 1 0 0 empty empty empty 0 -9 0 12 #ffb5f9 #000000 #000000 0 1;
#X floatatom 1255 358 5 0 1 0 - - - 0;
#X obj 1205 381 +;
#X floatatom 1205 457 5 0 0 0 - - - 12;
#X msg 1207 296 1;
#X msg 1240 296 -1;
#X floatatom 1205 663 5 0 0 0 - - - 12;
#X obj 1255 331 clip 1 126;
#X obj 1366 266 sel 1 127;
#X obj 1368 487 vsl 19 162 0 1 0 0 empty empty empty 0 -9 0 12 #ffb5f9 #000000 #000000 0 1;
#X floatatom 1416 358 5 0 1 0 - - - 0;
#X obj 1366 381 +;
#X floatatom 1366 457 5 0 0 0 - - - 12;
#X msg 1368 296 1;
#X msg 1401 296 -1;
#X floatatom 1366 663 5 0 0 0 - - - 12;
#X obj 1416 331 clip 1 126;
#X obj 1537 266 sel 1 127;
#X obj 1539 487 vsl 19 162 0 1 0 0 empty empty empty 0 -9 0 12 #ffb5f9 #000000 #000000 0 1;
#X floatatom 1587 358 5 0 1 0 - - - 0;
#X obj 1537 381 +;
#X floatatom 1537 457 5 0 0 0 - - - 12;
#X msg 1539 296 1;
#X msg 1572 296 -1;
#X floatatom 1537 663 5 0 0 0 - - - 12;
#X obj 1587 331 clip 1 126;
#X obj 1103 183 sel 48 49 50 51;
#X obj 1045 230 i;
#X obj 1209 228 i;
#X obj 1373 230 i;
#X obj 1537 228 i;
#X obj 862 312 tgl 19 0 empty empty empty 0 -10 0 12 #fcfcfc #000000 #000000 0 1;
#X obj 862 338 sel 1;
#X obj 862 612 bng 25 250 50 0 empty empty empty 0 -10 0 10 #ffb5f9 #505050 #373737;
#X obj 904 312 tgl 19 0 empty empty empty 0 -10 0 12 #fcfcfc #000000 #000000 0 1;
#X obj 904 338 sel 1;
#X obj 904 612 bng 25 250 50 0 empty empty empty 0 -10 0 10 #ffb5f9 #505050 #373737;
#X obj 946 312 tgl 19 0 empty empty empty 0 -10 0 12 #fcfcfc #000000 #000000 0 1;
#X obj 946 338 sel 1;
#X obj 946 612 bng 25 250 50 0 empty empty empty 0 -10 0 10 #ffb5f9 #505050 #373737;
#X obj 988 312 tgl 19 0 empty empty empty 0 -10 0 12 #fcfcfc #000000 #000000 0 1;
#X obj 988 338 sel 1;
#X obj 988 612 bng 25 250 50 0 empty empty empty 0 -10 0 10 #ffb5f9 #505050 #373737;
#X text 859 18 MIDI ROUTING;
#X obj 1674 80 notein;
#X floatatom 1674 123 5 0 0 0 - - - 12;
#X floatatom 1724 123 5 0 0 0 - - - 12;
#X floatatom 1785 123 5 0 0 0 - - - 12;
#X obj 1677 321 tgl 19 0 empty empty empty 0 -10 0 12 #fcfcfc #000000 #000000 0 1;
#X obj 1677 347 sel 1;
#X obj 1045 694 bng 25 250 50 0 empty empty empty 0 -10 0 10 #ffb5f9 #505050 #373737;
#X obj 1719 321 tgl 19 0 empty empty empty 0 -10 0 12 #fcfcfc #000000 #000000 0 1;
#X obj 1719 347 sel 1;
#X obj 1205 694 bng 25 250 50 0 empty empty empty 0 -10 0 10 #ffb5f9 #505050 #373737;
#X obj 1761 321 tgl 19 0 empty empty empty 0 -10 0 12 #fcfcfc #000000 #000000 0 1;
#X obj 1761 347 sel 1;
#X obj 1366 694 bng 25 250 50 0 empty empty empty 0 -10 0 10 #ffb5f9 #505050 #373737;
#X obj 1803 321 tgl 19 0 empty empty empty 0 -10 0 12 #fcfcfc #000000 #000000 0 1;
#X obj 860 268 sel 60 62 64 65;
#X obj 476 905 outlet;
#X obj 536 905 outlet;
#X obj 597 905 outlet;
#X obj 658 905 outlet;
#X obj 878 905 outlet;
#X obj 938 905 outlet;
#X obj 1099 905 outlet;
#X obj 1160 905 outlet;
#X obj 1280 905 outlet;
#X obj 1340 905 outlet;
#X obj 1497 905 outlet;
#X obj 1558 905 outlet;
#X obj 1045 407 / 127;
#X obj 1205 407 / 127;
#X obj 1366 407 / 127;
#X obj 1537 407 / 127;
#X obj 1806 501 ctlin;
#X floatatom 1806 543 5 0 0 0 - - - 12;
#X floatatom 1855 544 5 0 0 0 - - - 12;
#X floatatom 1914 545 5 0 0 0 - - - 12;
#X obj 1855 614 sel 5 6 7 8;
#X obj 1813 669 i;
#X obj 1865 669 i;
#X obj 1919 669 i;
#X obj 1969 669 i;
#X text 1874 500 non endless knobs;
#X text 1117 69 endless knobs;
#X obj 1675 277 sel 68 69 71 72;
#X connect 0 0 1 0;
#X connect 0 1 2 0;
#X connect 0 2 3 0;
#X connect 1 0 76 0;
#X connect 4 0 5 0;
#X connect 4 1 6 0;
#X connect 4 2 7 0;
#X connect 5 0 48 1;
#X connect 5 0 47 1;
#X connect 5 0 46 1;
#X connect 5 0 45 1;
#X connect 6 0 44 0;
#X connect 8 0 13 0;
#X connect 8 1 14 0;
#X connect 9 0 15 0;
#X connect 9 0 16 0;
#X connect 9 0 81 0;
#X connect 10 0 11 1;
#X connect 11 0 89 0;
#X connect 12 0 9 0;
#X connect 13 0 11 0;
#X connect 14 0 11 0;
#X connect 16 0 10 0;
#X connect 17 0 22 0;
#X connect 17 1 23 0;
#X connect 18 0 24 0;
#X connect 18 0 25 0;
#X connect 18 0 83 0;
#X connect 19 0 20 1;
#X connect 20 0 90 0;
#X connect 21 0 18 0;
#X connect 22 0 20 0;
#X connect 23 0 20 0;
#X connect 25 0 19 0;
#X connect 26 0 31 0;
#X connect 26 1 32 0;
#X connect 27 0 33 0;
#X connect 27 0 34 0;
#X connect 27 0 85 0;
#X connect 28 0 29 1;
#X connect 29 0 91 0;
#X connect 30 0 27 0;
#X connect 31 0 29 0;
#X connect 32 0 29 0;
#X connect 34 0 28 0;
#X connect 35 0 40 0;
#X connect 35 1 41 0;
#X connect 36 0 42 0;
#X connect 36 0 43 0;
#X connect 36 0 87 0;
#X connect 37 0 38 1;
#X connect 38 0 92 0;
#X connect 39 0 36 0;
#X connect 40 0 38 0;
#X connect 41 0 38 0;
#X connect 43 0 37 0;
#X connect 44 0 45 0;
#X connect 44 1 46 0;
#X connect 44 2 47 0;
#X connect 44 3 48 0;
#X connect 45 0 8 0;
#X connect 46 0 17 0;
#X connect 47 0 26 0;
#X connect 48 0 35 0;
#X connect 49 0 50 0;
#X connect 50 0 51 0;
#X connect 51 0 77 0;
#X connect 52 0 53 0;
#X connect 53 0 54 0;
#X connect 54 0 78 0;
#X connect 55 0 56 0;
#X connect 56 0 57 0;
#X connect 57 0 79 0;
#X connect 58 0 59 0;
#X connect 59 0 60 0;
#X connect 60 0 80 0;
#X connect 62 0 63 0;
#X connect 62 1 64 0;
#X connect 62 2 65 0;
#X connect 63 0 104 0;
#X connect 66 0 67 0;
#X connect 67 0 68 0;
#X connect 68 0 82 0;
#X connect 69 0 70 0;
#X connect 70 0 71 0;
#X connect 71 0 84 0;
#X connect 72 0 73 0;
#X connect 73 0 74 0;
#X connect 74 0 86 0;
#X connect 75 0 88 0;
#X connect 76 0 49 0;
#X connect 76 1 52 0;
#X connect 76 2 55 0;
#X connect 76 3 58 0;
#X connect 89 0 12 0;
#X connect 90 0 21 0;
#X connect 91 0 30 0;
#X connect 92 0 39 0;
#X connect 93 0 94 0;
#X connect 93 1 95 0;
#X connect 93 2 96 0;
#X connect 94 0 98 1;
#X connect 94 0 99 1;
#X connect 94 0 100 1;
#X connect 94 0 101 1;
#X connect 95 0 97 0;
#X connect 97 0 98 0;
#X connect 97 1 99 0;
#X connect 97 2 100 0;
#X connect 97 3 101 0;
#X connect 98 0 89 0;
#X connect 99 0 90 0;
#X connect 100 0 91 0;
#X connect 101 0 92 0;
#X connect 104 0 66 0;
#X connect 104 1 69 0;
#X connect 104 2 72 0;
#X connect 104 3 75 0;
#X restore 265 -549 pd knobs_buttons;
#N canvas 0 0 450 250 (subpatch) 0;
#X array \$0-array-roll_orientation 300 float 0;
#X coords 0 360 299 0 400 140 1;
#X restore 47 -159 graph;
#N canvas 0 0 450 250 (subpatch) 0;
#X array \$0-array-pitch_orientation 300 float 0;
#X coords 0 360 299 0 400 140 1;
#X restore -405 -159 graph;
#X floatatom -45 -360 5 0 0 0 - - - 12;
#X floatatom 47 -363 5 0 0 0 - - - 12;
#X obj -45 -206 s pit_or;
#X obj 47 -206 s roll_or;
#X obj -45 -336 / 360;
#X obj 47 -336 / 360;
#X obj -27 1011 out~;
#X msg -88 967 mute;
#X msg -163 967 set \$1;
#X obj 196 198 vsl 17 128 0 1 0 0 empty empty VOLUME 0 -9 0 10 #ffffff #000000 #000000 0 1;
#X obj -319 317 vradio 17 1 0 2 empty empty SELECT\ /\ PREDICT 0 -10 0 12 #ffffff #000000 #000000 0;
#X obj 329 196 tgl 25 0 empty empty MUTE 0 -10 0 10 #ffffff #000000 #000000 0 1;
#X obj -581 318 vsl 17 128 0 1 0 0 empty empty DRY/WET\  0 -9 0 10 #ffffff #000000 #000000 0 1;
#X obj 741 -115 bng 25 250 50 0 empty empty empty 0 -10 0 10 #ffffff #505050 #373737;
#X obj 816 -115 bng 25 250 50 0 empty empty empty 0 -10 0 10 #ffffff #505050 #373737;
#X obj 891 -115 bng 25 250 50 0 empty empty empty 0 -10 0 10 #ffffff #505050 #373737;
#X obj 967 -114 bng 25 250 50 0 empty empty empty 0 -10 0 10 #ffffff #505050 #373737;
#X obj 741 -198 bng 25 250 50 0 empty empty empty 0 -10 0 10 #ffffff #505050 #373737;
#X obj 816 -198 bng 25 250 50 0 empty empty empty 0 -10 0 10 #ffffff #505050 #373737;
#X obj 891 -197 bng 25 250 50 0 empty empty empty 0 -10 0 10 #ffffff #505050 #373737;
#X obj 1166 -410 s knob1;
#X obj 1166 -386 s knob2;
#X obj 1166 -362 s knob3;
#X obj 1166 -338 s knob4;
#N canvas 733 172 450 300 knobs_buttons_endless 0;
#X obj 859 71 notein;
#X floatatom 859 114 5 0 0 0 - - - 12;
#X floatatom 909 114 5 0 0 0 - - - 12;
#X floatatom 970 114 5 0 0 0 - - - 12;
#X obj 1054 70 ctlin;
#X floatatom 1054 112 5 0 0 0 - - - 12;
#X floatatom 1103 113 5 0 0 0 - - - 12;
#X floatatom 1162 114 5 0 0 0 - - - 12;
#X obj 1045 487 vsl 19 162 0 1 0 0 empty empty empty 0 -9 0 12 #ffb5f9 #000000 #000000 0 1;
#X floatatom 1095 358 5 0 1 0 - - - 0;
#X obj 1045 381 +;
#X msg 1045 286 1;
#X floatatom 1045 425 5 0 0 0 - - - 12;
#X obj 1095 331 clip 1 126;
#X obj 1217 489 vsl 19 162 0 1 0 0 empty empty empty 0 -9 0 12 #ffb5f9 #000000 #000000 0 1;
#X floatatom 1215 665 5 0 0 0 - - - 12;
#X obj 1406 487 vsl 19 162 0 1 0 0 empty empty empty 0 -9 0 12 #ffb5f9 #000000 #000000 0 1;
#X floatatom 1404 663 5 0 0 0 - - - 12;
#X obj 1599 487 vsl 19 162 0 1 0 0 empty empty empty 0 -9 0 12 #ffb5f9 #000000 #000000 0 1;
#X floatatom 1597 663 5 0 0 0 - - - 12;
#X obj 1103 141 sel 48 49 50 51;
#X obj 1045 230 i;
#X obj 1219 230 i;
#X obj 1411 230 i;
#X obj 1597 228 i;
#X obj 862 312 tgl 19 0 empty empty empty 0 -10 0 12 #fcfcfc #000000 #000000 0 1;
#X obj 862 338 sel 1;
#X obj 862 612 bng 25 250 50 0 empty empty empty 0 -10 0 10 #ffb5f9 #505050 #373737;
#X obj 904 312 tgl 19 0 empty empty empty 0 -10 0 12 #fcfcfc #000000 #000000 0 1;
#X obj 904 338 sel 1;
#X obj 904 612 bng 25 250 50 0 empty empty empty 0 -10 0 10 #ffb5f9 #505050 #373737;
#X obj 946 312 tgl 19 0 empty empty empty 0 -10 0 12 #fcfcfc #000000 #000000 0 1;
#X obj 946 338 sel 1;
#X obj 946 612 bng 25 250 50 0 empty empty empty 0 -10 0 10 #ffb5f9 #505050 #373737;
#X obj 988 312 tgl 19 0 empty empty empty 0 -10 0 12 #fcfcfc #000000 #000000 0 1;
#X obj 988 338 sel 1;
#X obj 988 612 bng 25 250 50 0 empty empty empty 0 -10 0 10 #ffb5f9 #505050 #373737;
#X text 859 18 MIDI ROUTING;
#X obj 1970 118 notein;
#X floatatom 1970 161 5 0 0 0 - - - 12;
#X floatatom 2020 161 5 0 0 0 - - - 12;
#X floatatom 2081 161 5 0 0 0 - - - 12;
#X obj 1973 253 tgl 19 0 empty empty empty 0 -10 0 12 #fcfcfc #000000 #000000 0 1;
#X obj 1973 279 sel 1;
#X obj 1045 694 bng 25 250 50 0 empty empty empty 0 -10 0 10 #ffb5f9 #505050 #373737;
#X obj 2015 253 tgl 19 0 empty empty empty 0 -10 0 12 #fcfcfc #000000 #000000 0 1;
#X obj 2015 279 sel 1;
#X obj 1215 696 bng 25 250 50 0 empty empty empty 0 -10 0 10 #ffb5f9 #505050 #373737;
#X obj 2057 253 tgl 19 0 empty empty empty 0 -10 0 12 #fcfcfc #000000 #000000 0 1;
#X obj 2057 279 sel 1;
#X obj 1404 694 bng 25 250 50 0 empty empty empty 0 -10 0 10 #ffb5f9 #505050 #373737;
#X obj 2099 253 tgl 19 0 empty empty empty 0 -10 0 12 #fcfcfc #000000 #000000 0 1;
#X obj 860 268 sel 60 62 64 65;
#X obj 476 905 outlet;
#X obj 536 905 outlet;
#X obj 597 905 outlet;
#X obj 658 905 outlet;
#X obj 878 905 outlet;
#X obj 938 905 outlet;
#X obj 1099 905 outlet;
#X obj 1160 905 outlet;
#X obj 1280 905 outlet;
#X obj 1340 905 outlet;
#X obj 1497 905 outlet;
#X text 1117 69 endless knobs;
#X obj 1971 209 sel 67 69 71 72;
#X obj 1045 450 / 127;
#X floatatom 1269 360 5 0 1 0 - - - 0;
#X obj 1219 383 +;
#X floatatom 1219 427 5 0 0 0 - - - 12;
#X obj 1269 333 clip 1 126;
#X obj 1219 452 / 127;
#X floatatom 1461 358 5 0 1 0 - - - 0;
#X obj 1411 381 +;
#X floatatom 1411 425 5 0 0 0 - - - 12;
#X obj 1461 331 clip 1 126;
#X obj 1411 450 / 127;
#X floatatom 1647 358 5 0 1 0 - - - 0;
#X obj 1597 381 +;
#X floatatom 1597 425 5 0 0 0 - - - 12;
#X obj 1647 331 clip 1 126;
#X obj 1597 450 / 127;
#X obj 1045 255 sel 1 2 3 4 127 126 125 124;
#X msg 1113 286 -1;
#X msg 1061 286 2;
#X msg 1078 286 3;
#X msg 1095 286 4;
#X msg 1133 286 -2;
#X msg 1155 286 -3;
#X msg 1179 286 -4;
#X msg 1219 286 1;
#X obj 1219 255 sel 1 2 3 4 127 126 125 124;
#X msg 1287 286 -1;
#X msg 1235 286 2;
#X msg 1252 286 3;
#X msg 1269 286 4;
#X msg 1307 286 -2;
#X msg 1329 286 -3;
#X msg 1353 286 -4;
#X msg 1411 286 1;
#X obj 1411 255 sel 1 2 3 4 127 126 125 124;
#X msg 1479 286 -1;
#X msg 1427 286 2;
#X msg 1444 286 3;
#X msg 1461 286 4;
#X msg 1499 286 -2;
#X msg 1521 286 -3;
#X msg 1545 286 -4;
#X msg 1597 286 1;
#X obj 1597 255 sel 1 2 3 4 127 126 125 124;
#X msg 1665 286 -1;
#X msg 1613 286 2;
#X msg 1630 286 3;
#X msg 1647 286 4;
#X msg 1685 286 -2;
#X msg 1707 286 -3;
#X msg 1731 286 -4;
#X floatatom 1055 664 5 0 0 0 - - - 12;
#X obj 1597 709 bng 25 250 50 0 empty empty empty 0 -10 0 10 #ffb5f9 #505050 #373737;
#X obj 1584 905 outlet;
#X obj 2099 279 sel 1;
#X obj 1269 403 r knob2_update;
#X obj 1461 403 r knob3_update;
#X obj 1269 429 * 127;
#X obj 1461 429 * 127;
#X obj 1973 790 f;
#X obj 1973 822 + 1;
#X obj 1973 848 clip 0 3;
#X connect 0 0 1 0;
#X connect 0 1 2 0;
#X connect 0 2 3 0;
#X connect 1 0 52 0;
#X connect 4 0 5 0;
#X connect 4 1 6 0;
#X connect 4 2 7 0;
#X connect 5 0 22 1;
#X connect 5 0 21 1;
#X connect 5 0 24 1;
#X connect 5 0 23 1;
#X connect 6 0 20 0;
#X connect 8 0 57 0;
#X connect 8 0 117 0;
#X connect 9 0 10 1;
#X connect 10 0 12 0;
#X connect 11 0 10 0;
#X connect 12 0 66 0;
#X connect 12 0 13 0;
#X connect 13 0 9 0;
#X connect 14 0 59 0;
#X connect 14 0 15 0;
#X connect 16 0 17 0;
#X connect 16 0 61 0;
#X connect 18 0 19 0;
#X connect 18 0 63 0;
#X connect 20 0 21 0;
#X connect 20 1 22 0;
#X connect 20 2 23 0;
#X connect 20 3 24 0;
#X connect 21 0 82 0;
#X connect 22 0 91 0;
#X connect 23 0 100 0;
#X connect 24 0 109 0;
#X connect 25 0 26 0;
#X connect 26 0 27 0;
#X connect 27 0 53 0;
#X connect 28 0 29 0;
#X connect 29 0 30 0;
#X connect 30 0 54 0;
#X connect 31 0 32 0;
#X connect 32 0 33 0;
#X connect 33 0 55 0;
#X connect 34 0 35 0;
#X connect 35 0 36 0;
#X connect 36 0 56 0;
#X connect 38 0 39 0;
#X connect 38 1 40 0;
#X connect 38 2 41 0;
#X connect 39 0 65 0;
#X connect 42 0 43 0;
#X connect 43 0 44 0;
#X connect 44 0 58 0;
#X connect 45 0 46 0;
#X connect 46 0 47 0;
#X connect 47 0 60 0;
#X connect 48 0 49 0;
#X connect 49 0 50 0;
#X connect 50 0 62 0;
#X connect 51 0 120 0;
#X connect 52 0 25 0;
#X connect 52 1 28 0;
#X connect 52 2 31 0;
#X connect 52 3 34 0;
#X connect 65 0 42 0;
#X connect 65 1 45 0;
#X connect 65 2 48 0;
#X connect 65 3 51 0;
#X connect 66 0 8 0;
#X connect 67 0 68 1;
#X connect 68 0 69 0;
#X connect 69 0 71 0;
#X connect 69 0 70 0;
#X connect 70 0 67 0;
#X connect 71 0 14 0;
#X connect 72 0 73 1;
#X connect 73 0 74 0;
#X connect 74 0 76 0;
#X connect 74 0 75 0;
#X connect 75 0 72 0;
#X connect 76 0 16 0;
#X connect 77 0 78 1;
#X connect 78 0 79 0;
#X connect 79 0 81 0;
#X connect 79 0 80 0;
#X connect 80 0 77 0;
#X connect 81 0 18 0;
#X connect 82 0 11 0;
#X connect 82 1 84 0;
#X connect 82 2 85 0;
#X connect 82 3 86 0;
#X connect 82 4 83 0;
#X connect 82 5 87 0;
#X connect 82 6 88 0;
#X connect 82 7 89 0;
#X connect 83 0 10 0;
#X connect 84 0 10 0;
#X connect 85 0 10 0;
#X connect 86 0 10 0;
#X connect 87 0 10 0;
#X connect 88 0 10 0;
#X connect 89 0 10 0;
#X connect 90 0 68 0;
#X connect 91 0 90 0;
#X connect 91 1 93 0;
#X connect 91 2 94 0;
#X connect 91 3 95 0;
#X connect 91 4 92 0;
#X connect 91 5 96 0;
#X connect 91 6 97 0;
#X connect 91 7 98 0;
#X connect 92 0 68 0;
#X connect 93 0 68 0;
#X connect 94 0 68 0;
#X connect 95 0 68 0;
#X connect 96 0 68 0;
#X connect 97 0 68 0;
#X connect 98 0 68 0;
#X connect 99 0 73 0;
#X connect 100 0 99 0;
#X connect 100 1 102 0;
#X connect 100 2 103 0;
#X connect 100 3 104 0;
#X connect 100 4 101 0;
#X connect 100 5 105 0;
#X connect 100 6 106 0;
#X connect 100 7 107 0;
#X connect 101 0 73 0;
#X connect 102 0 73 0;
#X connect 103 0 73 0;
#X connect 104 0 73 0;
#X connect 105 0 73 0;
#X connect 106 0 73 0;
#X connect 107 0 73 0;
#X connect 108 0 78 0;
#X connect 109 0 108 0;
#X connect 109 1 111 0;
#X connect 109 2 112 0;
#X connect 109 3 113 0;
#X connect 109 4 110 0;
#X connect 109 5 114 0;
#X connect 109 6 115 0;
#X connect 109 7 116 0;
#X connect 110 0 78 0;
#X connect 111 0 78 0;
#X connect 112 0 78 0;
#X connect 113 0 78 0;
#X connect 114 0 78 0;
#X connect 115 0 78 0;
#X connect 116 0 78 0;
#X connect 118 0 119 0;
#X connect 120 0 118 0;
#X connect 121 0 123 0;
#X connect 122 0 124 0;
#X connect 123 0 69 0;
#X connect 124 0 74 0;
#X connect 125 0 126 0;
#X connect 126 0 127 0;
#X restore 265 -511 pd knobs_buttons_endless;
#X msg -88 730 set \$1;
#X floatatom -88 699 5 0 0 0 - - - 12;
#X obj -27 730 adc~ 3;
#X floatatom -45 -302 7 -10 10 0 - - - 0;
#X obj -45 -251 line;
#X floatatom -155 -224 7 -10 10 0 - - - 0;
#X msg -45 -276 \$1 50;
#X obj 967 -197 bng 25 250 50 0 empty empty empty 0 -10 0 10 #ffffff #505050 #373737;
#X obj 1166 -93 s butt1;
#X obj 1166 -67 s butt2;
#X obj 1166 -40 s butt3;
#X obj 1166 -13 s butt4;
#X text 1463 -42 add data points;
#X text 1463 -15 learn;
#X text 1269 -342 volume;
#X text 1269 -189 mute;
#X obj 1166 -267 s knob1_press;
#X obj 1166 -241 s knob2_press;
#X obj 1166 -214 s knob3_press;
#X obj 1166 -187 s knob4_press;
#X text 1463 -69 first/ next parameter;
#X text 1463 -95 selecting / predicting;
#X text 1413 -297 if flucoma selecting mode:;
#X text 1413 -269 random parameter;
#X text 1269 -14 wet 1;
#X text 1269 -95 wet 0.25;
#X text 1269 -69 wet 0.5;
#X text 1269 -42 wet 0.75;
#X obj 713 148 r butt1;
#X obj 1259 258 s last_select;
#X obj 888 198 r last_select;
#X obj 668 227 gate 3;
#X obj 828 227 gate 3;
#X obj 988 227 gate 3;
#X obj 1148 227 gate 3;
#X obj 873 148 r butt2;
#X obj 1033 147 r butt3;
#X obj 1193 147 r butt4;
#X obj 713 557 r knob1;
#X obj 865 557 r knob2;
#X obj 1033 557 r knob3;
#X obj 1193 557 r knob4;
#X obj 1193 873 s volume;
#X obj 713 957 r knob1_press;
#X obj 865 957 r knob2_press;
#X obj 1033 957 r knob3_press;
#X obj 1193 957 r knob4_press;
#X obj 580 978 r fluc_sel_pred;
#X obj 636 1048 gate 2;
#X obj 580 1106 s rand_param;
#X obj 580 1004 + 1;
#X msg 1259 227 1;
#X obj 114 196 r volume;
#X msg 1337 227 2;
#X obj 267 196 r mute;
#X msg 1418 227 3;
#X obj 1193 1193 s mute;
#X obj -88 939 r mute;
#X obj -163 939 r volume;
#X obj -29 317 vradio 17 1 0 2 empty empty SELECT\ /\ PREDICT 0 -10 0 12 #ffffff #000000 #000000 0;
#X text 196 133 GENERAL;
#X floatatom -319 371 5 0 0 0 - - - 12;
#X obj -319 423 bng 25 250 50 0 empty empty empty 0 -10 0 10 #ffffff #000000 #000000;
#X obj -319 471 bng 25 250 50 0 empty empty empty 0 -10 0 10 #ffffff #000000 #000000;
#X floatatom -319 521 9 0 0 0 - - - 12;
#X floatatom -29 371 5 0 0 0 - - - 12;
#X obj -29 423 bng 25 250 50 0 empty empty empty 0 -10 0 10 #ffffff #000000 #000000;
#X obj -29 471 bng 25 250 50 0 empty empty empty 0 -10 0 10 #ffffff #000000 #000000;
#X floatatom -29 521 9 0 0 0 - - - 12;
#X msg 721 370 0.25;
#X msg 745 396 0.5;
#X msg 761 422 0.75;
#X msg 784 451 1;
#X obj 878 319 count 1;
#X obj 1057 319 count 1;
#X msg 1073 -410 1;
#X msg 1093 -410 -1;
#X obj 741 -246 bng 25 250 50 0 empty empty empty -10 10 0 10 #ffffff #505050 #373737;
#X obj 741 -223 bng 25 250 50 0 empty empty empty 0 -10 0 10 #ffffff #505050 #373737;
#X msg 1073 -386 1;
#X msg 1093 -386 -1;
#X obj 816 -246 bng 25 250 50 0 empty empty empty -10 0 0 10 #ffffff #505050 #373737;
#X obj 816 -223 bng 25 250 50 0 empty empty empty 0 -10 0 10 #ffffff #505050 #373737;
#X msg 1073 -362 1;
#X msg 1093 -362 -1;
#X obj 891 -246 bng 25 250 50 0 empty empty empty 0 -10 0 10 #ffffff #505050 #373737;
#X obj 891 -223 bng 25 250 50 0 empty empty empty 0 -10 0 10 #ffffff #505050 #373737;
#X msg 1073 -338 1;
#X msg 1093 -338 -1;
#X obj 967 -246 bng 25 250 50 0 empty empty empty 0 -10 0 10 #ffffff #505050 #373737;
#X obj 967 -223 bng 25 250 50 0 empty empty empty 0 -10 0 10 #ffffff #505050 #373737;
#X text 1269 -297 general:;
#N canvas 0 22 450 300 counter_with_limits 0;
#X floatatom 654 816 5 0 0 0 - - - 12;
#X msg 528 704 up;
#X msg 683 704 down;
#X obj 499 404 bng 25 250 50 0 empty empty empty 0 -10 0 10 #ffffff #000000 #000000;
#X obj 499 674 t b b;
#X obj 654 404 bng 25 250 50 0 empty empty empty 0 -10 0 10 #ffffff #000000 #000000;
#X obj 654 674 t b b;
#X obj 654 636 spigot;
#X obj 499 636 spigot;
#X msg 715 636 0;
#X msg 745 636 1;
#X msg 557 636 0;
#X msg 584 636 1;
#X text 498 348 UP;
#X text 654 348 DOWN;
#X text 498 266 Counter which count until a certain limit;
#X msg 910 648 max \$1;
#X floatatom 827 404 5 0 0 0 - - - 12;
#X floatatom 910 404 5 0 0 0 - - - 12;
#X text 827 348 limit low;
#X text 910 348 limit high;
#X msg 827 648 min \$1;
#X obj 654 762 count;
#X obj 557 513 sel;
#X obj 715 513 sel;
#X floatatom 1176 404 5 0 0 0 - - - 12;
#X text 1176 348 set value;
#X obj 499 139 inlet;
#X obj 654 139 inlet;
#X obj 827 139 inlet;
#X obj 910 139 inlet;
#X obj 1176 139 inlet;
#X obj 654 841 outlet;
#X connect 0 0 32 0;
#X connect 1 0 22 0;
#X connect 2 0 22 0;
#X connect 3 0 8 0;
#X connect 4 0 22 0;
#X connect 4 1 1 0;
#X connect 5 0 7 0;
#X connect 6 0 22 0;
#X connect 6 1 2 0;
#X connect 7 0 6 0;
#X connect 8 0 4 0;
#X connect 9 0 7 1;
#X connect 10 0 7 1;
#X connect 11 0 8 1;
#X connect 12 0 8 1;
#X connect 16 0 22 0;
#X connect 17 0 21 0;
#X connect 17 0 24 1;
#X connect 17 0 22 0;
#X connect 18 0 16 0;
#X connect 18 0 23 1;
#X connect 21 0 22 0;
#X connect 22 0 0 0;
#X connect 22 0 23 0;
#X connect 22 0 24 0;
#X connect 23 0 11 0;
#X connect 23 1 12 0;
#X connect 24 0 9 0;
#X connect 24 1 10 0;
#X connect 25 0 22 0;
#X connect 27 0 3 0;
#X connect 28 0 5 0;
#X connect 29 0 17 0;
#X connect 30 0 18 0;
#X connect 31 0 25 0;
#X restore 713 765 pd counter_with_limits;
#X obj 713 707 sel 1 -1;
#X msg 779 707 0;
#X floatatom 846 708 5 0 0 0 - - - 12;
#N canvas 0 22 450 300 counter_with_limits 0;
#X floatatom 654 816 5 0 0 0 - - - 12;
#X msg 528 704 up;
#X msg 683 704 down;
#X obj 499 404 bng 25 250 50 0 empty empty empty 0 -10 0 10 #ffffff #000000 #000000;
#X obj 499 674 t b b;
#X obj 654 404 bng 25 250 50 0 empty empty empty 0 -10 0 10 #ffffff #000000 #000000;
#X obj 654 674 t b b;
#X obj 654 636 spigot;
#X obj 499 636 spigot;
#X msg 715 636 0;
#X msg 745 636 1;
#X msg 557 636 0;
#X msg 584 636 1;
#X text 498 348 UP;
#X text 654 348 DOWN;
#X text 498 266 Counter which count until a certain limit;
#X msg 910 648 max \$1;
#X floatatom 827 404 5 0 0 0 - - - 12;
#X floatatom 910 404 5 0 0 0 - - - 12;
#X text 827 348 limit low;
#X text 910 348 limit high;
#X msg 827 648 min \$1;
#X obj 654 762 count;
#X obj 557 513 sel;
#X obj 715 513 sel;
#X floatatom 1176 404 5 0 0 0 - - - 12;
#X text 1176 348 set value;
#X obj 499 139 inlet;
#X obj 654 139 inlet;
#X obj 827 139 inlet;
#X obj 910 139 inlet;
#X obj 1176 139 inlet;
#X obj 654 841 outlet;
#X connect 0 0 32 0;
#X connect 1 0 22 0;
#X connect 2 0 22 0;
#X connect 3 0 8 0;
#X connect 4 0 22 0;
#X connect 4 1 1 0;
#X connect 5 0 7 0;
#X connect 6 0 22 0;
#X connect 6 1 2 0;
#X connect 7 0 6 0;
#X connect 8 0 4 0;
#X connect 9 0 7 1;
#X connect 10 0 7 1;
#X connect 11 0 8 1;
#X connect 12 0 8 1;
#X connect 16 0 22 0;
#X connect 17 0 21 0;
#X connect 17 0 24 1;
#X connect 17 0 22 0;
#X connect 18 0 16 0;
#X connect 18 0 23 1;
#X connect 21 0 22 0;
#X connect 22 0 0 0;
#X connect 22 0 23 0;
#X connect 22 0 24 0;
#X connect 23 0 11 0;
#X connect 23 1 12 0;
#X connect 24 0 9 0;
#X connect 24 1 10 0;
#X connect 25 0 22 0;
#X connect 27 0 3 0;
#X connect 28 0 5 0;
#X connect 29 0 17 0;
#X connect 30 0 18 0;
#X connect 31 0 25 0;
#X restore 865 795 pd counter_with_limits;
#X obj 865 737 sel 1 -1;
#X msg 931 737 0;
#X floatatom 998 738 5 0 0 0 - - - 12;
#N canvas 0 22 450 300 counter_with_limits 0;
#X floatatom 654 816 5 0 0 0 - - - 12;
#X msg 528 704 up;
#X msg 683 704 down;
#X obj 499 404 bng 25 250 50 0 empty empty empty 0 -10 0 10 #ffffff #000000 #000000;
#X obj 499 674 t b b;
#X obj 654 404 bng 25 250 50 0 empty empty empty 0 -10 0 10 #ffffff #000000 #000000;
#X obj 654 674 t b b;
#X obj 654 636 spigot;
#X obj 499 636 spigot;
#X msg 715 636 0;
#X msg 745 636 1;
#X msg 557 636 0;
#X msg 584 636 1;
#X text 498 348 UP;
#X text 654 348 DOWN;
#X text 498 266 Counter which count until a certain limit;
#X msg 910 648 max \$1;
#X floatatom 827 404 5 0 0 0 - - - 12;
#X floatatom 910 404 5 0 0 0 - - - 12;
#X text 827 348 limit low;
#X text 910 348 limit high;
#X msg 827 648 min \$1;
#X obj 654 762 count;
#X obj 557 513 sel;
#X obj 715 513 sel;
#X floatatom 1176 404 5 0 0 0 - - - 12;
#X text 1176 348 set value;
#X obj 499 139 inlet;
#X obj 654 139 inlet;
#X obj 827 139 inlet;
#X obj 910 139 inlet;
#X obj 1176 139 inlet;
#X obj 654 841 outlet;
#X connect 0 0 32 0;
#X connect 1 0 22 0;
#X connect 2 0 22 0;
#X connect 3 0 8 0;
#X connect 4 0 22 0;
#X connect 4 1 1 0;
#X connect 5 0 7 0;
#X connect 6 0 22 0;
#X connect 6 1 2 0;
#X connect 7 0 6 0;
#X connect 8 0 4 0;
#X connect 9 0 7 1;
#X connect 10 0 7 1;
#X connect 11 0 8 1;
#X connect 12 0 8 1;
#X connect 16 0 22 0;
#X connect 17 0 21 0;
#X connect 17 0 24 1;
#X connect 17 0 22 0;
#X connect 18 0 16 0;
#X connect 18 0 23 1;
#X connect 21 0 22 0;
#X connect 22 0 0 0;
#X connect 22 0 23 0;
#X connect 22 0 24 0;
#X connect 23 0 11 0;
#X connect 23 1 12 0;
#X connect 24 0 9 0;
#X connect 24 1 10 0;
#X connect 25 0 22 0;
#X connect 27 0 3 0;
#X connect 28 0 5 0;
#X connect 29 0 17 0;
#X connect 30 0 18 0;
#X connect 31 0 25 0;
#X restore 1033 766 pd counter_with_limits;
#X obj 1033 708 sel 1 -1;
#X msg 1099 708 0;
#X floatatom 1166 709 5 0 0 0 - - - 12;
#N canvas 0 22 450 300 counter_with_limits 0;
#X floatatom 654 846 5 0 0 0 - - - 12;
#X msg 528 704 up;
#X msg 683 704 down;
#X obj 499 404 bng 25 250 50 0 empty empty empty 0 -10 0 10 #ffffff #000000 #000000;
#X obj 499 674 t b b;
#X obj 654 404 bng 25 250 50 0 empty empty empty 0 -10 0 10 #ffffff #000000 #000000;
#X obj 654 674 t b b;
#X obj 654 636 spigot;
#X obj 499 636 spigot;
#X msg 715 636 0;
#X msg 745 636 1;
#X msg 557 636 0;
#X msg 584 636 1;
#X text 498 348 UP;
#X text 654 348 DOWN;
#X text 498 266 Counter which count until a certain limit;
#X msg 910 648 max \$1;
#X floatatom 827 404 5 0 0 0 - - - 12;
#X floatatom 910 404 5 0 0 0 - - - 12;
#X text 827 348 limit low;
#X text 910 348 limit high;
#X msg 827 648 min \$1;
#X obj 654 762 count;
#X obj 557 513 sel;
#X obj 715 513 sel;
#X floatatom 1176 404 5 0 0 0 - - - 12;
#X text 1176 348 set value;
#X obj 499 139 inlet;
#X obj 654 139 inlet;
#X obj 827 139 inlet;
#X obj 910 139 inlet;
#X obj 1176 139 inlet;
#X obj 654 871 outlet;
#X obj 654 788 / 10;
#X connect 0 0 32 0;
#X connect 1 0 22 0;
#X connect 2 0 22 0;
#X connect 3 0 8 0;
#X connect 4 0 22 0;
#X connect 4 1 1 0;
#X connect 5 0 7 0;
#X connect 6 0 22 0;
#X connect 6 1 2 0;
#X connect 7 0 6 0;
#X connect 8 0 4 0;
#X connect 9 0 7 1;
#X connect 10 0 7 1;
#X connect 11 0 8 1;
#X connect 12 0 8 1;
#X connect 16 0 22 0;
#X connect 17 0 21 0;
#X connect 17 0 24 1;
#X connect 17 0 22 0;
#X connect 18 0 16 0;
#X connect 18 0 23 1;
#X connect 21 0 22 0;
#X connect 22 0 23 0;
#X connect 22 0 24 0;
#X connect 22 0 33 0;
#X connect 23 0 11 0;
#X connect 23 1 12 0;
#X connect 24 0 9 0;
#X connect 24 1 10 0;
#X connect 25 0 22 0;
#X connect 27 0 3 0;
#X connect 28 0 5 0;
#X connect 29 0 17 0;
#X connect 30 0 18 0;
#X connect 31 0 25 0;
#X connect 33 0 0 0;
#X restore 1193 796 pd counter_with_limits;
#X obj 1193 738 sel 1 -1;
#X msg 1259 738 0;
#X floatatom 1326 739 5 0 0 0 - - - 12;
#X floatatom 1054 817 5 0 0 0 - - - 12;
#X floatatom 917 838 5 0 0 0 - - - 12;
#X floatatom 732 828 5 0 0 0 - - - 12;
#X msg 813 707 \$1;
#X msg 965 737 \$1;
#X msg 1133 708 \$1;
#X msg 1293 738 10;
#X obj 1193 847 line;
#X msg 1193 822 \$1 100;
#X obj 1259 611 loadbang;
#X text 1269 -412 MODULE1 choose;
#X text 1269 -388 MODULE2 choose;
#X text 1269 -366 MODULE3 choose;
#X text 1269 -269 MODULE1 select;
#X text 1269 -243 MODULE2 select;
#X text 1269 -216 MODULE3 select;
#X text 1269 -123 if MODULE1 selected before:;
#X text 1463 -123 if MODULE2/3 selected before:;
#X obj 878 347 s MOD2_sel_pred;
#X obj 1057 347 s MOD3_sel_pred;
#X obj 878 399 s MOD2_next_param;
#X obj 878 451 s MOD2_add_data;
#X obj 878 503 s MOD2_learn;
#X obj 1057 503 s MOD3_learn;
#X obj 1057 451 s MOD3_add_data;
#X obj 1057 399 s MOD3_next_param;
#X obj 721 503 s MOD1_wet;
#X obj 1259 198 r MOD1_sel;
#X obj 1337 198 r MOD2_sel;
#X obj 1418 198 r MOD3_sel;
#X obj 586 611 r limit_MOD1;
#X obj 586 641 r limit_MOD2;
#X obj 586 671 r limit_MOD3;
#X obj 713 873 s MOD1_choo;
#X obj -681 196 r MOD1_choo;
#X obj 865 873 s MOD2_choo;
#X obj 1033 873 s MOD3_choo;
#X obj -681 243 r MOD1_sel;
#X obj -681 316 r MOD1_wet;
#X obj -466 196 r MOD2_choo;
#X obj -466 244 r MOD2_sel;
#X obj -466 371 r MOD2_param_count;
#X obj -466 419 r MOD2_add_data;
#X obj -466 467 r MOD2_learn;
#X obj -466 515 r MOD2_error;
#X obj -174 196 r MOD3_choo;
#X obj -174 243 r MOD3_sel;
#N canvas 0 22 450 300 MODULE1 0;
#X obj 598 302 inlet~;
#X obj 719 680 outlet~;
#X floatatom 882 99 5 0 0 2 dry\ /wet - - 12;
#X obj 625 438 * -1;
#X obj 625 464 + 1;
#X floatatom 625 490 5 0 0 0 - - - 12;
#X obj 625 515 f2s~;
#X obj 598 558 *~;
#X obj 719 432 *~;
#X obj 812 429 *~;
#X obj 903 429 *~;
#X obj 714 133 sel 0 1 2;
#X obj 746 373 line;
#X msg 746 342 \$1 1000;
#X obj 839 369 line;
#X msg 839 338 \$1 1000;
#X obj 937 369 line;
#X msg 937 338 \$1 1000;
#X msg 746 302 0;
#X msg 779 302 1;
#X msg 839 302 0;
#X msg 872 302 1;
#X msg 937 302 0;
#X msg 970 302 1;
#X obj 809 679 outlet~;
#X obj -51 417 loadbang;
#X obj 26 417 bng 25 250 50 0 empty empty empty 0 -10 0 10 #ffffff #000000 #000000;
#X text -51 372 set the amount of fxs of MODULE1 \; (send a bang after editing the value);
#X obj -51 490 s limit_MOD2;
#X msg -51 454 3;
#X obj 882 41 r MOD1_wet;
#X obj 598 41 r MOD1_choo;
#X obj 714 41 r MOD1_sel;
#X floatatom 598 99 5 0 0 2 choose - - 12;
#X floatatom 714 99 5 0 0 2 select - - 12;
#N canvas 733 172 450 300 MOD1_fx1 0;
#X obj 338 296 lop.bw~;
#X obj 547 349 hip.bw~;
#X obj 363 155 * 15000;
#X obj 571 208 * 15000;
#X floatatom 363 181 5 0 0 0 - - - 12;
#X floatatom 571 234 5 0 0 0 - - - 12;
#X obj 699 499 *~;
#X obj 726 451 f2s~;
#X obj 699 409 revdelay~ 2000;
#X obj 338 107 inlet~;
#X obj 726 208 inlet;
#X obj 699 559 outlet~;
#X obj 459 107 loadbang;
#X msg 459 133 15000;
#X connect 0 0 1 0;
#X connect 1 0 8 0;
#X connect 2 0 4 0;
#X connect 3 0 5 0;
#X connect 4 0 0 1;
#X connect 5 0 1 1;
#X connect 6 0 11 0;
#X connect 7 0 6 1;
#X connect 8 0 6 0;
#X connect 9 0 0 0;
#X connect 10 0 7 0;
#X connect 12 0 13 0;
#X connect 13 0 4 0;
#X restore 719 496 pd MOD1_fx1;
#N canvas 733 172 450 300 MOD1_fx2 0;
#X obj 749 743 *~;
#X obj 99 79 inlet~;
#X obj 1379 79 inlet;
#X obj 779 938 outlet~;
#X obj 749 385 pitch.shift~;
#X floatatom 781 327 5 0 0 0 - - - 12;
#X floatatom 816 274 5 0 0 0 - - - 12;
#X obj 834 385 pitch.shift~;
#X obj 984 385 pitch.shift~;
#X floatatom 1018 327 5 0 0 0 - - - 12;
#X floatatom 1069 274 5 0 0 0 - - - 12;
#X obj 1069 385 pitch.shift~;
#X obj 502 385 pitch.shift~;
#X floatatom 536 327 5 0 0 0 - - - 12;
#X floatatom 569 279 5 0 0 0 - - - 12;
#X obj 587 385 pitch.shift~;
#X obj 749 669 *~ 0.8;
#X obj 834 669 *~ 0.8;
#X obj 984 669 *~ 0.6;
#X obj 1069 669 *~ 0.6;
#X obj 502 669 *~ 0.8;
#X obj 587 669 *~ 0.8;
#X floatatom 541 618 5 0 1 0 - - - 12;
#X floatatom 626 618 5 0 1 0 - - - 12;
#X floatatom 788 622 5 0 1 0 - - - 12;
#X floatatom 873 622 5 0 1 0 - - - 12;
#X floatatom 1023 622 5 0 1 0 - - - 12;
#X floatatom 1108 622 5 0 1 0 - - - 12;
#X obj 541 490 loadbang;
#X msg 541 538 1;
#X msg 788 555 0.8;
#X msg 1023 559 0.6;
#X obj 898 79 loadbang;
#X msg 536 203 -2400;
#X msg 781 196 1200;
#X msg 1018 196 2400;
#X obj 655 327 + 1000;
#X obj 902 327 + 2000;
#X obj 1121 327 + 4000;
#X floatatom 1167 263 5 0 0 0 - - - 12;
#X msg 1201 225 2;
#X msg 1238 225 3000;
#X obj 859 939 outlet~;
#X msg 597 203 880;
#X msg 828 197 235;
#X msg 1069 196 375;
#X obj 502 743 *~;
#X obj 834 743 *~;
#X obj 587 743 *~;
#X obj 994 743 *~;
#X obj 1079 745 *~;
#X obj 1379 669 f2s~;
#X connect 0 0 3 0;
#X connect 1 0 12 0;
#X connect 1 0 11 0;
#X connect 1 0 8 0;
#X connect 1 0 7 0;
#X connect 1 0 4 0;
#X connect 1 0 15 0;
#X connect 2 0 51 0;
#X connect 4 0 16 0;
#X connect 5 0 7 1;
#X connect 5 0 4 1;
#X connect 6 0 37 0;
#X connect 6 0 4 2;
#X connect 7 0 17 0;
#X connect 8 0 18 0;
#X connect 9 0 11 1;
#X connect 9 0 8 1;
#X connect 10 0 38 0;
#X connect 10 0 8 2;
#X connect 11 0 19 0;
#X connect 12 0 20 0;
#X connect 13 0 12 1;
#X connect 13 0 15 1;
#X connect 14 0 36 0;
#X connect 14 0 12 2;
#X connect 15 0 21 0;
#X connect 16 0 0 0;
#X connect 17 0 47 0;
#X connect 18 0 49 0;
#X connect 19 0 50 0;
#X connect 20 0 46 0;
#X connect 21 0 48 0;
#X connect 22 0 20 1;
#X connect 23 0 21 1;
#X connect 24 0 16 1;
#X connect 25 0 17 1;
#X connect 26 0 18 1;
#X connect 27 0 19 1;
#X connect 28 0 29 0;
#X connect 28 0 30 0;
#X connect 28 0 31 0;
#X connect 29 0 23 0;
#X connect 29 0 22 0;
#X connect 30 0 24 0;
#X connect 30 0 25 0;
#X connect 31 0 26 0;
#X connect 31 0 27 0;
#X connect 32 0 34 0;
#X connect 32 0 35 0;
#X connect 32 0 33 0;
#X connect 32 0 44 0;
#X connect 32 0 43 0;
#X connect 32 0 40 0;
#X connect 32 0 45 0;
#X connect 33 0 13 0;
#X connect 34 0 5 0;
#X connect 35 0 9 0;
#X connect 36 0 15 2;
#X connect 37 0 7 2;
#X connect 38 0 11 2;
#X connect 39 0 38 1;
#X connect 39 0 37 1;
#X connect 39 0 36 1;
#X connect 40 0 38 1;
#X connect 40 0 36 1;
#X connect 40 0 37 1;
#X connect 41 0 38 1;
#X connect 41 0 37 1;
#X connect 41 0 36 1;
#X connect 43 0 14 0;
#X connect 44 0 6 0;
#X connect 45 0 10 0;
#X connect 46 0 3 0;
#X connect 47 0 42 0;
#X connect 48 0 42 0;
#X connect 49 0 3 0;
#X connect 50 0 42 0;
#X connect 51 0 46 1;
#X connect 51 0 48 1;
#X connect 51 0 49 1;
#X connect 51 0 47 1;
#X connect 51 0 0 1;
#X connect 51 0 50 1;
#X restore 812 496 pd MOD1_fx2;
#N canvas 733 172 450 300 MOD1_fx3 0;
#X obj 359 607 *~;
#X obj 386 562 f2s~;
#X obj 169 180 inlet~;
#X obj 386 180 inlet;
#X obj 359 679 outlet~;
#X obj 169 319 overdrive~;
#X floatatom 234 279 5 0 0 0 - - - 12;
#X obj 234 228 loadbang;
#X msg 234 253 8;
#X connect 0 0 4 0;
#X connect 1 0 0 1;
#X connect 2 0 5 0;
#X connect 3 0 1 0;
#X connect 5 0 0 0;
#X connect 6 0 5 1;
#X connect 7 0 8 0;
#X connect 8 0 6 0;
#X restore 903 496 pd MOD1_fx3;
#X connect 0 0 7 0;
#X connect 0 0 8 0;
#X connect 0 0 10 0;
#X connect 0 0 9 0;
#X connect 2 0 35 1;
#X connect 2 0 36 1;
#X connect 2 0 37 1;
#X connect 2 0 3 0;
#X connect 3 0 4 0;
#X connect 4 0 5 0;
#X connect 5 0 6 0;
#X connect 6 0 7 1;
#X connect 7 0 1 0;
#X connect 8 0 35 0;
#X connect 9 0 36 0;
#X connect 10 0 37 0;
#X connect 11 0 19 0;
#X connect 11 0 20 0;
#X connect 11 0 22 0;
#X connect 11 1 18 0;
#X connect 11 1 21 0;
#X connect 11 1 22 0;
#X connect 11 2 18 0;
#X connect 11 2 20 0;
#X connect 11 2 23 0;
#X connect 12 0 8 1;
#X connect 13 0 12 0;
#X connect 14 0 9 1;
#X connect 15 0 14 0;
#X connect 16 0 10 1;
#X connect 17 0 16 0;
#X connect 18 0 13 0;
#X connect 19 0 13 0;
#X connect 20 0 15 0;
#X connect 21 0 15 0;
#X connect 22 0 17 0;
#X connect 23 0 17 0;
#X connect 25 0 29 0;
#X connect 26 0 29 0;
#X connect 29 0 28 0;
#X connect 30 0 2 0;
#X connect 31 0 33 0;
#X connect 32 0 34 0;
#X connect 34 0 11 0;
#X connect 35 0 1 0;
#X connect 35 0 24 0;
#X connect 36 0 1 0;
#X connect 36 1 24 0;
#X connect 37 0 1 0;
#X restore -27 776 pd MODULE1;
#N canvas 0 22 450 300 MODULE2 0;
#X obj 79 -39 inlet~;
#X obj 133 225 outlet~;
#X obj 217 225 outlet~;
#X obj 866 131 r pit_or;
#X obj 802 131 r roll_or;
#X obj 601 210 cnv 15 15 15 empty empty empty 20 12 0 14 #c6ffc7 #404040 0;
#X text 601 209 3) adjust the parameters for the chaotic synth, f 24;
#N canvas 733 172 450 300 flucoma 0;
#X msg 831 709 fit xydata paramsdata;
#X obj 677 391 vsl 19 162 0 1 0 0 empty empty empty 0 -9 0 12 #fcfcfc #000000 #000000 0 1;
#X obj 722 610 tabwrite xybuf;
#X obj 677 561 pack f 0;
#X obj 741 391 vsl 19 162 0 1 0 0 empty empty empty 0 -9 0 12 #fcfcfc #000000 #000000 0 1;
#X obj 741 561 pack f 1;
#X msg 1000 602 addpoint \$1 xybuf;
#X msg 1153 602 addpoint \$1 paramsbuf;
#X obj 1000 626 fluid.dataset xydata;
#X obj 999 562 f, f 7;
#X obj 999 538 bng 19 250 50 0 empty empty empty 0 -10 0 12 #fcfcfc #000000 #000000;
#X msg 1328 602 print;
#X msg 1378 602 clear;
#X obj 619 541 vradio 19 1 0 2 empty empty empty 0 -10 0 12 #fcfcfc #000000 #000000 0;
#X obj 618 876 array get paramsbuf;
#X obj 618 900 unpack f f f f f f f f f f, f 28;
#X text 501 540 selecting points;
#X text 494 559 predicting points;
#X obj 1153 626 fluid.dataset paramsdata;
#X msg 618 709 predictpoint xybuf paramsbuf;
#X obj 618 828 t b;
#X obj 618 800 route predictpoint fit;
#X msg 1081 884 \; pd dsp \$1;
#X obj 1081 857 tgl 19 0 empty empty empty 0 -10 0 12 #fcfcfc #000000 #000000 0 1;
#X obj 1104 860 cnv 15 15 15 empty empty empty 20 12 0 14 #c6ffc7 #404040 0;
#X text 1104 858 1) turn audio on;
#X obj 869 371 cnv 15 15 15 empty empty empty 20 12 0 14 #c6ffc7 #404040 0;
#X text 869 369 2) set a point on both sliders;
#X obj 1031 523 cnv 15 15 15 empty empty empty 20 12 0 14 #c6ffc7 #404040 0;
#X obj 990 711 cnv 15 15 15 empty empty empty 20 12 0 14 #c6ffc7 #404040 0;
#X obj 504 509 cnv 15 15 15 empty empty empty 20 12 0 14 #c6ffc7 #404040 0;
#X text 504 507 6) switch to predicting points, f 18;
#X obj 869 430 cnv 15 15 15 empty empty empty 20 12 0 14 #c6ffc7 #404040 0;
#X text 869 428 7) play around with the slider positions to morph between synth presets, f 22;
#X obj 1083 397 cnv 19 150 30 empty empty Regressor 19 15 0 20 #00faff #ffffff 0;
#X obj 1068 562 + 1;
#X text 1031 521 4) click to add the settings to the datasets. repeat steps 2 to 4 to add more data to the datasets, f 52;
#X text 990 709 5) click to teach mlpregressor \, repeat to get as close to zero error as possible (the fit is shown in the console window), f 39;
#X obj 693 828 list;
#X listbox 693 852 20 0 0 0 - - - 0;
#X text 840 851 error;
#X obj 618 734 fluid.mlpregressor mlp -hiddenlayers 5 -activation 1 -outputactivation 1 -batchsize 1 -maxiter 10000 -learnrate 0.1 -validation 0, f 42;
#X obj 619 652 spigot;
#X obj 677 585 t b l;
#X obj 619 959 outlet;
#X obj 641 959 outlet;
#X obj 662 959 outlet;
#X obj 683 959 outlet;
#X obj 704 959 outlet;
#X obj 725 959 outlet;
#X obj 746 959 outlet;
#X obj 768 959 outlet;
#X obj 790 959 outlet;
#X obj 811 959 outlet;
#X obj 648 1173 tabwrite paramsbuf;
#X obj 648 1194 array define paramsbuf 10;
#N canvas 353 378 783 300 packslider 0;
#X obj 6 55 pack f 0;
#X obj 70 55 pack f 1;
#X obj 133 55 pack f 2;
#X obj 197 55 pack f 3;
#X obj 262 55 pack f 4;
#X obj 324 54 pack f 5;
#X obj 388 54 pack f 6;
#X obj 451 54 pack f 7;
#X obj 515 54 pack f 8;
#X obj 6 102 outlet;
#X obj 7 27 inlet;
#X obj 263 27 inlet;
#X obj 133 29 inlet;
#X obj 196 27 inlet;
#X obj 580 54 pack f 9;
#X obj 70 28 inlet;
#X obj 322 24 inlet;
#X obj 578 24 inlet;
#X obj 448 26 inlet;
#X obj 511 24 inlet;
#X obj 385 25 inlet;
#X connect 0 0 9 0;
#X connect 1 0 9 0;
#X connect 2 0 9 0;
#X connect 3 0 9 0;
#X connect 4 0 9 0;
#X connect 5 0 9 0;
#X connect 6 0 9 0;
#X connect 7 0 9 0;
#X connect 8 0 9 0;
#X connect 10 0 0 0;
#X connect 11 0 4 0;
#X connect 12 0 2 0;
#X connect 13 0 3 0;
#X connect 14 0 9 0;
#X connect 15 0 1 0;
#X connect 16 0 5 0;
#X connect 17 0 14 0;
#X connect 18 0 7 0;
#X connect 19 0 8 0;
#X connect 20 0 6 0;
#X restore 648 1150 pd packslider;
#X f 18;
#X obj 627 1092 inlet;
#X obj 649 1092 inlet;
#X obj 670 1092 inlet;
#X obj 691 1092 inlet;
#X obj 712 1092 inlet;
#X obj 733 1092 inlet;
#X obj 754 1092 inlet;
#X obj 776 1092 inlet;
#X obj 798 1092 inlet;
#X obj 819 1092 inlet;
#X obj 339 329 inlet;
#X obj 401 329 inlet;
#X obj 987 480 inlet;
#X obj 1081 666 inlet;
#X obj 1139 299 inlet;
#X obj 873 876 outlet;
#X obj 722 631 array define xybuf 2;
#X obj 1404 358 inlet;
#X connect 0 0 41 0;
#X connect 1 0 3 0;
#X connect 3 0 43 0;
#X connect 4 0 5 0;
#X connect 5 0 43 0;
#X connect 6 0 8 0;
#X connect 7 0 18 0;
#X connect 9 0 6 0;
#X connect 9 0 35 0;
#X connect 9 0 7 0;
#X connect 10 0 9 0;
#X connect 11 0 8 0;
#X connect 11 0 18 0;
#X connect 12 0 8 0;
#X connect 12 0 18 0;
#X connect 13 0 42 1;
#X connect 14 0 15 0;
#X connect 15 0 44 0;
#X connect 15 1 45 0;
#X connect 15 2 46 0;
#X connect 15 3 47 0;
#X connect 15 4 48 0;
#X connect 15 5 49 0;
#X connect 15 6 50 0;
#X connect 15 7 51 0;
#X connect 15 8 52 0;
#X connect 15 9 53 0;
#X connect 19 0 41 0;
#X connect 20 0 14 0;
#X connect 21 0 20 0;
#X connect 21 1 38 0;
#X connect 23 0 22 0;
#X connect 35 0 9 1;
#X connect 38 0 39 0;
#X connect 39 0 72 0;
#X connect 41 0 21 0;
#X connect 42 0 19 0;
#X connect 43 0 42 0;
#X connect 43 1 2 0;
#X connect 56 0 54 0;
#X connect 57 0 56 0;
#X connect 58 0 56 1;
#X connect 59 0 56 2;
#X connect 60 0 56 3;
#X connect 61 0 56 4;
#X connect 62 0 56 5;
#X connect 63 0 56 6;
#X connect 64 0 56 7;
#X connect 65 0 56 8;
#X connect 66 0 56 9;
#X connect 67 0 1 0;
#X connect 68 0 4 0;
#X connect 69 0 10 0;
#X connect 70 0 0 0;
#X connect 71 0 13 0;
#X connect 74 0 12 0;
#X restore 805 445 pd flucoma;
#X obj 1350 399 vradio 19 1 0 2 empty empty empty 0 -10 0 12 #fcfcfc #000000 #000000 0;
#X obj 1106 280 bng 25 250 50 0 empty empty empty 0 -10 0 10 #ffffff #000000 #000000;
#X obj 1025 230 bng 25 250 50 0 empty empty empty 0 -10 0 10 #ffffff #000000 #000000;
#X obj 1059 230 cnv 15 15 15 empty empty empty 20 12 0 14 #c6ffc7 #404040 0;
#X text 1059 228 4) click to add the settings to the datasets. repeat steps 2 to 4 to add more data to the datasets, f 52;
#X obj 1153 280 cnv 15 15 15 empty empty empty 20 12 0 14 #c6ffc7 #404040 0;
#X text 1153 278 5) click to teach mlpregressor \, repeat to get as close to zero error as possible (the fit is shown in the console window), f 39;
#X text 1237 398 selecting points;
#X text 1237 418 predicting points;
#X obj 1379 399 cnv 15 15 15 empty empty empty 20 12 0 14 #c6ffc7 #404040 0;
#X text 1379 398 6) switch to predicting points, f 18;
#X obj 866 182 cnv 15 15 15 empty empty empty 20 12 0 14 #c6ffc7 #404040 0;
#X text 866 178 2) set a point on both sliders;
#X obj 802 181 vsl 19 162 0 1 0 0 empty empty empty 0 -9 0 12 #96ff96 #000000 #000000 0 1;
#X obj 840 181 vsl 19 162 0 1 0 0 empty empty empty 0 -9 0 12 #96ff96 #000000 #000000 0 1;
#X floatatom 1217 331 9 0 0 0 - - - 16;
#X text 1313 330 error;
#X msg 802 70 \; pd dsp \$1;
#X obj 802 43 tgl 19 0 empty empty empty 0 -10 0 12 #fcfcfc #000000 #000000 0 1;
#X obj 825 46 cnv 15 15 15 empty empty empty 20 12 0 14 #c6ffc7 #404040 0;
#X text 825 44 1) turn audio on;
#X obj 601 294 hradio 15 1 0 8 empty \$0-radio Load\ preset 0 -8 0 10 #aaaaaa #000000 #000000 0;
#N canvas 733 172 450 300 presets 0;
#N canvas 356 221 568 423 shift 0;
#X msg 137 214 save;
#X msg 218 214 load;
#X obj 106 264 else/insert;
#X obj 218 293 s \$0-radio;
#X obj 175 95 keyname;
#X obj 214 117 select Shift_L;
#X msg 214 139 1;
#X msg 295 138 0;
#X obj 199 166 &&;
#X obj 199 188 sel 1 0;
#X obj 106 35 inlet;
#X obj 106 344 outlet;
#X msg 218 242 color #aaaaaa #000000 #000000 \, label Load\ preset;
#X msg 227 270 color #ff5050 #000000 #000000 \, label Save\ preset;
#X connect 0 0 2 1;
#X connect 0 0 13 0;
#X connect 1 0 2 1;
#X connect 1 0 12 0;
#X connect 2 0 11 0;
#X connect 4 0 8 0;
#X connect 4 1 5 0;
#X connect 5 0 6 0;
#X connect 5 1 7 0;
#X connect 6 0 8 1;
#X connect 7 0 8 1;
#X connect 8 0 9 0;
#X connect 9 0 0 0;
#X connect 9 1 1 0;
#X connect 10 0 2 0;
#X connect 12 0 3 0;
#X connect 13 0 3 0;
#X restore -52 572 pd shift;
#X obj -52 611 else/display;
#X msg -97 614 show;
#X obj -52 544 inlet;
#X obj -52 649 else/presets \\\$0-MOD2_1 \\\$0-MOD2_2 \\\$0-MOD2_3 \\\$0-MOD2_4 \\\$0-MOD2_5 \\\$0-MOD2_6 \\\$0-MOD2_7 \\\$0-MOD2_8 \\\$0-MOD2_9 \\\$0-MOD2_10\\\$0-MOD2_11 \\\$0-MOD2_12 \\\$0-MOD2_13 \\\$0-MOD2_14 \\\$0-MOD2_15 \\\$0-MOD2_16 \\\$0-MOD2_17 \\\$0-MOD2_18 \\\$0-MOD2_19 \\\$0-MOD2_20;
#A saved -empty- \; -empty- \; -empty- \; -empty- \; -empty- \; -empty- \; -empty- \; -empty- \; -empty- \; -empty- \; -empty- \; -empty- \; -empty- \; -empty- \; -empty- \; -empty- \; -empty- \; -empty- \; -empty- \; -empty- \; -empty- \; -empty- \; -empty- \; -empty- \; -empty- \; -empty- \; -empty- \; -empty- \; -empty- \; -empty- \; -empty- \; -empty- \; -empty- \; -empty- \; -empty- \; -empty- \; -empty- \; -empty- \; -empty- \; -empty- \; -empty- \; -empty- \; -empty- \; -empty- \; -empty- \; -empty- \; -empty- \; -empty- \; -empty- \; -empty- \; -empty- \; -empty- \; -empty- \; -empty- \; -empty- \; -empty- \; -empty- \; -empty- \; -empty- \; -empty- \; -empty- \; -empty- \; -empty- \; -empty- \;;
#X connect 0 0 1 0;
#X connect 1 0 4 0;
#X connect 2 0 4 0;
#X connect 3 0 0 0;
#X restore 601 323 pd presets;
#X text 597 257 press shift to save presets;
#X floatatom 601 6 5 0 0 0 - - - 12;
#X obj 746 3 bng 25 250 50 0 empty empty empty 0 -10 0 10 #ffffff #000000 #000000;
#X obj 759 -71 loadbang;
#X text 759 -93 reset counter;
#X obj 1599 259 loadbang;
#X msg 1599 285 0;
#X text 1599 236 set selecting points;
#X obj 746 -118 sel 0;
#X obj 1330 79 tgl 25 0 empty empty empty 0 -10 0 10 #ffffff #000000 #000000 0 1;
#X obj 1353 9 loadbang;
#X msg 1353 35 0;
#X obj 133 91 *~;
#X obj 226 88 *~;
#X obj 317 88 *~;
#X obj 130 -125 sel 0 1 2;
#X obj 160 32 line;
#X msg 160 1 \$1 1000;
#X obj 253 28 line;
#X msg 253 -3 \$1 1000;
#X obj 351 28 line;
#X msg 351 -3 \$1 1000;
#X msg 160 -39 0;
#X msg 193 -39 1;
#X msg 253 -39 0;
#X msg 286 -39 1;
#X msg 351 -39 0;
#X msg 384 -39 1;
#X obj 1359 548 hsl 128 17 0 1 0 0 empty empty empty -2 -8 0 10 #96ffff #000000 #000000 0 1;
#X obj 1359 586 hsl 128 17 0 1 0 0 empty empty empty -2 -8 0 10 #96ffff #000000 #000000 0 1;
#X obj 1359 624 hsl 128 17 0 1 0 0 empty empty empty -2 -8 0 10 #96ffff #000000 #000000 0 1;
#X obj 1359 662 hsl 128 17 0 1 0 0 empty empty empty -2 -8 0 10 #96ffff #000000 #000000 0 1;
#X obj 1359 700 hsl 128 17 0 1 0 0 empty empty empty -2 -8 0 10 #96ffff #000000 #000000 0 1;
#X obj 1359 738 hsl 128 17 0 1 0 0 empty empty empty -2 -8 0 10 #96ffff #000000 #000000 0 1;
#X obj 1359 776 hsl 128 17 0 1 0 0 empty empty empty -2 -8 0 10 #96ffff #000000 #000000 0 1;
#X obj 1359 814 hsl 128 17 0 1 0 0 empty empty empty -2 -8 0 10 #96ffff #000000 #000000 0 1;
#X obj 1359 852 hsl 128 17 0 1 0 0 empty empty empty -2 -8 0 10 #96ffff #000000 #000000 0 1;
#X obj 1076 1006 hsl 128 17 0 1 0 0 empty empty empty -2 -8 0 10 #96ffff #000000 #000000 0 1;
#X msg 1086 760 0;
#X msg 1124 760 0.5;
#X msg 1172 760 1;
#X obj 1350 444 sel 0;
#X obj -274 -166 loadbang;
#X obj -197 -166 bng 25 250 50 0 empty empty empty 0 -10 0 10 #ffffff #000000 #000000;
#X text -274 -211 set the amount of fxs of MODULE2 \; (send a bang after editing the value);
#N canvas 733 172 450 300 MOD2_fx1 0;
#X floatatom 219 833 8 1 10000 0 - - - 0;
#X obj 135 914 else/crusher~;
#X obj 219 859 else/f2s~;
#X obj 133 671 inlet~;
#X obj 135 1221 outlet~;
#X obj 233 1221 outlet~;
#X obj 340 798 r MOD1_fx1_1;
#X connect 0 0 2 0;
#X connect 1 0 4 0;
#X connect 1 0 5 0;
#X connect 2 0 1 2;
#X connect 3 0 1 0;
#X connect 6 0 0 0;
#X restore 133 147 pd MOD2_fx1;
#N canvas 733 172 450 300 MOD2_fx2 0;
#X obj 339 449 inlet~;
#X obj 427 1559 outlet~;
#X obj 529 1559 outlet~;
#X obj 426 1386 delay~;
#X floatatom 471 1327 5 0 0 0 - - - 12;
#X obj 630 965 pitch.shift~;
#X floatatom 656 907 5 0 0 0 - - - 12;
#X floatatom 682 854 5 0 0 0 - - - 12;
#X obj 715 965 pitch.shift~;
#X obj 865 965 pitch.shift~;
#X floatatom 891 907 5 0 0 0 - - - 12;
#X floatatom 917 854 5 0 0 0 - - - 12;
#X obj 950 965 pitch.shift~;
#X obj 383 965 pitch.shift~;
#X floatatom 409 907 5 0 0 0 - - - 12;
#X floatatom 435 854 5 0 0 0 - - - 12;
#X obj 468 965 pitch.shift~;
#X obj 630 1249 *~ 0.8;
#X obj 715 1249 *~ 0.8;
#X obj 865 1249 *~ 0.6;
#X obj 950 1249 *~ 0.6;
#X obj 383 1249 *~ 0.8;
#X obj 468 1249 *~ 0.8;
#X floatatom 406 1198 5 0 1 0 - - - 12;
#X floatatom 491 1198 5 0 1 0 - - - 12;
#X floatatom 653 1198 5 0 1 0 - - - 12;
#X floatatom 738 1198 5 0 1 0 - - - 12;
#X floatatom 888 1198 5 0 1 0 - - - 12;
#X floatatom 973 1198 5 0 1 0 - - - 12;
#X obj 404 1097 loadbang;
#X msg 406 1145 1;
#X msg 653 1135 0.8;
#X msg 888 1135 0.6;
#X obj 809 579 loadbang;
#X msg 409 783 -2400;
#X msg 656 776 1200;
#X msg 891 776 2400;
#X msg 951 774 9;
#X msg 709 777 75;
#X msg 478 783 75;
#X obj 520 907 + 1000;
#X obj 767 907 + 2000;
#X obj 1002 907 + 4000;
#X obj 227 887 scale 0 1 0 1000;
#X obj 263 856 scale 0 1 0 2000;
#X obj 299 815 scale 0 1 0 4000;
#X floatatom 1069 841 5 0 0 0 - - - 12;
#X msg 1082 805 2;
#X msg 1120 798 3000;
#X obj 209 1269 scale 0 1 0 1000;
#X obj 29 759 r MOD1_fx2_1;
#X obj 49 829 r MOD1_fx2_2;
#X obj 79 1169 r MOD1_fx2_3;
#X connect 0 0 13 0;
#X connect 0 0 16 0;
#X connect 0 0 12 0;
#X connect 0 0 9 0;
#X connect 0 0 8 0;
#X connect 0 0 5 0;
#X connect 3 0 1 0;
#X connect 4 0 3 1;
#X connect 5 0 17 0;
#X connect 6 0 8 1;
#X connect 6 0 5 1;
#X connect 7 0 41 0;
#X connect 7 0 5 2;
#X connect 8 0 18 0;
#X connect 9 0 19 0;
#X connect 10 0 12 1;
#X connect 10 0 9 1;
#X connect 11 0 42 0;
#X connect 11 0 9 2;
#X connect 12 0 20 0;
#X connect 13 0 21 0;
#X connect 14 0 13 1;
#X connect 14 0 16 1;
#X connect 15 0 40 0;
#X connect 15 0 13 2;
#X connect 16 0 22 0;
#X connect 17 0 3 0;
#X connect 18 0 2 0;
#X connect 19 0 3 0;
#X connect 20 0 2 0;
#X connect 21 0 3 0;
#X connect 22 0 2 0;
#X connect 23 0 21 1;
#X connect 24 0 22 1;
#X connect 25 0 17 1;
#X connect 26 0 18 1;
#X connect 27 0 19 1;
#X connect 28 0 20 1;
#X connect 29 0 30 0;
#X connect 29 0 31 0;
#X connect 29 0 32 0;
#X connect 30 0 24 0;
#X connect 30 0 23 0;
#X connect 31 0 26 0;
#X connect 31 0 25 0;
#X connect 32 0 28 0;
#X connect 32 0 27 0;
#X connect 33 0 35 0;
#X connect 33 0 36 0;
#X connect 33 0 34 0;
#X connect 33 0 38 0;
#X connect 33 0 37 0;
#X connect 33 0 39 0;
#X connect 33 0 47 0;
#X connect 34 0 14 0;
#X connect 35 0 6 0;
#X connect 36 0 10 0;
#X connect 37 0 11 0;
#X connect 38 0 7 0;
#X connect 39 0 15 0;
#X connect 40 0 16 2;
#X connect 41 0 8 2;
#X connect 42 0 12 2;
#X connect 43 0 15 0;
#X connect 44 0 7 0;
#X connect 45 0 11 0;
#X connect 46 0 42 1;
#X connect 46 0 41 1;
#X connect 46 0 40 1;
#X connect 47 0 42 1;
#X connect 47 0 41 1;
#X connect 47 0 40 1;
#X connect 48 0 42 1;
#X connect 48 0 41 1;
#X connect 48 0 40 1;
#X connect 49 0 4 0;
#X connect 50 0 45 0;
#X connect 50 0 44 0;
#X connect 51 0 43 0;
#X connect 52 0 49 0;
#X restore 286 149 pd MOD2_fx2;
#N canvas 733 172 450 300 MOD2_fx3 0;
#X obj 133 671 inlet~;
#X obj 135 1221 outlet~;
#X obj 233 1221 outlet~;
#X obj 133 787 lowpass~;
#X obj 133 901 highpass~;
#X obj 133 994 overdrive~;
#X obj 133 1084 pan2~;
#X floatatom 219 968 7 -10 10 0 - - - 0;
#X obj 219 1019 line~;
#X msg 219 994 \$1 20;
#X obj 349 1039 scale 0 1 -0.7 0.7;
#X obj 249 850 scale 0 1 0 15000;
#X obj 249 689 scale 0 1 20000 5000;
#X obj 219 942 scale 0 1 1 10;
#X obj 249 620 r MOD1_fx3_1;
#X obj 249 799 r MOD1_fx3_2;
#X obj 349 892 r MOD1_fx3_3;
#X connect 0 0 3 0;
#X connect 3 0 4 0;
#X connect 4 0 5 0;
#X connect 5 0 6 0;
#X connect 6 0 1 0;
#X connect 6 1 2 0;
#X connect 7 0 9 0;
#X connect 8 0 5 1;
#X connect 9 0 8 0;
#X connect 10 0 6 1;
#X connect 11 0 4 1;
#X connect 12 0 3 1;
#X connect 13 0 7 0;
#X connect 14 0 12 0;
#X connect 15 0 11 0;
#X connect 16 0 13 0;
#X connect 16 0 10 0;
#X restore 431 149 pd MOD2_fx3;
#X msg -274 -129 3;
#X floatatom 14 -163 5 0 0 2 choose - - 12;
#X floatatom 130 -163 5 0 0 2 select - - 12;
#X obj 14 -210 r MOD2_choo;
#X obj 130 -210 r MOD2_sel;
#X obj 567 70 s MOD2_param_count;
#X obj 601 -20 counter -1 30;
#X obj 1330 -210 r MOD2_sel_pred;
#X obj 601 -210 r MOD2_next_param;
#X obj 1025 -210 r MOD2_add_data;
#X obj 1153 -210 r MOD2_learn;
#X obj -274 -93 s limit_MOD2;
#X obj 453 509 r \$0-MOD2_1;
#X obj 553 509 r \$0-MOD2_2;
#X obj 658 509 r \$0-MOD2_3;
#X obj 762 509 r \$0-MOD2_4;
#X obj 867 509 r \$0-MOD2_5;
#X obj 970 509 r \$0-MOD2_6;
#X obj 1075 509 r \$0-MOD2_7;
#X obj 1178 509 r \$0-MOD2_8;
#X obj 1283 509 r \$0-MOD2_9;
#X obj 1388 509 r \$0-MOD2_10;
#X obj 1520 545 s MOD2_fx1_1;
#X obj 1520 583 s MOD2_fx1_2;
#X obj 1520 621 s MOD2_fx1_3;
#X obj 1520 659 s MOD2_fx2_1;
#X obj 1520 697 s MOD2_fx2_2;
#X obj 1520 735 s MOD2_fx2_3;
#X obj 1520 773 s MOD2_fx3_1;
#X obj 1520 811 s MOD2_fx3_2;
#X obj 1520 849 s MOD2_fx3_3;
#X obj 601 -71 bng 25 250 50 0 empty empty empty 0 -10 0 10 #ffffff #000000 #000000;
#X obj 1217 364 s MOD2_error;
#X connect 0 0 43 0;
#X connect 0 0 45 0;
#X connect 0 0 44 0;
#X connect 3 0 22 0;
#X connect 4 0 21 0;
#X connect 7 0 59 0;
#X connect 7 1 60 0;
#X connect 7 2 61 0;
#X connect 7 3 62 0;
#X connect 7 4 63 0;
#X connect 7 5 64 0;
#X connect 7 6 65 0;
#X connect 7 7 66 0;
#X connect 7 8 67 0;
#X connect 7 9 68 0;
#X connect 7 10 23 0;
#X connect 8 0 7 14;
#X connect 8 0 39 0;
#X connect 8 0 72 0;
#X connect 9 0 7 13;
#X connect 10 0 7 12;
#X connect 21 0 7 0;
#X connect 22 0 7 1;
#X connect 23 0 111 0;
#X connect 26 0 25 0;
#X connect 29 0 30 0;
#X connect 32 0 29 0;
#X connect 32 0 84 0;
#X connect 33 0 85 3;
#X connect 34 0 33 0;
#X connect 36 0 37 0;
#X connect 37 0 8 0;
#X connect 39 0 33 0;
#X connect 40 0 8 0;
#X connect 41 0 42 0;
#X connect 42 0 40 0;
#X connect 43 0 76 0;
#X connect 44 0 77 0;
#X connect 45 0 78 0;
#X connect 46 0 54 0;
#X connect 46 0 55 0;
#X connect 46 0 57 0;
#X connect 46 0 43 0;
#X connect 46 1 53 0;
#X connect 46 1 56 0;
#X connect 46 1 57 0;
#X connect 46 2 53 0;
#X connect 46 2 55 0;
#X connect 46 2 58 0;
#X connect 47 0 43 1;
#X connect 48 0 47 0;
#X connect 49 0 44 1;
#X connect 50 0 49 0;
#X connect 51 0 45 1;
#X connect 52 0 51 0;
#X connect 53 0 48 0;
#X connect 54 0 48 0;
#X connect 55 0 50 0;
#X connect 56 0 50 0;
#X connect 57 0 52 0;
#X connect 58 0 52 0;
#X connect 59 0 7 2;
#X connect 59 0 101 0;
#X connect 60 0 7 3;
#X connect 60 0 102 0;
#X connect 61 0 7 4;
#X connect 61 0 103 0;
#X connect 62 0 7 5;
#X connect 62 0 104 0;
#X connect 63 0 7 6;
#X connect 63 0 105 0;
#X connect 64 0 7 7;
#X connect 64 0 106 0;
#X connect 65 0 7 8;
#X connect 65 0 107 0;
#X connect 66 0 7 9;
#X connect 66 0 108 0;
#X connect 67 0 7 10;
#X connect 67 0 109 0;
#X connect 68 0 7 11;
#X connect 69 0 59 0;
#X connect 69 0 67 0;
#X connect 69 0 66 0;
#X connect 69 0 65 0;
#X connect 69 0 64 0;
#X connect 69 0 63 0;
#X connect 69 0 62 0;
#X connect 69 0 61 0;
#X connect 69 0 60 0;
#X connect 69 0 68 0;
#X connect 70 0 59 0;
#X connect 70 0 67 0;
#X connect 70 0 66 0;
#X connect 70 0 65 0;
#X connect 70 0 64 0;
#X connect 70 0 63 0;
#X connect 70 0 62 0;
#X connect 70 0 61 0;
#X connect 70 0 60 0;
#X connect 70 0 68 0;
#X connect 71 0 59 0;
#X connect 71 0 67 0;
#X connect 71 0 66 0;
#X connect 71 0 65 0;
#X connect 71 0 64 0;
#X connect 71 0 63 0;
#X connect 71 0 62 0;
#X connect 71 0 61 0;
#X connect 71 0 60 0;
#X connect 71 0 68 0;
#X connect 72 0 7 15;
#X connect 73 0 79 0;
#X connect 74 0 79 0;
#X connect 76 0 1 0;
#X connect 76 1 2 0;
#X connect 77 0 1 0;
#X connect 77 1 2 0;
#X connect 78 0 1 0;
#X connect 78 1 2 0;
#X connect 79 0 90 0;
#X connect 81 0 46 0;
#X connect 82 0 80 0;
#X connect 83 0 81 0;
#X connect 85 0 32 0;
#X connect 86 0 40 0;
#X connect 87 0 110 0;
#X connect 88 0 10 0;
#X connect 89 0 9 0;
#X connect 91 0 59 0;
#X connect 92 0 60 0;
#X connect 93 0 61 0;
#X connect 94 0 62 0;
#X connect 95 0 63 0;
#X connect 96 0 64 0;
#X connect 97 0 65 0;
#X connect 98 0 66 0;
#X connect 99 0 67 0;
#X connect 100 0 68 0;
#X connect 110 0 85 0;
#X restore -27 819 pd MODULE2;
#X obj 686 611 - 1;
#X obj 686 641 - 1;
#X obj 686 671 - 1;
#X floatatom -579 196 5 0 0 2 choose - - 12;
#X floatatom -579 243 5 0 0 2 select - - 12;
#X text -629 133 MODULE1;
#X text -367 133 MODULE2;
#X text -71 133 MODULE3;
#X floatatom -319 196 5 0 0 2 choose - - 12;
#X floatatom -319 243 5 0 0 2 select - - 12;
#X floatatom -29 196 5 0 0 2 choose - - 12;
#X floatatom -29 243 5 0 0 2 select - - 12;
#X obj 713 1193 s MOD1_sel;
#X obj 865 1193 s MOD2_sel;
#X obj 1033 1193 s MOD3_sel;
#X obj 865 1106 i;
#X obj 892 1067 r MOD2_choo;
#X obj 1033 1106 i;
#X obj 1060 1067 r MOD3_choo;
#X obj 713 1106 i;
#X obj 740 1067 r MOD1_choo;
#X obj 1317 319 s fluc_sel_pred;
#X obj -466 316 r MOD2_sel_pred;
#X obj -174 317 r MOD3_sel_pred;
#X text 719 -247 up;
#X text 701 -224 down;
#X text 701 -199 press;
#X text 641 -116 button;
#X text 649 -224 knob;
#X text 752 -272 1;
#X text 827 -272 2;
#X text 902 -272 3;
#X text 978 -272 4;
#X text 750 -140 1;
#X text 825 -140 2;
#X text 900 -140 3;
#X text 976 -140 4;
#N canvas 0 22 450 300 keyboard_input 0;
#X obj 641 334 inlet;
#X obj 602 372 key;
#X floatatom 602 398 5 0 0 0 - - - 12;
#X obj 602 423 spigot;
#X obj 602 479 outlet;
#X obj 626 509 outlet;
#X obj 650 479 outlet;
#X obj 674 509 outlet;
#X obj 699 479 outlet;
#X obj 723 509 outlet;
#X obj 747 479 outlet;
#X obj 772 509 outlet;
#X obj 796 479 outlet;
#X obj 820 509 outlet;
#X obj 844 479 outlet;
#X obj 869 509 outlet;
#X obj 602 453 sel 105 107 109 111 108 44 112 246 46 252 228 45 49 50 51 52;
#X obj 894 479 outlet;
#X obj 918 509 outlet;
#X obj 942 479 outlet;
#X obj 967 509 outlet;
#X connect 0 0 3 1;
#X connect 1 0 2 0;
#X connect 2 0 3 0;
#X connect 3 0 16 0;
#X connect 16 0 4 0;
#X connect 16 1 5 0;
#X connect 16 2 6 0;
#X connect 16 3 7 0;
#X connect 16 4 8 0;
#X connect 16 5 9 0;
#X connect 16 6 10 0;
#X connect 16 7 11 0;
#X connect 16 8 12 0;
#X connect 16 9 13 0;
#X connect 16 10 14 0;
#X connect 16 11 15 0;
#X connect 16 12 17 0;
#X connect 16 13 18 0;
#X connect 16 14 19 0;
#X connect 16 15 20 0;
#X restore 739 -454 pd keyboard_input;
#X obj 739 -491 tgl 25 0 empty empty on\ /\ off 0 -10 0 10 #ffffff #000000 #000000 0 1;
#X obj -174 371 r MOD3_param_count;
#X obj -174 419 r MOD3_add_data;
#X obj -174 467 r MOD3_learn;
#X obj -174 515 r MOD3_error;
#N canvas 0 22 450 300 MODULE3 0;
#X obj 79 -39 inlet~;
#X obj 133 225 outlet~;
#X obj 217 225 outlet~;
#X obj 866 131 r pit_or;
#X obj 802 131 r roll_or;
#X obj 601 210 cnv 15 15 15 empty empty empty 20 12 0 14 #c6ffc7 #404040 0;
#X text 601 209 3) adjust the parameters for the chaotic synth, f 24;
#X obj 1350 399 vradio 19 1 0 2 empty empty empty 0 -10 0 12 #fcfcfc #000000 #000000 0;
#X obj 1106 280 bng 25 250 50 0 empty empty empty 0 -10 0 10 #ffffff #000000 #000000;
#X obj 1025 230 bng 25 250 50 0 empty empty empty 0 -10 0 10 #ffffff #000000 #000000;
#X obj 1059 230 cnv 15 15 15 empty empty empty 20 12 0 14 #c6ffc7 #404040 0;
#X text 1059 228 4) click to add the settings to the datasets. repeat steps 2 to 4 to add more data to the datasets, f 52;
#X obj 1153 280 cnv 15 15 15 empty empty empty 20 12 0 14 #c6ffc7 #404040 0;
#X text 1153 278 5) click to teach mlpregressor \, repeat to get as close to zero error as possible (the fit is shown in the console window), f 39;
#X text 1237 398 selecting points;
#X text 1237 418 predicting points;
#X obj 1379 399 cnv 15 15 15 empty empty empty 20 12 0 14 #c6ffc7 #404040 0;
#X text 1379 398 6) switch to predicting points, f 18;
#X obj 866 182 cnv 15 15 15 empty empty empty 20 12 0 14 #c6ffc7 #404040 0;
#X text 866 178 2) set a point on both sliders;
#X obj 802 183 vsl 19 162 0 1 0 0 empty empty empty 0 -9 0 12 #96ff96 #000000 #000000 0 1;
#X obj 840 181 vsl 19 162 0 1 0 0 empty empty empty 0 -9 0 12 #96ff96 #000000 #000000 0 1;
#X floatatom 1217 331 9 0 0 0 - - - 16;
#X text 1313 330 error;
#X msg 802 70 \; pd dsp \$1;
#X obj 802 43 tgl 19 0 empty empty empty 0 -10 0 12 #fcfcfc #000000 #000000 0 1;
#X obj 825 46 cnv 15 15 15 empty empty empty 20 12 0 14 #c6ffc7 #404040 0;
#X text 825 44 1) turn audio on;
#X text 597 257 press shift to save presets;
#X floatatom 601 6 5 0 0 0 - - - 12;
#X obj 746 3 bng 25 250 50 0 empty empty empty 0 -10 0 10 #ffffff #000000 #000000;
#X obj 759 -71 loadbang;
#X text 759 -93 reset counter;
#X obj 1599 259 loadbang;
#X msg 1599 285 0;
#X text 1599 236 set selecting points;
#X obj 746 -118 sel 0;
#X obj 1330 79 tgl 25 0 empty empty empty 0 -10 0 10 #ffffff #000000 #000000 0 1;
#X obj 1353 9 loadbang;
#X msg 1353 35 0;
#X obj 133 91 *~;
#X obj 226 88 *~;
#X obj 317 88 *~;
#X obj 130 -125 sel 0 1 2;
#X obj 160 32 line;
#X msg 160 1 \$1 1000;
#X obj 253 28 line;
#X msg 253 -3 \$1 1000;
#X obj 351 28 line;
#X msg 351 -3 \$1 1000;
#X msg 160 -39 0;
#X msg 193 -39 1;
#X msg 253 -39 0;
#X msg 286 -39 1;
#X msg 351 -39 0;
#X msg 384 -39 1;
#X obj 1359 548 hsl 128 17 0 1 0 0 empty empty empty -2 -8 0 10 #96ffff #000000 #000000 0 1;
#X obj 1362 586 hsl 128 17 0 1 0 0 empty empty empty -2 -8 0 10 #96ffff #000000 #000000 0 1;
#X obj 1359 624 hsl 128 17 0 1 0 0 empty empty empty -2 -8 0 10 #96ffff #000000 #000000 0 1;
#X obj 1359 662 hsl 128 17 0 1 0 0 empty empty empty -2 -8 0 10 #96ffff #000000 #000000 0 1;
#X obj 1359 700 hsl 128 17 0 1 0 0 empty empty empty -2 -8 0 10 #96ffff #000000 #000000 0 1;
#X obj 1359 738 hsl 128 17 0 1 0 0 empty empty empty -2 -8 0 10 #96ffff #000000 #000000 0 1;
#X obj 1359 776 hsl 128 17 0 1 0 0 empty empty empty -2 -8 0 10 #96ffff #000000 #000000 0 1;
#X obj 1359 814 hsl 128 17 0 1 0 0 empty empty empty -2 -8 0 10 #96ffff #000000 #000000 0 1;
#X obj 1359 849 hsl 128 17 0 1 0 0 empty empty empty -2 -8 0 10 #96ffff #000000 #000000 0 1;
#X obj 1359 883 hsl 128 17 0 1 0 0 empty empty empty -2 -8 0 10 #96ffff #000000 #000000 0 1;
#X msg 981 624 0;
#X msg 1019 624 0.5;
#X msg 1067 624 1;
#X obj 1350 444 sel 0;
#X obj -274 -166 loadbang;
#X obj -197 -166 bng 25 250 50 0 empty empty empty 0 -10 0 10 #ffffff #000000 #000000;
#X msg -274 -129 3;
#X floatatom 14 -163 5 0 0 2 choose - - 12;
#X floatatom 130 -163 5 0 0 2 select - - 12;
#X obj 601 -20 counter -1 30;
#X text -274 -211 set the amount of fxs of MODULE3 \; (send a bang after editing the value);
#X obj -274 -93 s limit_MOD3;
#X obj 14 -210 r MOD3_choo;
#X obj 130 -210 r MOD3_sel;
#N canvas 733 172 450 300 MOD3_fx1 0;
#X obj 197 -132 inlet~;
#X obj 666 1912 outlet~;
#X obj 697 1888 outlet~;
#X obj 1059 50 soundfiler;
#N canvas 0 0 450 250 (subpatch) 0;
#X array sound 5.62605e+06 float 0;
#X coords 0 1 5.62605e+06 -1 200 140 1;
#X restore 1399 -70 graph;
#X msg 969 -111 read -resize smp/lux_s8_RAVENBUSH_PERC_LOOP.wav sound;
#X msg 1059 -59 read -resize smp/test.aif sound;
#X obj 699 40 tabwrite~ sound;
#X obj 699 -43 bng 25 250 50 0 empty empty empty 0 -10 0 10 #ffffff #000000 #000000;
#X obj 574 -66 tgl 25 0 empty empty empty 0 -10 0 10 #ffffff #000000 #000000 0 1;
#X obj 574 -25 osc~ 440;
#X msg 539 80 \; sound normalize;
#X text 729 -44 record;
#X text 682 -118 RECORD SOUND;
#X msg 735 -17 stop;
#X obj 1418 317 hsl 128 17 0 1 0 0 empty empty empty -2 -8 0 10 #96ffff #000000 #000000 0 1;
#X obj 1418 410 hsl 128 17 0 1 0 0 empty empty empty -2 -8 0 10 #96ffff #000000 #000000 0 1;
#X obj 1418 503 hsl 128 17 0 1 0 0 empty empty empty -2 -8 0 10 #96ffff #000000 #000000 0 1;
#X obj 1418 596 hsl 128 17 0 1 0 0 empty empty empty -2 -8 0 10 #96ffff #000000 #000000 0 1;
#X obj 1418 689 hsl 128 17 0 1 0 0 empty empty empty -2 -8 0 10 #96ffff #000000 #000000 0 1;
#X obj 1418 225 hsl 128 17 0 1 0 0 empty empty empty -2 -8 0 10 #96ffff #000000 #000000 0 1;
#X obj 1415 343 scale 0 1 10 1000;
#X obj 974 195 expr~ $v1 - 1.0/3 * pow($v1 \, 3);
#X obj 567 498 tabplay~ sound;
#X obj 567 423 bng 25 250 50 0 empty empty empty 0 -10 0 10 #ffffff #000000 #000000;
#X obj 567 593 *~;
#X obj 949 1289 *~;
#X obj 697 523 hsl 128 17 0 2 0 0 empty empty Gain -2 -8 0 10 #ffffff #000000 #000000 0 1;
#X obj 697 727 hsl 128 17 10 1000 1 0 empty empty Delay\ Time -2 -8 0 10 #ffffff #000000 #000000 0 1;
#X obj 722 840 hsl 128 17 0 2 0 0 empty empty Feedback\ Level -2 -8 0 10 #ffffff #000000 #000000 0 1;
#X obj 975 1238 hsl 128 17 0 1 0 0 empty empty Volume -2 -8 0 10 #ffffff #000000 #000000 0 1;
#X obj 666 911 *~;
#X floatatom 694 753 5 0 0 0 - - - 12;
#X floatatom 719 871 5 0 0 0 - - - 16;
#X floatatom 972 1262 5 0 0 0 - - - 12;
#X floatatom 694 547 5 0 0 0 - - - 12;
#X obj 1045 1477 hip~ 40;
#X obj 1231 1477 hip~ 40;
#X obj 1045 1371 pan2~;
#X obj 1088 1289 hsl 128 17 -1 1 0 0 empty empty empty -2 -8 0 10 #ffffff #000000 #000000 0 1;
#X obj 1085 1341 f2s~;
#X obj 666 679 delwrite~ \$0-buffer_1 1000;
#X obj 694 778 delread~ \$0-buffer_1 10;
#X obj 949 986 lop~;
#X obj 949 1105 hip~;
#X obj 981 914 hsl 128 17 0 20000 0 0 empty empty Frequency -2 -8 0 10 #ffffff #000000 #000000 0 1;
#X floatatom 978 940 5 0 0 0 - - - 12;
#X obj 982 1035 hsl 128 17 0 20000 0 0 empty empty Frequency -2 -8 0 10 #ffffff #000000 #000000 0 1;
#X floatatom 976 1059 5 0 0 0 - - - 12;
#X msg 1031 940 20000;
#X msg 1031 1059 0;
#X obj 729 1321 delay~ 50;
#X obj 1045 1416 *~ 0.5;
#X obj 1231 1416 *~ 0.5;
#X obj 729 1358 *~ 0.5;
#X obj 665 1358 *~ 0.5;
#X obj 665 1206 freq.shift~ -400;
#X floatatom 761 1178 5 0 0 0 - - - 12;
#X floatatom 790 1288 5 0 0 0 - - - 12;
#X obj 666 1125 *~;
#X obj 696 1057 hsl 128 17 0 1 0 0 empty empty Volume -2 -8 0 10 #ffffff #000000 #000000 0 1;
#X floatatom 693 1090 5 0 0 0 - - - 16;
#X obj 793 1260 hsl 128 17 0 200 0 0 empty empty Miliseconds -2 -8 0 10 #ffffff #000000 #000000 0 1;
#X obj 764 1151 hsl 128 17 0 400 0 0 empty empty Freq\ Shift -2 -8 0 10 #ffffff #000000 #000000 0 1;
#X obj 949 1181 freq.shift~ -400;
#X floatatom 1045 1153 5 0 0 0 - - - 12;
#X obj 1048 1122 hsl 128 17 0 400 0 0 empty empty Freq\ Shift -2 -8 0 10 #ffffff #000000 #000000 0 1;
#X obj 665 1477 hip~ 40;
#X obj 761 1477 hip~ 40;
#X obj 896 821 hsl 128 17 0 2 0 0 empty empty Feedback\ Level\ 2 -2 -8 0 10 #ffffff #000000 #000000 0 1;
#X floatatom 893 852 5 0 0 0 - - - 16;
#X obj 866 884 *~;
#X obj 1415 436 scale 0 1 0 2;
#X obj 1415 994 scale 0 1 200000 0;
#X obj 1415 529 scale 0 1 0 1;
#X obj 1415 808 scale 0 1 0 100;
#X msg 728 419 stop;
#X obj 692 296 osc~ 440;
#X obj 692 349 *~;
#X obj 741 367 hsl 128 17 0 2 0 0 empty empty Gain -2 -8 0 10 #ffffff #000000 #000000 0 1;
#X obj 665 1698 meter2~;
#X floatatom 729 1855 7 0 0 0 - - - 8;
#X obj 1415 250 scale 0 1 0 2;
#X obj 1415 622 scale 0 1 -400 400;
#X obj 1415 715 scale 0 1 -500 500;
#X obj 1231 1517 clip~ -0.15 0.15;
#X obj 1045 1517 clip~ -0.15 0.15;
#X obj 761 1517 clip~ -0.15 0.15;
#X obj 665 1517 clip~ -0.15 0.15;
#X floatatom 754 213 5 0 0 0 - - - 12;
#X obj 1415 901 scale 0 1 -1 1;
#X obj 974 300 scale 0 1 0 2;
#X obj 1579 225 r MOD3_fx1_1;
#X obj 1579 410 r MOD3_fx1_3;
#X obj 1579 317 r MOD3_fx1_2;
#X obj 1579 498 r MOD3_fx1_4;
#X obj 1579 596 r MOD3_fx1_5;
#X obj 1418 782 hsl 128 17 0 1 0 0 empty empty empty -2 -8 0 10 #96ffff #000000 #000000 0 1;
#X obj 1418 875 hsl 128 17 0 1 0 0 empty empty empty -2 -8 0 10 #96ffff #000000 #000000 0 1;
#X obj 1418 968 hsl 128 17 0 1 0 0 empty empty empty -2 -8 0 10 #96ffff #000000 #000000 0 1;
#X obj 1579 689 r MOD3_fx1_6;
#X obj 1579 782 r MOD3_fx1_7;
#X obj 1579 870 r MOD3_fx1_8;
#X obj 1579 968 r MOD3_fx1_9;
#X connect 5 0 3 0;
#X connect 6 0 3 0;
#X connect 8 0 7 0;
#X connect 9 0 10 0;
#X connect 10 0 7 0;
#X connect 14 0 7 0;
#X connect 15 0 21 0;
#X connect 16 0 72 0;
#X connect 17 0 74 0;
#X connect 18 0 83 0;
#X connect 19 0 84 0;
#X connect 20 0 82 0;
#X connect 21 0 28 0;
#X connect 23 0 25 0;
#X connect 23 1 24 0;
#X connect 24 0 23 0;
#X connect 25 0 41 0;
#X connect 26 0 38 0;
#X connect 27 0 35 0;
#X connect 28 0 32 0;
#X connect 29 0 33 0;
#X connect 30 0 34 0;
#X connect 31 0 43 0;
#X connect 31 0 59 0;
#X connect 31 0 41 0;
#X connect 32 0 42 0;
#X connect 33 0 31 1;
#X connect 34 0 26 1;
#X connect 35 0 25 1;
#X connect 36 0 86 0;
#X connect 37 0 85 0;
#X connect 38 0 52 0;
#X connect 38 1 53 0;
#X connect 39 0 40 0;
#X connect 40 0 38 1;
#X connect 42 0 31 0;
#X connect 43 0 44 0;
#X connect 44 0 64 0;
#X connect 45 0 46 0;
#X connect 46 0 43 1;
#X connect 47 0 48 0;
#X connect 48 0 44 1;
#X connect 49 0 45 0;
#X connect 50 0 47 0;
#X connect 51 0 54 0;
#X connect 52 0 36 0;
#X connect 53 0 37 0;
#X connect 54 0 68 0;
#X connect 55 0 67 0;
#X connect 56 0 51 0;
#X connect 56 0 55 0;
#X connect 57 0 56 1;
#X connect 58 0 51 1;
#X connect 59 0 56 0;
#X connect 60 0 61 0;
#X connect 61 0 59 1;
#X connect 62 0 58 0;
#X connect 63 0 57 0;
#X connect 64 0 26 0;
#X connect 64 0 71 0;
#X connect 64 1 38 0;
#X connect 65 0 64 1;
#X connect 66 0 65 0;
#X connect 67 0 88 0;
#X connect 68 0 87 0;
#X connect 69 0 70 0;
#X connect 70 0 71 1;
#X connect 71 0 41 0;
#X connect 72 0 29 0;
#X connect 72 0 69 0;
#X connect 73 0 45 0;
#X connect 74 0 60 0;
#X connect 75 0 62 0;
#X connect 76 0 23 0;
#X connect 77 0 78 0;
#X connect 78 0 25 0;
#X connect 79 0 78 1;
#X connect 80 0 1 0;
#X connect 80 1 2 0;
#X connect 80 2 81 0;
#X connect 82 0 27 0;
#X connect 83 0 63 0;
#X connect 84 0 66 0;
#X connect 85 0 80 1;
#X connect 86 0 80 0;
#X connect 87 0 80 1;
#X connect 88 0 80 0;
#X connect 89 0 77 0;
#X connect 90 0 39 0;
#X connect 91 0 79 0;
#X connect 92 0 20 0;
#X connect 93 0 16 0;
#X connect 94 0 15 0;
#X connect 95 0 17 0;
#X connect 96 0 18 0;
#X connect 97 0 75 0;
#X connect 98 0 90 0;
#X connect 99 0 73 0;
#X connect 100 0 19 0;
#X connect 101 0 97 0;
#X connect 102 0 98 0;
#X connect 103 0 99 0;
#X restore 133 147 pd MOD3_fx1;
#N canvas 733 172 450 300 MOD3_fx2 0;
#X obj 339 449 inlet~;
#X obj 427 1559 outlet~;
#X obj 529 1559 outlet~;
#X obj 426 1386 delay~;
#X floatatom 471 1327 5 0 0 0 - - - 12;
#X obj 630 965 pitch.shift~;
#X floatatom 656 907 5 0 0 0 - - - 12;
#X floatatom 682 854 5 0 0 0 - - - 12;
#X obj 715 965 pitch.shift~;
#X obj 865 965 pitch.shift~;
#X floatatom 891 907 5 0 0 0 - - - 12;
#X floatatom 917 854 5 0 0 0 - - - 12;
#X obj 950 965 pitch.shift~;
#X obj 383 965 pitch.shift~;
#X floatatom 409 907 5 0 0 0 - - - 12;
#X floatatom 435 854 5 0 0 0 - - - 12;
#X obj 468 965 pitch.shift~;
#X obj 630 1249 *~ 0.8;
#X obj 715 1249 *~ 0.8;
#X obj 865 1249 *~ 0.6;
#X obj 950 1249 *~ 0.6;
#X obj 383 1249 *~ 0.8;
#X obj 468 1249 *~ 0.8;
#X floatatom 406 1198 5 0 1 0 - - - 12;
#X floatatom 491 1198 5 0 1 0 - - - 12;
#X floatatom 653 1198 5 0 1 0 - - - 12;
#X floatatom 738 1198 5 0 1 0 - - - 12;
#X floatatom 888 1198 5 0 1 0 - - - 12;
#X floatatom 973 1198 5 0 1 0 - - - 12;
#X obj 404 1097 loadbang;
#X msg 406 1145 1;
#X msg 653 1135 0.8;
#X msg 888 1135 0.6;
#X obj 809 579 loadbang;
#X msg 409 783 -2400;
#X msg 656 776 1200;
#X msg 891 776 2400;
#X msg 951 774 9;
#X msg 709 777 75;
#X msg 478 783 75;
#X obj 520 907 + 1000;
#X obj 767 907 + 2000;
#X obj 1002 907 + 4000;
#X obj 227 887 scale 0 1 0 1000;
#X obj 263 856 scale 0 1 0 2000;
#X obj 299 815 scale 0 1 0 4000;
#X floatatom 1069 841 5 0 0 0 - - - 12;
#X msg 1082 805 2;
#X msg 1120 798 3000;
#X obj 209 1269 scale 0 1 0 1000;
#X obj 29 759 r MOD1_fx2_1;
#X obj 49 829 r MOD1_fx2_2;
#X obj 79 1169 r MOD1_fx2_3;
#X connect 0 0 13 0;
#X connect 0 0 16 0;
#X connect 0 0 12 0;
#X connect 0 0 9 0;
#X connect 0 0 8 0;
#X connect 0 0 5 0;
#X connect 3 0 1 0;
#X connect 4 0 3 1;
#X connect 5 0 17 0;
#X connect 6 0 8 1;
#X connect 6 0 5 1;
#X connect 7 0 41 0;
#X connect 7 0 5 2;
#X connect 8 0 18 0;
#X connect 9 0 19 0;
#X connect 10 0 12 1;
#X connect 10 0 9 1;
#X connect 11 0 42 0;
#X connect 11 0 9 2;
#X connect 12 0 20 0;
#X connect 13 0 21 0;
#X connect 14 0 13 1;
#X connect 14 0 16 1;
#X connect 15 0 40 0;
#X connect 15 0 13 2;
#X connect 16 0 22 0;
#X connect 17 0 3 0;
#X connect 18 0 2 0;
#X connect 19 0 3 0;
#X connect 20 0 2 0;
#X connect 21 0 3 0;
#X connect 22 0 2 0;
#X connect 23 0 21 1;
#X connect 24 0 22 1;
#X connect 25 0 17 1;
#X connect 26 0 18 1;
#X connect 27 0 19 1;
#X connect 28 0 20 1;
#X connect 29 0 30 0;
#X connect 29 0 31 0;
#X connect 29 0 32 0;
#X connect 30 0 24 0;
#X connect 30 0 23 0;
#X connect 31 0 26 0;
#X connect 31 0 25 0;
#X connect 32 0 28 0;
#X connect 32 0 27 0;
#X connect 33 0 35 0;
#X connect 33 0 36 0;
#X connect 33 0 34 0;
#X connect 33 0 38 0;
#X connect 33 0 37 0;
#X connect 33 0 39 0;
#X connect 33 0 47 0;
#X connect 34 0 14 0;
#X connect 35 0 6 0;
#X connect 36 0 10 0;
#X connect 37 0 11 0;
#X connect 38 0 7 0;
#X connect 39 0 15 0;
#X connect 40 0 16 2;
#X connect 41 0 8 2;
#X connect 42 0 12 2;
#X connect 43 0 15 0;
#X connect 44 0 7 0;
#X connect 45 0 11 0;
#X connect 46 0 42 1;
#X connect 46 0 41 1;
#X connect 46 0 40 1;
#X connect 47 0 42 1;
#X connect 47 0 41 1;
#X connect 47 0 40 1;
#X connect 48 0 42 1;
#X connect 48 0 41 1;
#X connect 48 0 40 1;
#X connect 49 0 4 0;
#X connect 50 0 45 0;
#X connect 50 0 44 0;
#X connect 51 0 43 0;
#X connect 52 0 49 0;
#X restore 286 149 pd MOD3_fx2;
#N canvas 733 172 450 300 MOD3_fx3 0;
#X obj 133 671 inlet~;
#X obj 135 1221 outlet~;
#X obj 233 1221 outlet~;
#X obj 133 787 lowpass~;
#X obj 133 901 highpass~;
#X obj 133 994 overdrive~;
#X obj 133 1084 pan2~;
#X floatatom 219 968 7 -10 10 0 - - - 0;
#X obj 219 1019 line~;
#X msg 219 994 \$1 20;
#X obj 349 1039 scale 0 1 -0.7 0.7;
#X obj 249 850 scale 0 1 0 15000;
#X obj 249 689 scale 0 1 20000 5000;
#X obj 219 942 scale 0 1 1 10;
#X obj 249 620 r MOD1_fx3_1;
#X obj 249 799 r MOD1_fx3_2;
#X obj 349 892 r MOD1_fx3_3;
#X connect 0 0 3 0;
#X connect 3 0 4 0;
#X connect 4 0 5 0;
#X connect 5 0 6 0;
#X connect 6 0 1 0;
#X connect 6 1 2 0;
#X connect 7 0 9 0;
#X connect 8 0 5 1;
#X connect 9 0 8 0;
#X connect 10 0 6 1;
#X connect 11 0 4 1;
#X connect 12 0 3 1;
#X connect 13 0 7 0;
#X connect 14 0 12 0;
#X connect 15 0 11 0;
#X connect 16 0 13 0;
#X connect 16 0 10 0;
#X restore 431 149 pd MOD3_fx3;
#X obj 601 -210 r MOD3_next_param;
#X obj 567 70 s MOD3_param_count;
#X obj 1025 -210 r MOD3_add_data;
#X obj 1153 -210 r MOD3_learn;
#X obj 1330 -210 r MOD3_sel_pred;
#X obj 1520 545 s MOD3_fx1_1;
#X obj 1520 583 s MOD3_fx1_2;
#X obj 1520 621 s MOD3_fx1_3;
#N canvas 733 172 450 300 MOD3_flucoma 0;
#X obj 795 1194 vsl 19 162 0 1 0 0 empty empty empty 0 -9 0 12 #fcfcfc #000000 #000000 0 1;
#X obj 795 1364 pack f 0;
#X obj 859 1194 vsl 19 162 0 1 0 0 empty empty empty 0 -9 0 12 #fcfcfc #000000 #000000 0 1;
#X obj 859 1364 pack f 1;
#X obj 1117 1365 f, f 7;
#X obj 1117 1341 bng 19 250 50 0 empty empty empty 0 -10 0 12 #fcfcfc #000000 #000000;
#X msg 1494 1405 print;
#X msg 1544 1405 clear;
#X obj 737 1344 vradio 19 1 0 2 empty empty empty 0 -10 0 12 #fcfcfc #000000 #000000 0;
#X obj 736 1703 unpack f f f f f f f f f f, f 28;
#X text 619 1343 selecting points;
#X text 612 1362 predicting points;
#X obj 736 1631 t b;
#X msg 1199 1687 \; pd dsp \$1;
#X obj 1199 1660 tgl 19 0 empty empty empty 0 -10 0 12 #fcfcfc #000000 #000000 0 1;
#X obj 1222 1663 cnv 15 15 15 empty empty empty 20 12 0 14 #c6ffc7 #404040 0;
#X text 1222 1661 1) turn audio on;
#X obj 987 1174 cnv 15 15 15 empty empty empty 20 12 0 14 #c6ffc7 #404040 0;
#X text 987 1172 2) set a point on both sliders;
#X obj 1149 1326 cnv 15 15 15 empty empty empty 20 12 0 14 #c6ffc7 #404040 0;
#X obj 1257 1512 cnv 15 15 15 empty empty empty 20 12 0 14 #c6ffc7 #404040 0;
#X obj 622 1312 cnv 15 15 15 empty empty empty 20 12 0 14 #c6ffc7 #404040 0;
#X text 622 1310 6) switch to predicting points, f 18;
#X obj 987 1233 cnv 15 15 15 empty empty empty 20 12 0 14 #c6ffc7 #404040 0;
#X text 987 1231 7) play around with the slider positions to morph between synth presets, f 22;
#X obj 1201 1200 cnv 19 150 30 empty empty Regressor 19 15 0 20 #00faff #ffffff 0;
#X obj 1186 1365 + 1;
#X text 1149 1324 4) click to add the settings to the datasets. repeat steps 2 to 4 to add more data to the datasets, f 52;
#X text 1257 1511 5) click to teach mlpregressor \, repeat to get as close to zero error as possible (the fit is shown in the console window), f 39;
#X obj 811 1631 list;
#X listbox 811 1655 20 0 0 0 - - - 0;
#X text 958 1654 error;
#X obj 736 1537 fluid.mlpregressor mlp -hiddenlayers 5 -activation 1 -outputactivation 1 -batchsize 1 -maxiter 10000 -learnrate 0.1 -validation 0, f 42;
#X obj 737 1455 spigot;
#X obj 795 1388 t b l;
#X obj 737 1762 outlet;
#X obj 759 1762 outlet;
#X obj 780 1762 outlet;
#X obj 801 1762 outlet;
#X obj 822 1762 outlet;
#X obj 843 1762 outlet;
#X obj 864 1762 outlet;
#X obj 886 1762 outlet;
#X obj 908 1762 outlet;
#X obj 929 1762 outlet;
#N canvas 353 378 783 300 packslider 0;
#X obj 6 55 pack f 0;
#X obj 70 55 pack f 1;
#X obj 133 55 pack f 2;
#X obj 197 55 pack f 3;
#X obj 262 55 pack f 4;
#X obj 324 54 pack f 5;
#X obj 388 54 pack f 6;
#X obj 451 54 pack f 7;
#X obj 515 54 pack f 8;
#X obj 6 102 outlet;
#X obj 7 27 inlet;
#X obj 263 27 inlet;
#X obj 133 29 inlet;
#X obj 196 27 inlet;
#X obj 580 54 pack f 9;
#X obj 70 28 inlet;
#X obj 322 24 inlet;
#X obj 578 24 inlet;
#X obj 448 26 inlet;
#X obj 511 24 inlet;
#X obj 385 25 inlet;
#X connect 0 0 9 0;
#X connect 1 0 9 0;
#X connect 2 0 9 0;
#X connect 3 0 9 0;
#X connect 4 0 9 0;
#X connect 5 0 9 0;
#X connect 6 0 9 0;
#X connect 7 0 9 0;
#X connect 8 0 9 0;
#X connect 10 0 0 0;
#X connect 11 0 4 0;
#X connect 12 0 2 0;
#X connect 13 0 3 0;
#X connect 14 0 9 0;
#X connect 15 0 1 0;
#X connect 16 0 5 0;
#X connect 17 0 14 0;
#X connect 18 0 7 0;
#X connect 19 0 8 0;
#X connect 20 0 6 0;
#X restore 766 1953 pd packslider;
#X f 18;
#X obj 745 1895 inlet;
#X obj 767 1895 inlet;
#X obj 788 1895 inlet;
#X obj 809 1895 inlet;
#X obj 830 1895 inlet;
#X obj 851 1895 inlet;
#X obj 872 1895 inlet;
#X obj 894 1895 inlet;
#X obj 916 1895 inlet;
#X obj 937 1895 inlet;
#X obj 457 1132 inlet;
#X obj 519 1132 inlet;
#X obj 1105 1283 inlet;
#X obj 1199 1470 inlet;
#X obj 1257 1102 inlet;
#X obj 991 1679 outlet;
#X obj 1522 1161 inlet;
#X obj 736 1603 route predictpoint fit;
#X obj 840 1413 tabwrite xybuf-MOD3;
#X obj 840 1444 array define xybuf-MOD3 2;
#X obj 736 1679 array get paramsbuf-MOD3;
#X obj 766 1976 tabwrite paramsbuf-MOD3;
#X obj 766 1997 array define paramsbuf-MOD3 10;
#X msg 1118 1405 addpoint \$1 xybuf-MOD3;
#X obj 1118 1429 fluid.dataset xydata-MOD3;
#X msg 1292 1405 addpoint \$1 paramsbuf-MOD3;
#X obj 1292 1429 fluid.dataset paramsdata-MOD3;
#X msg 1018 1512 fit xydata-MOD3 paramsdata-MOD3;
#X msg 736 1512 predictpoint xybuf-MOD3 paramsbuf-MOD3;
#X connect 0 0 1 0;
#X connect 1 0 34 0;
#X connect 2 0 3 0;
#X connect 3 0 34 0;
#X connect 4 0 69 0;
#X connect 4 0 26 0;
#X connect 4 0 71 0;
#X connect 5 0 4 0;
#X connect 6 0 70 0;
#X connect 6 0 72 0;
#X connect 7 0 70 0;
#X connect 7 0 72 0;
#X connect 8 0 33 1;
#X connect 9 0 35 0;
#X connect 9 1 36 0;
#X connect 9 2 37 0;
#X connect 9 3 38 0;
#X connect 9 4 39 0;
#X connect 9 5 40 0;
#X connect 9 6 41 0;
#X connect 9 7 42 0;
#X connect 9 8 43 0;
#X connect 9 9 44 0;
#X connect 12 0 66 0;
#X connect 14 0 13 0;
#X connect 26 0 4 1;
#X connect 29 0 30 0;
#X connect 30 0 61 0;
#X connect 32 0 63 0;
#X connect 33 0 74 0;
#X connect 34 0 33 0;
#X connect 34 1 64 0;
#X connect 45 0 67 0;
#X connect 46 0 45 0;
#X connect 47 0 45 1;
#X connect 48 0 45 2;
#X connect 49 0 45 3;
#X connect 50 0 45 4;
#X connect 51 0 45 5;
#X connect 52 0 45 6;
#X connect 53 0 45 7;
#X connect 54 0 45 8;
#X connect 55 0 45 9;
#X connect 56 0 0 0;
#X connect 57 0 2 0;
#X connect 58 0 5 0;
#X connect 59 0 73 0;
#X connect 60 0 8 0;
#X connect 62 0 7 0;
#X connect 63 0 12 0;
#X connect 63 1 29 0;
#X connect 66 0 9 0;
#X connect 69 0 70 0;
#X connect 71 0 72 0;
#X connect 73 0 32 0;
#X connect 74 0 32 0;
#X restore 805 445 pd MOD3_flucoma;
#X obj 601 302 hradio 15 1 0 8 empty \$0-radio Load\ preset 0 -8 0 10 #aaaaaa #000000 #000000 0;
#N canvas 733 172 450 300 presets 0;
#N canvas 356 221 568 423 shift 0;
#X msg 137 214 save;
#X msg 218 214 load;
#X obj 106 264 else/insert;
#X obj 218 293 s \$0-radio;
#X obj 175 95 keyname;
#X obj 214 117 select Shift_L;
#X msg 214 139 1;
#X msg 295 138 0;
#X obj 199 166 &&;
#X obj 199 188 sel 1 0;
#X obj 106 35 inlet;
#X obj 106 344 outlet;
#X msg 218 242 color #aaaaaa #000000 #000000 \, label Load\ preset;
#X msg 227 270 color #ff5050 #000000 #000000 \, label Save\ preset;
#X connect 0 0 2 1;
#X connect 0 0 13 0;
#X connect 1 0 2 1;
#X connect 1 0 12 0;
#X connect 2 0 11 0;
#X connect 4 0 8 0;
#X connect 4 1 5 0;
#X connect 5 0 6 0;
#X connect 5 1 7 0;
#X connect 6 0 8 1;
#X connect 7 0 8 1;
#X connect 8 0 9 0;
#X connect 9 0 0 0;
#X connect 9 1 1 0;
#X connect 10 0 2 0;
#X connect 12 0 3 0;
#X connect 13 0 3 0;
#X restore -52 572 pd shift;
#X obj -52 611 else/display;
#X msg -97 614 show;
#X obj -52 544 inlet;
#X obj -52 649 else/presets \\\$0-MOD3_1 \\\$0-MOD3_2 \\\$0-MOD3_3 \\\$0-MOD3_4 \\\$0-MOD3_5 \\\$0-MOD3_6 \\\$0-MOD3_7 \\\$0-MOD3_8 \\\$0-MOD3_9 \\\$0-MOD3_10\\\$0-MOD3_11 \\\$0-MOD3_12 \\\$0-MOD3_13 \\\$0-MOD3_14 \\\$0-MOD3_15 \\\$0-MOD3_16 \\\$0-MOD3_17 \\\$0-MOD3_18 \\\$0-MOD3_19 \\\$0-MOD3_20;
#A saved -empty- \; -empty- \; -empty- \; -empty- \; -empty- \; -empty- \; -empty- \; -empty- \; -empty- \; -empty- \; -empty- \; -empty- \; -empty- \; -empty- \; -empty- \; -empty- \; -empty- \; -empty- \; -empty- \; -empty- \; -empty- \; -empty- \; -empty- \; -empty- \; -empty- \; -empty- \; -empty- \; -empty- \; -empty- \; -empty- \; -empty- \; -empty- \; -empty- \; -empty- \; -empty- \; -empty- \; -empty- \; -empty- \; -empty- \; -empty- \; -empty- \; -empty- \; -empty- \; -empty- \; -empty- \; -empty- \; -empty- \; -empty- \; -empty- \; -empty- \; -empty- \; -empty- \; -empty- \; -empty- \; -empty- \; -empty- \; -empty- \; -empty- \; -empty- \; -empty- \; -empty- \; -empty- \; -empty- \; -empty- \;;
#X connect 0 0 1 0;
#X connect 1 0 4 0;
#X connect 2 0 4 0;
#X connect 3 0 0 0;
#X restore 601 331 pd presets;
#N canvas 0 22 450 300 random_generator 0;
#X obj 351 509 random 100;
#X obj 351 464 bng 25 250 50 0 empty empty empty 0 -10 0 10 #ffffff #000000 #000000;
#X obj 351 538 / 100;
#X obj 351 564 outlet;
#X obj 441 509 random 100;
#X obj 441 538 / 100;
#X obj 441 564 outlet;
#X obj 531 509 random 100;
#X obj 531 538 / 100;
#X obj 531 564 outlet;
#X obj 621 509 random 100;
#X obj 621 538 / 100;
#X obj 621 564 outlet;
#X obj 711 509 random 100;
#X obj 711 538 / 100;
#X obj 711 564 outlet;
#X obj 799 509 random 100;
#X obj 799 538 / 100;
#X obj 799 564 outlet;
#X obj 889 509 random 100;
#X obj 889 538 / 100;
#X obj 889 564 outlet;
#X obj 979 509 random 100;
#X obj 979 538 / 100;
#X obj 979 564 outlet;
#X obj 1069 509 random 100;
#X obj 1069 538 / 100;
#X obj 1069 564 outlet;
#X obj 1159 509 random 100;
#X obj 1159 538 / 100;
#X obj 1159 564 outlet;
#X obj 386 594 random 100;
#X obj 386 623 / 100;
#X obj 386 649 outlet;
#X obj 476 594 random 100;
#X obj 476 623 / 100;
#X obj 476 649 outlet;
#X obj 566 594 random 100;
#X obj 566 623 / 100;
#X obj 566 649 outlet;
#X obj 656 594 random 100;
#X obj 656 623 / 100;
#X obj 656 649 outlet;
#X obj 746 594 random 100;
#X obj 746 623 / 100;
#X obj 746 649 outlet;
#X obj 834 594 random 100;
#X obj 834 623 / 100;
#X obj 834 649 outlet;
#X obj 924 594 random 100;
#X obj 924 623 / 100;
#X obj 924 649 outlet;
#X obj 1014 594 random 100;
#X obj 1014 623 / 100;
#X obj 1014 649 outlet;
#X obj 1104 594 random 100;
#X obj 1104 623 / 100;
#X obj 1104 649 outlet;
#X obj 1194 594 random 100;
#X obj 1194 623 / 100;
#X obj 1194 649 outlet;
#X obj 351 428 inlet;
#X connect 0 0 2 0;
#X connect 1 0 0 0;
#X connect 1 0 4 0;
#X connect 1 0 31 0;
#X connect 1 0 34 0;
#X connect 1 0 37 0;
#X connect 1 0 40 0;
#X connect 1 0 43 0;
#X connect 1 0 46 0;
#X connect 1 0 49 0;
#X connect 1 0 52 0;
#X connect 1 0 55 0;
#X connect 1 0 58 0;
#X connect 1 0 28 0;
#X connect 1 0 25 0;
#X connect 1 0 22 0;
#X connect 1 0 19 0;
#X connect 1 0 16 0;
#X connect 1 0 13 0;
#X connect 1 0 10 0;
#X connect 1 0 7 0;
#X connect 2 0 3 0;
#X connect 4 0 5 0;
#X connect 5 0 6 0;
#X connect 7 0 8 0;
#X connect 8 0 9 0;
#X connect 10 0 11 0;
#X connect 11 0 12 0;
#X connect 13 0 14 0;
#X connect 14 0 15 0;
#X connect 16 0 17 0;
#X connect 17 0 18 0;
#X connect 19 0 20 0;
#X connect 20 0 21 0;
#X connect 22 0 23 0;
#X connect 23 0 24 0;
#X connect 25 0 26 0;
#X connect 26 0 27 0;
#X connect 28 0 29 0;
#X connect 29 0 30 0;
#X connect 31 0 32 0;
#X connect 32 0 33 0;
#X connect 34 0 35 0;
#X connect 35 0 36 0;
#X connect 37 0 38 0;
#X connect 38 0 39 0;
#X connect 40 0 41 0;
#X connect 41 0 42 0;
#X connect 43 0 44 0;
#X connect 44 0 45 0;
#X connect 46 0 47 0;
#X connect 47 0 48 0;
#X connect 49 0 50 0;
#X connect 50 0 51 0;
#X connect 52 0 53 0;
#X connect 53 0 54 0;
#X connect 55 0 56 0;
#X connect 56 0 57 0;
#X connect 58 0 59 0;
#X connect 59 0 60 0;
#X connect 61 0 1 0;
#X restore 727 859 pd random_generator;
#X obj 727 821 bng 25 250 50 0 empty empty empty 0 -10 0 10 #ffffff #000000 #000000;
#X text 672 585 to do: \; more flucoma outputs \; naming of sends;
#X obj 1520 659 s MOD3_fx1_4;
#X obj 1520 697 s MOD3_fx1_5;
#X obj 1520 735 s MOD3_fx1_6;
#X obj 1520 773 s MOD3_fx1_7;
#X obj 1520 811 s MOD3_fx1_8;
#X obj 1520 849 s MOD3_fx1_9;
#X obj 601 -71 bng 25 250 50 0 empty empty empty 0 -10 0 10 #ffffff #000000 #000000;
#X obj 510 497 r \$0-MOD3_1;
#X obj 610 497 r \$0-MOD3_2;
#X obj 715 497 r \$0-MOD3_3;
#X obj 819 497 r \$0-MOD3_4;
#X obj 924 497 r \$0-MOD3_5;
#X obj 1027 497 r \$0-MOD3_6;
#X obj 1132 497 r \$0-MOD3_7;
#X obj 1235 497 r \$0-MOD3_8;
#X obj 1340 497 r \$0-MOD3_9;
#X obj 1445 497 r \$0-MOD3_10;
#X obj 1217 362 s MOD3_error;
#X connect 0 0 40 0;
#X connect 0 0 42 0;
#X connect 0 0 41 0;
#X connect 3 0 21 0;
#X connect 4 0 20 0;
#X connect 7 0 36 0;
#X connect 7 0 69 0;
#X connect 7 0 91 14;
#X connect 8 0 91 13;
#X connect 9 0 91 12;
#X connect 20 0 91 0;
#X connect 21 0 91 1;
#X connect 22 0 114 0;
#X connect 25 0 24 0;
#X connect 29 0 84 0;
#X connect 29 0 92 0;
#X connect 30 0 75 3;
#X connect 31 0 30 0;
#X connect 33 0 34 0;
#X connect 34 0 7 0;
#X connect 36 0 30 0;
#X connect 37 0 7 0;
#X connect 38 0 39 0;
#X connect 39 0 37 0;
#X connect 40 0 80 0;
#X connect 41 0 81 0;
#X connect 42 0 82 0;
#X connect 43 0 51 0;
#X connect 43 0 52 0;
#X connect 43 0 54 0;
#X connect 43 0 40 0;
#X connect 43 1 50 0;
#X connect 43 1 53 0;
#X connect 43 1 54 0;
#X connect 43 2 50 0;
#X connect 43 2 52 0;
#X connect 43 2 55 0;
#X connect 44 0 40 1;
#X connect 45 0 44 0;
#X connect 46 0 41 1;
#X connect 47 0 46 0;
#X connect 48 0 42 1;
#X connect 49 0 48 0;
#X connect 50 0 45 0;
#X connect 51 0 45 0;
#X connect 52 0 47 0;
#X connect 53 0 47 0;
#X connect 54 0 49 0;
#X connect 55 0 49 0;
#X connect 56 0 88 0;
#X connect 56 0 91 2;
#X connect 57 0 89 0;
#X connect 57 0 91 3;
#X connect 58 0 90 0;
#X connect 58 0 91 4;
#X connect 59 0 97 0;
#X connect 59 0 91 5;
#X connect 60 0 98 0;
#X connect 60 0 91 6;
#X connect 61 0 99 0;
#X connect 61 0 91 7;
#X connect 62 0 100 0;
#X connect 62 0 91 8;
#X connect 63 0 101 0;
#X connect 63 0 91 9;
#X connect 64 0 102 0;
#X connect 64 0 91 10;
#X connect 65 0 91 11;
#X connect 66 0 56 0;
#X connect 66 0 63 0;
#X connect 66 0 62 0;
#X connect 66 0 61 0;
#X connect 66 0 60 0;
#X connect 66 0 59 0;
#X connect 66 0 58 0;
#X connect 66 0 64 0;
#X connect 66 0 57 0;
#X connect 66 0 65 0;
#X connect 67 0 56 0;
#X connect 67 0 63 0;
#X connect 67 0 62 0;
#X connect 67 0 61 0;
#X connect 67 0 60 0;
#X connect 67 0 59 0;
#X connect 67 0 58 0;
#X connect 67 0 64 0;
#X connect 67 0 57 0;
#X connect 67 0 65 0;
#X connect 68 0 56 0;
#X connect 68 0 63 0;
#X connect 68 0 62 0;
#X connect 68 0 61 0;
#X connect 68 0 60 0;
#X connect 68 0 59 0;
#X connect 68 0 58 0;
#X connect 68 0 64 0;
#X connect 68 0 57 0;
#X connect 68 0 65 0;
#X connect 69 0 91 15;
#X connect 70 0 72 0;
#X connect 71 0 72 0;
#X connect 72 0 77 0;
#X connect 74 0 43 0;
#X connect 75 0 29 0;
#X connect 78 0 73 0;
#X connect 79 0 74 0;
#X connect 80 0 1 0;
#X connect 80 1 2 0;
#X connect 81 0 1 0;
#X connect 81 1 2 0;
#X connect 82 0 1 0;
#X connect 82 1 2 0;
#X connect 83 0 103 0;
#X connect 85 0 9 0;
#X connect 86 0 8 0;
#X connect 87 0 37 0;
#X connect 91 0 56 0;
#X connect 91 1 57 0;
#X connect 91 2 58 0;
#X connect 91 3 59 0;
#X connect 91 4 60 0;
#X connect 91 5 61 0;
#X connect 91 6 62 0;
#X connect 91 7 63 0;
#X connect 91 8 64 0;
#X connect 91 9 65 0;
#X connect 91 10 22 0;
#X connect 92 0 93 0;
#X connect 94 0 56 0;
#X connect 94 1 57 0;
#X connect 94 2 58 0;
#X connect 94 3 59 0;
#X connect 94 4 60 0;
#X connect 94 5 61 0;
#X connect 94 6 62 0;
#X connect 94 7 63 0;
#X connect 94 8 64 0;
#X connect 94 9 65 0;
#X connect 95 0 94 0;
#X connect 103 0 75 0;
#X connect 104 0 56 0;
#X connect 105 0 57 0;
#X connect 106 0 58 0;
#X connect 107 0 59 0;
#X connect 108 0 60 0;
#X connect 109 0 61 0;
#X connect 110 0 62 0;
#X connect 111 0 63 0;
#X connect 112 0 64 0;
#X connect 113 0 65 0;
#X restore 149 899 pd MODULE3;
#X connect 10 0 14 0;
#X connect 10 1 15 0;
#X connect 14 0 18 0;
#X connect 15 0 19 0;
#X connect 18 0 42 0;
#X connect 21 0 20 0;
#X connect 22 0 20 0;
#X connect 27 0 47 0;
#X connect 28 0 48 0;
#X connect 29 0 49 0;
#X connect 30 0 50 0;
#X connect 31 0 55 0;
#X connect 32 0 56 0;
#X connect 33 0 57 0;
#X connect 39 0 41 0;
#X connect 40 0 39 0;
#X connect 41 0 194 0;
#X connect 42 0 45 0;
#X connect 43 0 44 0;
#X connect 43 0 16 0;
#X connect 45 0 43 0;
#X connect 46 0 58 0;
#X connect 67 0 70 1;
#X connect 69 0 70 0;
#X connect 69 0 71 0;
#X connect 69 0 73 0;
#X connect 69 0 72 0;
#X connect 70 0 108 0;
#X connect 70 1 112 0;
#X connect 70 2 113 0;
#X connect 71 0 109 0;
#X connect 71 1 167 0;
#X connect 71 2 172 0;
#X connect 72 0 110 0;
#X connect 72 1 168 0;
#X connect 72 2 171 0;
#X connect 73 0 111 0;
#X connect 73 1 169 0;
#X connect 73 2 170 0;
#X connect 74 0 71 1;
#X connect 75 0 72 1;
#X connect 76 0 73 1;
#X connect 77 0 132 0;
#X connect 78 0 136 0;
#X connect 79 0 140 0;
#X connect 80 0 144 0;
#X connect 82 0 87 1;
#X connect 83 0 211 0;
#X connect 84 0 213 0;
#X connect 85 0 95 0;
#X connect 86 0 89 0;
#X connect 87 0 88 0;
#X connect 87 1 215 0;
#X connect 89 0 87 0;
#X connect 90 0 68 0;
#X connect 91 0 23 0;
#X connect 92 0 68 0;
#X connect 93 0 25 0;
#X connect 94 0 68 0;
#X connect 96 0 21 0;
#X connect 97 0 22 0;
#X connect 108 0 173 0;
#X connect 109 0 173 0;
#X connect 110 0 173 0;
#X connect 111 0 173 0;
#X connect 112 0 165 0;
#X connect 112 0 217 0;
#X connect 113 0 217 0;
#X connect 113 0 166 0;
#X connect 114 0 34 0;
#X connect 115 0 34 0;
#X connect 116 0 114 0;
#X connect 117 0 115 0;
#X connect 118 0 35 0;
#X connect 119 0 35 0;
#X connect 120 0 118 0;
#X connect 121 0 119 0;
#X connect 122 0 36 0;
#X connect 123 0 36 0;
#X connect 124 0 122 0;
#X connect 125 0 123 0;
#X connect 126 0 37 0;
#X connect 127 0 37 0;
#X connect 128 0 126 0;
#X connect 129 0 127 0;
#X connect 131 0 149 0;
#X connect 131 0 180 0;
#X connect 132 0 131 0;
#X connect 132 1 131 1;
#X connect 133 0 131 2;
#X connect 134 0 131 4;
#X connect 135 0 148 0;
#X connect 135 0 182 0;
#X connect 136 0 135 0;
#X connect 136 1 135 1;
#X connect 137 0 135 2;
#X connect 138 0 135 4;
#X connect 139 0 147 0;
#X connect 139 0 183 0;
#X connect 140 0 139 0;
#X connect 140 1 139 1;
#X connect 141 0 139 2;
#X connect 142 0 139 4;
#X connect 143 0 155 0;
#X connect 144 0 143 0;
#X connect 144 1 143 1;
#X connect 145 0 143 2;
#X connect 146 0 143 4;
#X connect 150 0 131 3;
#X connect 151 0 135 3;
#X connect 152 0 139 3;
#X connect 153 0 143 3;
#X connect 154 0 81 0;
#X connect 155 0 154 0;
#X connect 156 0 133 0;
#X connect 156 0 153 0;
#X connect 156 0 145 0;
#X connect 156 0 141 0;
#X connect 156 0 137 0;
#X connect 174 0 90 0;
#X connect 175 0 92 0;
#X connect 176 0 94 0;
#X connect 177 0 196 0;
#X connect 178 0 197 0;
#X connect 179 0 198 0;
#X connect 181 0 199 0;
#X connect 184 0 200 0;
#X connect 185 0 26 0;
#X connect 186 0 204 0;
#X connect 187 0 205 0;
#X connect 188 0 100 0;
#X connect 189 0 101 0;
#X connect 190 0 102 0;
#X connect 191 0 103 0;
#X connect 192 0 206 0;
#X connect 193 0 207 0;
#X connect 194 0 195 0;
#X connect 195 0 20 0;
#X connect 195 1 20 1;
#X connect 196 0 150 0;
#X connect 197 0 151 0;
#X connect 198 0 152 0;
#X connect 211 0 209 0;
#X connect 212 0 211 1;
#X connect 213 0 210 0;
#X connect 214 0 213 1;
#X connect 215 0 208 0;
#X connect 216 0 215 1;
#X connect 218 0 24 0;
#X connect 219 0 98 0;
#X connect 233 0 116 0;
#X connect 233 1 117 0;
#X connect 233 2 31 0;
#X connect 233 3 120 0;
#X connect 233 4 121 0;
#X connect 233 5 32 0;
#X connect 233 6 124 0;
#X connect 233 7 125 0;
#X connect 233 8 33 0;
#X connect 233 9 128 0;
#X connect 233 10 129 0;
#X connect 233 11 46 0;
#X connect 233 12 27 0;
#X connect 233 13 28 0;
#X connect 233 14 29 0;
#X connect 233 15 30 0;
#X connect 234 0 233 0;
#X connect 235 0 104 0;
#X connect 236 0 105 0;
#X connect 237 0 106 0;
#X connect 238 0 107 0;
